<?xml version="1.0" encoding="utf-8"?>
<!-- Generator: Adobe Illustrator 20.1.0, SVG Export Plug-In . SVG Version: 6.00 Build 0)  -->
<svg version="1.1" id="Layer_1" xmlns="http://www.w3.org/2000/svg" xmlns:xlink="http://www.w3.org/1999/xlink" x="0px" y="0px"
	 viewBox="0 0 237 224.2" style="enable-background:new 0 0 237 224.2;" xml:space="preserve">
<style type="text/css">
	.st0{fill:none;stroke:#A91E22;stroke-width:4;stroke-miterlimit:10;}
	.st1{fill:none;stroke:#EB5344;stroke-width:4;stroke-miterlimit:10;}
	.st2{fill:#AFF9AF;}
	.st3{fill:#8DB2DE;stroke:#8DB2DE;}
	.st4{fill:#231F20;}
	.st5{fill:#513534;stroke:#513534;stroke-width:1.5777;stroke-linecap:round;stroke-linejoin:round;stroke-miterlimit:10;}
	.st6{fill:#513534;stroke:#513534;stroke-width:1.6313;stroke-linecap:round;stroke-linejoin:round;stroke-miterlimit:10;}
	.st7{fill:#513534;stroke:#513534;}
	.st8{fill:#EC5244;}
	.st9{clip-path:url(#SVGID_2_);fill:#EC5244;}
	.st10{fill:none;stroke:#231F20;stroke-width:4;stroke-linecap:round;stroke-miterlimit:10;}
</style>
<circle class="st2" cx="121.1" cy="112.5" r="100.2"/>
<path class="st4" d="M212.1,151.8l-2.8-1.2c-7.8,18.1-20.6,32.5-36,42.4c-15.4,9.9-33.5,15.3-52,15.3c-12.7,0-25.7-2.5-38.1-7.9
	c-18.1-7.8-32.5-20.5-42.4-35.9c-9.9-15.4-15.3-33.5-15.3-52c0-12.7,2.6-25.7,7.9-38.1c7.8-18.1,20.6-32.5,36-42.4
	c15.4-9.9,33.5-15.3,52-15.3c12.7,0,25.6,2.5,38,7.9c18.1,7.8,32.5,20.6,42.4,36c9.9,15.4,15.3,33.5,15.3,52
	c0,12.7-2.5,25.6-7.9,38.1L212.1,151.8l2.8,1.2c5.7-13.2,8.4-26.9,8.4-40.5c0-19.7-5.7-38.9-16.3-55.2
	c-10.5-16.4-25.9-29.9-45.1-38.2c-13.2-5.7-26.9-8.4-40.4-8.4c-19.7,0-38.9,5.7-55.2,16.3C50,37.4,36.5,52.8,28.2,72
	c-5.7,13.2-8.4,27-8.4,40.5c0,19.7,5.7,38.8,16.2,55.2c10.5,16.4,25.9,29.9,45,38.2c13.2,5.7,26.9,8.4,40.5,8.4
	c19.7,0,38.9-5.7,55.2-16.3c16.4-10.5,29.9-25.9,38.2-45.1L212.1,151.8z"/>
<g>
	<defs>
		<path id="SVGID_1_" d="M2962.7,500.5c28.8-2.3,42.5-8.2,40.8-15.5l0.6,0.3c0,0,7.3-6.8,45.1-13c18.6-3,42.2-5.2,67.9-6.5
			c22.4-1.1,61-3.5,96.4-8.5c0,0,0.4,0,0.9-0.1c-2.3,0.5-5.1,0.9-8.4,1.2l6.8-0.6l0.5,0c3.9-0.3,7.1-0.8,9.6-1.5l38.7-5
			c0.9-0.1,1.7-0.2,2.5-0.3l0.1,0l0,0c15-2.2,16.4-6.8,2.2-11c-15.8-4.7-44.8-7.1-65.2-5.4h0l-4.6,0.4l-3.8,0.3l-4.6,0.4l-2.2-0.5
			c-0.8-0.2-2-0.3-3.4-0.3l-14.6-0.1c-0.9,0-1.8-0.1-2.5-0.1l-0.4,0c-0.7-0.1-1.2-0.2-1.5-0.3c-0.4-0.2-0.8-0.4-1.1-0.7
			c0,0-3.8-6.1-37.9-14c-3.2-0.7-0.1-3.5-6.7-4.4c-4.4-0.6-20.7,0.4-26,0.7c-14.9,0.7-23.9,0.9-39.5,2.4c-7.8,0.8-3,2.3,8,3.8
			c3.9,0.5,7.6,1.1,10.3,2.6c0,0,10,4.7,16.3,7.5c1.6,0.7,3.4,1.3,5.4,2c1.5,0.5,3.2,1.4,0.2,2.2l-1.5,0.5c-0.4,0.1-0.6,0.3-0.5,0.4
			c0.1,0.1,0.4,0.2,0.9,0.3c0.9,0.2,1.9,0.3,2.7,0.5c0.1,0,0.2,0.1,0.3,0.1l0.1,0l-0.8,0.2c-1.3,0.3-1.2,0.6,0.2,0.8l5.9,0.9
			c0,0.2-0.6,0.5-1.9,0.6c-8,1.1-12.7,2.6-13.2,2.8c-11,1.1-20.1,2.2-26.8,3.1c-20.5,2.7-45,4.7-71.2,5.5c-39.6,1.2-71.7,0-85.6-0.7
			c-38-5.3-78.8-7.3-109.5-4.9c-51.5,4.2-54.9,19.7-7.7,34.6C2831.2,496,2911.2,504.7,2962.7,500.5"/>
	</defs>
	<clipPath id="SVGID_2_">
		<use xlink:href="#SVGID_1_"  style="overflow:visible;"/>
	</clipPath>
	<polyline class="st9" points="144.7,1803 971,-995.7 963.3,-997.9 137,1800.7 	"/>
	<polyline class="st9" points="182.8,1803 1009.1,-995.7 1001.4,-997.9 175.1,1800.7 	"/>
	<polyline class="st9" points="224.3,1803 1050.6,-995.7 1042.9,-997.9 216.6,1800.7 	"/>
</g>
<path class="st10" d="M48.3,110.6c0,0-0.9-47.7,38.8-58.8"/>
<path class="st10" d="M63,98.5c0,0-2.8-24.5,17.5-28.2"/>
</svg>
