<?xml version="1.0" encoding="utf-8"?>
<!-- Generator: Adobe Illustrator 20.1.0, SVG Export Plug-In . SVG Version: 6.00 Build 0)  -->
<svg version="1.1" id="Layer_1" xmlns="http://www.w3.org/2000/svg" xmlns:xlink="http://www.w3.org/1999/xlink" x="0px" y="0px"
	 viewBox="0 0 123.9 72.8" style="enable-background:new 0 0 123.9 72.8;" xml:space="preserve">
<style type="text/css">
	.st0{fill:#D7C18E;}
	.st1{fill:#503433;}
	.st2{clip-path:url(#SVGID_2_);}
	.st3{clip-path:url(#SVGID_5_);}
	.st4{clip-path:url(#SVGID_6_);}
	.st5{fill:#221F1F;}
	.st6{clip-path:url(#SVGID_8_);}
	.st7{clip-path:url(#SVGID_12_);}
	.st8{clip-path:url(#SVGID_13_);}
	.st9{clip-path:url(#SVGID_14_);}
	.st10{clip-path:url(#SVGID_16_);}
	.st11{clip-path:url(#SVGID_20_);}
	.st12{clip-path:url(#SVGID_21_);}
	.st13{clip-path:url(#SVGID_22_);}
	.st14{clip-path:url(#SVGID_24_);}
	.st15{clip-path:url(#SVGID_27_);}
	.st16{clip-path:url(#SVGID_28_);}
	.st17{clip-path:url(#SVGID_30_);}
	.st18{clip-path:url(#SVGID_33_);}
	.st19{clip-path:url(#SVGID_34_);}
	.st20{clip-path:url(#SVGID_36_);}
	.st21{clip-path:url(#SVGID_39_);}
	.st22{clip-path:url(#SVGID_40_);}
</style>
<g>
	<g>
		<g>
			<path class="st0" d="M71,38.1l20,4.8c0.1-7.9-9.1-16.7-9.1-16.7l-13.3,1.9l-1.4,3.6C69.8,33.5,71,38.1,71,38.1"/>
			<path class="st1" d="M91.4,43.6c-0.2,0.1-0.3,0.1-0.5,0.1l-20-4.8c-0.3-0.1-0.6-0.3-0.7-0.6c0,0-1.2-4.3-3.5-5.8
				c-0.3-0.2-0.4-0.6-0.3-1l1.4-3.6c0.1-0.3,0.4-0.5,0.6-0.6l13.4-2c0.2,0,0.5,0,0.7,0.2c0.4,0.4,9.4,9.1,9.3,17.3
				c0,0.2-0.1,0.5-0.3,0.6C91.5,43.6,91.4,43.6,91.4,43.6z M71.7,37.4l18.6,4.4c-0.6-6.5-7.1-13.4-8.5-14.8l-12.6,1.9l-0.9,2.6
				C70.1,33.2,71.3,36.3,71.7,37.4z"/>
		</g>
		<g>
			<path class="st0" d="M81,39.9c0,0-5.3-11.6-8.2-12.5"/>
			<path class="st1" d="M81.3,40.8c-0.4,0.1-0.9,0-1-0.5c-2.2-4.6-6-11.5-7.7-12.2c-0.4-0.2-0.7-0.6-0.5-1s0.6-0.7,1-0.5
				c3,1.1,7.7,11,8.7,13C81.9,40,81.8,40.5,81.3,40.8L81.3,40.8z"/>
		</g>
		<g>
			<path class="st0" d="M94.3,51.4c0,2.3,2.1,10.4-2.6,9.8c-3.1-0.4-5-7.9-6.6-10"/>
			<path class="st1" d="M93.5,61.8c-0.6,0.2-1.1,0.2-1.8,0.1c-2.7-0.4-4.3-4.3-5.7-7.5c-0.6-1.2-1-2.3-1.4-2.9
				c-0.2-0.3-0.1-0.9,0.2-1.1s0.9-0.1,1.1,0.2c0.5,0.7,1,1.9,1.6,3.3c1,2.5,2.7,6.3,4.4,6.5c0.9,0.2,1.3-0.3,1.4-0.3
				c1.1-1.1,0.7-4.4,0.4-6.5c-0.1-0.8-0.2-1.5-0.1-2.1c0-0.4,0.3-0.8,0.9-0.9c0.4,0,0.8,0.3,0.9,0.9c0,0.4,0.1,1.1,0.2,1.9
				c0.4,2.6,0.8,6.2-0.9,7.8C94.1,61.4,93.7,61.7,93.5,61.8z"/>
		</g>
		<g>
			<path class="st0" d="M82.5,50.6c-0.2,1.5,4.2,11.6-0.7,9.9c-2.2-0.9-5.9-8.8-6.3-10.9"/>
			<path class="st1" d="M83.6,61.3c-0.6,0.2-1.2,0.1-2.1-0.1c-2.7-1-6.5-9.4-6.8-11.5c0-0.4,0.2-0.8,0.7-0.9c0.4,0,0.8,0.2,0.9,0.7
				c0.4,2.1,4,9.6,5.7,10.2c0.5,0.1,0.8,0.2,1,0.1c0.7-0.7-0.3-4.6-0.8-6.3c-0.4-1.6-0.6-2.4-0.6-3c0-0.4,0.5-0.7,0.9-0.7
				c0.4,0,0.7,0.5,0.7,0.9c0,0.3,0.3,1.4,0.6,2.4c1,3.7,1.7,6.6,0.3,7.9C83.9,61.2,83.7,61.3,83.6,61.3z"/>
		</g>
		<g>
			<path class="st0" d="M71.4,49.6c0.3,1.4,3.5,6.6,2.9,8c-3.5,0.9-6.2-3.9-8.2-6.5"/>
			<path class="st1" d="M74.6,58.4C74.6,58.4,74.6,58.4,74.6,58.4c-3.6,0.9-6.3-2.8-8.3-5.5c-0.3-0.4-0.6-0.8-0.9-1.3
				c-0.2-0.3-0.2-0.9,0.1-1.1s0.9-0.2,1.1,0.1c0.3,0.4,0.6,0.8,0.9,1.3c1.6,2.3,3.7,5.1,5.9,5.1c-0.2-1-1.2-3.3-1.8-4.5
				s-1-2.1-1.1-2.7c0-0.4,0.2-0.9,0.6-1s0.9,0.2,1,0.6c0,0.4,0.5,1.4,1,2.3c1.4,3,2.3,5,1.9,6.1C75,58.2,74.8,58.3,74.6,58.4z"/>
		</g>
		<g>
			<path class="st0" d="M30.3,23.3l34.6-11.1c0,0,1.8-1.4,10.4,0s43.9,5.4,43.9,5.4s4.6,1.8,0.5,5.9c-4,4.1-10.5,2-13.2,1.7
				c-2.7-0.4-13.4-1.5-18.1-0.6c-4.8,1-19.7,3.5-19.7,3.5s-4.5,8.5,0.8,9.5c5.2,1,22.1,4.2,22.1,4.2s5.6-0.4,4.4,7.6
				c0,0-0.8,3.8-13.5,1C69.9,47.8,67,51,63.9,52.1c-3.1,1.1-14.9,3.7-21.8,1.3c-7-2.4-14-5.3-14-5.3L6,46.1l6.3-24.6L30.3,23.3z"/>
			<path class="st1" d="M94.5,51.8c-2,0.7-5.6,1-12.1-0.4c-10.2-2.3-13.8-0.6-16.4,0.7c-0.5,0.3-1.1,0.5-1.7,0.8
				c-3.3,1.1-15.3,3.7-22.5,1.3c-6.4-2.2-13-4.9-14-5.3l-21.8-2c-0.2,0-0.5-0.1-0.6-0.3c-0.2-0.2-0.2-0.5-0.2-0.7l6.2-24.6
				c0.1-0.4,0.5-0.6,0.8-0.6L30,22.5l34.3-11c0.7-0.4,3.2-1.3,10.9-0.1c8.4,1.4,43.5,5.5,43.9,5.4c0.1,0,0.1,0.1,0.2,0
				c0.1,0.1,2.2,0.9,2.7,2.8c0.3,1.4-0.3,2.8-1.8,4.4c-3.7,3.8-9.1,2.8-12.4,2.1c-0.6-0.1-1.1-0.2-1.5-0.3c-0.5,0-12.7-1.6-17.9-0.6
				c-4.3,0.8-16.9,3-19.4,3.4c-0.8,1.6-2,5.1-1.2,6.9c0.3,0.6,0.8,1,1.6,1.1c5.1,1,20.7,4,22,4.3c0.5,0,2.4,0.1,3.8,1.6
				c1.4,1.5,1.9,3.8,1.4,7C96.7,50,96.4,51.1,94.5,51.8z M67.2,49.8c2.8-1.1,7-1.8,15.4,0c9.3,2,12.1,0.4,12.5-0.3
				c0.3-2.5,0-4.5-0.9-5.5c-1.1-1.1-2.5-1.1-2.6-1s-0.1,0-0.2,0c0,0-16.8-3.3-22.1-4.2c-1.3-0.3-2.3-1-2.8-2
				c-1.5-3.1,1.1-8.1,1.4-8.8c0.1-0.3,0.4-0.4,0.6-0.4c0.1,0,15.1-2.6,19.8-3.4c5.4-1,17.8,0.5,18.4,0.6c0.4,0,1,0.1,1.6,0.3
				c3.1,0.6,7.8,1.4,10.9-1.7c0.8-0.8,1.6-1.9,1.4-2.9c-0.3-1-1.3-1.4-1.6-1.6c-2.2-0.2-35.5-4.1-43.8-5.5c-7.8-1.3-9.8-0.1-9.8-0.1
				c-0.1,0-0.2,0.1-0.2,0.1L30.5,24.2c-0.1,0-0.2,0.1-0.3,0l-17.3-1.8L7,45.4l21.2,1.9c0.1,0,0.1,0.1,0.2,0c0.1,0.1,7.1,3,14,5.3
				c6.9,2.3,18.6-0.3,21.3-1.3c0.5-0.2,1-0.4,1.6-0.7C65.8,50.3,66.5,50.1,67.2,49.8z"/>
		</g>
	</g>
	<g>
		<g>
			<g>
				<defs>
					<path id="SVGID_1_" d="M69,15.8c-11.3,4.3-20.8,13.9-32.6,16.6c-4.5,1.1-9,0.7-12.3-0.6c-3.4-1.3-6.6-2.2-10.3-3.2
						c1.2-3,7.7-1.9,10.1-1.9c3.5,0,8.8-0.5,12.5-1.4c6.8-1.6,14.6-5.3,21.2-7.8c2.6-1,14-6.6,13.4-2.8c-1.1,0.6-2.2,1.2-3.5,1.7"/>
				</defs>
				<clipPath id="SVGID_2_">
					<use xlink:href="#SVGID_1_"  style="overflow:visible;"/>
				</clipPath>
				<g class="st2">
					<g>
						<g>
							<defs>
								
									<rect id="SVGID_3_" x="64.8" y="24.2" transform="matrix(0.9966 -8.238564e-02 8.238564e-02 0.9966 -3.6962 7.5039)" width="48.6" height="48.6"/>
							</defs>
							<defs>
								
									<rect id="SVGID_4_" x="64.8" y="24.2" transform="matrix(0.9966 -8.238564e-02 8.238564e-02 0.9966 -3.6962 7.5039)" width="48.6" height="48.6"/>
							</defs>
							<clipPath id="SVGID_5_">
								<use xlink:href="#SVGID_3_"  style="overflow:visible;"/>
							</clipPath>
							<clipPath id="SVGID_6_" class="st3">
								<use xlink:href="#SVGID_4_"  style="overflow:visible;"/>
							</clipPath>
							<g class="st4">
								<g>
									
										<rect x="66.5" y="25.8" transform="matrix(0.9966 -8.257723e-02 8.257723e-02 0.9966 -3.9243 5.7289)" class="st5" width="1.6" height="49"/>
								</g>
								<g>
									
										<rect x="76.2" y="25.1" transform="matrix(0.9966 -8.257723e-02 8.257723e-02 0.9966 -3.829 6.5287)" class="st5" width="1.6" height="49"/>
								</g>
								<g>
									
										<rect x="85.8" y="24.2" transform="matrix(0.9966 -8.257723e-02 8.257723e-02 0.9966 -3.7264 7.3192)" class="st5" width="1.6" height="49"/>
								</g>
								<g>
									
										<rect x="95.5" y="23.5" transform="matrix(0.9966 -8.257723e-02 8.257723e-02 0.9966 -3.6313 8.1191)" class="st5" width="1.6" height="49"/>
								</g>
								<g>
									
										<rect x="105.2" y="22.6" transform="matrix(0.9966 -8.257723e-02 8.257723e-02 0.9966 -3.5278 8.9181)" class="st5" width="1.6" height="49"/>
								</g>
								<g>
									
										<rect x="71.3" y="25.5" transform="matrix(0.9966 -8.257723e-02 8.257723e-02 0.9966 -3.8814 6.1252)" class="st5" width="1.6" height="49"/>
								</g>
								<g>
									
										<rect x="81" y="24.6" transform="matrix(0.9966 -8.257723e-02 8.257723e-02 0.9966 -3.7777 6.9241)" class="st5" width="1.6" height="49"/>
								</g>
								<g>
									
										<rect x="90.7" y="23.9" transform="matrix(0.9966 -8.257723e-02 8.257723e-02 0.9966 -3.6826 7.7239)" class="st5" width="1.6" height="49"/>
								</g>
								<g>
									
										<rect x="100.4" y="23" transform="matrix(0.9966 -8.257723e-02 8.257723e-02 0.9966 -3.5789 8.5225)" class="st5" width="1.6" height="49"/>
								</g>
								<g>
									
										<rect x="110.1" y="22.3" transform="matrix(0.9966 -8.257723e-02 8.257723e-02 0.9966 -3.4848 9.3145)" class="st5" width="1.6" height="49"/>
								</g>
							</g>
							<g class="st4">
								<g>
									
										<rect x="62.4" y="-22.7" transform="matrix(0.9966 -8.257723e-02 8.257723e-02 0.9966 6.407905e-02 5.2289)" class="st5" width="1.6" height="49"/>
								</g>
								<g>
									
										<rect x="72.2" y="-23.4" transform="matrix(0.9966 -8.257723e-02 8.257723e-02 0.9966 0.1592 6.0287)" class="st5" width="1.6" height="49"/>
								</g>
								<g>
									
										<rect x="81.9" y="-24.3" transform="matrix(0.9966 -8.257723e-02 8.257723e-02 0.9966 0.2626 6.8276)" class="st5" width="1.6" height="49"/>
								</g>
								<g>
									
										<rect x="91.6" y="-25" transform="matrix(0.9966 -8.257723e-02 8.257723e-02 0.9966 0.3579 7.6276)" class="st5" width="1.6" height="49"/>
								</g>
								<g>
									
										<rect x="101.2" y="-25.9" transform="matrix(0.9966 -8.257723e-02 8.257723e-02 0.9966 0.4604 8.4181)" class="st5" width="1.6" height="49"/>
								</g>
								<g>
									
										<rect x="67.4" y="-23" transform="matrix(0.9966 -8.257723e-02 8.257723e-02 0.9966 0.108 5.6336)" class="st5" width="1.6" height="49"/>
								</g>
								<g>
									
										<rect x="77" y="-23.8" transform="matrix(0.9966 -8.257723e-02 8.257723e-02 0.9966 0.2104 6.4241)" class="st5" width="1.6" height="49"/>
								</g>
								<g>
									
										<rect x="86.7" y="-24.6" transform="matrix(0.9966 -8.257723e-02 8.257723e-02 0.9966 0.3056 7.224)" class="st5" width="1.6" height="49"/>
								</g>
								<g>
									
										<rect x="96.4" y="-25.4" transform="matrix(0.9966 -8.257723e-02 8.257723e-02 0.9966 0.4091 8.0229)" class="st5" width="1.6" height="49"/>
								</g>
								<g>
									
										<rect x="106.1" y="-26.2" transform="matrix(0.9966 -8.257723e-02 8.257723e-02 0.9966 0.5044 8.8229)" class="st5" width="1.6" height="49"/>
								</g>
							</g>
						</g>
					</g>
					<g>
						<defs>
							<path id="SVGID_7_" d="M69,15.8c-11.3,4.3-20.8,13.9-32.6,16.6c-4.5,1.1-9,0.7-12.3-0.6c-3.4-1.3-6.6-2.2-10.3-3.2
								c1.2-3,7.7-1.9,10.1-1.9c3.5,0,8.8-0.5,12.5-1.4c6.8-1.6,14.6-5.3,21.2-7.8c2.6-1,14-6.6,13.4-2.8c-1.1,0.6-2.2,1.2-3.5,1.7"
								/>
						</defs>
						<clipPath id="SVGID_8_">
							<use xlink:href="#SVGID_7_"  style="overflow:visible;"/>
						</clipPath>
						<g class="st6">
							<g>
								<g>
									<defs>
										
											<rect id="SVGID_9_" x="16.3" y="28.3" transform="matrix(0.9966 -8.238564e-02 8.238564e-02 0.9966 -4.1948 3.525)" width="48.6" height="48.6"/>
									</defs>
									<defs>
										
											<rect id="SVGID_10_" x="16.3" y="28.3" transform="matrix(0.9966 -8.238564e-02 8.238564e-02 0.9966 -4.1948 3.525)" width="48.6" height="48.6"/>
									</defs>
									<defs>
										
											<rect id="SVGID_11_" x="16.3" y="28.3" transform="matrix(0.9966 -8.238564e-02 8.238564e-02 0.9966 -4.1948 3.525)" width="48.6" height="48.6"/>
									</defs>
									<clipPath id="SVGID_12_">
										<use xlink:href="#SVGID_9_"  style="overflow:visible;"/>
									</clipPath>
									<clipPath id="SVGID_13_" class="st7">
										<use xlink:href="#SVGID_10_"  style="overflow:visible;"/>
									</clipPath>
									<clipPath id="SVGID_14_" class="st8">
										<use xlink:href="#SVGID_11_"  style="overflow:visible;"/>
									</clipPath>
									<g class="st9">
										<g>
											
												<rect x="22" y="78.3" transform="matrix(0.9966 -8.257723e-02 8.257723e-02 0.9966 -8.4133 2.2325)" class="st5" width="1.6" height="49"/>
										</g>
										<g>
											
												<rect x="31.7" y="77.5" transform="matrix(0.9966 -8.257723e-02 8.257723e-02 0.9966 -8.3099 3.0314)" class="st5" width="1.6" height="49"/>
										</g>
										<g>
											
												<rect x="41.4" y="76.7" transform="matrix(0.9966 -8.257723e-02 8.257723e-02 0.9966 -8.2145 3.831)" class="st5" width="1.6" height="49"/>
										</g>
										<g>
											
												<rect x="51.1" y="75.9" transform="matrix(0.9966 -8.257723e-02 8.257723e-02 0.9966 -8.1114 4.6302)" class="st5" width="1.6" height="49"/>
										</g>
										<g>
											
												<rect x="60.7" y="75.1" transform="matrix(0.9966 -8.257723e-02 8.257723e-02 0.9966 -8.0166 5.4214)" class="st5" width="1.6" height="49"/>
										</g>
										<g>
											
												<rect x="26.9" y="77.9" transform="matrix(0.9966 -8.257723e-02 8.257723e-02 0.9966 -8.361 2.6359)" class="st5" width="1.6" height="49"/>
										</g>
										<g>
											
												<rect x="36.5" y="77.2" transform="matrix(0.9966 -8.257723e-02 8.257723e-02 0.9966 -8.2671 3.4279)" class="st5" width="1.6" height="49"/>
										</g>
										<g>
											
												<rect x="46.2" y="76.3" transform="matrix(0.9966 -8.257723e-02 8.257723e-02 0.9966 -8.1634 4.2265)" class="st5" width="1.6" height="49"/>
										</g>
										<g>
											
												<rect x="55.9" y="75.5" transform="matrix(0.9966 -8.257723e-02 8.257723e-02 0.9966 -8.068 5.0262)" class="st5" width="1.6" height="49"/>
										</g>
										<g>
											
												<rect x="65.6" y="74.7" transform="matrix(0.9966 -8.257723e-02 8.257723e-02 0.9966 -7.9647 5.8253)" class="st5" width="1.6" height="49"/>
										</g>
									</g>
									<g class="st9">
										<g>
											
												<rect x="18" y="29.9" transform="matrix(0.9966 -8.257723e-02 8.257723e-02 0.9966 -4.424 1.7407)" class="st5" width="1.6" height="49"/>
										</g>
										<g>
											
												<rect x="27.7" y="29" transform="matrix(0.9966 -8.257723e-02 8.257723e-02 0.9966 -4.3206 2.5394)" class="st5" width="1.6" height="49"/>
										</g>
										<g>
											
												<rect x="37.4" y="28.3" transform="matrix(0.9966 -8.257723e-02 8.257723e-02 0.9966 -4.2264 3.3314)" class="st5" width="1.6" height="49"/>
										</g>
										<g>
											
												<rect x="47.1" y="27.4" transform="matrix(0.9966 -8.257723e-02 8.257723e-02 0.9966 -4.1229 4.1299)" class="st5" width="1.6" height="49"/>
										</g>
										<g>
											
												<rect x="56.8" y="26.7" transform="matrix(0.9966 -8.257723e-02 8.257723e-02 0.9966 -4.0276 4.9299)" class="st5" width="1.6" height="49"/>
										</g>
										<g>
											
												<rect x="22.8" y="29.4" transform="matrix(0.9966 -8.257723e-02 8.257723e-02 0.9966 -4.3729 2.1361)" class="st5" width="1.6" height="49"/>
										</g>
										<g>
											
												<rect x="32.6" y="28.7" transform="matrix(0.9966 -8.257723e-02 8.257723e-02 0.9966 -4.2778 2.936)" class="st5" width="1.6" height="49"/>
										</g>
										<g>
											
												<rect x="42.3" y="27.8" transform="matrix(0.9966 -8.257723e-02 8.257723e-02 0.9966 -4.1739 3.7346)" class="st5" width="1.6" height="49"/>
										</g>
										<g>
											
												<rect x="52" y="27.1" transform="matrix(0.9966 -8.257723e-02 8.257723e-02 0.9966 -4.0789 4.5347)" class="st5" width="1.6" height="49"/>
										</g>
										<g>
											
												<rect x="61.6" y="26.2" transform="matrix(0.9966 -8.257723e-02 8.257723e-02 0.9966 -3.9764 5.3252)" class="st5" width="1.6" height="49"/>
										</g>
									</g>
									<g class="st9">
										<g>
											
												<rect x="14" y="-18.6" transform="matrix(0.9966 -8.257723e-02 8.257723e-02 0.9966 -0.436 1.2409)" class="st5" width="1.6" height="49"/>
										</g>
										<g>
											
												<rect x="23.7" y="-19.5" transform="matrix(0.9966 -8.257723e-02 8.257723e-02 0.9966 -0.3323 2.0395)" class="st5" width="1.6" height="49"/>
										</g>
										<g>
											
												<rect x="33.4" y="-20.2" transform="matrix(0.9966 -8.257723e-02 8.257723e-02 0.9966 -0.2373 2.8396)" class="st5" width="1.6" height="49"/>
										</g>
										<g>
											
												<rect x="43.1" y="-21.1" transform="matrix(0.9966 -8.257723e-02 8.257723e-02 0.9966 -0.1339 3.6384)" class="st5" width="1.6" height="49"/>
										</g>
										<g>
											
												<rect x="52.7" y="-21.8" transform="matrix(0.9966 -8.257723e-02 8.257723e-02 0.9966 -3.945849e-02 4.4301)" class="st5" width="1.6" height="49"/>
										</g>
										<g>
											
												<rect x="18.9" y="-19" transform="matrix(0.9966 -8.257723e-02 8.257723e-02 0.9966 -0.3835 1.6444)" class="st5" width="1.6" height="49"/>
										</g>
										<g>
											
												<rect x="28.5" y="-19.8" transform="matrix(0.9966 -8.257723e-02 8.257723e-02 0.9966 -0.2897 2.4364)" class="st5" width="1.6" height="49"/>
										</g>
										<g>
											
												<rect x="38.2" y="-20.6" transform="matrix(0.9966 -8.257723e-02 8.257723e-02 0.9966 -0.1859 3.2348)" class="st5" width="1.6" height="49"/>
										</g>
										<g>
											
												<rect x="47.9" y="-21.4" transform="matrix(0.9966 -8.257723e-02 8.257723e-02 0.9966 -9.071019e-02 4.0347)" class="st5" width="1.6" height="49"/>
										</g>
										<g>
											
												<rect x="57.6" y="-22.2" transform="matrix(0.9966 -8.257723e-02 8.257723e-02 0.9966 1.282630e-02 4.8337)" class="st5" width="1.6" height="49"/>
										</g>
									</g>
								</g>
							</g>
							<g>
								<defs>
									<path id="SVGID_15_" d="M69,15.8c-11.3,4.3-20.8,13.9-32.6,16.6c-4.5,1.1-9,0.7-12.3-0.6c-3.4-1.3-6.6-2.2-10.3-3.2
										c1.2-3,7.7-1.9,10.1-1.9c3.5,0,8.8-0.5,12.5-1.4c6.8-1.6,14.6-5.3,21.2-7.8c2.6-1,14-6.6,13.4-2.8
										c-1.1,0.6-2.2,1.2-3.5,1.7"/>
								</defs>
								<clipPath id="SVGID_16_">
									<use xlink:href="#SVGID_15_"  style="overflow:visible;"/>
								</clipPath>
								<g class="st10">
									<g>
										<g>
											<defs>
												
													<rect id="SVGID_17_" x="-32.2" y="32.2" transform="matrix(0.9966 -8.228984e-02 8.228984e-02 0.9966 -4.6796 -0.4547)" width="48.6" height="48.6"/>
											</defs>
											<defs>
												
													<rect id="SVGID_18_" x="-32.2" y="32.2" transform="matrix(0.9966 -8.228984e-02 8.228984e-02 0.9966 -4.6796 -0.4547)" width="48.6" height="48.6"/>
											</defs>
											<defs>
												
													<rect id="SVGID_19_" x="-32.2" y="32.2" transform="matrix(0.9966 -8.228984e-02 8.228984e-02 0.9966 -4.6796 -0.4547)" width="48.6" height="48.6"/>
											</defs>
											<clipPath id="SVGID_20_">
												<use xlink:href="#SVGID_17_"  style="overflow:visible;"/>
											</clipPath>
											<clipPath id="SVGID_21_" class="st11">
												<use xlink:href="#SVGID_18_"  style="overflow:visible;"/>
											</clipPath>
											<clipPath id="SVGID_22_" class="st12">
												<use xlink:href="#SVGID_19_"  style="overflow:visible;"/>
											</clipPath>
											<g class="st13">
												<g>
													
														<rect x="17.2" y="78.7" transform="matrix(0.9966 -8.257723e-02 8.257723e-02 0.9966 -8.4646 1.8373)" class="st5" width="1.6" height="49"/>
												</g>
											</g>
											<g class="st13">
												<g>
													
														<rect x="-1.4" y="31.5" transform="matrix(0.9966 -8.257723e-02 8.257723e-02 0.9966 -4.6229 0.1418)" class="st5" width="1.6" height="49"/>
												</g>
												<g>
													
														<rect x="8.3" y="30.6" transform="matrix(0.9966 -8.257723e-02 8.257723e-02 0.9966 -4.5194 0.9407)" class="st5" width="1.6" height="49"/>
												</g>
												<g>
													
														<rect x="3.4" y="31" transform="matrix(0.9966 -8.257723e-02 8.257723e-02 0.9966 -4.5714 0.5369)" class="st5" width="1.6" height="49"/>
												</g>
												<g>
													
														<rect x="13.1" y="30.3" transform="matrix(0.9966 -8.257723e-02 8.257723e-02 0.9966 -4.4763 1.3372)" class="st5" width="1.6" height="49"/>
												</g>
											</g>
											<g class="st13">
												<g>
													
														<rect x="-15.1" y="-16.3" transform="matrix(0.9966 -8.257723e-02 8.257723e-02 0.9966 -0.7289 -1.1494)" class="st5" width="1.6" height="49"/>
												</g>
												<g>
													
														<rect x="-5.3" y="-17" transform="matrix(0.9966 -8.257723e-02 8.257723e-02 0.9966 -0.6335 -0.3499)" class="st5" width="1.6" height="49"/>
												</g>
												<g>
													
														<rect x="4.3" y="-17.9" transform="matrix(0.9966 -8.257723e-02 8.257723e-02 0.9966 -0.5313 0.441)" class="st5" width="1.6" height="49"/>
												</g>
												<g>
													
														<rect x="-10.3" y="-16.6" transform="matrix(0.9966 -8.257723e-02 8.257723e-02 0.9966 -0.6858 -0.7535)" class="st5" width="1.6" height="49"/>
												</g>
												<g>
													
														<rect x="-0.5" y="-17.4" transform="matrix(0.9966 -8.257723e-02 8.257723e-02 0.9966 -0.5825 4.538253e-02)" class="st5" width="1.6" height="49"/>
												</g>
												<g>
													
														<rect x="9.2" y="-18.2" transform="matrix(0.9966 -8.257723e-02 8.257723e-02 0.9966 -0.4871 0.8452)" class="st5" width="1.6" height="49"/>
												</g>
											</g>
										</g>
									</g>
									<g>
										<defs>
											<path id="SVGID_23_" d="M69,15.8c-11.3,4.3-20.8,13.9-32.6,16.6c-4.5,1.1-9,0.7-12.3-0.6c-3.4-1.3-6.6-2.2-10.3-3.2
												c1.2-3,7.7-1.9,10.1-1.9c3.5,0,8.8-0.5,12.5-1.4c6.8-1.6,14.6-5.3,21.2-7.8c2.6-1,14-6.6,13.4-2.8
												c-1.1,0.6-2.2,1.2-3.5,1.7"/>
										</defs>
										<clipPath id="SVGID_24_">
											<use xlink:href="#SVGID_23_"  style="overflow:visible;"/>
										</clipPath>
										<g class="st14">
											<g>
												<g>
													<defs>
														
															<rect id="SVGID_25_" x="60.7" y="-24.2" transform="matrix(0.9966 -8.238564e-02 8.238564e-02 0.9966 0.2827 7.0052)" width="48.6" height="48.6"/>
													</defs>
													<defs>
														
															<rect id="SVGID_26_" x="60.7" y="-24.2" transform="matrix(0.9966 -8.238564e-02 8.238564e-02 0.9966 0.2827 7.0052)" width="48.6" height="48.6"/>
													</defs>
													<clipPath id="SVGID_27_">
														<use xlink:href="#SVGID_25_"  style="overflow:visible;"/>
													</clipPath>
													<clipPath id="SVGID_28_" class="st15">
														<use xlink:href="#SVGID_26_"  style="overflow:visible;"/>
													</clipPath>
													<g class="st16">
														<g>
															
																<rect x="66.5" y="25.8" transform="matrix(0.9966 -8.257723e-02 8.257723e-02 0.9966 -3.9244 5.7291)" class="st5" width="1.6" height="49"/>
														</g>
														<g>
															
																<rect x="76.2" y="25.1" transform="matrix(0.9966 -8.257723e-02 8.257723e-02 0.9966 -3.829 6.5287)" class="st5" width="1.6" height="49"/>
														</g>
														<g>
															
																<rect x="85.8" y="24.2" transform="matrix(0.9966 -8.257723e-02 8.257723e-02 0.9966 -3.7264 7.3192)" class="st5" width="1.6" height="49"/>
														</g>
														<g>
															
																<rect x="95.5" y="23.5" transform="matrix(0.9966 -8.257723e-02 8.257723e-02 0.9966 -3.6314 8.1193)" class="st5" width="1.6" height="49"/>
														</g>
														<g>
															
																<rect x="105.2" y="22.6" transform="matrix(0.9966 -8.257723e-02 8.257723e-02 0.9966 -3.5278 8.9181)" class="st5" width="1.6" height="49"/>
														</g>
														<g>
															
																<rect x="71.3" y="25.5" transform="matrix(0.9966 -8.257723e-02 8.257723e-02 0.9966 -3.8814 6.1252)" class="st5" width="1.6" height="49"/>
														</g>
														<g>
															
																<rect x="81" y="24.6" transform="matrix(0.9966 -8.257723e-02 8.257723e-02 0.9966 -3.7777 6.9241)" class="st5" width="1.6" height="49"/>
														</g>
														<g>
															
																<rect x="90.7" y="23.9" transform="matrix(0.9966 -8.257723e-02 8.257723e-02 0.9966 -3.6826 7.7239)" class="st5" width="1.6" height="49"/>
														</g>
														<g>
															
																<rect x="100.4" y="23" transform="matrix(0.9966 -8.257723e-02 8.257723e-02 0.9966 -3.5789 8.5228)" class="st5" width="1.6" height="49"/>
														</g>
														<g>
															
																<rect x="110.1" y="22.3" transform="matrix(0.9966 -8.257723e-02 8.257723e-02 0.9966 -3.4848 9.3145)" class="st5" width="1.6" height="49"/>
														</g>
													</g>
													<g class="st16">
														<g>
															
																<rect x="62.4" y="-22.7" transform="matrix(0.9966 -8.257723e-02 8.257723e-02 0.9966 6.414782e-02 5.2289)" class="st5" width="1.6" height="49"/>
														</g>
														<g>
															
																<rect x="72.2" y="-23.4" transform="matrix(0.9966 -8.257723e-02 8.257723e-02 0.9966 0.1591 6.0289)" class="st5" width="1.6" height="49"/>
														</g>
														<g>
															
																<rect x="81.9" y="-24.3" transform="matrix(0.9966 -8.257723e-02 8.257723e-02 0.9966 0.2627 6.8277)" class="st5" width="1.6" height="49"/>
														</g>
														<g>
															
																<rect x="91.6" y="-25" transform="matrix(0.9966 -8.257723e-02 8.257723e-02 0.9966 0.3579 7.6276)" class="st5" width="1.6" height="49"/>
														</g>
														<g>
															
																<rect x="101.2" y="-25.9" transform="matrix(0.9966 -8.257723e-02 8.257723e-02 0.9966 0.4604 8.4183)" class="st5" width="1.6" height="49"/>
														</g>
														<g>
															
																<rect x="67.4" y="-23" transform="matrix(0.9966 -8.257723e-02 8.257723e-02 0.9966 0.108 5.6336)" class="st5" width="1.6" height="49"/>
														</g>
														<g>
															
																<rect x="77" y="-23.8" transform="matrix(0.9966 -8.257723e-02 8.257723e-02 0.9966 0.2103 6.4242)" class="st5" width="1.6" height="49"/>
														</g>
														<g>
															
																<rect x="86.7" y="-24.6" transform="matrix(0.9966 -8.257723e-02 8.257723e-02 0.9966 0.3056 7.224)" class="st5" width="1.6" height="49"/>
														</g>
														<g>
															
																<rect x="96.4" y="-25.4" transform="matrix(0.9966 -8.257723e-02 8.257723e-02 0.9966 0.4091 8.0229)" class="st5" width="1.6" height="49"/>
														</g>
														<g>
															
																<rect x="106.1" y="-26.2" transform="matrix(0.9966 -8.257723e-02 8.257723e-02 0.9966 0.5044 8.8229)" class="st5" width="1.6" height="49"/>
														</g>
													</g>
												</g>
											</g>
											<g>
												<defs>
													<path id="SVGID_29_" d="M69,15.8c-11.3,4.3-20.8,13.9-32.6,16.6c-4.5,1.1-9,0.7-12.3-0.6c-3.4-1.3-6.6-2.2-10.3-3.2
														c1.2-3,7.7-1.9,10.1-1.9c3.5,0,8.8-0.5,12.5-1.4c6.8-1.6,14.6-5.3,21.2-7.8c2.6-1,14-6.6,13.4-2.8
														c-1.1,0.6-2.2,1.2-3.5,1.7"/>
												</defs>
												<clipPath id="SVGID_30_">
													<use xlink:href="#SVGID_29_"  style="overflow:visible;"/>
												</clipPath>
												<g class="st17">
													<g>
														<g>
															<defs>
																
																	<rect id="SVGID_31_" x="12.3" y="-20.2" transform="matrix(0.9966 -8.248144e-02 8.248144e-02 0.9966 -0.2161 3.0297)" width="48.6" height="48.6"/>
															</defs>
															<defs>
																
																	<rect id="SVGID_32_" x="12.3" y="-20.2" transform="matrix(0.9966 -8.248144e-02 8.248144e-02 0.9966 -0.2161 3.0297)" width="48.6" height="48.6"/>
															</defs>
															<clipPath id="SVGID_33_">
																<use xlink:href="#SVGID_31_"  style="overflow:visible;"/>
															</clipPath>
															<clipPath id="SVGID_34_" class="st18">
																<use xlink:href="#SVGID_32_"  style="overflow:visible;"/>
															</clipPath>
															<g class="st19">
																<g>
																	
																		<rect x="18" y="29.9" transform="matrix(0.9966 -8.257723e-02 8.257723e-02 0.9966 -4.4241 1.7407)" class="st5" width="1.6" height="49"/>
																</g>
																<g>
																	
																		<rect x="27.7" y="29" transform="matrix(0.9966 -8.257723e-02 8.257723e-02 0.9966 -4.3206 2.5394)" class="st5" width="1.6" height="49"/>
																</g>
																<g>
																	
																		<rect x="37.4" y="28.3" transform="matrix(0.9966 -8.257723e-02 8.257723e-02 0.9966 -4.2263 3.3312)" class="st5" width="1.6" height="49"/>
																</g>
																<g>
																	
																		<rect x="47.1" y="27.4" transform="matrix(0.9966 -8.257723e-02 8.257723e-02 0.9966 -4.1229 4.1299)" class="st5" width="1.6" height="49"/>
																</g>
																<g>
																	
																		<rect x="56.8" y="26.7" transform="matrix(0.9966 -8.257723e-02 8.257723e-02 0.9966 -4.0276 4.9298)" class="st5" width="1.6" height="49"/>
																</g>
																<g>
																	
																		<rect x="22.8" y="29.4" transform="matrix(0.9966 -8.257723e-02 8.257723e-02 0.9966 -4.3727 2.1358)" class="st5" width="1.6" height="49"/>
																</g>
																<g>
																	
																		<rect x="32.6" y="28.7" transform="matrix(0.9966 -8.257723e-02 8.257723e-02 0.9966 -4.2776 2.9356)" class="st5" width="1.6" height="49"/>
																</g>
																<g>
																	
																		<rect x="42.3" y="27.8" transform="matrix(0.9966 -8.257723e-02 8.257723e-02 0.9966 -4.1742 3.7345)" class="st5" width="1.6" height="49"/>
																</g>
																<g>
																	
																		<rect x="52" y="27.1" transform="matrix(0.9966 -8.257723e-02 8.257723e-02 0.9966 -4.0789 4.5347)" class="st5" width="1.6" height="49"/>
																</g>
																<g>
																	
																		<rect x="61.6" y="26.2" transform="matrix(0.9966 -8.257723e-02 8.257723e-02 0.9966 -3.9765 5.3252)" class="st5" width="1.6" height="49"/>
																</g>
															</g>
															<g class="st19">
																<g>
																	
																		<rect x="14" y="-18.6" transform="matrix(0.9966 -8.257723e-02 8.257723e-02 0.9966 -0.4359 1.2408)" class="st5" width="1.6" height="49"/>
																</g>
																<g>
																	
																		<rect x="23.7" y="-19.5" transform="matrix(0.9966 -8.228984e-02 8.228984e-02 0.9966 -0.3315 2.0321)" class="st5" width="1.6" height="49"/>
																</g>
																<g>
																	
																		<rect x="33.4" y="-20.2" transform="matrix(0.9966 -8.257723e-02 8.257723e-02 0.9966 -0.2372 2.8394)" class="st5" width="1.6" height="49"/>
																</g>
																<g>
																	
																		<rect x="43.1" y="-21.1" transform="matrix(0.9966 -8.257723e-02 8.257723e-02 0.9966 -0.1338 3.6382)" class="st5" width="1.6" height="49"/>
																</g>
																<g>
																	
																		<rect x="52.7" y="-21.8" transform="matrix(0.9966 -8.257723e-02 8.257723e-02 0.9966 -3.958711e-02 4.43)" class="st5" width="1.6" height="49"/>
																</g>
																<g>
																	
																		<rect x="18.9" y="-19" transform="matrix(0.9966 -8.257723e-02 8.257723e-02 0.9966 -0.3837 1.6443)" class="st5" width="1.6" height="49"/>
																</g>
																<g>
																	
																		<rect x="28.5" y="-19.8" transform="matrix(0.9966 -8.257723e-02 8.257723e-02 0.9966 -0.2897 2.4362)" class="st5" width="1.6" height="49"/>
																</g>
																<g>
																	
																		<rect x="38.2" y="-20.6" transform="matrix(0.9966 -8.257723e-02 8.257723e-02 0.9966 -0.186 3.2348)" class="st5" width="1.6" height="49"/>
																</g>
																<g>
																	
																		<rect x="47.9" y="-21.4" transform="matrix(0.9966 -8.257723e-02 8.257723e-02 0.9966 -9.067147e-02 4.0345)" class="st5" width="1.6" height="49"/>
																</g>
																<g>
																	
																		<rect x="57.6" y="-22.2" transform="matrix(0.9966 -8.257723e-02 8.257723e-02 0.9966 1.253260e-02 4.8336)" class="st5" width="1.6" height="49"/>
																</g>
															</g>
														</g>
													</g>
													<g>
														<defs>
															<path id="SVGID_35_" d="M69,15.8c-11.3,4.3-20.8,13.9-32.6,16.6c-4.5,1.1-9,0.7-12.3-0.6c-3.4-1.3-6.6-2.2-10.3-3.2
																c1.2-3,7.7-1.9,10.1-1.9c3.5,0,8.8-0.5,12.5-1.4c6.8-1.6,14.6-5.3,21.2-7.8c2.6-1,14-6.6,13.4-2.8
																c-1.1,0.6-2.2,1.2-3.5,1.7"/>
														</defs>
														<clipPath id="SVGID_36_">
															<use xlink:href="#SVGID_35_"  style="overflow:visible;"/>
														</clipPath>
														<g class="st20">
															<g>
																<g>
																	<defs>
																		
																			<rect id="SVGID_37_" x="-36.2" y="-16.2" transform="matrix(0.9966 -8.238564e-02 8.238564e-02 0.9966 -0.7063 -0.9536)" width="48.6" height="48.6"/>
																	</defs>
																	<defs>
																		
																			<rect id="SVGID_38_" x="-36.2" y="-16.2" transform="matrix(0.9966 -8.238564e-02 8.238564e-02 0.9966 -0.7063 -0.9536)" width="48.6" height="48.6"/>
																	</defs>
																	<clipPath id="SVGID_39_">
																		<use xlink:href="#SVGID_37_"  style="overflow:visible;"/>
																	</clipPath>
																	<clipPath id="SVGID_40_" class="st21">
																		<use xlink:href="#SVGID_38_"  style="overflow:visible;"/>
																	</clipPath>
																	<g class="st22">
																		<g>
																			
																				<rect x="-1.4" y="31.5" transform="matrix(0.9966 -8.257723e-02 8.257723e-02 0.9966 -4.623 0.142)" class="st5" width="1.6" height="49"/>
																		</g>
																		<g>
																			
																				<rect x="8.3" y="30.6" transform="matrix(0.9966 -8.257723e-02 8.257723e-02 0.9966 -4.5195 0.9409)" class="st5" width="1.6" height="49"/>
																		</g>
																		<g>
																			
																				<rect x="3.4" y="31" transform="matrix(0.9966 -8.257723e-02 8.257723e-02 0.9966 -4.5716 0.5373)" class="st5" width="1.6" height="49"/>
																		</g>
																		<g>
																			
																				<rect x="13.1" y="30.3" transform="matrix(0.9966 -8.257723e-02 8.257723e-02 0.9966 -4.4763 1.3372)" class="st5" width="1.6" height="49"/>
																		</g>
																	</g>
																	<g class="st22">
																		<g>
																			
																				<rect x="-15.1" y="-16.3" transform="matrix(0.9966 -8.257723e-02 8.257723e-02 0.9966 -0.7289 -1.1494)" class="st5" width="1.6" height="49"/>
																		</g>
																		<g>
																			
																				<rect x="-5.3" y="-17" transform="matrix(0.9966 -8.257723e-02 8.257723e-02 0.9966 -0.6335 -0.3499)" class="st5" width="1.6" height="49"/>
																		</g>
																		<g>
																			
																				<rect x="4.3" y="-17.9" transform="matrix(0.9966 -8.257723e-02 8.257723e-02 0.9966 -0.5313 0.441)" class="st5" width="1.6" height="49"/>
																		</g>
																		<g>
																			
																				<rect x="-10.3" y="-16.6" transform="matrix(0.9966 -8.257723e-02 8.257723e-02 0.9966 -0.6858 -0.7535)" class="st5" width="1.6" height="49"/>
																		</g>
																		<g>
																			
																				<rect x="-0.5" y="-17.4" transform="matrix(0.9966 -8.257723e-02 8.257723e-02 0.9966 -0.5825 4.538253e-02)" class="st5" width="1.6" height="49"/>
																		</g>
																		<g>
																			
																				<rect x="9.2" y="-18.2" transform="matrix(0.9966 -8.257723e-02 8.257723e-02 0.9966 -0.4871 0.8452)" class="st5" width="1.6" height="49"/>
																		</g>
																	</g>
																</g>
															</g>
														</g>
													</g>
												</g>
											</g>
										</g>
									</g>
								</g>
							</g>
						</g>
					</g>
				</g>
			</g>
		</g>
	</g>
</g>
</svg>
