{"asset":{"generator":"3D Builder","version":"2.0"},"scene":0,"scenes":[{"nodes":[0]}],"nodes":[{"mesh":0,"matrix":[0.99999994039535522,0,0,0,0,-1.1920928244535389E-7,-0.99999982118606567,0,0,0.99999982118606567,-1.1920928244535389E-7,0,0,0.0050849085673689842,-6.0616839325788874E-10,1]}],"meshes":[{"primitives":[{"attributes":{"POSITION":0},"mode":4,"indices":5,"material":0},{"attributes":{"POSITION":1},"mode":4,"indices":6,"material":1},{"attributes":{"POSITION":2},"mode":4,"indices":7,"material":2},{"attributes":{"POSITION":3},"mode":4,"indices":8,"material":3},{"attributes":{"POSITION":4},"mode":4,"indices":9,"material":4}]}],"materials":[{"name":"lip_02SG","pbrMetallicRoughness":{"baseColorFactor":[0,0,0,1],"metallicFactor":0,"roughnessFactor":1},"alphaMode":"OPAQUE"},{"name":"mukut_02SG","pbrMetallicRoughness":{"baseColorFactor":[0,0,0,1],"metallicFactor":0,"roughnessFactor":1},"alphaMode":"OPAQUE"},{"name":"mukut_02SG1","pbrMetallicRoughness":{"baseColorFactor":[0,0,0,1],"metallicFactor":0,"roughnessFactor":1},"alphaMode":"OPAQUE"},{"name":"torso_02SG","pbrMetallicRoughness":{"baseColorFactor":[0,0,0,1],"metallicFactor":0,"roughnessFactor":1},"alphaMode":"OPAQUE"},{"name":"eye_02SG","pbrMetallicRoughness":{"baseColorFactor":[0,0,0,1],"metallicFactor":0,"roughnessFactor":1},"alphaMode":"OPAQUE"}],"accessors":[{"bufferView":0,"byteOffset":0,"count":2337,"componentType":5126,"type":"VEC3","min":[-0.024097654968500137,-2.3131000489229336E-5,-0.004417699296027422],"max":[0.024097654968500137,0.050118733197450638,0.0078310854732990265]},{"bufferView":0,"byteOffset":28044,"count":793,"componentType":5126,"type":"VEC3","min":[-0.019681697711348534,0.0020421291701495647,-0.0036721751093864441],"max":[0.019681697711348534,0.054467599838972092,0.0060048801824450493]},{"bufferView":0,"byteOffset":37560,"count":372,"componentType":5126,"type":"VEC3","min":[-0.0097023677080869675,0.048018075525760651,-0.0012992131523787975],"max":[0.0097023677080869675,0.054600734263658524,0.0019222050905227661]},{"bufferView":0,"byteOffset":42024,"count":1515,"componentType":5126,"type":"VEC3","min":[-0.0096419975161552429,0.018375188112258911,-0.0050849090330302715],"max":[0.0096419975161552429,0.048079662024974823,0.0080855274572968483]},{"bufferView":0,"byteOffset":60204,"count":206,"componentType":5126,"type":"VEC3","min":[-0.0026568949688225985,0.046054739505052567,0.0027705542743206024],"max":[0.0026568949688225985,0.047337643802165985,0.0036668081302195787]},{"bufferView":1,"byteOffset":0,"count":13056,"componentType":5125,"type":"SCALAR"},{"bufferView":1,"byteOffset":52224,"count":4308,"componentType":5125,"type":"SCALAR"},{"bufferView":1,"byteOffset":69456,"count":2112,"componentType":5125,"type":"SCALAR"},{"bufferView":1,"byteOffset":77904,"count":8040,"componentType":5125,"type":"SCALAR"},{"bufferView":1,"byteOffset":110064,"count":1056,"componentType":5125,"type":"SCALAR"}],"bufferViews":[{"buffer":0,"byteOffset":0,"byteLength":62676,"byteStride":12,"target":34962},{"buffer":0,"byteOffset":62676,"byteLength":114288,"target":34963}],"buffers":[{"byteLength":176964,"uri":"narkasur_02.bin"}]}