<?xml version="1.0" encoding="utf-8"?>
<!-- Generator: Adobe Illustrator 20.1.0, SVG Export Plug-In . SVG Version: 6.00 Build 0)  -->
<svg version="1.1" id="Layer_1" xmlns="http://www.w3.org/2000/svg" xmlns:xlink="http://www.w3.org/1999/xlink" x="0px" y="0px"
	 viewBox="0 0 134.9 104.5" style="enable-background:new 0 0 134.9 104.5;" xml:space="preserve">
<style type="text/css">
	.st0{fill:none;}
	.st1{fill:none;stroke:#000000;stroke-width:3.6;}
	.st2{fill:url(#SVGID_1_);}
	.st3{fill:url(#SVGID_2_);}
	.st4{fill:#FFFFFF;stroke:#000000;stroke-width:1.1643;stroke-linecap:round;stroke-linejoin:round;stroke-miterlimit:10;}
	.st5{stroke:#000000;stroke-width:1.1643;stroke-linecap:round;stroke-linejoin:round;stroke-miterlimit:10;}
	.st6{fill:url(#SVGID_3_);}
	.st7{fill:url(#SVGID_4_);}
	.st8{fill:url(#SVGID_5_);}
	.st9{fill:url(#SVGID_6_);}
	.st10{fill:#FFFFFF;stroke:#000000;stroke-linecap:round;stroke-linejoin:round;stroke-miterlimit:10;}
	.st11{stroke:#000000;stroke-linecap:round;stroke-linejoin:round;stroke-miterlimit:10;}
	.st12{fill:#FFFFFF;stroke:#FFFFFF;stroke-linecap:round;stroke-linejoin:round;stroke-miterlimit:10;}
	.st13{fill:url(#SVGID_7_);}
	.st14{fill:url(#SVGID_8_);}
	.st15{fill:none;stroke:#000000;stroke-width:2.0672;stroke-miterlimit:10;}
	.st16{opacity:0.5;fill:#FFFFFF;stroke:#000000;stroke-linecap:round;stroke-linejoin:round;stroke-miterlimit:10;}
	.st17{fill:url(#SVGID_9_);}
	.st18{fill:url(#SVGID_10_);}
	.st19{fill:#FFFFFF;stroke:#000000;stroke-width:1.1565;stroke-linecap:round;stroke-linejoin:round;stroke-miterlimit:10;}
	.st20{clip-path:url(#SVGID_13_);}
	.st21{clip-path:url(#SVGID_16_);}
	.st22{fill:url(#SVGID_17_);}
	.st23{fill:url(#SVGID_18_);}
	.st24{fill:url(#SVGID_19_);}
	.st25{fill:url(#SVGID_20_);}
	.st26{fill:url(#SVGID_21_);}
	.st27{fill:url(#SVGID_22_);}
	.st28{fill:url(#SVGID_23_);}
	.st29{fill:url(#SVGID_24_);}
	.st30{fill:url(#SVGID_25_);}
	.st31{fill:url(#SVGID_26_);}
	.st32{fill:url(#SVGID_27_);}
	.st33{fill:url(#SVGID_28_);}
	.st34{fill:url(#SVGID_29_);}
	.st35{fill:url(#SVGID_30_);}
	.st36{fill:url(#SVGID_31_);}
	.st37{fill:url(#SVGID_32_);}
	.st38{fill:url(#SVGID_33_);}
	.st39{fill:url(#SVGID_34_);}
	.st40{fill:url(#SVGID_35_);}
	.st41{fill:url(#SVGID_36_);}
	.st42{fill:url(#SVGID_37_);}
	.st43{fill:url(#SVGID_38_);}
	.st44{fill:url(#SVGID_39_);}
	.st45{fill:url(#SVGID_40_);}
	.st46{fill:url(#SVGID_41_);}
	.st47{fill:url(#SVGID_42_);}
	.st48{fill:url(#SVGID_43_);}
	.st49{fill:url(#SVGID_44_);}
	.st50{fill:url(#SVGID_45_);}
	.st51{fill:url(#SVGID_46_);}
	.st52{clip-path:url(#SVGID_49_);}
	.st53{fill:url(#SVGID_50_);}
	.st54{fill:url(#SVGID_51_);}
	.st55{fill:url(#SVGID_52_);}
	.st56{fill:url(#SVGID_53_);}
	.st57{fill:url(#SVGID_54_);}
	.st58{fill:url(#SVGID_55_);}
	.st59{fill:url(#SVGID_56_);}
	.st60{fill:url(#SVGID_57_);}
	.st61{fill:url(#SVGID_58_);}
	.st62{fill:url(#SVGID_59_);}
	.st63{fill:url(#SVGID_60_);}
	.st64{fill:url(#SVGID_61_);}
	.st65{fill:url(#SVGID_62_);}
	.st66{fill:url(#SVGID_63_);}
	.st67{fill:url(#SVGID_64_);}
	.st68{fill:url(#SVGID_65_);}
	.st69{fill:url(#SVGID_66_);}
	.st70{fill:url(#SVGID_67_);}
	.st71{fill:url(#SVGID_68_);}
	.st72{fill:url(#SVGID_69_);}
	.st73{fill:url(#SVGID_70_);}
	.st74{fill:url(#SVGID_71_);}
	.st75{fill:url(#SVGID_72_);}
	.st76{fill:url(#SVGID_73_);}
	.st77{fill:url(#SVGID_74_);}
	.st78{fill:url(#SVGID_75_);}
	.st79{fill:url(#SVGID_76_);}
	.st80{fill:url(#SVGID_77_);}
	.st81{fill:url(#SVGID_78_);}
	.st82{fill:url(#SVGID_79_);}
	.st83{clip-path:url(#SVGID_82_);}
	.st84{fill:url(#SVGID_83_);}
	.st85{fill:url(#SVGID_84_);}
	.st86{fill:url(#SVGID_85_);}
	.st87{fill:url(#SVGID_86_);}
	.st88{fill:url(#SVGID_87_);}
	.st89{fill:url(#SVGID_88_);}
	.st90{fill:url(#SVGID_89_);}
	.st91{fill:url(#SVGID_90_);}
	.st92{fill:url(#SVGID_91_);}
	.st93{fill:url(#SVGID_92_);}
	.st94{fill:url(#SVGID_93_);}
	.st95{fill:url(#SVGID_94_);}
	.st96{fill:url(#SVGID_95_);}
	.st97{fill:url(#SVGID_96_);}
	.st98{fill:url(#SVGID_97_);}
	.st99{fill:url(#SVGID_98_);}
	.st100{fill:url(#SVGID_99_);}
	.st101{fill:url(#SVGID_100_);}
	.st102{fill:url(#SVGID_101_);}
	.st103{fill:url(#SVGID_102_);}
	.st104{fill:url(#SVGID_103_);}
	.st105{fill:url(#SVGID_104_);}
	.st106{fill:url(#SVGID_105_);}
	.st107{fill:url(#SVGID_106_);}
	.st108{fill:url(#SVGID_107_);}
	.st109{fill:url(#SVGID_108_);}
	.st110{fill:url(#SVGID_109_);}
	.st111{fill:url(#SVGID_110_);}
	.st112{fill:url(#SVGID_111_);}
	.st113{fill:url(#SVGID_112_);}
	.st114{clip-path:url(#SVGID_115_);}
	.st115{fill:url(#SVGID_116_);}
	.st116{fill:url(#SVGID_117_);}
	.st117{fill:url(#SVGID_118_);}
	.st118{fill:url(#SVGID_119_);}
	.st119{fill:url(#SVGID_120_);}
	.st120{fill:url(#SVGID_121_);}
	.st121{fill:url(#SVGID_122_);}
	.st122{fill:url(#SVGID_123_);}
	.st123{fill:url(#SVGID_124_);}
	.st124{fill:url(#SVGID_125_);}
	.st125{fill:url(#SVGID_126_);}
	.st126{fill:url(#SVGID_127_);}
	.st127{fill:url(#SVGID_128_);}
	.st128{fill:url(#SVGID_129_);}
	.st129{fill:url(#SVGID_130_);}
	.st130{fill:url(#SVGID_131_);}
	.st131{fill:url(#SVGID_132_);}
	.st132{fill:url(#SVGID_133_);}
	.st133{fill:url(#SVGID_134_);}
	.st134{fill:url(#SVGID_135_);}
	.st135{fill:url(#SVGID_136_);}
	.st136{fill:url(#SVGID_137_);}
	.st137{fill:url(#SVGID_138_);}
	.st138{fill:url(#SVGID_139_);}
	.st139{fill:url(#SVGID_140_);}
	.st140{fill:url(#SVGID_141_);}
	.st141{fill:url(#SVGID_142_);}
	.st142{fill:url(#SVGID_143_);}
	.st143{fill:url(#SVGID_144_);}
	.st144{fill:url(#SVGID_145_);}
	.st145{clip-path:url(#SVGID_148_);}
	.st146{fill:url(#SVGID_149_);}
	.st147{fill:url(#SVGID_150_);}
	.st148{fill:url(#SVGID_151_);}
	.st149{fill:url(#SVGID_152_);}
	.st150{fill:url(#SVGID_153_);}
	.st151{fill:url(#SVGID_154_);}
	.st152{fill:url(#SVGID_155_);}
	.st153{fill:url(#SVGID_156_);}
	.st154{fill:url(#SVGID_157_);}
	.st155{fill:url(#SVGID_158_);}
	.st156{fill:url(#SVGID_159_);}
	.st157{fill:url(#SVGID_160_);}
	.st158{fill:url(#SVGID_161_);}
	.st159{fill:url(#SVGID_162_);}
	.st160{fill:url(#SVGID_163_);}
	.st161{fill:url(#SVGID_164_);}
	.st162{fill:url(#SVGID_165_);}
	.st163{fill:url(#SVGID_166_);}
	.st164{fill:url(#SVGID_167_);}
	.st165{fill:url(#SVGID_168_);}
	.st166{fill:url(#SVGID_169_);}
	.st167{fill:url(#SVGID_170_);}
	.st168{fill:url(#SVGID_171_);}
	.st169{fill:url(#SVGID_172_);}
	.st170{fill:url(#SVGID_173_);}
	.st171{fill:url(#SVGID_174_);}
	.st172{fill:url(#SVGID_175_);}
	.st173{fill:url(#SVGID_176_);}
	.st174{fill:url(#SVGID_177_);}
	.st175{fill:url(#SVGID_178_);}
	.st176{clip-path:url(#SVGID_181_);}
	.st177{fill:url(#SVGID_182_);}
	.st178{fill:url(#SVGID_183_);}
	.st179{fill:url(#SVGID_184_);}
	.st180{fill:url(#SVGID_185_);}
	.st181{fill:url(#SVGID_186_);}
	.st182{fill:url(#SVGID_187_);}
	.st183{fill:url(#SVGID_188_);}
	.st184{fill:url(#SVGID_189_);}
	.st185{fill:url(#SVGID_190_);}
	.st186{fill:url(#SVGID_191_);}
	.st187{fill:url(#SVGID_192_);}
	.st188{fill:url(#SVGID_193_);}
	.st189{fill:url(#SVGID_194_);}
	.st190{fill:url(#SVGID_195_);}
	.st191{fill:url(#SVGID_196_);}
	.st192{fill:url(#SVGID_197_);}
	.st193{fill:url(#SVGID_198_);}
	.st194{fill:url(#SVGID_199_);}
	.st195{fill:url(#SVGID_200_);}
	.st196{fill:url(#SVGID_201_);}
	.st197{fill:url(#SVGID_202_);}
	.st198{fill:url(#SVGID_203_);}
	.st199{fill:url(#SVGID_204_);}
	.st200{fill:url(#SVGID_205_);}
	.st201{fill:url(#SVGID_206_);}
	.st202{fill:url(#SVGID_207_);}
	.st203{fill:url(#SVGID_208_);}
	.st204{fill:url(#SVGID_209_);}
	.st205{fill:url(#SVGID_210_);}
	.st206{fill:url(#SVGID_211_);}
	.st207{fill:#FFFFFF;stroke:#000000;stroke-width:2;stroke-linecap:round;stroke-linejoin:round;stroke-miterlimit:10;}
</style>
<pattern  x="-400.1" y="-367" width="72" height="72" patternUnits="userSpaceOnUse" id="_x36__lpi_30_x25_" viewBox="72.2 -72 72 72" style="overflow:visible;">
	<g>
		<rect x="72.2" y="-72" class="st0" width="72" height="72"/>
		<g>
			<line class="st1" x1="144" y1="-6" x2="216.5" y2="-6"/>
			<line class="st1" x1="144" y1="-30" x2="216.5" y2="-30"/>
			<line class="st1" x1="144" y1="-54" x2="216.5" y2="-54"/>
			<line class="st1" x1="144" y1="-18" x2="216.5" y2="-18"/>
			<line class="st1" x1="144" y1="-42" x2="216.5" y2="-42"/>
			<line class="st1" x1="144" y1="-66" x2="216.5" y2="-66"/>
		</g>
		<g>
			<line class="st1" x1="72" y1="-6" x2="144.5" y2="-6"/>
			<line class="st1" x1="72" y1="-30" x2="144.5" y2="-30"/>
			<line class="st1" x1="72" y1="-54" x2="144.5" y2="-54"/>
			<line class="st1" x1="72" y1="-18" x2="144.5" y2="-18"/>
			<line class="st1" x1="72" y1="-42" x2="144.5" y2="-42"/>
			<line class="st1" x1="72" y1="-66" x2="144.5" y2="-66"/>
		</g>
		<g>
			<line class="st1" x1="0" y1="-6" x2="72.5" y2="-6"/>
			<line class="st1" x1="0" y1="-30" x2="72.5" y2="-30"/>
			<line class="st1" x1="0" y1="-54" x2="72.5" y2="-54"/>
			<line class="st1" x1="0" y1="-18" x2="72.5" y2="-18"/>
			<line class="st1" x1="0" y1="-42" x2="72.5" y2="-42"/>
			<line class="st1" x1="0" y1="-66" x2="72.5" y2="-66"/>
		</g>
	</g>
</pattern>
<g>
	<g>
		<path class="st4" d="M114.1,55.8c0,0,8.3-1.1,12.9-4.8c4.6-3.7,5.6-14.8-2.5-18.5c-8.1-3.7-8.3-1-11.4-5.6c0,0-6.2-0.7-7.3,2.9
			c0,0,7.2-0.6,9.7,1.7c2.5,2.3,4.4,3.5,4.4,14.4C119.9,51.4,114.1,55.8,114.1,55.8z"/>
		<path class="st4" d="M33,85.5c0,0,8.9,0.2,10.9-20.4c2-20.6-0.7-35.7-3.1-42.9C38.3,14.9,31,2,23.4,10.6
			c-7.6,8.7-6.3,37.3-5.7,44.7C18.3,62.6,23.1,84.6,33,85.5z"/>
		<path class="st4" d="M111.8,29.8c0,0-28.3,0-37.2-1.5c-8.9-1.5-21.3-4.4-32.4-12.9c0,0,11.2,29.7,3.5,61.7c0,0,7.5-6.9,16.4-10.8
			c8.9-3.9,20.4-5.6,25.2-6.4c4.8-0.8,7.9-4.6,7.9-4.6l18.9-2.7l-1.5,3.5c0,0,3.9-0.4,5.8-3.5c1.6-2.5,3.5-8.3,1.7-15
			C118.3,31.1,111.8,29.8,111.8,29.8z"/>
		<path class="st4" d="M87.3,60c0,0,3.9,0.4,3.7,3.1c-0.2,2.7-4.4,7.5-1.9,10.8c0,0-1,11.4-5.4,19.1c0,0,4.8,5,7.3,6.7
			c2.5,1.7,6.4,0.2,8.1-6.7c1.7-6.9,5.6-24.7,5.6-24.7s2.1-2.5,4.2-3.1c2.1-0.6,5.2-12.5,5.2-12.5l-18.9,2.7
			C95.2,55.4,91.8,59.2,87.3,60z"/>
		<path class="st4" d="M33,85.5c0,0,8.9,0.2,10.9-20.4c2-20.6-0.7-35.7-3.1-42.9C38.3,14.9,31,2,23.4,10.6
			c-7.6,8.7-6.3,37.3-5.7,44.7C18.3,62.6,23.1,84.6,33,85.5z"/>
		<path class="st4" d="M43.6,35.1c0,0-11.7,1.5-15.2,3.2c-2.7,1.3-3.6,6.2-2.9,11.6c0.9,7.6,6.8,7.1,6.8,7.1l12.3-1.1
			C44.5,55.8,47,45.9,43.6,35.1z"/>
		
			<ellipse transform="matrix(0.9998 -2.215641e-02 2.215641e-02 0.9998 -1.0516 0.6419)" class="st5" cx="28.4" cy="47.8" rx="2.4" ry="6.4"/>
		<path class="st4" d="M44.9,19.5C41.7,11.5,32.4-2.8,22.6,6.8c-9.8,9.5-8.1,41-7.3,49.1c0.8,8.1,6.9,32.2,19.5,33.2
			c0,0,11.4,0.2,13.9-22.5C51.3,44,48,27.4,44.9,19.5z M43.9,65.1C41.9,85.7,33,85.5,33,85.5c-9.9-0.9-14.6-22.9-15.3-30.3
			c-0.6-7.4-1.9-36,5.7-44.7C31,2,38.3,14.9,40.8,22.2C43.2,29.4,45.8,44.5,43.9,65.1z"/>
	</g>
	
		<pattern  id="SVGID_1_" xlink:href="#_x36__lpi_30_x25_" patternTransform="matrix(0.1414 -0.1414 0.1414 0.1414 -5460.0874 -7548.1953)">
	</pattern>
	<path class="st2" d="M99,33.5c-16.3,3.6-29.6-3.2-45.1-5.4c-4.7,9.8,4.2,6.7,8.5,10.7c5.8,5.3,4.9,8.3,5.2,16.5
		c7.2,1.4,9.7-9.3,15.2-13c5.5-3.6,17.7-2,19.7-7.5c-1-1.1-1.6,0-2.8-0.6"/>
	
		<pattern  id="SVGID_2_" xlink:href="#_x36__lpi_30_x25_" patternTransform="matrix(0.1414 -0.1414 0.1414 0.1414 -5464.1587 -7551.1035)">
	</pattern>
	<path class="st3" d="M42.4,32.6c-0.9-4.5-3.2-15-9.3-14.4c-2.3,0.2-4.5,2.1-4.5,4.5c0.1,3.6,2.2,1.8,4.2,3.6c2.5,2.2,1.5,6.2,0.6,9
		c4,0.6,9.4-1.7,8.8-6.3"/>
	
		<pattern  id="SVGID_3_" xlink:href="#_x36__lpi_30_x25_" patternTransform="matrix(0.1414 -0.1414 0.1414 0.1414 -5464.1587 -7548.1953)">
	</pattern>
	<path class="st6" d="M28.2,69.1c2.4,8.3,10.7,11,12.5,0.9c0.4-2.4,1.8-8.9,0-10.9c-3.6-3.9-5.5,3.7-6.7,5.8c-1.7,2.8-6.7,3.1-5.4,7
		"/>
	
		<pattern  id="SVGID_4_" xlink:href="#_x36__lpi_30_x25_" patternTransform="matrix(0.1414 -0.1414 0.1414 0.1414 -5455.4204 -7547.1099)">
	</pattern>
	<path class="st7" d="M95.4,93.3c-1.2-2.4-4.3-3.2-5-5.8c-0.9-3,1.9-6.7,2.8-9.5c0.8-2.4,2.4-4.6,2.4-6.9c0-2.4-2.5-5.5,1.2-7
		c2.1-0.9,6.3,1,8.6,1.1c0.4-0.5,0.5-1.2,0.4-1.8c-2.2-0.5-5.3-1.1-7-2.7c-1.3-1.1-2.2-5.5-3.8-3c-0.8,0.4-3.5,1.1-3.8,1.9
		c-0.6,1.4,1.2,2.3,1.4,3.6c0.3,2.7-1.8,5.8-1.9,8.8c-0.2,6.4-6.6,14.6-1.5,19.9c1.8,1.9,9,4.4,6-0.7"/>
</g>
</svg>
