<?xml version="1.0" encoding="utf-8"?>
<!-- Generator: Adobe Illustrator 20.1.0, SVG Export Plug-In . SVG Version: 6.00 Build 0)  -->
<svg version="1.1" id="Layer_1" xmlns="http://www.w3.org/2000/svg" xmlns:xlink="http://www.w3.org/1999/xlink" x="0px" y="0px"
	 viewBox="0 0 106.7 86" style="enable-background:new 0 0 106.7 86;" xml:space="preserve">
<style type="text/css">
	.st0{fill:url(#);}
	.st1{fill:#FFFFFF;stroke:#000000;stroke-width:1.1643;stroke-linecap:round;stroke-linejoin:round;stroke-miterlimit:10;}
	.st2{stroke:#000000;stroke-width:1.1643;stroke-linecap:round;stroke-linejoin:round;stroke-miterlimit:10;}
	.st3{fill:#FFFFFF;stroke:#000000;stroke-linecap:round;stroke-linejoin:round;stroke-miterlimit:10;}
	.st4{stroke:#000000;stroke-linecap:round;stroke-linejoin:round;stroke-miterlimit:10;}
	.st5{fill:#FFFFFF;stroke:#FFFFFF;stroke-linecap:round;stroke-linejoin:round;stroke-miterlimit:10;}
	.st6{fill:none;stroke:#000000;stroke-width:2.0672;stroke-miterlimit:10;}
	.st7{opacity:0.5;fill:#FFFFFF;stroke:#000000;stroke-linecap:round;stroke-linejoin:round;stroke-miterlimit:10;}
	.st8{fill:#FFFFFF;stroke:#000000;stroke-width:1.1565;stroke-linecap:round;stroke-linejoin:round;stroke-miterlimit:10;}
	.st9{clip-path:url(#SVGID_1_);}
	.st10{clip-path:url(#SVGID_2_);}
	.st11{clip-path:url(#SVGID_3_);}
	.st12{clip-path:url(#SVGID_4_);}
	.st13{clip-path:url(#SVGID_5_);}
	.st14{clip-path:url(#SVGID_6_);}
	.st15{clip-path:url(#SVGID_7_);}
	.st16{fill:#FFFFFF;stroke:#000000;stroke-width:2;stroke-linecap:round;stroke-linejoin:round;stroke-miterlimit:10;}
</style>
<g>
	<g>
		<path class="st3" d="M78.4,76.3c-11.7,0-24.3-2.7-24.3-8.8c0-6,12.6-8.8,24.3-8.8c11.7,0,24.3,2.7,24.3,8.8
			C102.6,73.6,90,76.3,78.4,76.3z M78.4,62.7c-13.2,0-20.3,3.4-20.3,4.8s7.1,4.8,20.3,4.8c13.2,0,20.3-3.4,20.3-4.8
			S91.5,62.7,78.4,62.7z"/>
	</g>
	<g>
		<path class="st3" d="M78.4,70.8c-11.7,0-24.3-2.7-24.3-8.8c0-2,1.4-4.7,7.9-6.7c0.5-0.2,1.1-0.3,1.7-0.5c0.3-0.1,0.6-0.1,0.9-0.2
			l0.5-0.1c0.1,0,0.3,0,0.4-0.1l3.9-0.4c2.6-0.3,5.6-0.6,8.8-0.8c3.5-0.2,6.4-0.1,9.1,0.3c1.5,0.2,2.8,0.5,4.1,0.9
			c0.1,0,0.1,0,0.2,0.1c0,0,0.1,0,0.1,0l0.4,0.1c0.3,0.1,0.6,0.1,0.9,0.2c0.6,0.1,1.1,0.3,1.7,0.5c6.6,2,7.9,4.8,7.9,6.7
			C102.6,68,90,70.8,78.4,70.8z M65.8,58.4l-0.4,0.1c-0.3,0.1-0.5,0.1-0.8,0.2c-0.5,0.1-1,0.3-1.5,0.4c-4.2,1.3-5.1,2.6-5.1,2.9
			c0,1.4,7.1,4.8,20.3,4.8c13.2,0,20.3-3.4,20.3-4.8c0-0.3-0.9-1.6-5.1-2.9c-0.5-0.1-1-0.3-1.5-0.4c-0.3-0.1-0.5-0.1-0.8-0.2
			l-0.5-0.1c-0.1,0-0.2-0.1-0.4-0.1l-0.1,0c-1.1-0.3-2.3-0.6-3.5-0.8c-2.3-0.3-5.1-0.4-8.3-0.3c-3,0.2-6,0.5-8.5,0.8l-3.8,0.4
			c0,0-0.1,0-0.2,0C65.9,58.4,65.9,58.4,65.8,58.4z"/>
	</g>
	<g>
		<path class="st3" d="M78.4,65.2c-11.7,0-24.3-2.7-24.3-8.8v-0.3l0.3-0.7c0.1-0.2,0.3-0.4,0.5-0.6c0.2-0.1,0.4-0.2,0.6-0.3
			c0.2-0.1,0.3-0.1,0.6-0.2l1.3-0.3c0.6-0.1,1.3-0.3,1.9-0.5c0.8-0.2,1.6-0.5,2.5-0.7c1.8-0.6,3.9-1.3,6.7-2.3l0.1,0
			c2.5-0.9,5.3-1.8,8.3-2.7c3.4-0.9,6.3-1.5,8.9-1.7c1.5-0.1,2.9-0.1,4.2,0c1.4,0.1,2.7,0.3,3.9,0.7c1.2,0.3,2.4,0.8,3.4,1.4
			c1.1,0.6,2,1.3,2.8,2.1c0.8,0.8,1.4,1.8,1.9,2.8c0.2,0.5,0.4,1,0.5,1.6c0.1,0.3,0.1,0.6,0.1,0.8c0,0.1,0,0.3,0,0.4l0,0.4
			C102.6,62.5,90,65.2,78.4,65.2z M59.2,57.7c2.5,1.6,9,3.6,19.1,3.6c13.2,0,20.3-3.4,20.3-4.8l0-0.2c0-0.1,0-0.1,0-0.2
			c0-0.2,0-0.3-0.1-0.5c-0.1-0.3-0.2-0.6-0.3-0.9c-0.3-0.6-0.6-1.2-1.1-1.7c-0.5-0.5-1.1-1-1.8-1.4c-0.7-0.4-1.6-0.8-2.5-1
			c-0.9-0.3-2-0.4-3.1-0.5c-1.1-0.1-2.3-0.1-3.6,0c-2.4,0.2-5.1,0.7-8.2,1.6c-2.9,0.8-5.6,1.8-8,2.6l-0.1,0c-2.8,1-4.9,1.7-6.8,2.3
			c-0.9,0.3-1.9,0.6-2.7,0.8C60,57.5,59.6,57.6,59.2,57.7z"/>
	</g>
	<g>
		<path class="st3" d="M78.4,59.7c-3.1,0-6.1-0.2-8.9-0.6c-1.4-0.2-2.7-0.4-3.9-0.7L65,58.4c-0.1,0-0.1,0-0.2,0l-2.4-0.2
			c-0.5,0-1-0.1-1.4-0.1c-0.4,0-0.9-0.1-1.3-0.1c-0.8,0-1.4-0.1-2-0.1l-1.4,0c-0.4,0-1.6,0-2.2-1.1l-0.1-0.2l-0.1-0.2
			c-0.2-0.7,0-1.7,1-2.3c0.1-0.1,0.3-0.1,0.5-0.2l1.2-0.6c0.2-0.1,0.5-0.2,0.8-0.4c0.3-0.1,0.6-0.3,1-0.5c0.3-0.2,0.7-0.4,1.1-0.6
			c0.4-0.2,0.8-0.4,1.2-0.7c0.9-0.5,1.8-1.1,2.8-1.7l3.3-2.1c2.2-1.4,4.8-3,7.5-4.5c3.1-1.7,5.8-2.9,8.3-3.7c1.4-0.4,2.8-0.8,4.1-1
			c1.3-0.2,2.7-0.3,3.9-0.2c0.6,0,1.3,0.1,1.9,0.2c0.6,0.1,1.2,0.2,1.8,0.4c0.6,0.2,1.1,0.4,1.7,0.6c0.5,0.2,1,0.5,1.5,0.9
			c0.5,0.3,0.9,0.7,1.3,1.1c0.4,0.4,0.8,0.8,1.1,1.3c0.3,0.5,0.6,1,0.9,1.5c0.2,0.6,0.4,1.1,0.6,1.7c0.3,1.1,0.3,2.2,0.1,3.4
			c-0.2,1-0.6,2.1-1.2,3.2C99.7,53.1,99,54,98,54.9c-0.5,0.4-0.9,0.8-1.4,1.1c-0.5,0.3-1,0.7-1.6,1c-0.5,0.3-1.1,0.6-1.7,0.8
			c-0.3,0.1-0.6,0.2-0.9,0.4l-0.1,0c-0.1,0-0.3,0.1-0.6,0.2l-0.4,0.1c-1.3,0.3-2.6,0.5-3.9,0.7C84.4,59.5,81.4,59.7,78.4,59.7z
			 M65.9,54.5l0.4,0.1c1.1,0.2,2.4,0.4,3.6,0.6c2.7,0.3,5.5,0.5,8.4,0.5c2.9,0,5.8-0.2,8.4-0.5c1.3-0.2,2.5-0.4,3.6-0.6l0.5-0.1
			c0.1,0,0.1,0,0.2-0.1c0.2-0.1,0.5-0.2,0.7-0.3c0.5-0.2,1-0.4,1.4-0.6c0.4-0.2,0.8-0.5,1.2-0.7c0.3-0.2,0.7-0.5,1-0.8
			c0.6-0.6,1.1-1.2,1.5-1.8c0.4-0.7,0.6-1.3,0.7-1.9c0.1-0.7,0.1-1.3,0-1.9c-0.1-0.3-0.2-0.6-0.3-0.9c-0.1-0.2-0.3-0.5-0.5-0.8
			c-0.2-0.3-0.4-0.5-0.6-0.7c-0.2-0.2-0.5-0.5-0.8-0.7c-0.3-0.2-0.6-0.4-1-0.5c-0.4-0.2-0.8-0.3-1.2-0.4c-0.4-0.1-0.8-0.2-1.3-0.3
			C91.5,42.1,91,42,90.5,42c-1,0-2.1,0-3.1,0.2c-1.1,0.2-2.3,0.5-3.5,0.8c-2.3,0.7-4.8,1.8-7.6,3.4c-2.6,1.4-5.1,3-7.3,4.4l-3.3,2.1
			c-0.8,0.5-1.7,1-2.4,1.5l2,0.2C65.5,54.5,65.7,54.5,65.9,54.5z"/>
	</g>
	<g>
		<path class="st3" d="M55.9,57.4c-0.6,0-1.1-0.3-1.5-0.7l-0.6-0.6l0-0.9c0.1-0.9,0.7-1.4,1.1-1.8l1-0.8c0.5-0.4,1-0.9,1.5-1.3
			c0.6-0.5,1.3-1.2,2-1.8c1.5-1.4,3.2-3.1,5-4.9c1.9-1.9,4-4,6.4-6.1c2.6-2.3,5-4.1,7.3-5.4c2.6-1.5,5.1-2.5,7.5-3
			c1.3-0.2,2.5-0.3,3.7-0.2c1.2,0.1,2.3,0.3,3.4,0.7c0.5,0.2,1.1,0.5,1.6,0.8c0.5,0.3,0.9,0.6,1.4,1c0.8,0.7,1.5,1.7,2.1,2.7l0,0.1
			c0.5,1.1,0.8,2.2,0.8,3.3c0,1.2-0.1,2.3-0.5,3.4c-0.4,1.1-0.9,2.2-1.6,3.1c-0.7,1-1.5,1.9-2.5,2.7c-1,0.8-2,1.6-3.2,2.3
			c-1.1,0.7-2.4,1.3-3.8,1.8c-2.5,1-5.3,1.7-8.8,2.3c-3.1,0.5-6,0.9-8.6,1.1l-0.1,0c-2.4,0.3-5,0.6-7,0.8c-0.9,0.1-1.8,0.3-2.6,0.4
			c-0.6,0.1-1.3,0.3-1.9,0.4c-0.3,0.1-0.6,0.1-0.9,0.2c-0.2,0-0.3,0.1-0.4,0.1C56.5,57.4,56.2,57.4,55.9,57.4z M88.5,33.9
			c-0.7,0-1.4,0.1-2.1,0.2c-2,0.4-4.1,1.2-6.2,2.5c-2.1,1.2-4.2,2.8-6.7,5c-2.2,2-4.3,4.1-6.2,5.9c-1.7,1.7-3.3,3.3-4.7,4.6
			c2-0.3,4.3-0.5,6.6-0.8l0.1,0c2.6-0.3,5.5-0.6,8.4-1.1c3.2-0.5,5.8-1.2,8-2.1c1.2-0.5,2.3-1,3.2-1.5c1-0.6,1.8-1.2,2.6-1.8
			c0.7-0.6,1.3-1.3,1.8-2c0.5-0.7,0.8-1.3,1-2.1c0.2-0.6,0.3-1.3,0.3-2c0-0.6-0.2-1.2-0.5-1.8c-0.3-0.6-0.7-1.1-1.1-1.5
			c-0.2-0.2-0.5-0.4-0.8-0.6c-0.3-0.2-0.6-0.3-0.9-0.4c-0.7-0.3-1.5-0.4-2.3-0.5C88.9,34,88.7,33.9,88.5,33.9z"/>
	</g>
	<g>
		<path class="st3" d="M55.6,57h-1l-0.6-0.9c-0.9-1.3,0-2.4,0.6-3.2c0.1-0.2,0.3-0.4,0.5-0.6c0.4-0.5,0.8-1,1.2-1.6
			c0.5-0.6,1-1.3,1.5-2.2c0.5-0.8,1.1-1.6,1.8-2.7l2.1-3.3c1.4-2.2,3-4.8,4.8-7.3c2-2.8,4-5.1,5.9-6.9c1.1-1,2.2-1.9,3.3-2.6
			c1.2-0.8,2.3-1.4,3.4-1.9c1.2-0.5,2.4-0.9,3.5-1c1.2-0.2,2.4-0.2,3.5-0.1c1.2,0.2,2.3,0.5,3.2,1.1c1.1,0.6,2,1.3,2.6,2.2
			c0.3,0.4,0.6,0.9,0.9,1.4c0.3,0.5,0.5,1,0.6,1.6c0.2,0.6,0.3,1.1,0.3,1.7c0,0.6,0,1.1,0,1.7c-0.1,0.6-0.1,1.2-0.3,1.7
			c-0.1,0.6-0.3,1.1-0.5,1.7c-0.2,0.5-0.5,1.1-0.8,1.6c-0.3,0.5-0.6,1.1-1,1.6c-0.7,1-1.6,2-2.6,2.9c-1,0.9-2.1,1.8-3.3,2.6
			c-2.2,1.5-4.8,2.9-8,4.2c-2.8,1.2-5.6,2.2-8.1,3l-3.7,1.3c-1.1,0.4-2.1,0.8-3.1,1.1c-0.5,0.2-0.9,0.4-1.3,0.5
			c-0.4,0.2-0.8,0.3-1.2,0.5c-0.4,0.2-0.7,0.3-1,0.4c-0.3,0.1-0.6,0.3-0.8,0.4l-1.2,0.6c-0.2,0.1-0.4,0.2-0.5,0.2
			C56.1,56.9,55.9,57,55.6,57z M84.6,26.6c-0.4,0-0.9,0-1.4,0.1c-0.8,0.1-1.7,0.4-2.6,0.8c-0.9,0.4-1.8,0.9-2.8,1.5
			c-0.9,0.6-1.9,1.4-2.8,2.3c-1.7,1.6-3.5,3.7-5.4,6.3c-1.7,2.4-3.3,4.9-4.7,7.1l-2.1,3.3c-0.6,0.9-1.1,1.7-1.6,2.4
			c0.8-0.3,1.7-0.6,2.7-1l3.7-1.3c2.4-0.8,5.2-1.8,7.9-3c3-1.2,5.4-2.5,7.4-3.8c1-0.7,2-1.5,2.8-2.2c0.8-0.7,1.5-1.5,2.1-2.3
			c0.3-0.4,0.5-0.8,0.8-1.2c0.2-0.4,0.4-0.8,0.6-1.2c0.2-0.4,0.3-0.8,0.4-1.2c0.1-0.3,0.1-0.7,0.2-1.1c0-0.3,0-0.7,0-1
			c0-0.3-0.1-0.6-0.2-0.9c-0.1-0.3-0.2-0.6-0.3-0.9c-0.1-0.3-0.3-0.5-0.5-0.8c-0.4-0.5-0.8-0.9-1.4-1.2c-0.5-0.3-1.2-0.5-1.9-0.6
			C85.2,26.6,84.9,26.6,84.6,26.6z"/>
	</g>
	<g>
		<path class="st3" d="M55.2,56.5h-0.4l-0.6-0.2L54,56.2c-0.6-0.4-1.2-1.3-0.7-2.5c0-0.1,0.1-0.3,0.2-0.5l1-2c0.1-0.3,0.3-0.6,0.4-1
			c0.2-0.4,0.3-0.7,0.5-1.2c0.2-0.4,0.3-0.8,0.5-1.3c0.3-0.9,0.7-1.9,1.1-3.1l1.3-3.7c0.9-2.5,1.9-5.3,3.1-8.1
			c1.4-3.2,2.7-5.8,4.2-8c0.8-1.2,1.7-2.3,2.6-3.3c0.9-1,1.9-1.9,2.9-2.6c0.5-0.4,1.1-0.7,1.6-1c0.5-0.3,1.1-0.6,1.6-0.8
			c0.6-0.2,1.1-0.4,1.7-0.5c0.6-0.1,1.1-0.2,1.7-0.3c0.6,0,1.1,0,1.7,0c0.6,0.1,1.1,0.2,1.7,0.3c0.6,0.2,1.1,0.4,1.6,0.6
			c0.5,0.3,1,0.6,1.4,0.9c0.8,0.7,1.6,1.5,2.2,2.6c0.5,1,0.9,2,1.1,3.2c0.2,1.1,0.1,2.3,0,3.5c-0.2,1.1-0.5,2.3-1.1,3.5
			c-0.5,1.1-1.1,2.3-1.9,3.4c-0.7,1.1-1.6,2.2-2.6,3.2c-1.8,1.9-4.1,3.9-6.9,5.9c-2.5,1.8-5.1,3.4-7.3,4.8l-3.3,2.1
			c-1.1,0.7-2,1.3-2.7,1.8c-0.8,0.5-1.5,1.1-2.2,1.5c-0.6,0.4-1.1,0.8-1.6,1.2l-1,0.8C56.5,56.1,56,56.5,55.2,56.5z M78.6,20.3
			c-0.2,0-0.4,0-0.5,0c-0.4,0-0.7,0.1-1.1,0.2c-0.4,0.1-0.8,0.2-1.2,0.4c-0.4,0.2-0.8,0.3-1.2,0.6c-0.4,0.2-0.8,0.5-1.2,0.8
			c-0.8,0.6-1.6,1.3-2.3,2.1c-0.8,0.8-1.5,1.8-2.2,2.8c-1.3,2-2.6,4.4-3.8,7.4c-1.2,2.7-2.1,5.5-3,7.9l-1.3,3.7
			c-0.4,1-0.7,1.9-1,2.7c0.7-0.5,1.5-1,2.4-1.5l3.2-2c2.2-1.4,4.7-3,7.1-4.7c2.6-1.9,4.7-3.6,6.3-5.4c0.9-0.9,1.6-1.9,2.3-2.8
			c0.6-0.9,1.2-1.9,1.5-2.8c0.4-0.9,0.7-1.8,0.8-2.6c0.1-0.8,0.1-1.6,0-2.3c-0.1-0.7-0.3-1.4-0.6-1.9c-0.3-0.6-0.7-1.1-1.2-1.4
			c-0.3-0.2-0.5-0.4-0.8-0.5c-0.2-0.1-0.5-0.2-0.9-0.3c-0.3-0.1-0.6-0.1-0.9-0.2C79,20.3,78.8,20.3,78.6,20.3z"/>
	</g>
	<g>
		<path class="st3" d="M54.7,56.3h-0.8l-0.1-0.1l-0.2,0l-0.5-0.7c-0.5-0.8-0.3-1.5-0.2-2c0-0.1,0.1-0.3,0.1-0.4
			c0.1-0.2,0.1-0.5,0.2-0.8c0.2-0.7,0.3-1.3,0.4-1.9c0.1-0.8,0.3-1.7,0.4-2.6c0.3-2,0.6-4.6,0.8-7l0-0.1c0.3-2.6,0.6-5.6,1.2-8.7
			c0.6-3.4,1.3-6.3,2.3-8.8c0.5-1.4,1.1-2.6,1.8-3.8c0.7-1.2,1.4-2.3,2.3-3.2c0.9-1,1.8-1.8,2.7-2.5c1-0.7,2-1.2,3.1-1.6
			c1.1-0.3,2.2-0.5,3.4-0.5c1.1,0.1,2.3,0.3,3.3,0.8l0.1,0c1.1,0.5,2,1.2,2.7,2.1c0.4,0.4,0.7,0.9,1,1.4c0.3,0.5,0.6,1,0.8,1.6
			c0.4,1.1,0.7,2.3,0.7,3.4c0.1,1.2,0,2.4-0.2,3.7c-0.5,2.4-1.5,5-3,7.5c-1.3,2.3-3.1,4.7-5.4,7.3c-2.1,2.3-4.2,4.5-6.1,6.3
			c-1.8,1.8-3.6,3.6-5,5c-0.6,0.7-1.3,1.4-1.8,2c-0.5,0.6-1,1.2-1.3,1.5c-0.2,0.2-0.3,0.4-0.4,0.6l-0.3,0.4
			C56.3,55.6,55.7,56.3,54.7,56.3z M71.2,15.5c-0.6,0-1.2,0.1-1.7,0.3c-0.7,0.2-1.4,0.6-2.1,1c-0.7,0.5-1.4,1.1-2,1.8
			c-0.6,0.7-1.3,1.6-1.8,2.6c-0.6,1-1.1,2.1-1.5,3.2c-0.9,2.2-1.5,4.9-2.1,8c-0.5,2.9-0.8,5.9-1.1,8.4l0,0.1
			c-0.2,2.2-0.5,4.6-0.8,6.5c1.3-1.4,3-3,4.6-4.7c1.8-1.8,3.9-3.9,5.9-6.2c2.1-2.4,3.8-4.6,5-6.6c1.3-2.2,2.1-4.3,2.5-6.2
			c0.2-0.9,0.2-1.8,0.2-2.7c0-0.8-0.2-1.5-0.5-2.3c-0.1-0.3-0.3-0.6-0.4-0.9c-0.2-0.3-0.4-0.6-0.6-0.8c-0.4-0.4-0.9-0.8-1.5-1.1
			c-0.6-0.3-1.2-0.4-1.8-0.5C71.4,15.5,71.3,15.5,71.2,15.5z"/>
	</g>
	<g>
		<path class="st3" d="M54.2,56.1H54L53.5,56l-0.2-0.1c-1.1-0.6-1.1-1.7-1.1-2.2l0-1.3c0-0.5,0-1.2-0.1-2c0-0.4,0-0.8-0.1-1.3
			c0-0.4-0.1-0.9-0.1-1.4c-0.1-1-0.2-2.1-0.3-3.3l-0.4-3.8c-0.3-2.6-0.6-5.6-0.8-8.8c-0.2-3.5-0.1-6.4,0.3-9.1
			c0.2-1.4,0.5-2.8,0.9-4.1c0.4-1.3,0.9-2.5,1.5-3.6c0.3-0.6,0.6-1.1,1-1.6c0.3-0.5,0.7-1,1.1-1.4c0.9-1,1.8-1.7,2.7-2.2
			c1.1-0.6,2.1-1,3.2-1.2c1.1-0.2,2.3-0.2,3.4,0.1c0.5,0.1,1.1,0.3,1.6,0.5c0.6,0.3,1,0.5,1.5,0.9c0.5,0.4,0.9,0.7,1.3,1.1
			c0.4,0.4,0.7,0.9,1.1,1.3c0.6,0.9,1.1,2,1.5,3.2c0.2,0.6,0.3,1.2,0.4,1.8c0.1,0.6,0.2,1.3,0.2,1.9c0.1,1.3,0,2.6-0.2,3.9
			c-0.2,1.3-0.5,2.7-1,4.1c-0.8,2.5-2,5.2-3.7,8.3c-1.5,2.7-3.1,5.2-4.4,7.4l-2.1,3.3c-0.6,1-1.2,1.9-1.7,2.8
			c-0.2,0.4-0.5,0.8-0.7,1.2c-0.2,0.4-0.4,0.8-0.6,1.1c-0.3,0.6-0.6,1.2-0.9,1.8l-0.5,1.2c-0.1,0.2-0.2,0.4-0.2,0.5
			C55.5,56,54.6,56.1,54.2,56.1z M62.7,12.5c-0.3,0-0.6,0-0.9,0.1c-0.6,0.1-1.2,0.3-1.9,0.7c-0.6,0.3-1.2,0.8-1.8,1.5
			c-0.3,0.3-0.6,0.7-0.8,1c-0.3,0.4-0.5,0.8-0.7,1.2c-0.5,0.9-0.9,1.9-1.2,2.9c-0.3,1.1-0.6,2.3-0.8,3.5c-0.3,2.4-0.4,5.1-0.3,8.3
			c0.2,3,0.5,6,0.8,8.5l0.4,3.8c0.1,1,0.2,1.9,0.3,2.8c0.4-0.7,0.9-1.5,1.5-2.4l2.1-3.4c1.4-2.2,2.9-4.6,4.3-7.2
			c1.6-2.8,2.7-5.3,3.4-7.6c0.4-1.2,0.7-2.4,0.8-3.5c0.2-1.1,0.2-2.1,0.2-3.1c0-0.5-0.1-1-0.1-1.4c-0.1-0.4-0.2-0.9-0.3-1.3
			c-0.2-0.8-0.6-1.5-1-2.1c-0.2-0.3-0.4-0.6-0.7-0.8c-0.2-0.2-0.4-0.4-0.7-0.6c-0.3-0.2-0.5-0.3-0.8-0.5c-0.2-0.1-0.6-0.2-0.9-0.3
			C63.3,12.5,63,12.5,62.7,12.5z"/>
	</g>
	<g>
		<path class="st3" d="M53.7,56L53.7,56h-0.3l-0.1,0c-0.7-0.1-1.4-0.6-1.7-1.9l-0.3-1.3c-0.1-0.6-0.3-1.3-0.5-1.9
			c-0.2-0.8-0.5-1.6-0.7-2.5c-0.6-1.9-1.3-4-2.3-6.7l0-0.1c-0.9-2.5-1.8-5.3-2.7-8.2c-0.9-3.4-1.5-6.3-1.7-8.9
			c-0.1-1.5-0.1-2.9,0-4.2c0.1-1.4,0.3-2.7,0.7-3.9c0.3-1.2,0.8-2.4,1.4-3.4c0.6-1.1,1.3-2,2.1-2.8c0.8-0.8,1.8-1.4,2.8-1.9
			c1.1-0.4,2.2-0.7,3.3-0.7l0,0l0,0c1.2,0,2.3,0.2,3.3,0.7c1.1,0.5,2,1.1,2.8,1.9c0.8,0.8,1.6,1.7,2.1,2.8c0.6,1,1.1,2.2,1.4,3.4
			c0.3,1.2,0.6,2.5,0.7,3.9c0.1,1.3,0.1,2.7,0,4.2c-0.2,2.6-0.8,5.6-1.7,8.9c-0.8,3-1.8,5.8-2.7,8.3l0,0.1c-0.9,2.6-1.7,4.8-2.3,6.7
			c-0.3,0.9-0.5,1.8-0.7,2.6c-0.2,0.6-0.3,1.3-0.5,1.9L55.8,54c-0.3,1.4-1.1,1.8-1.7,2L54,56L53.7,56C53.7,56,53.7,56,53.7,56
			L53.7,56L53.7,56z M53.7,11.5c-0.6,0-1.2,0.1-1.8,0.4c-0.6,0.3-1.2,0.6-1.7,1.1c-0.5,0.5-1,1.1-1.4,1.8c-0.4,0.7-0.8,1.6-1,2.5
			c-0.3,0.9-0.4,2-0.5,3.1c-0.1,1.1-0.1,2.3,0,3.6c0.2,2.4,0.7,5.1,1.6,8.2c0.8,2.9,1.8,5.6,2.6,8l0,0.1c0.9,2.5,1.6,4.5,2.2,6.3
			c0.6-1.8,1.3-3.9,2.2-6.3l0-0.1c0.8-2.4,1.8-5.2,2.6-8.1c0.9-3.1,1.4-5.8,1.6-8.2c0.1-1.3,0.1-2.5,0-3.6c-0.1-1.1-0.3-2.2-0.5-3.1
			c-0.3-0.9-0.6-1.8-1-2.5c-0.4-0.7-0.9-1.3-1.4-1.8c-0.5-0.5-1.1-0.8-1.7-1.1C54.9,11.6,54.3,11.5,53.7,11.5z"/>
	</g>
	<g>
		<path class="st3" d="M53.1,56.1c-0.4,0-1.2-0.1-1.8-1.1c-0.1-0.1-0.1-0.3-0.2-0.5l-0.6-1.2c-0.3-0.5-0.6-1.1-0.9-1.8
			c-0.2-0.3-0.4-0.7-0.6-1.1c-0.2-0.4-0.4-0.8-0.7-1.2c-0.5-0.9-1.1-1.8-1.7-2.8l-2.1-3.3c-1.4-2.2-3-4.7-4.5-7.4
			c-1.7-3.1-2.9-5.8-3.7-8.3c-0.4-1.4-0.8-2.8-1-4.1c-0.2-1.3-0.3-2.7-0.2-3.9c0-0.6,0.1-1.3,0.2-1.9c0.1-0.6,0.2-1.2,0.4-1.8
			c0.4-1.2,0.9-2.3,1.5-3.2c0.3-0.5,0.7-0.9,1.1-1.3c0.4-0.4,0.8-0.8,1.3-1.1c0.5-0.3,1-0.6,1.5-0.9c0.6-0.2,1.1-0.4,1.7-0.6
			c1-0.3,2.2-0.3,3.4-0.1c1,0.2,2.1,0.6,3.2,1.2c0.9,0.5,1.8,1.3,2.7,2.2c0.4,0.5,0.8,0.9,1.1,1.4c0.3,0.5,0.7,1,1,1.6
			c0.6,1.1,1.1,2.3,1.5,3.6c0.4,1.3,0.7,2.6,0.9,4.1c0.4,2.6,0.5,5.6,0.3,9.1c-0.2,3.1-0.5,6.1-0.8,8.8l-0.4,3.8
			c-0.1,1.2-0.2,2.3-0.3,3.2c0,0.5-0.1,1-0.1,1.4c0,0.4-0.1,0.9-0.1,1.2c0,0.8-0.1,1.4-0.1,2l0,1.3c0,0.5,0,1.7-1.1,2.2L53.8,56
			l-0.5,0.1H53.1z M44.7,12.5c-0.3,0-0.7,0-1,0.1c-0.3,0.1-0.6,0.2-0.9,0.3c-0.2,0.1-0.5,0.3-0.8,0.5c-0.3,0.2-0.5,0.4-0.7,0.6
			c-0.2,0.3-0.5,0.5-0.7,0.8c-0.4,0.6-0.7,1.3-1,2.1c-0.1,0.4-0.2,0.8-0.3,1.3c-0.1,0.4-0.1,0.9-0.1,1.4c0,1,0,2.1,0.2,3.1
			c0.2,1.1,0.5,2.3,0.8,3.5c0.7,2.3,1.8,4.8,3.4,7.6c1.4,2.6,3,5.1,4.3,7.2l2.1,3.3c0.5,0.8,1,1.7,1.5,2.4c0.1-0.9,0.2-1.8,0.3-2.8
			l0.4-3.8c0.3-2.6,0.6-5.5,0.8-8.5c0.2-3.2,0.1-5.9-0.3-8.3c-0.2-1.3-0.4-2.4-0.8-3.5c-0.3-1-0.7-2-1.2-2.9
			c-0.2-0.4-0.5-0.8-0.7-1.2c-0.2-0.3-0.5-0.7-0.8-1c-0.6-0.6-1.2-1.1-1.8-1.5c-0.7-0.4-1.3-0.6-1.9-0.7
			C45.3,12.5,45,12.5,44.7,12.5z"/>
	</g>
	<g>
		<path class="st3" d="M52.6,56.3c-1,0-1.5-0.7-1.9-1.1l-0.4-0.5c-0.1-0.2-0.3-0.4-0.4-0.6c-0.3-0.4-0.7-0.9-1.3-1.5
			c-0.5-0.6-1.2-1.3-1.8-2c-1.4-1.5-3.1-3.2-4.9-5c-1.9-1.9-4-4-6.1-6.4c-2.3-2.6-4.1-5-5.4-7.3c-1.5-2.6-2.5-5.1-3-7.5
			c-0.2-1.3-0.3-2.5-0.2-3.7c0.1-1.2,0.3-2.3,0.7-3.4c0.2-0.5,0.5-1.1,0.8-1.6c0.3-0.5,0.6-0.9,1-1.4c0.7-0.8,1.6-1.5,2.7-2.1l0.1,0
			c1.1-0.5,2.2-0.8,3.3-0.8c0.2,0,0.3,0,0.4,0c1,0,2,0.2,3,0.5c1.1,0.4,2.2,0.9,3.1,1.6c1,0.7,1.9,1.5,2.7,2.5
			c0.8,0.9,1.6,2,2.3,3.2c0.7,1.2,1.3,2.4,1.8,3.8c1,2.5,1.7,5.3,2.3,8.8c0.5,3,0.9,6,1.2,8.6l0,0.1c0.3,2.4,0.5,5,0.8,7
			c0.1,0.9,0.3,1.8,0.4,2.6c0.1,0.6,0.3,1.3,0.4,1.9c0.1,0.3,0.1,0.6,0.2,0.8c0,0.2,0.1,0.3,0.1,0.4c0.1,0.5,0.3,1.3-0.2,2l-0.5,0.7
			l-0.2,0l-0.1,0.1L52.6,56.3z M34.2,15.9c-0.6,0.3-1.1,0.7-1.5,1.1c-0.2,0.2-0.4,0.5-0.6,0.8c-0.2,0.3-0.3,0.6-0.4,0.9
			c-0.3,0.8-0.4,1.5-0.5,2.3c-0.1,0.9,0,1.8,0.2,2.7c0.4,2,1.2,4.1,2.5,6.2c1.2,2.1,2.8,4.2,5,6.7c2,2.2,4.1,4.3,5.9,6.1
			c1.7,1.7,3.3,3.3,4.7,4.7c-0.3-2-0.5-4.3-0.8-6.6l0-0.1c-0.3-2.6-0.6-5.4-1.1-8.4c-0.5-3.2-1.2-5.8-2.1-8c-0.5-1.2-1-2.3-1.5-3.2
			c-0.6-1-1.2-1.8-1.8-2.6c-0.6-0.7-1.3-1.3-2-1.8c-0.6-0.5-1.3-0.8-2.1-1c-0.6-0.2-1.3-0.3-2-0.3C35.4,15.5,34.8,15.7,34.2,15.9z"
			/>
	</g>
	<g>
		<path class="st3" d="M52.2,56.5c-0.8,0-1.3-0.4-1.6-0.7l-1-0.8c-0.5-0.4-1-0.8-1.6-1.2c-0.6-0.5-1.4-1-2.2-1.5
			c-0.8-0.5-1.6-1.1-2.7-1.8l-3.2-2c-2.3-1.4-4.8-3-7.3-4.8c-2.8-2-5.1-4-6.9-5.9c-1-1.1-1.9-2.2-2.6-3.2c-0.8-1.2-1.4-2.3-1.9-3.4
			c-0.5-1.2-0.9-2.4-1-3.5c-0.2-1.2-0.2-2.4-0.1-3.5c0.2-1.2,0.5-2.3,1.1-3.2c0.6-1.1,1.3-2,2.2-2.6c0.4-0.3,0.9-0.6,1.4-0.9
			c0.5-0.2,1-0.5,1.6-0.6c0.6-0.2,1.1-0.3,1.7-0.3c0.6-0.1,1.1,0,1.7,0c0.6,0,1.2,0.1,1.7,0.3c0.6,0.1,1.1,0.3,1.7,0.5
			c0.5,0.2,1.1,0.5,1.6,0.8c0.5,0.3,1.1,0.6,1.6,1c1,0.7,2,1.6,2.9,2.6c0.9,1,1.8,2.1,2.6,3.3c1.5,2.2,2.9,4.8,4.2,8
			c1.2,2.8,2.2,5.6,3,8.1l1.3,3.7c0.4,1.1,0.8,2.1,1.1,3.1c0.2,0.5,0.4,0.9,0.5,1.3c0.2,0.4,0.3,0.8,0.5,1.2c0.2,0.4,0.3,0.7,0.4,1
			l1,2c0.1,0.2,0.2,0.4,0.2,0.5c0.4,1.1-0.1,2-0.7,2.4l-0.2,0.1l-0.6,0.2L52.2,56.5z M28.7,20.3c-0.2,0-0.3,0-0.5,0
			c-0.3,0-0.6,0.1-0.9,0.2c-0.3,0.1-0.6,0.2-0.9,0.3c-0.3,0.1-0.5,0.3-0.8,0.5c-0.5,0.4-0.9,0.8-1.2,1.4c-0.3,0.5-0.5,1.2-0.6,1.9
			c-0.1,0.7-0.1,1.5,0,2.3c0.1,0.8,0.4,1.7,0.8,2.6c0.4,0.9,0.9,1.8,1.5,2.8c0.6,0.9,1.4,1.9,2.3,2.8c1.6,1.7,3.7,3.5,6.3,5.4
			c2.4,1.7,4.9,3.3,7.1,4.7l3.3,2c0.9,0.6,1.7,1.1,2.4,1.6c-0.3-0.8-0.6-1.7-1-2.7l-1.3-3.7c-0.9-2.4-1.8-5.2-3-7.9
			c-1.2-3-2.5-5.4-3.8-7.4c-0.7-1.1-1.5-2-2.2-2.8c-0.7-0.8-1.5-1.5-2.3-2.1c-0.4-0.3-0.8-0.5-1.2-0.8c-0.4-0.2-0.8-0.4-1.2-0.6
			c-0.4-0.2-0.8-0.3-1.2-0.4c-0.3-0.1-0.7-0.1-1.1-0.2C29.1,20.3,28.9,20.3,28.7,20.3z"/>
	</g>
	<g>
		<path class="st3" d="M51.8,57c-0.3,0-0.5,0-0.8-0.1c-0.1,0-0.3-0.1-0.5-0.2L49.3,56c-0.2-0.1-0.5-0.2-0.8-0.4
			c-0.3-0.1-0.6-0.3-1-0.4c-0.4-0.2-0.7-0.3-1.2-0.5c-0.4-0.2-0.8-0.3-1.3-0.5c-0.9-0.4-1.9-0.7-3.1-1.1l-3.7-1.3
			c-2.5-0.9-5.3-1.9-8.1-3c-3.2-1.3-5.8-2.7-8-4.2c-1.2-0.8-2.3-1.7-3.3-2.6c-1-0.9-1.9-1.9-2.6-2.9c-0.4-0.5-0.7-1.1-1-1.6
			c-0.3-0.5-0.6-1.1-0.8-1.6c-0.2-0.6-0.4-1.1-0.5-1.7c-0.1-0.6-0.2-1.1-0.3-1.7c0-0.6,0-1.1,0-1.7c0.1-0.6,0.2-1.1,0.3-1.7
			c0.2-0.6,0.4-1.1,0.6-1.6c0.3-0.5,0.6-1,0.9-1.4c0.7-0.8,1.5-1.6,2.6-2.2c0.9-0.5,2-0.9,3.2-1.1c1.1-0.2,2.3-0.1,3.5,0
			c1.1,0.2,2.3,0.5,3.5,1c1.1,0.5,2.3,1.1,3.4,1.9c1.1,0.7,2.2,1.6,3.3,2.6c1.9,1.8,3.9,4.1,5.9,6.9c1.8,2.5,3.4,5.1,4.8,7.3
			l2.1,3.3c0.7,1.1,1.3,2,1.8,2.7c0.6,0.8,1.1,1.5,1.5,2.2c0.4,0.6,0.8,1.1,1.2,1.6c0.2,0.2,0.4,0.5,0.5,0.6
			c0.6,0.8,1.5,1.9,0.6,3.2l-0.6,0.8L51.8,57z M22.8,26.6c-0.3,0-0.7,0-1,0.1c-0.7,0.1-1.4,0.3-1.9,0.6c-0.6,0.3-1.1,0.7-1.4,1.2
			c-0.2,0.3-0.4,0.5-0.5,0.8c-0.1,0.2-0.2,0.5-0.3,0.9c-0.1,0.3-0.1,0.6-0.2,0.9c0,0.3,0,0.7,0,1c0,0.4,0.1,0.7,0.2,1.1
			c0.1,0.4,0.2,0.8,0.4,1.2c0.2,0.4,0.3,0.8,0.6,1.2c0.2,0.4,0.5,0.8,0.8,1.2c0.6,0.8,1.3,1.6,2.1,2.3c0.8,0.8,1.8,1.5,2.8,2.2
			c2,1.3,4.4,2.6,7.4,3.8c2.7,1.1,5.5,2.1,7.9,3l3.7,1.3c1,0.3,1.9,0.7,2.7,1c-0.5-0.7-1-1.5-1.5-2.4l-2.1-3.3
			c-1.4-2.2-2.9-4.7-4.7-7.1c-1.9-2.6-3.6-4.7-5.4-6.3c-0.9-0.9-1.9-1.6-2.8-2.3c-0.9-0.6-1.9-1.2-2.8-1.5c-0.9-0.4-1.8-0.7-2.6-0.8
			C23.7,26.6,23.3,26.6,22.8,26.6z"/>
	</g>
	<g>
		<path class="st3" d="M51.5,57.4c-0.3,0-0.6-0.1-0.9-0.1c-0.1,0-0.3-0.1-0.4-0.1c-0.2-0.1-0.5-0.1-0.8-0.2
			c-0.7-0.2-1.3-0.3-1.9-0.4c-0.8-0.1-1.7-0.3-2.6-0.4c-2-0.3-4.6-0.6-7-0.8l-0.1,0c-2.6-0.3-5.6-0.6-8.6-1.1
			c-3.4-0.6-6.3-1.3-8.8-2.3c-1.4-0.5-2.6-1.1-3.8-1.8c-1.2-0.7-2.3-1.4-3.2-2.3c-1-0.8-1.8-1.8-2.5-2.7c-0.7-1-1.2-2-1.6-3.1
			c-0.3-1.1-0.5-2.2-0.5-3.4c0.1-1.1,0.3-2.2,0.8-3.3l0-0.1c0.5-1.1,1.2-2,2.1-2.7c0.4-0.4,0.9-0.7,1.4-1c0.5-0.3,1-0.6,1.6-0.8
			c1.1-0.4,2.3-0.7,3.4-0.7c1.2-0.1,2.4,0,3.7,0.2c2.4,0.5,5,1.4,7.5,3c2.3,1.3,4.7,3.1,7.3,5.4c2.3,2.1,4.5,4.2,6.4,6.1
			c1.7,1.7,3.5,3.6,5,4.9c0.7,0.6,1.3,1.2,2,1.8c0.5,0.4,1,0.8,1.5,1.3l1,0.8c0.4,0.3,1,0.8,1.1,1.8l0.1,0.9L53,56.8
			C52.6,57.2,52,57.4,51.5,57.4z M13.2,36.9c-0.3,0.6-0.4,1.2-0.5,1.8c0,0.7,0.1,1.3,0.3,2c0.2,0.8,0.6,1.4,1,2.1
			c0.5,0.7,1.1,1.4,1.8,2c0.7,0.6,1.6,1.3,2.6,1.8c1,0.6,2.1,1.1,3.2,1.5c2.2,0.9,4.9,1.5,8,2.1c2.9,0.5,5.8,0.8,8.4,1.1l0.1,0
			c2.2,0.2,4.6,0.5,6.5,0.8c-1.4-1.4-3.1-3-4.7-4.6c-1.8-1.8-3.9-3.9-6.2-5.9c-2.4-2.1-4.6-3.8-6.7-5c-2.2-1.3-4.3-2.1-6.3-2.5
			c-0.9-0.2-1.8-0.2-2.7-0.2c-0.8,0-1.5,0.2-2.3,0.5c-0.3,0.1-0.6,0.3-0.9,0.4c-0.3,0.2-0.6,0.4-0.8,0.6
			C13.9,35.9,13.5,36.4,13.2,36.9z"/>
	</g>
	<g>
		<path class="st3" d="M29,59.7c-3.1,0-6.1-0.2-8.9-0.6c-1.4-0.2-2.7-0.4-3.9-0.7l-0.4-0.1c-0.2,0-0.4-0.1-0.6-0.2l-0.1,0
			c-0.3-0.1-0.6-0.2-0.9-0.4c-0.6-0.2-1.2-0.5-1.7-0.8c-0.6-0.3-1.1-0.6-1.6-1c-0.5-0.3-1-0.7-1.4-1.1c-1-0.9-1.7-1.8-2.2-2.7
			c-0.6-1.1-1-2.2-1.2-3.2c-0.2-1.2-0.2-2.3,0.1-3.4C6.1,45,6.3,44.5,6.5,44c0.3-0.5,0.5-1,0.9-1.5c0.4-0.5,0.7-0.9,1.1-1.3
			c0.4-0.4,0.9-0.7,1.3-1.1c0.5-0.4,1-0.6,1.5-0.9c0.5-0.2,1.1-0.4,1.7-0.6c0.6-0.2,1.2-0.3,1.8-0.4c0.6-0.1,1.2-0.2,1.9-0.2
			c1.3-0.1,2.6,0,3.9,0.2c1.3,0.2,2.7,0.5,4.1,1c2.5,0.8,5.2,2,8.3,3.7c2.7,1.5,5.2,3.1,7.5,4.5l3.3,2.1c1,0.6,1.9,1.2,2.8,1.7
			c0.4,0.2,0.8,0.5,1.2,0.7c0.4,0.2,0.8,0.4,1.1,0.6c0.3,0.2,0.7,0.3,1,0.5c0.3,0.1,0.6,0.3,0.8,0.4l1.2,0.5
			c0.2,0.1,0.4,0.2,0.5,0.2c1.1,0.6,1.2,1.6,1,2.3l-0.1,0.2l-0.1,0.2c-0.6,1.1-1.7,1.1-2.2,1.1l-1.4,0c-0.5,0-1.1,0-2,0.1
			c-0.4,0-0.8,0-1.2,0.1c-0.4,0-0.9,0.1-1.4,0.1l-2.4,0.2c-0.1,0-0.1,0-0.2,0l0,0l-0.4,0.1c-1.3,0.3-2.6,0.5-3.9,0.7
			C35.1,59.5,32.1,59.7,29,59.7z M16.6,54.5l0.4,0.1c1.1,0.2,2.4,0.4,3.6,0.6c2.7,0.3,5.5,0.5,8.4,0.5c2.9,0,5.8-0.2,8.4-0.5
			c1.3-0.2,2.5-0.4,3.6-0.6l0.4-0.1c0.2-0.1,0.4-0.1,0.6-0.1l2-0.2c-0.8-0.4-1.6-0.9-2.4-1.5l-3.3-2.1c-2.2-1.4-4.7-2.9-7.3-4.4
			c-2.8-1.6-5.3-2.7-7.6-3.4c-1.2-0.4-2.4-0.7-3.5-0.8c-1.1-0.2-2.1-0.2-3.1-0.2c-0.5,0-1,0.1-1.4,0.1c-0.4,0.1-0.9,0.2-1.3,0.3
			c-0.4,0.1-0.8,0.3-1.1,0.4c-0.3,0.1-0.6,0.3-1,0.5c-0.3,0.2-0.6,0.4-0.8,0.7c-0.2,0.2-0.4,0.4-0.6,0.7c-0.2,0.3-0.3,0.5-0.5,0.8
			c-0.1,0.3-0.2,0.6-0.3,0.9c-0.1,0.6-0.2,1.2,0,1.9c0.1,0.6,0.3,1.2,0.7,1.9c0.3,0.6,0.8,1.2,1.5,1.8c0.3,0.3,0.7,0.6,1,0.8
			c0.4,0.3,0.8,0.5,1.2,0.7c0.4,0.2,0.9,0.4,1.4,0.6c0.2,0.1,0.5,0.2,0.7,0.3C16.4,54.5,16.5,54.5,16.6,54.5L16.6,54.5z"/>
	</g>
	<g>
		<path class="st3" d="M29,65.2c-11.7,0-24.3-2.7-24.3-8.8l0-0.4c0-0.2,0-0.3,0-0.4c0-0.3,0.1-0.6,0.1-0.8c0.1-0.6,0.3-1.1,0.5-1.6
			c0.5-1.1,1.1-2,1.9-2.8c0.8-0.8,1.7-1.6,2.8-2.2c1-0.6,2.2-1.1,3.4-1.4c1.2-0.3,2.5-0.6,3.9-0.7c1.3-0.1,2.7-0.1,4.2,0
			c2.6,0.2,5.6,0.8,8.9,1.7c3,0.8,5.8,1.8,8.3,2.7l0.1,0c2.8,1,4.8,1.7,6.7,2.3c0.9,0.3,1.8,0.5,2.6,0.7c0.6,0.2,1.3,0.3,1.9,0.5
			l1.3,0.3c0.3,0.1,0.5,0.1,0.6,0.2c0.2,0.1,0.4,0.2,0.5,0.3l0.4,0.3l0.4,0.6l0.1,0.6v0.2C53.3,62.5,40.7,65.2,29,65.2z M19.2,50
			c-0.5,0-1.1,0-1.6,0.1c-1.1,0.1-2.2,0.3-3.1,0.5c-0.9,0.3-1.8,0.6-2.5,1c-0.7,0.4-1.3,0.9-1.8,1.4c-0.5,0.5-0.8,1.1-1.1,1.7
			c-0.1,0.2-0.2,0.5-0.3,0.9c0,0.1-0.1,0.3-0.1,0.5c0,0.1,0,0.2,0,0.2l0,0.2c0,1.3,7.1,4.8,20.3,4.8c10.1,0,16.7-2,19.2-3.6
			c-0.4-0.1-0.8-0.2-1.1-0.3c-0.8-0.2-1.7-0.5-2.7-0.8c-1.9-0.6-4-1.3-6.8-2.3l-0.1,0c-2.4-0.8-5.2-1.8-8-2.6
			c-3.1-0.9-5.8-1.4-8.2-1.6C20.6,50,19.9,50,19.2,50z"/>
	</g>
	<g>
		<path class="st3" d="M29,70.8C17.3,70.8,4.8,68,4.8,62c0-2,1.4-4.7,7.9-6.7c0.5-0.2,1.1-0.3,1.7-0.5c0.3-0.1,0.6-0.1,0.9-0.2
			l0.4-0.1c0,0,0.1,0,0.1,0c0.1,0,0.2,0,0.2-0.1c1.2-0.4,2.6-0.7,4.1-0.9c2.6-0.4,5.6-0.5,9.1-0.3c3.2,0.2,6.1,0.5,8.8,0.8l3.9,0.4
			c0.1,0,0.3,0,0.4,0.1l0.5,0.1c0.3,0.1,0.6,0.1,0.9,0.2c0.6,0.1,1.1,0.3,1.7,0.5c6.6,2,7.9,4.8,7.9,6.7C53.3,68,40.7,70.8,29,70.8z
			 M26,57.1c-2,0-3.8,0.1-5.3,0.3c-1.3,0.2-2.4,0.4-3.5,0.8l-0.2,0c-0.1,0-0.2,0.1-0.4,0.1l-0.5,0.1c-0.3,0.1-0.5,0.1-0.8,0.2
			c-0.5,0.1-1,0.3-1.5,0.4c-4.2,1.3-5.1,2.6-5.1,2.9c0,1.4,7.1,4.8,20.3,4.8c13.2,0,20.3-3.4,20.3-4.8c0-0.3-0.9-1.6-5.1-2.9
			c-0.5-0.1-1-0.3-1.5-0.4c-0.3-0.1-0.5-0.1-0.8-0.2l-0.4-0.1c0,0-0.1,0-0.1,0c-0.1,0-0.1,0-0.2,0l-3.7-0.4
			c-2.6-0.3-5.5-0.6-8.5-0.8C27.9,57.1,26.9,57.1,26,57.1z"/>
	</g>
	<g>
		<path class="st3" d="M29,76.3c-11.7,0-24.3-2.7-24.3-8.8c0-6,12.6-8.8,24.3-8.8c11.7,0,24.3,2.7,24.3,8.8
			C53.3,73.6,40.7,76.3,29,76.3z M29,62.7c-13.2,0-20.3,3.4-20.3,4.8s7.1,4.8,20.3,4.8c13.2,0,20.3-3.4,20.3-4.8S42.2,62.7,29,62.7z
			"/>
	</g>
	<g>
		<path class="st3" d="M29,81.8c-11.7,0-24.3-2.7-24.3-8.8c0-6,12.6-8.8,24.3-8.8c11.7,0,24.3,2.7,24.3,8.8
			C53.3,79.1,40.7,81.8,29,81.8z M29,68.3c-13.2,0-20.3,3.4-20.3,4.8c0,1.4,7.1,4.8,20.3,4.8c13.2,0,20.3-3.4,20.3-4.8
			C49.3,71.7,42.2,68.3,29,68.3z"/>
	</g>
</g>
</svg>
