<?xml version="1.0" encoding="utf-8"?>
<!-- Generator: Adobe Illustrator 20.1.0, SVG Export Plug-In . SVG Version: 6.00 Build 0)  -->
<svg version="1.1" id="Layer_1" xmlns="http://www.w3.org/2000/svg" xmlns:xlink="http://www.w3.org/1999/xlink" x="0px" y="0px"
	 viewBox="0 0 115.8 106.8" style="enable-background:new 0 0 115.8 106.8;" xml:space="preserve">
<style type="text/css">
	.st0{fill:none;}
	.st1{fill:none;stroke:#000000;stroke-width:3.6;}
	.st2{fill:url(#SVGID_1_);}
	.st3{fill:url(#SVGID_2_);}
	.st4{fill:#FFFFFF;stroke:#000000;stroke-width:1.1643;stroke-linecap:round;stroke-linejoin:round;stroke-miterlimit:10;}
	.st5{stroke:#000000;stroke-width:1.1643;stroke-linecap:round;stroke-linejoin:round;stroke-miterlimit:10;}
	.st6{fill:url(#SVGID_3_);}
	.st7{fill:url(#SVGID_4_);}
	.st8{fill:url(#SVGID_5_);}
	.st9{fill:url(#SVGID_6_);}
	.st10{fill:#FFFFFF;stroke:#000000;stroke-linecap:round;stroke-linejoin:round;stroke-miterlimit:10;}
	.st11{stroke:#000000;stroke-linecap:round;stroke-linejoin:round;stroke-miterlimit:10;}
	.st12{fill:#FFFFFF;stroke:#FFFFFF;stroke-linecap:round;stroke-linejoin:round;stroke-miterlimit:10;}
	.st13{fill:url(#SVGID_7_);}
	.st14{fill:url(#SVGID_8_);}
	.st15{fill:none;stroke:#000000;stroke-width:2.0672;stroke-miterlimit:10;}
	.st16{opacity:0.5;fill:#FFFFFF;stroke:#000000;stroke-linecap:round;stroke-linejoin:round;stroke-miterlimit:10;}
	.st17{fill:url(#SVGID_9_);}
	.st18{fill:url(#SVGID_10_);}
	.st19{fill:#FFFFFF;stroke:#000000;stroke-width:1.1565;stroke-linecap:round;stroke-linejoin:round;stroke-miterlimit:10;}
	.st20{clip-path:url(#SVGID_13_);}
	.st21{clip-path:url(#SVGID_16_);}
	.st22{fill:url(#SVGID_17_);}
	.st23{fill:url(#SVGID_18_);}
	.st24{fill:url(#SVGID_19_);}
	.st25{fill:url(#SVGID_20_);}
	.st26{fill:url(#SVGID_21_);}
	.st27{fill:url(#SVGID_22_);}
	.st28{fill:url(#SVGID_23_);}
	.st29{fill:url(#SVGID_24_);}
	.st30{fill:url(#SVGID_25_);}
	.st31{fill:url(#SVGID_26_);}
	.st32{fill:url(#SVGID_27_);}
	.st33{fill:url(#SVGID_28_);}
	.st34{fill:url(#SVGID_29_);}
	.st35{fill:url(#SVGID_30_);}
	.st36{fill:url(#SVGID_31_);}
	.st37{fill:url(#SVGID_32_);}
	.st38{fill:url(#SVGID_33_);}
	.st39{fill:url(#SVGID_34_);}
	.st40{fill:url(#SVGID_35_);}
	.st41{fill:url(#SVGID_36_);}
	.st42{fill:url(#SVGID_37_);}
	.st43{fill:url(#SVGID_38_);}
	.st44{fill:url(#SVGID_39_);}
	.st45{fill:url(#SVGID_40_);}
	.st46{fill:url(#SVGID_41_);}
	.st47{fill:url(#SVGID_42_);}
	.st48{fill:url(#SVGID_43_);}
	.st49{fill:url(#SVGID_44_);}
	.st50{fill:url(#SVGID_45_);}
	.st51{fill:url(#SVGID_46_);}
	.st52{clip-path:url(#SVGID_49_);}
	.st53{fill:url(#SVGID_50_);}
	.st54{fill:url(#SVGID_51_);}
	.st55{fill:url(#SVGID_52_);}
	.st56{fill:url(#SVGID_53_);}
	.st57{fill:url(#SVGID_54_);}
	.st58{fill:url(#SVGID_55_);}
	.st59{fill:url(#SVGID_56_);}
	.st60{fill:url(#SVGID_57_);}
	.st61{fill:url(#SVGID_58_);}
	.st62{fill:url(#SVGID_59_);}
	.st63{fill:url(#SVGID_60_);}
	.st64{fill:url(#SVGID_61_);}
	.st65{fill:url(#SVGID_62_);}
	.st66{fill:url(#SVGID_63_);}
	.st67{fill:url(#SVGID_64_);}
	.st68{fill:url(#SVGID_65_);}
	.st69{fill:url(#SVGID_66_);}
	.st70{fill:url(#SVGID_67_);}
	.st71{fill:url(#SVGID_68_);}
	.st72{fill:url(#SVGID_69_);}
	.st73{fill:url(#SVGID_70_);}
	.st74{fill:url(#SVGID_71_);}
	.st75{fill:url(#SVGID_72_);}
	.st76{fill:url(#SVGID_73_);}
	.st77{fill:url(#SVGID_74_);}
	.st78{fill:url(#SVGID_75_);}
	.st79{fill:url(#SVGID_76_);}
	.st80{fill:url(#SVGID_77_);}
	.st81{fill:url(#SVGID_78_);}
	.st82{fill:url(#SVGID_79_);}
	.st83{clip-path:url(#SVGID_82_);}
	.st84{fill:url(#SVGID_83_);}
	.st85{fill:url(#SVGID_84_);}
	.st86{fill:url(#SVGID_85_);}
	.st87{fill:url(#SVGID_86_);}
	.st88{fill:url(#SVGID_87_);}
	.st89{fill:url(#SVGID_88_);}
	.st90{fill:url(#SVGID_89_);}
	.st91{fill:url(#SVGID_90_);}
	.st92{fill:url(#SVGID_91_);}
	.st93{fill:url(#SVGID_92_);}
	.st94{fill:url(#SVGID_93_);}
	.st95{fill:url(#SVGID_94_);}
	.st96{fill:url(#SVGID_95_);}
	.st97{fill:url(#SVGID_96_);}
	.st98{fill:url(#SVGID_97_);}
	.st99{fill:url(#SVGID_98_);}
	.st100{fill:url(#SVGID_99_);}
	.st101{fill:url(#SVGID_100_);}
	.st102{fill:url(#SVGID_101_);}
	.st103{fill:url(#SVGID_102_);}
	.st104{fill:url(#SVGID_103_);}
	.st105{fill:url(#SVGID_104_);}
	.st106{fill:url(#SVGID_105_);}
	.st107{fill:url(#SVGID_106_);}
	.st108{fill:url(#SVGID_107_);}
	.st109{fill:url(#SVGID_108_);}
	.st110{fill:url(#SVGID_109_);}
	.st111{fill:url(#SVGID_110_);}
	.st112{fill:url(#SVGID_111_);}
	.st113{fill:url(#SVGID_112_);}
	.st114{clip-path:url(#SVGID_115_);}
	.st115{fill:url(#SVGID_116_);}
	.st116{fill:url(#SVGID_117_);}
	.st117{fill:url(#SVGID_118_);}
	.st118{fill:url(#SVGID_119_);}
	.st119{fill:url(#SVGID_120_);}
	.st120{fill:url(#SVGID_121_);}
	.st121{fill:url(#SVGID_122_);}
	.st122{fill:url(#SVGID_123_);}
	.st123{fill:url(#SVGID_124_);}
	.st124{fill:url(#SVGID_125_);}
	.st125{fill:url(#SVGID_126_);}
	.st126{fill:url(#SVGID_127_);}
	.st127{fill:url(#SVGID_128_);}
	.st128{fill:url(#SVGID_129_);}
	.st129{fill:url(#SVGID_130_);}
	.st130{fill:url(#SVGID_131_);}
	.st131{fill:url(#SVGID_132_);}
	.st132{fill:url(#SVGID_133_);}
	.st133{fill:url(#SVGID_134_);}
	.st134{fill:url(#SVGID_135_);}
	.st135{fill:url(#SVGID_136_);}
	.st136{fill:url(#SVGID_137_);}
	.st137{fill:url(#SVGID_138_);}
	.st138{fill:url(#SVGID_139_);}
	.st139{fill:url(#SVGID_140_);}
	.st140{fill:url(#SVGID_141_);}
	.st141{fill:url(#SVGID_142_);}
	.st142{fill:url(#SVGID_143_);}
	.st143{fill:url(#SVGID_144_);}
	.st144{fill:url(#SVGID_145_);}
	.st145{clip-path:url(#SVGID_148_);}
	.st146{fill:url(#SVGID_149_);}
	.st147{fill:url(#SVGID_150_);}
	.st148{fill:url(#SVGID_151_);}
	.st149{fill:url(#SVGID_152_);}
	.st150{fill:url(#SVGID_153_);}
	.st151{fill:url(#SVGID_154_);}
	.st152{fill:url(#SVGID_155_);}
	.st153{fill:url(#SVGID_156_);}
	.st154{fill:url(#SVGID_157_);}
	.st155{fill:url(#SVGID_158_);}
	.st156{fill:url(#SVGID_159_);}
	.st157{fill:url(#SVGID_160_);}
	.st158{fill:url(#SVGID_161_);}
	.st159{fill:url(#SVGID_162_);}
	.st160{fill:url(#SVGID_163_);}
	.st161{fill:url(#SVGID_164_);}
	.st162{fill:url(#SVGID_165_);}
	.st163{fill:url(#SVGID_166_);}
	.st164{fill:url(#SVGID_167_);}
	.st165{fill:url(#SVGID_168_);}
	.st166{fill:url(#SVGID_169_);}
	.st167{fill:url(#SVGID_170_);}
	.st168{fill:url(#SVGID_171_);}
	.st169{fill:url(#SVGID_172_);}
	.st170{fill:url(#SVGID_173_);}
	.st171{fill:url(#SVGID_174_);}
	.st172{fill:url(#SVGID_175_);}
	.st173{fill:url(#SVGID_176_);}
	.st174{fill:url(#SVGID_177_);}
	.st175{fill:url(#SVGID_178_);}
	.st176{clip-path:url(#SVGID_181_);}
	.st177{fill:url(#SVGID_182_);}
	.st178{fill:url(#SVGID_183_);}
	.st179{fill:url(#SVGID_184_);}
	.st180{fill:url(#SVGID_185_);}
	.st181{fill:url(#SVGID_186_);}
	.st182{fill:url(#SVGID_187_);}
	.st183{fill:url(#SVGID_188_);}
	.st184{fill:url(#SVGID_189_);}
	.st185{fill:url(#SVGID_190_);}
	.st186{fill:url(#SVGID_191_);}
	.st187{fill:url(#SVGID_192_);}
	.st188{fill:url(#SVGID_193_);}
	.st189{fill:url(#SVGID_194_);}
	.st190{fill:url(#SVGID_195_);}
	.st191{fill:url(#SVGID_196_);}
	.st192{fill:url(#SVGID_197_);}
	.st193{fill:url(#SVGID_198_);}
	.st194{fill:url(#SVGID_199_);}
	.st195{fill:url(#SVGID_200_);}
	.st196{fill:url(#SVGID_201_);}
	.st197{fill:url(#SVGID_202_);}
	.st198{fill:url(#SVGID_203_);}
	.st199{fill:url(#SVGID_204_);}
	.st200{fill:url(#SVGID_205_);}
	.st201{fill:url(#SVGID_206_);}
	.st202{fill:url(#SVGID_207_);}
	.st203{fill:url(#SVGID_208_);}
	.st204{fill:url(#SVGID_209_);}
	.st205{fill:url(#SVGID_210_);}
	.st206{fill:url(#SVGID_211_);}
	.st207{fill:#FFFFFF;stroke:#000000;stroke-width:2;stroke-linecap:round;stroke-linejoin:round;stroke-miterlimit:10;}
</style>
<pattern  x="-599.1" y="-530.2" width="72" height="72" patternUnits="userSpaceOnUse" id="_x36__lpi_30_x25_" viewBox="72.2 -72 72 72" style="overflow:visible;">
	<g>
		<rect x="72.2" y="-72" class="st0" width="72" height="72"/>
		<g>
			<line class="st1" x1="144" y1="-6" x2="216.5" y2="-6"/>
			<line class="st1" x1="144" y1="-30" x2="216.5" y2="-30"/>
			<line class="st1" x1="144" y1="-54" x2="216.5" y2="-54"/>
			<line class="st1" x1="144" y1="-18" x2="216.5" y2="-18"/>
			<line class="st1" x1="144" y1="-42" x2="216.5" y2="-42"/>
			<line class="st1" x1="144" y1="-66" x2="216.5" y2="-66"/>
		</g>
		<g>
			<line class="st1" x1="72" y1="-6" x2="144.5" y2="-6"/>
			<line class="st1" x1="72" y1="-30" x2="144.5" y2="-30"/>
			<line class="st1" x1="72" y1="-54" x2="144.5" y2="-54"/>
			<line class="st1" x1="72" y1="-18" x2="144.5" y2="-18"/>
			<line class="st1" x1="72" y1="-42" x2="144.5" y2="-42"/>
			<line class="st1" x1="72" y1="-66" x2="144.5" y2="-66"/>
		</g>
		<g>
			<line class="st1" x1="0" y1="-6" x2="72.5" y2="-6"/>
			<line class="st1" x1="0" y1="-30" x2="72.5" y2="-30"/>
			<line class="st1" x1="0" y1="-54" x2="72.5" y2="-54"/>
			<line class="st1" x1="0" y1="-18" x2="72.5" y2="-18"/>
			<line class="st1" x1="0" y1="-42" x2="72.5" y2="-42"/>
			<line class="st1" x1="0" y1="-66" x2="72.5" y2="-66"/>
		</g>
	</g>
</pattern>
<pattern  id="SVGID_1_" xlink:href="#_x36__lpi_30_x25_" patternTransform="matrix(0.1414 -0.1414 0.1414 0.1414 -4778.0479 -7200.082)">
</pattern>
<polygon class="st2" points="16.5,66.8 104.3,61 99.9,54.8 16.5,59.9 "/>
<pattern  id="SVGID_2_" xlink:href="#_x36__lpi_30_x25_" patternTransform="matrix(0.1989 -2.090600e-02 2.090600e-02 0.1989 -5457.459 -5762.9805)">
</pattern>
<polygon class="st3" points="99.8,9.3 107.2,9.3 94.5,35.7 112.2,61.1 105.1,61.1 87.6,34.9 "/>
<polygon class="st10" points="104.7,57.9 7.6,63.7 4.9,12 102,6.2 88.2,34.9 "/>
<line class="st207" x1="4.9" y1="12" x2="9.5" y2="99.1"/>
<g>
	<path d="M13.4,30.9l-0.6-8.4l3.8-0.3l0.5,8.1c0.1,1.2,0.9,1.9,2.1,1.8c1.2-0.1,1.9-0.9,1.9-2.1L20.6,22l3.7-0.2l0.6,8.4
		c0.2,3.1-1.9,5.2-5.4,5.4C15.9,35.8,13.6,34,13.4,30.9z"/>
	<path d="M35.8,27.6l0.4,6.5l-3.5,0.2l-0.4-5.2c-0.1-0.8-0.4-1.2-1.1-1.1c-0.3,0-0.6,0.1-1,0.3l0.4,6.2l-3.6,0.2l-0.6-9.3l3.1-0.2
		l0.3,1.8l0.1,0c0.5-1.5,1.7-2.2,2.7-2.2C34.3,24.6,35.6,25.4,35.8,27.6z"/>
	<path d="M47.8,29.4c0.2,2.4-1.8,4.1-4.3,4.2L38.3,34l-0.9-13.1l4.9-0.3c2.4-0.2,4,1.2,4.1,3.2c0.1,0.9-0.5,1.9-1.3,2.5
		C46.7,26.8,47.7,27.9,47.8,29.4z M41.4,23.4l0.2,2.2l0.7,0c0.7,0,1.1-0.5,1.1-1.2c0-0.6-0.5-1.1-1.2-1L41.4,23.4z M42.9,30.9
		c1-0.1,1.5-0.5,1.4-1.4c-0.1-0.9-0.6-1.3-1.6-1.2l-1,0.1l0.2,2.6L42.9,30.9z"/>
	<path d="M49.1,28.5c-0.2-3,1.7-5.1,4.7-5.3c3-0.2,5.1,1.7,5.3,4.6c0.2,3-1.7,5.1-4.7,5.3C51.4,33.4,49.2,31.5,49.1,28.5z
		 M55.7,28.1c-0.1-1.3-0.8-2-1.8-2c-1,0.1-1.6,0.9-1.5,2.2c0.1,1.3,0.8,2,1.8,2C55.2,30.2,55.8,29.4,55.7,28.1z"/>
	<path d="M66.8,32l-1.5-2.3l-1.2,2.4l-3.9,0.3l2.6-4.9l-3.2-4.4l4.1-0.3l1.5,2.2l1.1-2.3l3.9-0.3l-2.6,4.8l3.2,4.5L66.8,32z"/>
	<path d="M18.2,44l0.1,2.2l3.6-0.2l0.2,3l-3.6,0.2l0.3,4.8l-3.7,0.3l-0.9-13.1l7.8-0.5l0.2,3L18.2,44z"/>
	<path d="M33.6,49.2l-5.9,0.4c0.3,0.9,1.1,1.2,2.7,1.1c1.2-0.1,1.9-0.3,2.7-0.7l0.2,2.6c-0.9,0.5-2,0.8-3.4,0.9
		c-3.3,0.2-5.4-2-5.6-4.4c-0.2-3,1.5-5.3,4.7-5.5c2.4-0.2,4.3,1.5,4.5,4.6L33.6,49.2z M30.3,47.4C30.3,46.6,29.9,46,29,46
		c-0.8,0.1-1.3,0.7-1.5,1.5L30.3,47.4z"/>
	<path d="M35.7,52.6l-0.2-2.7c0.8,0.4,2.1,0.6,3.1,0.5c0.5,0,0.8-0.2,0.7-0.5c-0.1-1.3-3.7,0.1-3.9-3.5c-0.1-1.8,1.2-3.3,3.6-3.5
		c0.8-0.1,2,0,2.6,0.2l0.2,2.6c-0.6-0.1-1.5-0.3-2.3-0.2c-0.7,0-0.9,0.2-0.8,0.6c0.1,1,3.6-0.2,3.9,3.3c0.2,2.3-1.7,3.4-3.6,3.5
		C37.9,53.1,36.7,52.9,35.7,52.6z"/>
	<path d="M50.2,49.1l0.2,2.8c-0.5,0.2-1,0.3-1.8,0.4c-2.2,0.1-3.6-1.1-3.7-2.9l-0.2-3.6l-1.1,0.1L43.4,43l1.1-0.1l-0.2-2.5l3.5-0.6
		l0.2,2.9l1.7-0.1l0.2,2.9l-1.7,0.1l0.2,2.5c0.1,1,0.4,1.2,1,1.2C49.8,49.2,50,49.2,50.2,49.1z"/>
	<path d="M51.1,39.2c-0.1-0.8,1-2.1,1.8-2.1c0.8-0.1,2,1,2.1,1.9c0.1,0.9-1,2.1-1.8,2.1C52.3,41.1,51.2,40.1,51.1,39.2z M51.6,42.4
		l3.5-0.2l0.6,9.3l-3.5,0.2L51.6,42.4z"/>
	<path d="M66.1,41.5L63.2,51l-2.9,0.2l-4.1-9.1l3.3-0.2l1.2,2.5c0.4,0.8,0.6,1.4,0.8,2.5c0.1-1.2,0.3-1.7,0.6-2.6l0.7-2.6L66.1,41.5
		z"/>
	<path d="M76.6,47.8l0.2,2.3c-0.3,0.2-0.6,0.2-1.1,0.3c-1.3,0.1-2.3-0.6-2.4-1.6l-0.1,0c-0.3,1.4-1.5,2-2.6,2.1
		c-1.8,0.1-3-1.2-3.1-2.7c-0.1-1.7,0.6-2.8,2-3.2l2.8-0.8c-0.1-0.5-0.6-0.8-1.4-0.7c-1.2,0.1-2.4,0.5-3.1,0.9l-0.2-2.7
		c0.9-0.5,2.4-0.8,3.9-0.9c2.7-0.2,4.2,0.9,4.4,3.6l0.2,3c0,0.3,0.2,0.5,0.4,0.5C76.4,47.9,76.5,47.8,76.6,47.8z M72.5,47.8
		l-0.1-1.7L71,46.5c-0.1,0-0.4,0.3-0.3,0.9c0,0.5,0.3,0.8,0.9,0.8C72,48.2,72.3,48,72.5,47.8z"/>
	<path d="M82.8,46.9l0.2,2.8C82.6,49.9,82,50,81.3,50c-2,0.1-3.1-0.9-3.2-2.7l-0.7-10.6l3.5-0.7l0.7,10.2c0,0.6,0.3,0.8,0.8,0.8
		C82.5,47,82.6,47,82.8,46.9z"/>
</g>
</svg>
