<?xml version="1.0" encoding="utf-8"?>
<!-- Generator: Adobe Illustrator 20.1.0, SVG Export Plug-In . SVG Version: 6.00 Build 0)  -->
<svg version="1.1" id="Layer_1" xmlns="http://www.w3.org/2000/svg" xmlns:xlink="http://www.w3.org/1999/xlink" x="0px" y="0px"
	 viewBox="0 0 68.2 68" style="enable-background:new 0 0 68.2 68;" xml:space="preserve">
<style type="text/css">
	.st0{fill:none;stroke:#A91E22;stroke-width:4;stroke-miterlimit:10;}
	.st1{fill:#8DB2DE;stroke:#8DB2DE;}
	.st2{fill:#231F20;}
	.st3{fill:#513534;stroke:#513534;stroke-width:1.5777;stroke-linecap:round;stroke-linejoin:round;stroke-miterlimit:10;}
	.st4{fill:#513534;stroke:#513534;stroke-width:1.6313;stroke-linecap:round;stroke-linejoin:round;stroke-miterlimit:10;}
	.st5{fill:#513534;stroke:#513534;}
	.st6{fill:#FFFFFF;stroke:#231F20;stroke-linecap:round;stroke-linejoin:round;stroke-miterlimit:10;}
	.st7{fill:#AFF9AF;stroke:#231F20;stroke-miterlimit:10;}
	.st8{fill:#FFFFFF;stroke:#231F20;stroke-width:2;stroke-linecap:round;stroke-linejoin:round;stroke-miterlimit:10;}
	.st9{clip-path:url(#SVGID_2_);}
	.st10{clip-path:url(#SVGID_4_);}
	.st11{fill:none;stroke:#231F20;stroke-width:0.7161;}
	.st12{clip-path:url(#SVGID_6_);}
	.st13{clip-path:url(#SVGID_8_);}
	.st14{clip-path:url(#SVGID_10_);}
	.st15{clip-path:url(#SVGID_12_);}
	.st16{clip-path:url(#SVGID_14_);}
	.st17{clip-path:url(#SVGID_16_);}
	.st18{clip-path:url(#SVGID_18_);}
	.st19{clip-path:url(#SVGID_20_);}
	.st20{clip-path:url(#SVGID_22_);}
	.st21{clip-path:url(#SVGID_24_);}
	.st22{clip-path:url(#SVGID_26_);}
	.st23{clip-path:url(#SVGID_28_);}
	.st24{clip-path:url(#SVGID_30_);}
	.st25{clip-path:url(#SVGID_32_);}
	.st26{clip-path:url(#SVGID_34_);}
	.st27{clip-path:url(#SVGID_36_);}
	.st28{fill:none;stroke:#231F20;stroke-width:0.5091;}
	.st29{clip-path:url(#SVGID_38_);}
	.st30{clip-path:url(#SVGID_40_);}
	.st31{clip-path:url(#SVGID_42_);}
	.st32{clip-path:url(#SVGID_44_);}
	.st33{clip-path:url(#SVGID_46_);}
	.st34{clip-path:url(#SVGID_48_);}
	.st35{clip-path:url(#SVGID_50_);}
	.st36{clip-path:url(#SVGID_52_);}
	.st37{clip-path:url(#SVGID_54_);}
	.st38{clip-path:url(#SVGID_56_);}
	.st39{clip-path:url(#SVGID_58_);}
	.st40{clip-path:url(#SVGID_60_);}
	.st41{clip-path:url(#SVGID_62_);}
	.st42{clip-path:url(#SVGID_64_);}
	.st43{clip-path:url(#SVGID_66_);}
	.st44{clip-path:url(#SVGID_68_);}
	.st45{clip-path:url(#SVGID_70_);}
	.st46{clip-path:url(#SVGID_72_);}
	.st47{clip-path:url(#SVGID_74_);}
	.st48{clip-path:url(#SVGID_76_);}
	.st49{clip-path:url(#SVGID_78_);}
	.st50{clip-path:url(#SVGID_80_);}
	.st51{clip-path:url(#SVGID_82_);}
	.st52{clip-path:url(#SVGID_84_);}
	.st53{clip-path:url(#SVGID_86_);}
	.st54{clip-path:url(#SVGID_88_);}
	.st55{fill:#D7932A;stroke:#503433;stroke-width:1.6313;stroke-linecap:round;stroke-linejoin:round;stroke-miterlimit:10;}
	.st56{fill:#B9BABB;stroke:#503433;stroke-width:1.6313;stroke-linecap:round;stroke-linejoin:round;stroke-miterlimit:10;}
	.st57{opacity:0.6;}
	.st58{clip-path:url(#SVGID_90_);}
	.st59{clip-path:url(#SVGID_92_);}
	.st60{fill:none;stroke:#231F20;stroke-width:1.588;}
	.st61{clip-path:url(#SVGID_94_);}
	.st62{clip-path:url(#SVGID_96_);}
	.st63{clip-path:url(#SVGID_98_);}
	.st64{clip-path:url(#SVGID_100_);}
	.st65{clip-path:url(#SVGID_102_);}
	.st66{opacity:0.4;}
	.st67{clip-path:url(#SVGID_104_);}
	.st68{clip-path:url(#SVGID_106_);}
	.st69{clip-path:url(#SVGID_108_);}
	.st70{clip-path:url(#SVGID_110_);}
	.st71{clip-path:url(#SVGID_112_);}
	.st72{fill:#B8B9BA;stroke:#503433;stroke-width:1.3;stroke-linecap:round;stroke-linejoin:round;stroke-miterlimit:10;}
	.st73{fill:#8BB0DD;stroke:#503433;stroke-width:1.3;stroke-linecap:round;stroke-linejoin:round;stroke-miterlimit:10;}
	.st74{fill:#B8B9BA;stroke:#503433;stroke-linecap:round;stroke-linejoin:round;stroke-miterlimit:10;}
	.st75{fill:#FFFFFF;stroke:#503433;stroke-width:1.3;stroke-miterlimit:10;}
	.st76{fill:#FBF6EC;stroke:#503433;stroke-width:1.3;stroke-linecap:round;stroke-linejoin:round;stroke-miterlimit:10;}
	.st77{fill:#503433;stroke:#503433;stroke-width:1.3;stroke-miterlimit:10;}
	.st78{fill:#D6922A;stroke:#503433;stroke-width:0.75;stroke-linecap:round;stroke-linejoin:round;stroke-miterlimit:10;}
	.st79{fill:url(#);}
	.st80{clip-path:url(#SVGID_114_);fill:#CCDD61;stroke:#231F20;stroke-width:0.25;stroke-miterlimit:10;}
	.st81{clip-path:url(#SVGID_116_);fill:#CCDD61;stroke:#231F20;stroke-width:0.25;stroke-miterlimit:10;}
	.st82{clip-path:url(#SVGID_118_);fill:#CCDD61;stroke:#231F20;stroke-width:0.25;stroke-miterlimit:10;}
	.st83{clip-path:url(#SVGID_120_);fill:#CCDD61;stroke:#231F20;stroke-width:0.25;stroke-miterlimit:10;}
	.st84{clip-path:url(#SVGID_122_);fill:#CCDD61;stroke:#231F20;stroke-width:0.25;stroke-miterlimit:10;}
	.st85{clip-path:url(#SVGID_124_);fill:#CCDD61;stroke:#231F20;stroke-width:0.25;stroke-miterlimit:10;}
	.st86{clip-path:url(#SVGID_126_);fill:#CCDD61;stroke:#231F20;stroke-width:0.25;stroke-miterlimit:10;}
	.st87{clip-path:url(#SVGID_128_);fill:#CCDD61;stroke:#231F20;stroke-width:0.25;stroke-miterlimit:10;}
	.st88{clip-path:url(#SVGID_130_);fill:#CCDD61;stroke:#231F20;stroke-width:0.25;stroke-miterlimit:10;}
	.st89{clip-path:url(#SVGID_132_);fill:#CCDD61;stroke:#231F20;stroke-width:0.25;stroke-miterlimit:10;}
	.st90{clip-path:url(#SVGID_134_);fill:#CCDD61;stroke:#231F20;stroke-width:0.25;stroke-miterlimit:10;}
	.st91{clip-path:url(#SVGID_136_);fill:#CCDD61;stroke:#231F20;stroke-width:0.25;stroke-miterlimit:10;}
	.st92{clip-path:url(#SVGID_138_);fill:#CCDD61;stroke:#231F20;stroke-width:0.25;stroke-miterlimit:10;}
	.st93{clip-path:url(#SVGID_140_);fill:#CCDD61;stroke:#231F20;stroke-width:0.25;stroke-miterlimit:10;}
	.st94{clip-path:url(#SVGID_142_);fill:#CCDD61;stroke:#231F20;stroke-width:0.25;stroke-miterlimit:10;}
	.st95{clip-path:url(#SVGID_144_);fill:#CCDD61;stroke:#231F20;stroke-width:0.25;stroke-miterlimit:10;}
	.st96{clip-path:url(#SVGID_146_);fill:#CCDD61;stroke:#231F20;stroke-width:0.25;stroke-miterlimit:10;}
	.st97{clip-path:url(#SVGID_148_);fill:#CCDD61;stroke:#231F20;stroke-width:0.25;stroke-miterlimit:10;}
	.st98{clip-path:url(#SVGID_150_);fill:#CCDD61;stroke:#231F20;stroke-width:0.25;stroke-miterlimit:10;}
	.st99{clip-path:url(#SVGID_152_);fill:#CCDD61;stroke:#231F20;stroke-width:0.25;stroke-miterlimit:10;}
	.st100{clip-path:url(#SVGID_154_);fill:#CCDD61;stroke:#231F20;stroke-width:0.25;stroke-miterlimit:10;}
	.st101{clip-path:url(#SVGID_156_);fill:#CCDD61;stroke:#231F20;stroke-width:0.25;stroke-miterlimit:10;}
	.st102{clip-path:url(#SVGID_158_);fill:#CCDD61;stroke:#231F20;stroke-width:0.25;stroke-miterlimit:10;}
	.st103{clip-path:url(#SVGID_160_);fill:#CCDD61;stroke:#231F20;stroke-width:0.25;stroke-miterlimit:10;}
	.st104{clip-path:url(#SVGID_162_);fill:#CCDD61;stroke:#231F20;stroke-width:0.25;stroke-miterlimit:10;}
	.st105{clip-path:url(#SVGID_164_);fill:#CCDD61;stroke:#231F20;stroke-width:0.25;stroke-miterlimit:10;}
	.st106{clip-path:url(#SVGID_166_);fill:#CCDD61;stroke:#231F20;stroke-width:0.25;stroke-miterlimit:10;}
	.st107{clip-path:url(#SVGID_168_);fill:#CCDD61;stroke:#231F20;stroke-width:0.25;stroke-miterlimit:10;}
	.st108{clip-path:url(#SVGID_170_);fill:#CCDD61;stroke:#231F20;stroke-width:0.25;stroke-miterlimit:10;}
	.st109{clip-path:url(#SVGID_172_);fill:#CCDD61;stroke:#231F20;stroke-width:0.25;stroke-miterlimit:10;}
	.st110{clip-path:url(#SVGID_174_);fill:#CCDD61;stroke:#231F20;stroke-width:0.25;stroke-miterlimit:10;}
	.st111{clip-path:url(#SVGID_176_);fill:#CCDD61;stroke:#231F20;stroke-width:0.25;stroke-miterlimit:10;}
	.st112{clip-path:url(#SVGID_178_);fill:#CCDD61;stroke:#231F20;stroke-width:0.25;stroke-miterlimit:10;}
	.st113{clip-path:url(#SVGID_180_);fill:#CCDD61;stroke:#231F20;stroke-width:0.25;stroke-miterlimit:10;}
	.st114{clip-path:url(#SVGID_182_);fill:#CCDD61;stroke:#231F20;stroke-width:0.25;stroke-miterlimit:10;}
	.st115{clip-path:url(#SVGID_184_);fill:#CCDD61;stroke:#231F20;stroke-width:0.25;stroke-miterlimit:10;}
	.st116{clip-path:url(#SVGID_186_);fill:#CCDD61;stroke:#231F20;stroke-width:0.25;stroke-miterlimit:10;}
	.st117{clip-path:url(#SVGID_188_);fill:#CCDD61;stroke:#231F20;stroke-width:0.25;stroke-miterlimit:10;}
	.st118{clip-path:url(#SVGID_190_);fill:#CCDD61;stroke:#231F20;stroke-width:0.25;stroke-miterlimit:10;}
	.st119{clip-path:url(#SVGID_192_);fill:#CCDD61;stroke:#231F20;stroke-width:0.25;stroke-miterlimit:10;}
	.st120{clip-path:url(#SVGID_194_);fill:#CCDD61;stroke:#231F20;stroke-width:0.25;stroke-miterlimit:10;}
	.st121{clip-path:url(#SVGID_196_);fill:#CCDD61;stroke:#231F20;stroke-width:0.25;stroke-miterlimit:10;}
	.st122{clip-path:url(#SVGID_198_);fill:#CCDD61;stroke:#231F20;stroke-width:0.25;stroke-miterlimit:10;}
	.st123{clip-path:url(#SVGID_200_);fill:#CCDD61;stroke:#231F20;stroke-width:0.25;stroke-miterlimit:10;}
	.st124{clip-path:url(#SVGID_202_);fill:#CCDD61;stroke:#231F20;stroke-width:0.25;stroke-miterlimit:10;}
	.st125{clip-path:url(#SVGID_204_);fill:#CCDD61;stroke:#231F20;stroke-width:0.25;stroke-miterlimit:10;}
	.st126{clip-path:url(#SVGID_206_);fill:#CCDD61;stroke:#231F20;stroke-width:0.25;stroke-miterlimit:10;}
	.st127{clip-path:url(#SVGID_208_);fill:#CCDD61;stroke:#231F20;stroke-width:0.25;stroke-miterlimit:10;}
	.st128{clip-path:url(#SVGID_210_);fill:#CCDD61;stroke:#231F20;stroke-width:0.25;stroke-miterlimit:10;}
	.st129{clip-path:url(#SVGID_212_);fill:#CCDD61;stroke:#231F20;stroke-width:0.25;stroke-miterlimit:10;}
	.st130{clip-path:url(#SVGID_214_);fill:#CCDD61;stroke:#231F20;stroke-width:0.25;stroke-miterlimit:10;}
	.st131{clip-path:url(#SVGID_216_);fill:#CCDD61;stroke:#231F20;stroke-width:0.25;stroke-miterlimit:10;}
	.st132{clip-path:url(#SVGID_218_);fill:#CCDD61;stroke:#231F20;stroke-width:0.25;stroke-miterlimit:10;}
	.st133{clip-path:url(#SVGID_220_);fill:#CCDD61;stroke:#231F20;stroke-width:0.25;stroke-miterlimit:10;}
	.st134{clip-path:url(#SVGID_222_);fill:#CCDD61;stroke:#231F20;stroke-width:0.25;stroke-miterlimit:10;}
	.st135{clip-path:url(#SVGID_224_);fill:#CCDD61;stroke:#231F20;stroke-width:0.25;stroke-miterlimit:10;}
	.st136{clip-path:url(#SVGID_226_);fill:#CCDD61;stroke:#231F20;stroke-width:0.25;stroke-miterlimit:10;}
	.st137{clip-path:url(#SVGID_228_);fill:#CCDD61;stroke:#231F20;stroke-width:0.25;stroke-miterlimit:10;}
	.st138{clip-path:url(#SVGID_230_);fill:#CCDD61;stroke:#231F20;stroke-width:0.25;stroke-miterlimit:10;}
	.st139{clip-path:url(#SVGID_232_);fill:#CCDD61;stroke:#231F20;stroke-width:0.25;stroke-miterlimit:10;}
	.st140{clip-path:url(#SVGID_234_);fill:#CCDD61;stroke:#231F20;stroke-width:0.25;stroke-miterlimit:10;}
	.st141{clip-path:url(#SVGID_236_);fill:#CCDD61;stroke:#231F20;stroke-width:0.25;stroke-miterlimit:10;}
	.st142{clip-path:url(#SVGID_238_);fill:#CCDD61;stroke:#231F20;stroke-width:0.25;stroke-miterlimit:10;}
	.st143{clip-path:url(#SVGID_240_);fill:#CCDD61;stroke:#231F20;stroke-width:0.25;stroke-miterlimit:10;}
	.st144{clip-path:url(#SVGID_242_);}
	.st145{clip-path:url(#SVGID_244_);}
	.st146{clip-path:url(#SVGID_246_);}
	.st147{clip-path:url(#SVGID_248_);}
	.st148{clip-path:url(#SVGID_250_);}
	.st149{clip-path:url(#SVGID_252_);}
	.st150{clip-path:url(#SVGID_254_);}
	.st151{clip-path:url(#SVGID_256_);}
	.st152{clip-path:url(#SVGID_258_);}
	.st153{clip-path:url(#SVGID_260_);}
	.st154{clip-path:url(#SVGID_262_);}
	.st155{clip-path:url(#SVGID_264_);}
	.st156{clip-path:url(#SVGID_266_);}
	.st157{clip-path:url(#SVGID_268_);}
	.st158{clip-path:url(#SVGID_270_);}
	.st159{clip-path:url(#SVGID_272_);}
	.st160{clip-path:url(#SVGID_274_);}
	.st161{clip-path:url(#SVGID_276_);}
	.st162{clip-path:url(#SVGID_278_);}
	.st163{clip-path:url(#SVGID_280_);}
	.st164{clip-path:url(#SVGID_282_);}
	.st165{clip-path:url(#SVGID_284_);}
	.st166{clip-path:url(#SVGID_286_);}
	.st167{clip-path:url(#SVGID_288_);}
	.st168{clip-path:url(#SVGID_290_);}
	.st169{clip-path:url(#SVGID_292_);}
	.st170{clip-path:url(#SVGID_294_);}
	.st171{clip-path:url(#SVGID_296_);}
	.st172{clip-path:url(#SVGID_298_);}
	.st173{clip-path:url(#SVGID_300_);}
	.st174{clip-path:url(#SVGID_302_);}
	.st175{clip-path:url(#SVGID_304_);}
	.st176{clip-path:url(#SVGID_306_);}
	.st177{clip-path:url(#SVGID_308_);}
	.st178{clip-path:url(#SVGID_310_);}
	.st179{clip-path:url(#SVGID_312_);}
	.st180{clip-path:url(#SVGID_314_);}
	.st181{fill:#6CC077;stroke:#503433;stroke-width:0.75;stroke-linecap:round;stroke-linejoin:round;stroke-miterlimit:10;}
	.st182{fill:#8BB0DD;stroke:#503433;stroke-width:0.75;stroke-linecap:round;stroke-linejoin:round;stroke-miterlimit:10;}
	.st183{fill:#FBF6EC;stroke:#503433;stroke-width:0.75;stroke-linecap:round;stroke-linejoin:round;stroke-miterlimit:10;}
	.st184{fill:none;stroke:#503433;stroke-width:0.75;stroke-linecap:round;stroke-linejoin:round;stroke-miterlimit:10;}
	.st185{fill:#503433;stroke:#503433;stroke-width:0.75;stroke-linecap:round;stroke-linejoin:round;stroke-miterlimit:10;}
	.st186{fill:#426BB2;stroke:#503433;stroke-width:1.6313;stroke-linecap:round;stroke-linejoin:round;stroke-miterlimit:10;}
	.st187{fill:#F7A480;stroke:#503433;stroke-width:1.8002;stroke-linecap:round;stroke-linejoin:round;stroke-miterlimit:10;}
	.st188{fill:#8BB1DE;stroke:#503433;stroke-width:1.6313;stroke-linecap:round;stroke-linejoin:round;stroke-miterlimit:10;}
	.st189{clip-path:url(#SVGID_316_);}
	.st190{clip-path:url(#SVGID_318_);}
	.st191{clip-path:url(#SVGID_320_);}
	.st192{clip-path:url(#SVGID_322_);}
	.st193{clip-path:url(#SVGID_324_);}
	.st194{clip-path:url(#SVGID_326_);}
	.st195{clip-path:url(#SVGID_328_);}
	.st196{clip-path:url(#SVGID_330_);}
	.st197{clip-path:url(#SVGID_332_);}
	.st198{clip-path:url(#SVGID_334_);}
	.st199{clip-path:url(#SVGID_336_);}
	.st200{clip-path:url(#SVGID_338_);}
	.st201{clip-path:url(#SVGID_340_);}
	.st202{clip-path:url(#SVGID_342_);}
	.st203{clip-path:url(#SVGID_344_);}
	.st204{clip-path:url(#SVGID_346_);}
	.st205{clip-path:url(#SVGID_348_);}
	.st206{clip-path:url(#SVGID_350_);}
	.st207{clip-path:url(#SVGID_352_);}
	.st208{clip-path:url(#SVGID_354_);}
	.st209{clip-path:url(#SVGID_356_);}
	.st210{clip-path:url(#SVGID_358_);}
	.st211{clip-path:url(#SVGID_360_);}
	.st212{clip-path:url(#SVGID_362_);}
	.st213{clip-path:url(#SVGID_364_);}
	.st214{clip-path:url(#SVGID_366_);}
	.st215{clip-path:url(#SVGID_368_);}
	.st216{clip-path:url(#SVGID_370_);}
	.st217{clip-path:url(#SVGID_372_);}
	.st218{fill:url(#);stroke:#503433;stroke-width:0.3365;stroke-linecap:round;stroke-linejoin:round;stroke-miterlimit:10;}
	.st219{clip-path:url(#SVGID_374_);}
	.st220{clip-path:url(#SVGID_376_);}
	.st221{clip-path:url(#SVGID_378_);}
	.st222{clip-path:url(#SVGID_380_);}
	.st223{clip-path:url(#SVGID_382_);}
	.st224{clip-path:url(#SVGID_384_);}
	.st225{clip-path:url(#SVGID_386_);}
	.st226{clip-path:url(#SVGID_388_);}
	.st227{clip-path:url(#SVGID_390_);}
	.st228{clip-path:url(#SVGID_392_);}
	.st229{clip-path:url(#SVGID_394_);}
	.st230{clip-path:url(#SVGID_396_);}
	.st231{clip-path:url(#SVGID_398_);}
	.st232{fill:#F05E4E;stroke:#503433;stroke-width:1.3;stroke-linecap:round;stroke-linejoin:round;stroke-miterlimit:10;}
	.st233{opacity:0.2;fill:url(#);}
</style>
<g>
	<g>
		<defs>
			<path id="SVGID_113_" d="M57.8,42.4c-3.6-3.1-16.4-8.8-17.9-9.5l0.4-0.9c1.8-5.6,7.3-2.7,7.3-2.7c17.7,4.7,18-18.8,12.3-23.5
				c-5.8-4.7-11.8-1.6-15,2.2c-3.2,3.8-9.6,18.1-9.6,18.1l-0.8,1.1l-1.3,1.4c-4.5-2.1-1.8-7-1.8-7C36.2,3.9,12.6,3.6,7.9,9.3
				s-1.6,11.8,2.2,15s18.1,9.6,18.1,9.6l0.2,0.2c-2.2,3.9-6.8,1.5-6.8,1.5C4,30.9,3.6,54.4,9.4,59.1s11.8,1.6,15-2.2
				s9.6-18.1,9.6-18.1l0.5-0.7c4.7,2,2,7.1,2,7.1c-4.7,17.7,18.8,18,23.5,12.3C64.8,51.7,61.7,45.7,57.8,42.4"/>
		</defs>
		<use xlink:href="#SVGID_113_"  style="overflow:visible;fill:#CCDD61;"/>
		<clipPath id="SVGID_2_">
			<use xlink:href="#SVGID_113_"  style="overflow:visible;"/>
		</clipPath>
		<polyline style="clip-path:url(#SVGID_2_);fill:#CCDD61;stroke:#231F20;stroke-width:0.25;stroke-miterlimit:10;" points="-12,72 
			11.2,-6.7 11,-6.8 -12.2,71.9 		"/>
		<use xlink:href="#SVGID_113_"  style="overflow:visible;fill:none;stroke:#231F20;stroke-width:0.25;stroke-miterlimit:10;"/>
	</g>
	<g>
		<defs>
			<path id="SVGID_115_" d="M57.8,42.4c-3.6-3.1-16.4-8.8-17.9-9.5l0.4-0.9c1.8-5.6,7.3-2.7,7.3-2.7c17.7,4.7,18-18.8,12.3-23.5
				c-5.8-4.7-11.8-1.6-15,2.2c-3.2,3.8-9.6,18.1-9.6,18.1l-0.8,1.1l-1.3,1.4c-4.5-2.1-1.8-7-1.8-7C36.2,3.9,12.6,3.6,7.9,9.3
				s-1.6,11.8,2.2,15s18.1,9.6,18.1,9.6l0.2,0.2c-2.2,3.9-6.8,1.5-6.8,1.5C4,30.9,3.6,54.4,9.4,59.1s11.8,1.6,15-2.2
				s9.6-18.1,9.6-18.1l0.5-0.7c4.7,2,2,7.1,2,7.1c-4.7,17.7,18.8,18,23.5,12.3C64.8,51.7,61.7,45.7,57.8,42.4"/>
		</defs>
		<use xlink:href="#SVGID_115_"  style="overflow:visible;fill:#CCDD61;"/>
		<clipPath id="SVGID_4_">
			<use xlink:href="#SVGID_115_"  style="overflow:visible;"/>
		</clipPath>
		<polyline style="clip-path:url(#SVGID_4_);fill:#CCDD61;stroke:#231F20;stroke-width:0.25;stroke-miterlimit:10;" points="
			-10.9,72 12.3,-6.7 12.1,-6.8 -11.2,71.9 		"/>
		<use xlink:href="#SVGID_115_"  style="overflow:visible;fill:none;stroke:#231F20;stroke-width:0.25;stroke-miterlimit:10;"/>
	</g>
	<g>
		<defs>
			<path id="SVGID_117_" d="M57.8,42.4c-3.6-3.1-16.4-8.8-17.9-9.5l0.4-0.9c1.8-5.6,7.3-2.7,7.3-2.7c17.7,4.7,18-18.8,12.3-23.5
				c-5.8-4.7-11.8-1.6-15,2.2c-3.2,3.8-9.6,18.1-9.6,18.1l-0.8,1.1l-1.3,1.4c-4.5-2.1-1.8-7-1.8-7C36.2,3.9,12.6,3.6,7.9,9.3
				s-1.6,11.8,2.2,15s18.1,9.6,18.1,9.6l0.2,0.2c-2.2,3.9-6.8,1.5-6.8,1.5C4,30.9,3.6,54.4,9.4,59.1s11.8,1.6,15-2.2
				s9.6-18.1,9.6-18.1l0.5-0.7c4.7,2,2,7.1,2,7.1c-4.7,17.7,18.8,18,23.5,12.3C64.8,51.7,61.7,45.7,57.8,42.4"/>
		</defs>
		<use xlink:href="#SVGID_117_"  style="overflow:visible;fill:#CCDD61;"/>
		<clipPath id="SVGID_6_">
			<use xlink:href="#SVGID_117_"  style="overflow:visible;"/>
		</clipPath>
		<polyline style="clip-path:url(#SVGID_6_);fill:#CCDD61;stroke:#231F20;stroke-width:0.25;stroke-miterlimit:10;" points="
			-9.8,72 13.5,-6.7 13.2,-6.8 -10,71.9 		"/>
		<use xlink:href="#SVGID_117_"  style="overflow:visible;fill:none;stroke:#231F20;stroke-width:0.25;stroke-miterlimit:10;"/>
	</g>
	<g>
		<defs>
			<path id="SVGID_119_" d="M57.8,42.4c-3.6-3.1-16.4-8.8-17.9-9.5l0.4-0.9c1.8-5.6,7.3-2.7,7.3-2.7c17.7,4.7,18-18.8,12.3-23.5
				c-5.8-4.7-11.8-1.6-15,2.2c-3.2,3.8-9.6,18.1-9.6,18.1l-0.8,1.1l-1.3,1.4c-4.5-2.1-1.8-7-1.8-7C36.2,3.9,12.6,3.6,7.9,9.3
				s-1.6,11.8,2.2,15s18.1,9.6,18.1,9.6l0.2,0.2c-2.2,3.9-6.8,1.5-6.8,1.5C4,30.9,3.6,54.4,9.4,59.1s11.8,1.6,15-2.2
				s9.6-18.1,9.6-18.1l0.5-0.7c4.7,2,2,7.1,2,7.1c-4.7,17.7,18.8,18,23.5,12.3C64.8,51.7,61.7,45.7,57.8,42.4"/>
		</defs>
		<use xlink:href="#SVGID_119_"  style="overflow:visible;fill:#CCDD61;"/>
		<clipPath id="SVGID_8_">
			<use xlink:href="#SVGID_119_"  style="overflow:visible;"/>
		</clipPath>
		<polyline style="clip-path:url(#SVGID_8_);fill:#CCDD61;stroke:#231F20;stroke-width:0.25;stroke-miterlimit:10;" points="
			-8.7,72 14.5,-6.7 14.3,-6.8 -8.9,71.9 		"/>
		<use xlink:href="#SVGID_119_"  style="overflow:visible;fill:none;stroke:#231F20;stroke-width:0.25;stroke-miterlimit:10;"/>
	</g>
	<g>
		<defs>
			<path id="SVGID_121_" d="M57.8,42.4c-3.6-3.1-16.4-8.8-17.9-9.5l0.4-0.9c1.8-5.6,7.3-2.7,7.3-2.7c17.7,4.7,18-18.8,12.3-23.5
				c-5.8-4.7-11.8-1.6-15,2.2c-3.2,3.8-9.6,18.1-9.6,18.1l-0.8,1.1l-1.3,1.4c-4.5-2.1-1.8-7-1.8-7C36.2,3.9,12.6,3.6,7.9,9.3
				s-1.6,11.8,2.2,15s18.1,9.6,18.1,9.6l0.2,0.2c-2.2,3.9-6.8,1.5-6.8,1.5C4,30.9,3.6,54.4,9.4,59.1s11.8,1.6,15-2.2
				s9.6-18.1,9.6-18.1l0.5-0.7c4.7,2,2,7.1,2,7.1c-4.7,17.7,18.8,18,23.5,12.3C64.8,51.7,61.7,45.7,57.8,42.4"/>
		</defs>
		<use xlink:href="#SVGID_121_"  style="overflow:visible;fill:#CCDD61;"/>
		<clipPath id="SVGID_10_">
			<use xlink:href="#SVGID_121_"  style="overflow:visible;"/>
		</clipPath>
		<polyline style="clip-path:url(#SVGID_10_);fill:#CCDD61;stroke:#231F20;stroke-width:0.25;stroke-miterlimit:10;" points="
			-7.7,72 15.5,-6.7 15.3,-6.8 -7.9,71.9 		"/>
		<use xlink:href="#SVGID_121_"  style="overflow:visible;fill:none;stroke:#231F20;stroke-width:0.25;stroke-miterlimit:10;"/>
	</g>
	<g>
		<defs>
			<path id="SVGID_123_" d="M57.8,42.4c-3.6-3.1-16.4-8.8-17.9-9.5l0.4-0.9c1.8-5.6,7.3-2.7,7.3-2.7c17.7,4.7,18-18.8,12.3-23.5
				c-5.8-4.7-11.8-1.6-15,2.2c-3.2,3.8-9.6,18.1-9.6,18.1l-0.8,1.1l-1.3,1.4c-4.5-2.1-1.8-7-1.8-7C36.2,3.9,12.6,3.6,7.9,9.3
				s-1.6,11.8,2.2,15s18.1,9.6,18.1,9.6l0.2,0.2c-2.2,3.9-6.8,1.5-6.8,1.5C4,30.9,3.6,54.4,9.4,59.1s11.8,1.6,15-2.2
				s9.6-18.1,9.6-18.1l0.5-0.7c4.7,2,2,7.1,2,7.1c-4.7,17.7,18.8,18,23.5,12.3C64.8,51.7,61.7,45.7,57.8,42.4"/>
		</defs>
		<use xlink:href="#SVGID_123_"  style="overflow:visible;fill:#CCDD61;"/>
		<clipPath id="SVGID_12_">
			<use xlink:href="#SVGID_123_"  style="overflow:visible;"/>
		</clipPath>
		<polyline style="clip-path:url(#SVGID_12_);fill:#CCDD61;stroke:#231F20;stroke-width:0.25;stroke-miterlimit:10;" points="
			-6.6,72 16.6,-6.7 16.4,-6.8 -6.9,71.9 		"/>
		<use xlink:href="#SVGID_123_"  style="overflow:visible;fill:none;stroke:#231F20;stroke-width:0.25;stroke-miterlimit:10;"/>
	</g>
	<g>
		<defs>
			<path id="SVGID_125_" d="M57.8,42.4c-3.6-3.1-16.4-8.8-17.9-9.5l0.4-0.9c1.8-5.6,7.3-2.7,7.3-2.7c17.7,4.7,18-18.8,12.3-23.5
				c-5.8-4.7-11.8-1.6-15,2.2c-3.2,3.8-9.6,18.1-9.6,18.1l-0.8,1.1l-1.3,1.4c-4.5-2.1-1.8-7-1.8-7C36.2,3.9,12.6,3.6,7.9,9.3
				s-1.6,11.8,2.2,15s18.1,9.6,18.1,9.6l0.2,0.2c-2.2,3.9-6.8,1.5-6.8,1.5C4,30.9,3.6,54.4,9.4,59.1s11.8,1.6,15-2.2
				s9.6-18.1,9.6-18.1l0.5-0.7c4.7,2,2,7.1,2,7.1c-4.7,17.7,18.8,18,23.5,12.3C64.8,51.7,61.7,45.7,57.8,42.4"/>
		</defs>
		<use xlink:href="#SVGID_125_"  style="overflow:visible;fill:#CCDD61;"/>
		<clipPath id="SVGID_14_">
			<use xlink:href="#SVGID_125_"  style="overflow:visible;"/>
		</clipPath>
		<polyline style="clip-path:url(#SVGID_14_);fill:#CCDD61;stroke:#231F20;stroke-width:0.25;stroke-miterlimit:10;" points="
			-5.5,72 17.8,-6.7 17.5,-6.8 -5.7,71.9 		"/>
		<use xlink:href="#SVGID_125_"  style="overflow:visible;fill:none;stroke:#231F20;stroke-width:0.25;stroke-miterlimit:10;"/>
	</g>
	<g>
		<defs>
			<path id="SVGID_127_" d="M57.8,42.4c-3.6-3.1-16.4-8.8-17.9-9.5l0.4-0.9c1.8-5.6,7.3-2.7,7.3-2.7c17.7,4.7,18-18.8,12.3-23.5
				c-5.8-4.7-11.8-1.6-15,2.2c-3.2,3.8-9.6,18.1-9.6,18.1l-0.8,1.1l-1.3,1.4c-4.5-2.1-1.8-7-1.8-7C36.2,3.9,12.6,3.6,7.9,9.3
				s-1.6,11.8,2.2,15s18.1,9.6,18.1,9.6l0.2,0.2c-2.2,3.9-6.8,1.5-6.8,1.5C4,30.9,3.6,54.4,9.4,59.1s11.8,1.6,15-2.2
				s9.6-18.1,9.6-18.1l0.5-0.7c4.7,2,2,7.1,2,7.1c-4.7,17.7,18.8,18,23.5,12.3C64.8,51.7,61.7,45.7,57.8,42.4"/>
		</defs>
		<use xlink:href="#SVGID_127_"  style="overflow:visible;fill:#CCDD61;"/>
		<clipPath id="SVGID_16_">
			<use xlink:href="#SVGID_127_"  style="overflow:visible;"/>
		</clipPath>
		<polyline style="clip-path:url(#SVGID_16_);fill:#CCDD61;stroke:#231F20;stroke-width:0.25;stroke-miterlimit:10;" points="
			-4.4,72 18.8,-6.7 18.6,-6.8 -4.6,71.9 		"/>
		<use xlink:href="#SVGID_127_"  style="overflow:visible;fill:none;stroke:#231F20;stroke-width:0.25;stroke-miterlimit:10;"/>
	</g>
	<g>
		<defs>
			<path id="SVGID_129_" d="M57.8,42.4c-3.6-3.1-16.4-8.8-17.9-9.5l0.4-0.9c1.8-5.6,7.3-2.7,7.3-2.7c17.7,4.7,18-18.8,12.3-23.5
				c-5.8-4.7-11.8-1.6-15,2.2c-3.2,3.8-9.6,18.1-9.6,18.1l-0.8,1.1l-1.3,1.4c-4.5-2.1-1.8-7-1.8-7C36.2,3.9,12.6,3.6,7.9,9.3
				s-1.6,11.8,2.2,15s18.1,9.6,18.1,9.6l0.2,0.2c-2.2,3.9-6.8,1.5-6.8,1.5C4,30.9,3.6,54.4,9.4,59.1s11.8,1.6,15-2.2
				s9.6-18.1,9.6-18.1l0.5-0.7c4.7,2,2,7.1,2,7.1c-4.7,17.7,18.8,18,23.5,12.3C64.8,51.7,61.7,45.7,57.8,42.4"/>
		</defs>
		<use xlink:href="#SVGID_129_"  style="overflow:visible;fill:#CCDD61;"/>
		<clipPath id="SVGID_18_">
			<use xlink:href="#SVGID_129_"  style="overflow:visible;"/>
		</clipPath>
		<polyline style="clip-path:url(#SVGID_18_);fill:#CCDD61;stroke:#231F20;stroke-width:0.25;stroke-miterlimit:10;" points="
			-3.2,72 20,-6.7 19.8,-6.8 -3.4,71.9 		"/>
		<use xlink:href="#SVGID_129_"  style="overflow:visible;fill:none;stroke:#231F20;stroke-width:0.25;stroke-miterlimit:10;"/>
	</g>
	<g>
		<defs>
			<path id="SVGID_131_" d="M57.8,42.4c-3.6-3.1-16.4-8.8-17.9-9.5l0.4-0.9c1.8-5.6,7.3-2.7,7.3-2.7c17.7,4.7,18-18.8,12.3-23.5
				c-5.8-4.7-11.8-1.6-15,2.2c-3.2,3.8-9.6,18.1-9.6,18.1l-0.8,1.1l-1.3,1.4c-4.5-2.1-1.8-7-1.8-7C36.2,3.9,12.6,3.6,7.9,9.3
				s-1.6,11.8,2.2,15s18.1,9.6,18.1,9.6l0.2,0.2c-2.2,3.9-6.8,1.5-6.8,1.5C4,30.9,3.6,54.4,9.4,59.1s11.8,1.6,15-2.2
				s9.6-18.1,9.6-18.1l0.5-0.7c4.7,2,2,7.1,2,7.1c-4.7,17.7,18.8,18,23.5,12.3C64.8,51.7,61.7,45.7,57.8,42.4"/>
		</defs>
		<use xlink:href="#SVGID_131_"  style="overflow:visible;fill:#CCDD61;"/>
		<clipPath id="SVGID_20_">
			<use xlink:href="#SVGID_131_"  style="overflow:visible;"/>
		</clipPath>
		<polyline style="clip-path:url(#SVGID_20_);fill:#CCDD61;stroke:#231F20;stroke-width:0.25;stroke-miterlimit:10;" points="
			-2.1,72 21.1,-6.7 20.9,-6.8 -2.3,71.9 		"/>
		<use xlink:href="#SVGID_131_"  style="overflow:visible;fill:none;stroke:#231F20;stroke-width:0.25;stroke-miterlimit:10;"/>
	</g>
	<g>
		<defs>
			<path id="SVGID_133_" d="M57.8,42.4c-3.6-3.1-16.4-8.8-17.9-9.5l0.4-0.9c1.8-5.6,7.3-2.7,7.3-2.7c17.7,4.7,18-18.8,12.3-23.5
				c-5.8-4.7-11.8-1.6-15,2.2c-3.2,3.8-9.6,18.1-9.6,18.1l-0.8,1.1l-1.3,1.4c-4.5-2.1-1.8-7-1.8-7C36.2,3.9,12.6,3.6,7.9,9.3
				s-1.6,11.8,2.2,15s18.1,9.6,18.1,9.6l0.2,0.2c-2.2,3.9-6.8,1.5-6.8,1.5C4,30.9,3.6,54.4,9.4,59.1s11.8,1.6,15-2.2
				s9.6-18.1,9.6-18.1l0.5-0.7c4.7,2,2,7.1,2,7.1c-4.7,17.7,18.8,18,23.5,12.3C64.8,51.7,61.7,45.7,57.8,42.4"/>
		</defs>
		<use xlink:href="#SVGID_133_"  style="overflow:visible;fill:#CCDD61;"/>
		<clipPath id="SVGID_22_">
			<use xlink:href="#SVGID_133_"  style="overflow:visible;"/>
		</clipPath>
		<polyline style="clip-path:url(#SVGID_22_);fill:#CCDD61;stroke:#231F20;stroke-width:0.25;stroke-miterlimit:10;" points="-1,72 
			22.3,-6.7 22.1,-6.8 -1.2,71.9 		"/>
		<use xlink:href="#SVGID_133_"  style="overflow:visible;fill:none;stroke:#231F20;stroke-width:0.25;stroke-miterlimit:10;"/>
	</g>
	<g>
		<defs>
			<path id="SVGID_135_" d="M57.8,42.4c-3.6-3.1-16.4-8.8-17.9-9.5l0.4-0.9c1.8-5.6,7.3-2.7,7.3-2.7c17.7,4.7,18-18.8,12.3-23.5
				c-5.8-4.7-11.8-1.6-15,2.2c-3.2,3.8-9.6,18.1-9.6,18.1l-0.8,1.1l-1.3,1.4c-4.5-2.1-1.8-7-1.8-7C36.2,3.9,12.6,3.6,7.9,9.3
				s-1.6,11.8,2.2,15s18.1,9.6,18.1,9.6l0.2,0.2c-2.2,3.9-6.8,1.5-6.8,1.5C4,30.9,3.6,54.4,9.4,59.1s11.8,1.6,15-2.2
				s9.6-18.1,9.6-18.1l0.5-0.7c4.7,2,2,7.1,2,7.1c-4.7,17.7,18.8,18,23.5,12.3C64.8,51.7,61.7,45.7,57.8,42.4"/>
		</defs>
		<use xlink:href="#SVGID_135_"  style="overflow:visible;fill:#CCDD61;"/>
		<clipPath id="SVGID_24_">
			<use xlink:href="#SVGID_135_"  style="overflow:visible;"/>
		</clipPath>
		<polyline style="clip-path:url(#SVGID_24_);fill:#CCDD61;stroke:#231F20;stroke-width:0.25;stroke-miterlimit:10;" points="
			0.1,72 23.4,-6.7 23.1,-6.8 -0.1,71.9 		"/>
		<use xlink:href="#SVGID_135_"  style="overflow:visible;fill:none;stroke:#231F20;stroke-width:0.25;stroke-miterlimit:10;"/>
	</g>
	<g>
		<defs>
			<path id="SVGID_137_" d="M57.8,42.4c-3.6-3.1-16.4-8.8-17.9-9.5l0.4-0.9c1.8-5.6,7.3-2.7,7.3-2.7c17.7,4.7,18-18.8,12.3-23.5
				c-5.8-4.7-11.8-1.6-15,2.2c-3.2,3.8-9.6,18.1-9.6,18.1l-0.8,1.1l-1.3,1.4c-4.5-2.1-1.8-7-1.8-7C36.2,3.9,12.6,3.6,7.9,9.3
				s-1.6,11.8,2.2,15s18.1,9.6,18.1,9.6l0.2,0.2c-2.2,3.9-6.8,1.5-6.8,1.5C4,30.9,3.6,54.4,9.4,59.1s11.8,1.6,15-2.2
				s9.6-18.1,9.6-18.1l0.5-0.7c4.7,2,2,7.1,2,7.1c-4.7,17.7,18.8,18,23.5,12.3C64.8,51.7,61.7,45.7,57.8,42.4"/>
		</defs>
		<use xlink:href="#SVGID_137_"  style="overflow:visible;fill:#CCDD61;"/>
		<clipPath id="SVGID_26_">
			<use xlink:href="#SVGID_137_"  style="overflow:visible;"/>
		</clipPath>
		<polyline style="clip-path:url(#SVGID_26_);fill:#CCDD61;stroke:#231F20;stroke-width:0.25;stroke-miterlimit:10;" points="
			1.1,72 24.4,-6.7 24.1,-6.8 0.9,71.9 		"/>
		<use xlink:href="#SVGID_137_"  style="overflow:visible;fill:none;stroke:#231F20;stroke-width:0.25;stroke-miterlimit:10;"/>
	</g>
	<g>
		<defs>
			<path id="SVGID_139_" d="M57.8,42.4c-3.6-3.1-16.4-8.8-17.9-9.5l0.4-0.9c1.8-5.6,7.3-2.7,7.3-2.7c17.7,4.7,18-18.8,12.3-23.5
				c-5.8-4.7-11.8-1.6-15,2.2c-3.2,3.8-9.6,18.1-9.6,18.1l-0.8,1.1l-1.3,1.4c-4.5-2.1-1.8-7-1.8-7C36.2,3.9,12.6,3.6,7.9,9.3
				s-1.6,11.8,2.2,15s18.1,9.6,18.1,9.6l0.2,0.2c-2.2,3.9-6.8,1.5-6.8,1.5C4,30.9,3.6,54.4,9.4,59.1s11.8,1.6,15-2.2
				s9.6-18.1,9.6-18.1l0.5-0.7c4.7,2,2,7.1,2,7.1c-4.7,17.7,18.8,18,23.5,12.3C64.8,51.7,61.7,45.7,57.8,42.4"/>
		</defs>
		<use xlink:href="#SVGID_139_"  style="overflow:visible;fill:#CCDD61;"/>
		<clipPath id="SVGID_28_">
			<use xlink:href="#SVGID_139_"  style="overflow:visible;"/>
		</clipPath>
		<polyline style="clip-path:url(#SVGID_28_);fill:#CCDD61;stroke:#231F20;stroke-width:0.25;stroke-miterlimit:10;" points="
			2.2,72 25.4,-6.7 25.2,-6.8 2,71.9 		"/>
		<use xlink:href="#SVGID_139_"  style="overflow:visible;fill:none;stroke:#231F20;stroke-width:0.25;stroke-miterlimit:10;"/>
	</g>
	<g>
		<defs>
			<path id="SVGID_141_" d="M57.8,42.4c-3.6-3.1-16.4-8.8-17.9-9.5l0.4-0.9c1.8-5.6,7.3-2.7,7.3-2.7c17.7,4.7,18-18.8,12.3-23.5
				c-5.8-4.7-11.8-1.6-15,2.2c-3.2,3.8-9.6,18.1-9.6,18.1l-0.8,1.1l-1.3,1.4c-4.5-2.1-1.8-7-1.8-7C36.2,3.9,12.6,3.6,7.9,9.3
				s-1.6,11.8,2.2,15s18.1,9.6,18.1,9.6l0.2,0.2c-2.2,3.9-6.8,1.5-6.8,1.5C4,30.9,3.6,54.4,9.4,59.1s11.8,1.6,15-2.2
				s9.6-18.1,9.6-18.1l0.5-0.7c4.7,2,2,7.1,2,7.1c-4.7,17.7,18.8,18,23.5,12.3C64.8,51.7,61.7,45.7,57.8,42.4"/>
		</defs>
		<use xlink:href="#SVGID_141_"  style="overflow:visible;fill:#CCDD61;"/>
		<clipPath id="SVGID_30_">
			<use xlink:href="#SVGID_141_"  style="overflow:visible;"/>
		</clipPath>
		<polyline style="clip-path:url(#SVGID_30_);fill:#CCDD61;stroke:#231F20;stroke-width:0.25;stroke-miterlimit:10;" points="
			3.4,72 26.6,-6.7 26.4,-6.8 3.2,71.9 		"/>
		<use xlink:href="#SVGID_141_"  style="overflow:visible;fill:none;stroke:#231F20;stroke-width:0.25;stroke-miterlimit:10;"/>
	</g>
	<g>
		<defs>
			<path id="SVGID_143_" d="M57.8,42.4c-3.6-3.1-16.4-8.8-17.9-9.5l0.4-0.9c1.8-5.6,7.3-2.7,7.3-2.7c17.7,4.7,18-18.8,12.3-23.5
				c-5.8-4.7-11.8-1.6-15,2.2c-3.2,3.8-9.6,18.1-9.6,18.1l-0.8,1.1l-1.3,1.4c-4.5-2.1-1.8-7-1.8-7C36.2,3.9,12.6,3.6,7.9,9.3
				s-1.6,11.8,2.2,15s18.1,9.6,18.1,9.6l0.2,0.2c-2.2,3.9-6.8,1.5-6.8,1.5C4,30.9,3.6,54.4,9.4,59.1s11.8,1.6,15-2.2
				s9.6-18.1,9.6-18.1l0.5-0.7c4.7,2,2,7.1,2,7.1c-4.7,17.7,18.8,18,23.5,12.3C64.8,51.7,61.7,45.7,57.8,42.4"/>
		</defs>
		<use xlink:href="#SVGID_143_"  style="overflow:visible;fill:#CCDD61;"/>
		<clipPath id="SVGID_32_">
			<use xlink:href="#SVGID_143_"  style="overflow:visible;"/>
		</clipPath>
		<polyline style="clip-path:url(#SVGID_32_);fill:#CCDD61;stroke:#231F20;stroke-width:0.25;stroke-miterlimit:10;" points="
			4.4,72 27.7,-6.7 27.4,-6.8 4.2,71.9 		"/>
		<use xlink:href="#SVGID_143_"  style="overflow:visible;fill:none;stroke:#231F20;stroke-width:0.25;stroke-miterlimit:10;"/>
	</g>
	<g>
		<defs>
			<path id="SVGID_145_" d="M57.8,42.4c-3.6-3.1-16.4-8.8-17.9-9.5l0.4-0.9c1.8-5.6,7.3-2.7,7.3-2.7c17.7,4.7,18-18.8,12.3-23.5
				c-5.8-4.7-11.8-1.6-15,2.2c-3.2,3.8-9.6,18.1-9.6,18.1l-0.8,1.1l-1.3,1.4c-4.5-2.1-1.8-7-1.8-7C36.2,3.9,12.6,3.6,7.9,9.3
				s-1.6,11.8,2.2,15s18.1,9.6,18.1,9.6l0.2,0.2c-2.2,3.9-6.8,1.5-6.8,1.5C4,30.9,3.6,54.4,9.4,59.1s11.8,1.6,15-2.2
				s9.6-18.1,9.6-18.1l0.5-0.7c4.7,2,2,7.1,2,7.1c-4.7,17.7,18.8,18,23.5,12.3C64.8,51.7,61.7,45.7,57.8,42.4"/>
		</defs>
		<use xlink:href="#SVGID_145_"  style="overflow:visible;fill:#CCDD61;"/>
		<clipPath id="SVGID_34_">
			<use xlink:href="#SVGID_145_"  style="overflow:visible;"/>
		</clipPath>
		<polyline style="clip-path:url(#SVGID_34_);fill:#CCDD61;stroke:#231F20;stroke-width:0.25;stroke-miterlimit:10;" points="
			5.7,72 28.9,-6.7 28.7,-6.8 5.4,71.9 		"/>
		<use xlink:href="#SVGID_145_"  style="overflow:visible;fill:none;stroke:#231F20;stroke-width:0.25;stroke-miterlimit:10;"/>
	</g>
	<g>
		<defs>
			<path id="SVGID_147_" d="M57.8,42.4c-3.6-3.1-16.4-8.8-17.9-9.5l0.4-0.9c1.8-5.6,7.3-2.7,7.3-2.7c17.7,4.7,18-18.8,12.3-23.5
				c-5.8-4.7-11.8-1.6-15,2.2c-3.2,3.8-9.6,18.1-9.6,18.1l-0.8,1.1l-1.3,1.4c-4.5-2.1-1.8-7-1.8-7C36.2,3.9,12.6,3.6,7.9,9.3
				s-1.6,11.8,2.2,15s18.1,9.6,18.1,9.6l0.2,0.2c-2.2,3.9-6.8,1.5-6.8,1.5C4,30.9,3.6,54.4,9.4,59.1s11.8,1.6,15-2.2
				s9.6-18.1,9.6-18.1l0.5-0.7c4.7,2,2,7.1,2,7.1c-4.7,17.7,18.8,18,23.5,12.3C64.8,51.7,61.7,45.7,57.8,42.4"/>
		</defs>
		<use xlink:href="#SVGID_147_"  style="overflow:visible;fill:#CCDD61;"/>
		<clipPath id="SVGID_36_">
			<use xlink:href="#SVGID_147_"  style="overflow:visible;"/>
		</clipPath>
		<polyline style="clip-path:url(#SVGID_36_);fill:#CCDD61;stroke:#231F20;stroke-width:0.25;stroke-miterlimit:10;" points="
			6.7,72 29.9,-6.7 29.7,-6.8 6.5,71.9 		"/>
		<use xlink:href="#SVGID_147_"  style="overflow:visible;fill:none;stroke:#231F20;stroke-width:0.25;stroke-miterlimit:10;"/>
	</g>
	<g>
		<defs>
			<path id="SVGID_149_" d="M57.8,42.4c-3.6-3.1-16.4-8.8-17.9-9.5l0.4-0.9c1.8-5.6,7.3-2.7,7.3-2.7c17.7,4.7,18-18.8,12.3-23.5
				c-5.8-4.7-11.8-1.6-15,2.2c-3.2,3.8-9.6,18.1-9.6,18.1l-0.8,1.1l-1.3,1.4c-4.5-2.1-1.8-7-1.8-7C36.2,3.9,12.6,3.6,7.9,9.3
				s-1.6,11.8,2.2,15s18.1,9.6,18.1,9.6l0.2,0.2c-2.2,3.9-6.8,1.5-6.8,1.5C4,30.9,3.6,54.4,9.4,59.1s11.8,1.6,15-2.2
				s9.6-18.1,9.6-18.1l0.5-0.7c4.7,2,2,7.1,2,7.1c-4.7,17.7,18.8,18,23.5,12.3C64.8,51.7,61.7,45.7,57.8,42.4"/>
		</defs>
		<use xlink:href="#SVGID_149_"  style="overflow:visible;fill:#CCDD61;"/>
		<clipPath id="SVGID_38_">
			<use xlink:href="#SVGID_149_"  style="overflow:visible;"/>
		</clipPath>
		<polyline style="clip-path:url(#SVGID_38_);fill:#CCDD61;stroke:#231F20;stroke-width:0.25;stroke-miterlimit:10;" points="
			7.9,72 31.1,-6.7 30.9,-6.8 7.7,71.9 		"/>
		<use xlink:href="#SVGID_149_"  style="overflow:visible;fill:none;stroke:#231F20;stroke-width:0.25;stroke-miterlimit:10;"/>
	</g>
	<g>
		<defs>
			<path id="SVGID_151_" d="M57.8,42.4c-3.6-3.1-16.4-8.8-17.9-9.5l0.4-0.9c1.8-5.6,7.3-2.7,7.3-2.7c17.7,4.7,18-18.8,12.3-23.5
				c-5.8-4.7-11.8-1.6-15,2.2c-3.2,3.8-9.6,18.1-9.6,18.1l-0.8,1.1l-1.3,1.4c-4.5-2.1-1.8-7-1.8-7C36.2,3.9,12.6,3.6,7.9,9.3
				s-1.6,11.8,2.2,15s18.1,9.6,18.1,9.6l0.2,0.2c-2.2,3.9-6.8,1.5-6.8,1.5C4,30.9,3.6,54.4,9.4,59.1s11.8,1.6,15-2.2
				s9.6-18.1,9.6-18.1l0.5-0.7c4.7,2,2,7.1,2,7.1c-4.7,17.7,18.8,18,23.5,12.3C64.8,51.7,61.7,45.7,57.8,42.4"/>
		</defs>
		<use xlink:href="#SVGID_151_"  style="overflow:visible;fill:#CCDD61;"/>
		<clipPath id="SVGID_40_">
			<use xlink:href="#SVGID_151_"  style="overflow:visible;"/>
		</clipPath>
		<polyline style="clip-path:url(#SVGID_40_);fill:#CCDD61;stroke:#231F20;stroke-width:0.25;stroke-miterlimit:10;" points="9,72 
			32.2,-6.7 32,-6.8 8.7,71.9 		"/>
		<use xlink:href="#SVGID_151_"  style="overflow:visible;fill:none;stroke:#231F20;stroke-width:0.25;stroke-miterlimit:10;"/>
	</g>
	<g>
		<defs>
			<path id="SVGID_153_" d="M57.8,42.4c-3.6-3.1-16.4-8.8-17.9-9.5l0.4-0.9c1.8-5.6,7.3-2.7,7.3-2.7c17.7,4.7,18-18.8,12.3-23.5
				c-5.8-4.7-11.8-1.6-15,2.2c-3.2,3.8-9.6,18.1-9.6,18.1l-0.8,1.1l-1.3,1.4c-4.5-2.1-1.8-7-1.8-7C36.2,3.9,12.6,3.6,7.9,9.3
				s-1.6,11.8,2.2,15s18.1,9.6,18.1,9.6l0.2,0.2c-2.2,3.9-6.8,1.5-6.8,1.5C4,30.9,3.6,54.4,9.4,59.1s11.8,1.6,15-2.2
				s9.6-18.1,9.6-18.1l0.5-0.7c4.7,2,2,7.1,2,7.1c-4.7,17.7,18.8,18,23.5,12.3C64.8,51.7,61.7,45.7,57.8,42.4"/>
		</defs>
		<use xlink:href="#SVGID_153_"  style="overflow:visible;fill:#CCDD61;"/>
		<clipPath id="SVGID_42_">
			<use xlink:href="#SVGID_153_"  style="overflow:visible;"/>
		</clipPath>
		<polyline style="clip-path:url(#SVGID_42_);fill:#CCDD61;stroke:#231F20;stroke-width:0.25;stroke-miterlimit:10;" points="10,72 
			33.2,-6.7 33,-6.8 9.7,71.9 		"/>
		<use xlink:href="#SVGID_153_"  style="overflow:visible;fill:none;stroke:#231F20;stroke-width:0.25;stroke-miterlimit:10;"/>
	</g>
	<g>
		<defs>
			<path id="SVGID_155_" d="M57.8,42.4c-3.6-3.1-16.4-8.8-17.9-9.5l0.4-0.9c1.8-5.6,7.3-2.7,7.3-2.7c17.7,4.7,18-18.8,12.3-23.5
				c-5.8-4.7-11.8-1.6-15,2.2c-3.2,3.8-9.6,18.1-9.6,18.1l-0.8,1.1l-1.3,1.4c-4.5-2.1-1.8-7-1.8-7C36.2,3.9,12.6,3.6,7.9,9.3
				s-1.6,11.8,2.2,15s18.1,9.6,18.1,9.6l0.2,0.2c-2.2,3.9-6.8,1.5-6.8,1.5C4,30.9,3.6,54.4,9.4,59.1s11.8,1.6,15-2.2
				s9.6-18.1,9.6-18.1l0.5-0.7c4.7,2,2,7.1,2,7.1c-4.7,17.7,18.8,18,23.5,12.3C64.8,51.7,61.7,45.7,57.8,42.4"/>
		</defs>
		<use xlink:href="#SVGID_155_"  style="overflow:visible;fill:#CCDD61;"/>
		<clipPath id="SVGID_44_">
			<use xlink:href="#SVGID_155_"  style="overflow:visible;"/>
		</clipPath>
		<polyline style="clip-path:url(#SVGID_44_);fill:#CCDD61;stroke:#231F20;stroke-width:0.25;stroke-miterlimit:10;" points="11,72 
			34.3,-6.7 34.1,-6.8 10.8,71.9 		"/>
		<use xlink:href="#SVGID_155_"  style="overflow:visible;fill:none;stroke:#231F20;stroke-width:0.25;stroke-miterlimit:10;"/>
	</g>
	<g>
		<defs>
			<path id="SVGID_157_" d="M57.8,42.4c-3.6-3.1-16.4-8.8-17.9-9.5l0.4-0.9c1.8-5.6,7.3-2.7,7.3-2.7c17.7,4.7,18-18.8,12.3-23.5
				c-5.8-4.7-11.8-1.6-15,2.2c-3.2,3.8-9.6,18.1-9.6,18.1l-0.8,1.1l-1.3,1.4c-4.5-2.1-1.8-7-1.8-7C36.2,3.9,12.6,3.6,7.9,9.3
				s-1.6,11.8,2.2,15s18.1,9.6,18.1,9.6l0.2,0.2c-2.2,3.9-6.8,1.5-6.8,1.5C4,30.9,3.6,54.4,9.4,59.1s11.8,1.6,15-2.2
				s9.6-18.1,9.6-18.1l0.5-0.7c4.7,2,2,7.1,2,7.1c-4.7,17.7,18.8,18,23.5,12.3C64.8,51.7,61.7,45.7,57.8,42.4"/>
		</defs>
		<use xlink:href="#SVGID_157_"  style="overflow:visible;fill:#CCDD61;"/>
		<clipPath id="SVGID_46_">
			<use xlink:href="#SVGID_157_"  style="overflow:visible;"/>
		</clipPath>
		<polyline style="clip-path:url(#SVGID_46_);fill:#CCDD61;stroke:#231F20;stroke-width:0.25;stroke-miterlimit:10;" points="
			12.2,72 35.4,-6.7 35.2,-6.8 12,71.9 		"/>
		<use xlink:href="#SVGID_157_"  style="overflow:visible;fill:none;stroke:#231F20;stroke-width:0.25;stroke-miterlimit:10;"/>
	</g>
	<g>
		<defs>
			<path id="SVGID_159_" d="M57.8,42.4c-3.6-3.1-16.4-8.8-17.9-9.5l0.4-0.9c1.8-5.6,7.3-2.7,7.3-2.7c17.7,4.7,18-18.8,12.3-23.5
				c-5.8-4.7-11.8-1.6-15,2.2c-3.2,3.8-9.6,18.1-9.6,18.1l-0.8,1.1l-1.3,1.4c-4.5-2.1-1.8-7-1.8-7C36.2,3.9,12.6,3.6,7.9,9.3
				s-1.6,11.8,2.2,15s18.1,9.6,18.1,9.6l0.2,0.2c-2.2,3.9-6.8,1.5-6.8,1.5C4,30.9,3.6,54.4,9.4,59.1s11.8,1.6,15-2.2
				s9.6-18.1,9.6-18.1l0.5-0.7c4.7,2,2,7.1,2,7.1c-4.7,17.7,18.8,18,23.5,12.3C64.8,51.7,61.7,45.7,57.8,42.4"/>
		</defs>
		<use xlink:href="#SVGID_159_"  style="overflow:visible;fill:#CCDD61;"/>
		<clipPath id="SVGID_48_">
			<use xlink:href="#SVGID_159_"  style="overflow:visible;"/>
		</clipPath>
		<polyline style="clip-path:url(#SVGID_48_);fill:#CCDD61;stroke:#231F20;stroke-width:0.25;stroke-miterlimit:10;" points="
			13.3,72 36.5,-6.7 36.3,-6.8 13.1,71.9 		"/>
		<use xlink:href="#SVGID_159_"  style="overflow:visible;fill:none;stroke:#231F20;stroke-width:0.25;stroke-miterlimit:10;"/>
	</g>
	<g>
		<defs>
			<path id="SVGID_161_" d="M57.8,42.4c-3.6-3.1-16.4-8.8-17.9-9.5l0.4-0.9c1.8-5.6,7.3-2.7,7.3-2.7c17.7,4.7,18-18.8,12.3-23.5
				c-5.8-4.7-11.8-1.6-15,2.2c-3.2,3.8-9.6,18.1-9.6,18.1l-0.8,1.1l-1.3,1.4c-4.5-2.1-1.8-7-1.8-7C36.2,3.9,12.6,3.6,7.9,9.3
				s-1.6,11.8,2.2,15s18.1,9.6,18.1,9.6l0.2,0.2c-2.2,3.9-6.8,1.5-6.8,1.5C4,30.9,3.6,54.4,9.4,59.1s11.8,1.6,15-2.2
				s9.6-18.1,9.6-18.1l0.5-0.7c4.7,2,2,7.1,2,7.1c-4.7,17.7,18.8,18,23.5,12.3C64.8,51.7,61.7,45.7,57.8,42.4"/>
		</defs>
		<use xlink:href="#SVGID_161_"  style="overflow:visible;fill:#CCDD61;"/>
		<clipPath id="SVGID_50_">
			<use xlink:href="#SVGID_161_"  style="overflow:visible;"/>
		</clipPath>
		<polyline style="clip-path:url(#SVGID_50_);fill:#CCDD61;stroke:#231F20;stroke-width:0.25;stroke-miterlimit:10;" points="
			14.5,72 37.7,-6.7 37.5,-6.8 14.3,71.9 		"/>
		<use xlink:href="#SVGID_161_"  style="overflow:visible;fill:none;stroke:#231F20;stroke-width:0.25;stroke-miterlimit:10;"/>
	</g>
	<g>
		<defs>
			<path id="SVGID_163_" d="M57.8,42.4c-3.6-3.1-16.4-8.8-17.9-9.5l0.4-0.9c1.8-5.6,7.3-2.7,7.3-2.7c17.7,4.7,18-18.8,12.3-23.5
				c-5.8-4.7-11.8-1.6-15,2.2c-3.2,3.8-9.6,18.1-9.6,18.1l-0.8,1.1l-1.3,1.4c-4.5-2.1-1.8-7-1.8-7C36.2,3.9,12.6,3.6,7.9,9.3
				s-1.6,11.8,2.2,15s18.1,9.6,18.1,9.6l0.2,0.2c-2.2,3.9-6.8,1.5-6.8,1.5C4,30.9,3.6,54.4,9.4,59.1s11.8,1.6,15-2.2
				s9.6-18.1,9.6-18.1l0.5-0.7c4.7,2,2,7.1,2,7.1c-4.7,17.7,18.8,18,23.5,12.3C64.8,51.7,61.7,45.7,57.8,42.4"/>
		</defs>
		<use xlink:href="#SVGID_163_"  style="overflow:visible;fill:#CCDD61;"/>
		<clipPath id="SVGID_52_">
			<use xlink:href="#SVGID_163_"  style="overflow:visible;"/>
		</clipPath>
		<polyline style="clip-path:url(#SVGID_52_);fill:#CCDD61;stroke:#231F20;stroke-width:0.25;stroke-miterlimit:10;" points="
			15.5,72 38.8,-6.7 38.6,-6.8 15.3,71.9 		"/>
		<use xlink:href="#SVGID_163_"  style="overflow:visible;fill:none;stroke:#231F20;stroke-width:0.25;stroke-miterlimit:10;"/>
	</g>
	<g>
		<defs>
			<path id="SVGID_165_" d="M57.8,42.4c-3.6-3.1-16.4-8.8-17.9-9.5l0.4-0.9c1.8-5.6,7.3-2.7,7.3-2.7c17.7,4.7,18-18.8,12.3-23.5
				c-5.8-4.7-11.8-1.6-15,2.2c-3.2,3.8-9.6,18.1-9.6,18.1l-0.8,1.1l-1.3,1.4c-4.5-2.1-1.8-7-1.8-7C36.2,3.9,12.6,3.6,7.9,9.3
				s-1.6,11.8,2.2,15s18.1,9.6,18.1,9.6l0.2,0.2c-2.2,3.9-6.8,1.5-6.8,1.5C4,30.9,3.6,54.4,9.4,59.1s11.8,1.6,15-2.2
				s9.6-18.1,9.6-18.1l0.5-0.7c4.7,2,2,7.1,2,7.1c-4.7,17.7,18.8,18,23.5,12.3C64.8,51.7,61.7,45.7,57.8,42.4"/>
		</defs>
		<use xlink:href="#SVGID_165_"  style="overflow:visible;fill:#CCDD61;"/>
		<clipPath id="SVGID_54_">
			<use xlink:href="#SVGID_165_"  style="overflow:visible;"/>
		</clipPath>
		<polyline style="clip-path:url(#SVGID_54_);fill:#CCDD61;stroke:#231F20;stroke-width:0.25;stroke-miterlimit:10;" points="
			16.7,72 39.9,-6.7 39.7,-6.8 16.5,71.9 		"/>
		<use xlink:href="#SVGID_165_"  style="overflow:visible;fill:none;stroke:#231F20;stroke-width:0.25;stroke-miterlimit:10;"/>
	</g>
	<g>
		<defs>
			<path id="SVGID_167_" d="M57.8,42.4c-3.6-3.1-16.4-8.8-17.9-9.5l0.4-0.9c1.8-5.6,7.3-2.7,7.3-2.7c17.7,4.7,18-18.8,12.3-23.5
				c-5.8-4.7-11.8-1.6-15,2.2c-3.2,3.8-9.6,18.1-9.6,18.1l-0.8,1.1l-1.3,1.4c-4.5-2.1-1.8-7-1.8-7C36.2,3.9,12.6,3.6,7.9,9.3
				s-1.6,11.8,2.2,15s18.1,9.6,18.1,9.6l0.2,0.2c-2.2,3.9-6.8,1.5-6.8,1.5C4,30.9,3.6,54.4,9.4,59.1s11.8,1.6,15-2.2
				s9.6-18.1,9.6-18.1l0.5-0.7c4.7,2,2,7.1,2,7.1c-4.7,17.7,18.8,18,23.5,12.3C64.8,51.7,61.7,45.7,57.8,42.4"/>
		</defs>
		<use xlink:href="#SVGID_167_"  style="overflow:visible;fill:#CCDD61;"/>
		<clipPath id="SVGID_56_">
			<use xlink:href="#SVGID_167_"  style="overflow:visible;"/>
		</clipPath>
		<polyline style="clip-path:url(#SVGID_56_);fill:#CCDD61;stroke:#231F20;stroke-width:0.25;stroke-miterlimit:10;" points="
			17.8,72 41,-6.7 40.8,-6.8 17.6,71.9 		"/>
		<use xlink:href="#SVGID_167_"  style="overflow:visible;fill:none;stroke:#231F20;stroke-width:0.25;stroke-miterlimit:10;"/>
	</g>
	<g>
		<defs>
			<path id="SVGID_169_" d="M57.8,42.4c-3.6-3.1-16.4-8.8-17.9-9.5l0.4-0.9c1.8-5.6,7.3-2.7,7.3-2.7c17.7,4.7,18-18.8,12.3-23.5
				c-5.8-4.7-11.8-1.6-15,2.2c-3.2,3.8-9.6,18.1-9.6,18.1l-0.8,1.1l-1.3,1.4c-4.5-2.1-1.8-7-1.8-7C36.2,3.9,12.6,3.6,7.9,9.3
				s-1.6,11.8,2.2,15s18.1,9.6,18.1,9.6l0.2,0.2c-2.2,3.9-6.8,1.5-6.8,1.5C4,30.9,3.6,54.4,9.4,59.1s11.8,1.6,15-2.2
				s9.6-18.1,9.6-18.1l0.5-0.7c4.7,2,2,7.1,2,7.1c-4.7,17.7,18.8,18,23.5,12.3C64.8,51.7,61.7,45.7,57.8,42.4"/>
		</defs>
		<use xlink:href="#SVGID_169_"  style="overflow:visible;fill:#CCDD61;"/>
		<clipPath id="SVGID_58_">
			<use xlink:href="#SVGID_169_"  style="overflow:visible;"/>
		</clipPath>
		<polyline style="clip-path:url(#SVGID_58_);fill:#CCDD61;stroke:#231F20;stroke-width:0.25;stroke-miterlimit:10;" points="
			18.8,72 42,-6.7 41.8,-6.8 18.6,71.9 		"/>
		<use xlink:href="#SVGID_169_"  style="overflow:visible;fill:none;stroke:#231F20;stroke-width:0.25;stroke-miterlimit:10;"/>
	</g>
	<g>
		<defs>
			<path id="SVGID_171_" d="M57.8,42.4c-3.6-3.1-16.4-8.8-17.9-9.5l0.4-0.9c1.8-5.6,7.3-2.7,7.3-2.7c17.7,4.7,18-18.8,12.3-23.5
				c-5.8-4.7-11.8-1.6-15,2.2c-3.2,3.8-9.6,18.1-9.6,18.1l-0.8,1.1l-1.3,1.4c-4.5-2.1-1.8-7-1.8-7C36.2,3.9,12.6,3.6,7.9,9.3
				s-1.6,11.8,2.2,15s18.1,9.6,18.1,9.6l0.2,0.2c-2.2,3.9-6.8,1.5-6.8,1.5C4,30.9,3.6,54.4,9.4,59.1s11.8,1.6,15-2.2
				s9.6-18.1,9.6-18.1l0.5-0.7c4.7,2,2,7.1,2,7.1c-4.7,17.7,18.8,18,23.5,12.3C64.8,51.7,61.7,45.7,57.8,42.4"/>
		</defs>
		<use xlink:href="#SVGID_171_"  style="overflow:visible;fill:#CCDD61;"/>
		<clipPath id="SVGID_60_">
			<use xlink:href="#SVGID_171_"  style="overflow:visible;"/>
		</clipPath>
		<polyline style="clip-path:url(#SVGID_60_);fill:#CCDD61;stroke:#231F20;stroke-width:0.25;stroke-miterlimit:10;" points="
			19.9,72 43.1,-6.7 42.9,-6.8 19.6,71.9 		"/>
		<use xlink:href="#SVGID_171_"  style="overflow:visible;fill:none;stroke:#231F20;stroke-width:0.25;stroke-miterlimit:10;"/>
	</g>
	<g>
		<defs>
			<path id="SVGID_173_" d="M57.8,42.4c-3.6-3.1-16.4-8.8-17.9-9.5l0.4-0.9c1.8-5.6,7.3-2.7,7.3-2.7c17.7,4.7,18-18.8,12.3-23.5
				c-5.8-4.7-11.8-1.6-15,2.2c-3.2,3.8-9.6,18.1-9.6,18.1l-0.8,1.1l-1.3,1.4c-4.5-2.1-1.8-7-1.8-7C36.2,3.9,12.6,3.6,7.9,9.3
				s-1.6,11.8,2.2,15s18.1,9.6,18.1,9.6l0.2,0.2c-2.2,3.9-6.8,1.5-6.8,1.5C4,30.9,3.6,54.4,9.4,59.1s11.8,1.6,15-2.2
				s9.6-18.1,9.6-18.1l0.5-0.7c4.7,2,2,7.1,2,7.1c-4.7,17.7,18.8,18,23.5,12.3C64.8,51.7,61.7,45.7,57.8,42.4"/>
		</defs>
		<use xlink:href="#SVGID_173_"  style="overflow:visible;fill:#CCDD61;"/>
		<clipPath id="SVGID_62_">
			<use xlink:href="#SVGID_173_"  style="overflow:visible;"/>
		</clipPath>
		<polyline style="clip-path:url(#SVGID_62_);fill:#CCDD61;stroke:#231F20;stroke-width:0.25;stroke-miterlimit:10;" points="21,72 
			44.3,-6.7 44,-6.8 20.8,71.9 		"/>
		<use xlink:href="#SVGID_173_"  style="overflow:visible;fill:none;stroke:#231F20;stroke-width:0.25;stroke-miterlimit:10;"/>
	</g>
	<g>
		<defs>
			<path id="SVGID_175_" d="M57.8,42.4c-3.6-3.1-16.4-8.8-17.9-9.5l0.4-0.9c1.8-5.6,7.3-2.7,7.3-2.7c17.7,4.7,18-18.8,12.3-23.5
				c-5.8-4.7-11.8-1.6-15,2.2c-3.2,3.8-9.6,18.1-9.6,18.1l-0.8,1.1l-1.3,1.4c-4.5-2.1-1.8-7-1.8-7C36.2,3.9,12.6,3.6,7.9,9.3
				s-1.6,11.8,2.2,15s18.1,9.6,18.1,9.6l0.2,0.2c-2.2,3.9-6.8,1.5-6.8,1.5C4,30.9,3.6,54.4,9.4,59.1s11.8,1.6,15-2.2
				s9.6-18.1,9.6-18.1l0.5-0.7c4.7,2,2,7.1,2,7.1c-4.7,17.7,18.8,18,23.5,12.3C64.8,51.7,61.7,45.7,57.8,42.4"/>
		</defs>
		<use xlink:href="#SVGID_175_"  style="overflow:visible;fill:#CCDD61;"/>
		<clipPath id="SVGID_64_">
			<use xlink:href="#SVGID_175_"  style="overflow:visible;"/>
		</clipPath>
		<polyline style="clip-path:url(#SVGID_64_);fill:#CCDD61;stroke:#231F20;stroke-width:0.25;stroke-miterlimit:10;" points="
			22.1,72 45.3,-6.7 45.1,-6.8 21.9,71.9 		"/>
		<use xlink:href="#SVGID_175_"  style="overflow:visible;fill:none;stroke:#231F20;stroke-width:0.25;stroke-miterlimit:10;"/>
	</g>
	<g>
		<defs>
			<path id="SVGID_177_" d="M57.8,42.4c-3.6-3.1-16.4-8.8-17.9-9.5l0.4-0.9c1.8-5.6,7.3-2.7,7.3-2.7c17.7,4.7,18-18.8,12.3-23.5
				c-5.8-4.7-11.8-1.6-15,2.2c-3.2,3.8-9.6,18.1-9.6,18.1l-0.8,1.1l-1.3,1.4c-4.5-2.1-1.8-7-1.8-7C36.2,3.9,12.6,3.6,7.9,9.3
				s-1.6,11.8,2.2,15s18.1,9.6,18.1,9.6l0.2,0.2c-2.2,3.9-6.8,1.5-6.8,1.5C4,30.9,3.6,54.4,9.4,59.1s11.8,1.6,15-2.2
				s9.6-18.1,9.6-18.1l0.5-0.7c4.7,2,2,7.1,2,7.1c-4.7,17.7,18.8,18,23.5,12.3C64.8,51.7,61.7,45.7,57.8,42.4"/>
		</defs>
		<use xlink:href="#SVGID_177_"  style="overflow:visible;fill:#CCDD61;"/>
		<clipPath id="SVGID_66_">
			<use xlink:href="#SVGID_177_"  style="overflow:visible;"/>
		</clipPath>
		<polyline style="clip-path:url(#SVGID_66_);fill:#CCDD61;stroke:#231F20;stroke-width:0.25;stroke-miterlimit:10;" points="
			23.1,72 46.4,-6.7 46.2,-6.8 22.9,71.9 		"/>
		<use xlink:href="#SVGID_177_"  style="overflow:visible;fill:none;stroke:#231F20;stroke-width:0.25;stroke-miterlimit:10;"/>
	</g>
	<g>
		<defs>
			<path id="SVGID_179_" d="M57.8,42.4c-3.6-3.1-16.4-8.8-17.9-9.5l0.4-0.9c1.8-5.6,7.3-2.7,7.3-2.7c17.7,4.7,18-18.8,12.3-23.5
				c-5.8-4.7-11.8-1.6-15,2.2c-3.2,3.8-9.6,18.1-9.6,18.1l-0.8,1.1l-1.3,1.4c-4.5-2.1-1.8-7-1.8-7C36.2,3.9,12.6,3.6,7.9,9.3
				s-1.6,11.8,2.2,15s18.1,9.6,18.1,9.6l0.2,0.2c-2.2,3.9-6.8,1.5-6.8,1.5C4,30.9,3.6,54.4,9.4,59.1s11.8,1.6,15-2.2
				s9.6-18.1,9.6-18.1l0.5-0.7c4.7,2,2,7.1,2,7.1c-4.7,17.7,18.8,18,23.5,12.3C64.8,51.7,61.7,45.7,57.8,42.4"/>
		</defs>
		<use xlink:href="#SVGID_179_"  style="overflow:visible;fill:#CCDD61;"/>
		<clipPath id="SVGID_68_">
			<use xlink:href="#SVGID_179_"  style="overflow:visible;"/>
		</clipPath>
		<polyline style="clip-path:url(#SVGID_68_);fill:#CCDD61;stroke:#231F20;stroke-width:0.25;stroke-miterlimit:10;" points="
			24.2,72 47.4,-6.7 47.2,-6.8 24,71.9 		"/>
		<use xlink:href="#SVGID_179_"  style="overflow:visible;fill:none;stroke:#231F20;stroke-width:0.25;stroke-miterlimit:10;"/>
	</g>
	<g>
		<defs>
			<path id="SVGID_181_" d="M57.8,42.4c-3.6-3.1-16.4-8.8-17.9-9.5l0.4-0.9c1.8-5.6,7.3-2.7,7.3-2.7c17.7,4.7,18-18.8,12.3-23.5
				c-5.8-4.7-11.8-1.6-15,2.2c-3.2,3.8-9.6,18.1-9.6,18.1l-0.8,1.1l-1.3,1.4c-4.5-2.1-1.8-7-1.8-7C36.2,3.9,12.6,3.6,7.9,9.3
				s-1.6,11.8,2.2,15s18.1,9.6,18.1,9.6l0.2,0.2c-2.2,3.9-6.8,1.5-6.8,1.5C4,30.9,3.6,54.4,9.4,59.1s11.8,1.6,15-2.2
				s9.6-18.1,9.6-18.1l0.5-0.7c4.7,2,2,7.1,2,7.1c-4.7,17.7,18.8,18,23.5,12.3C64.8,51.7,61.7,45.7,57.8,42.4"/>
		</defs>
		<use xlink:href="#SVGID_181_"  style="overflow:visible;fill:#CCDD61;"/>
		<clipPath id="SVGID_70_">
			<use xlink:href="#SVGID_181_"  style="overflow:visible;"/>
		</clipPath>
		<polyline style="clip-path:url(#SVGID_70_);fill:#CCDD61;stroke:#231F20;stroke-width:0.25;stroke-miterlimit:10;" points="
			25.4,72 48.6,-6.7 48.4,-6.8 25.2,71.9 		"/>
		<use xlink:href="#SVGID_181_"  style="overflow:visible;fill:none;stroke:#231F20;stroke-width:0.25;stroke-miterlimit:10;"/>
	</g>
	<g>
		<defs>
			<path id="SVGID_183_" d="M57.8,42.4c-3.6-3.1-16.4-8.8-17.9-9.5l0.4-0.9c1.8-5.6,7.3-2.7,7.3-2.7c17.7,4.7,18-18.8,12.3-23.5
				c-5.8-4.7-11.8-1.6-15,2.2c-3.2,3.8-9.6,18.1-9.6,18.1l-0.8,1.1l-1.3,1.4c-4.5-2.1-1.8-7-1.8-7C36.2,3.9,12.6,3.6,7.9,9.3
				s-1.6,11.8,2.2,15s18.1,9.6,18.1,9.6l0.2,0.2c-2.2,3.9-6.8,1.5-6.8,1.5C4,30.9,3.6,54.4,9.4,59.1s11.8,1.6,15-2.2
				s9.6-18.1,9.6-18.1l0.5-0.7c4.7,2,2,7.1,2,7.1c-4.7,17.7,18.8,18,23.5,12.3C64.8,51.7,61.7,45.7,57.8,42.4"/>
		</defs>
		<use xlink:href="#SVGID_183_"  style="overflow:visible;fill:#CCDD61;"/>
		<clipPath id="SVGID_72_">
			<use xlink:href="#SVGID_183_"  style="overflow:visible;"/>
		</clipPath>
		<polyline style="clip-path:url(#SVGID_72_);fill:#CCDD61;stroke:#231F20;stroke-width:0.25;stroke-miterlimit:10;" points="
			26.5,72 49.7,-6.7 49.5,-6.8 26.2,71.9 		"/>
		<use xlink:href="#SVGID_183_"  style="overflow:visible;fill:none;stroke:#231F20;stroke-width:0.25;stroke-miterlimit:10;"/>
	</g>
	<g>
		<defs>
			<path id="SVGID_185_" d="M57.8,42.4c-3.6-3.1-16.4-8.8-17.9-9.5l0.4-0.9c1.8-5.6,7.3-2.7,7.3-2.7c17.7,4.7,18-18.8,12.3-23.5
				c-5.8-4.7-11.8-1.6-15,2.2c-3.2,3.8-9.6,18.1-9.6,18.1l-0.8,1.1l-1.3,1.4c-4.5-2.1-1.8-7-1.8-7C36.2,3.9,12.6,3.6,7.9,9.3
				s-1.6,11.8,2.2,15s18.1,9.6,18.1,9.6l0.2,0.2c-2.2,3.9-6.8,1.5-6.8,1.5C4,30.9,3.6,54.4,9.4,59.1s11.8,1.6,15-2.2
				s9.6-18.1,9.6-18.1l0.5-0.7c4.7,2,2,7.1,2,7.1c-4.7,17.7,18.8,18,23.5,12.3C64.8,51.7,61.7,45.7,57.8,42.4"/>
		</defs>
		<use xlink:href="#SVGID_185_"  style="overflow:visible;fill:#CCDD61;"/>
		<clipPath id="SVGID_74_">
			<use xlink:href="#SVGID_185_"  style="overflow:visible;"/>
		</clipPath>
		<polyline style="clip-path:url(#SVGID_74_);fill:#CCDD61;stroke:#231F20;stroke-width:0.25;stroke-miterlimit:10;" points="
			27.4,72 50.7,-6.7 50.5,-6.8 27.2,71.9 		"/>
		<use xlink:href="#SVGID_185_"  style="overflow:visible;fill:none;stroke:#231F20;stroke-width:0.25;stroke-miterlimit:10;"/>
	</g>
	<g>
		<defs>
			<path id="SVGID_187_" d="M57.8,42.4c-3.6-3.1-16.4-8.8-17.9-9.5l0.4-0.9c1.8-5.6,7.3-2.7,7.3-2.7c17.7,4.7,18-18.8,12.3-23.5
				c-5.8-4.7-11.8-1.6-15,2.2c-3.2,3.8-9.6,18.1-9.6,18.1l-0.8,1.1l-1.3,1.4c-4.5-2.1-1.8-7-1.8-7C36.2,3.9,12.6,3.6,7.9,9.3
				s-1.6,11.8,2.2,15s18.1,9.6,18.1,9.6l0.2,0.2c-2.2,3.9-6.8,1.5-6.8,1.5C4,30.9,3.6,54.4,9.4,59.1s11.8,1.6,15-2.2
				s9.6-18.1,9.6-18.1l0.5-0.7c4.7,2,2,7.1,2,7.1c-4.7,17.7,18.8,18,23.5,12.3C64.8,51.7,61.7,45.7,57.8,42.4"/>
		</defs>
		<use xlink:href="#SVGID_187_"  style="overflow:visible;fill:#CCDD61;"/>
		<clipPath id="SVGID_76_">
			<use xlink:href="#SVGID_187_"  style="overflow:visible;"/>
		</clipPath>
		<polyline style="clip-path:url(#SVGID_76_);fill:#CCDD61;stroke:#231F20;stroke-width:0.25;stroke-miterlimit:10;" points="
			28.5,72 51.8,-6.7 51.5,-6.8 28.3,71.9 		"/>
		<use xlink:href="#SVGID_187_"  style="overflow:visible;fill:none;stroke:#231F20;stroke-width:0.25;stroke-miterlimit:10;"/>
	</g>
	<g>
		<defs>
			<path id="SVGID_189_" d="M57.8,42.4c-3.6-3.1-16.4-8.8-17.9-9.5l0.4-0.9c1.8-5.6,7.3-2.7,7.3-2.7c17.7,4.7,18-18.8,12.3-23.5
				c-5.8-4.7-11.8-1.6-15,2.2c-3.2,3.8-9.6,18.1-9.6,18.1l-0.8,1.1l-1.3,1.4c-4.5-2.1-1.8-7-1.8-7C36.2,3.9,12.6,3.6,7.9,9.3
				s-1.6,11.8,2.2,15s18.1,9.6,18.1,9.6l0.2,0.2c-2.2,3.9-6.8,1.5-6.8,1.5C4,30.9,3.6,54.4,9.4,59.1s11.8,1.6,15-2.2
				s9.6-18.1,9.6-18.1l0.5-0.7c4.7,2,2,7.1,2,7.1c-4.7,17.7,18.8,18,23.5,12.3C64.8,51.7,61.7,45.7,57.8,42.4"/>
		</defs>
		<use xlink:href="#SVGID_189_"  style="overflow:visible;fill:#CCDD61;"/>
		<clipPath id="SVGID_78_">
			<use xlink:href="#SVGID_189_"  style="overflow:visible;"/>
		</clipPath>
		<polyline style="clip-path:url(#SVGID_78_);fill:#CCDD61;stroke:#231F20;stroke-width:0.25;stroke-miterlimit:10;" points="
			29.7,72 52.9,-6.7 52.7,-6.8 29.5,71.9 		"/>
		<use xlink:href="#SVGID_189_"  style="overflow:visible;fill:none;stroke:#231F20;stroke-width:0.25;stroke-miterlimit:10;"/>
	</g>
	<g>
		<defs>
			<path id="SVGID_191_" d="M57.8,42.4c-3.6-3.1-16.4-8.8-17.9-9.5l0.4-0.9c1.8-5.6,7.3-2.7,7.3-2.7c17.7,4.7,18-18.8,12.3-23.5
				c-5.8-4.7-11.8-1.6-15,2.2c-3.2,3.8-9.6,18.1-9.6,18.1l-0.8,1.1l-1.3,1.4c-4.5-2.1-1.8-7-1.8-7C36.2,3.9,12.6,3.6,7.9,9.3
				s-1.6,11.8,2.2,15s18.1,9.6,18.1,9.6l0.2,0.2c-2.2,3.9-6.8,1.5-6.8,1.5C4,30.9,3.6,54.4,9.4,59.1s11.8,1.6,15-2.2
				s9.6-18.1,9.6-18.1l0.5-0.7c4.7,2,2,7.1,2,7.1c-4.7,17.7,18.8,18,23.5,12.3C64.8,51.7,61.7,45.7,57.8,42.4"/>
		</defs>
		<use xlink:href="#SVGID_191_"  style="overflow:visible;fill:#CCDD61;"/>
		<clipPath id="SVGID_80_">
			<use xlink:href="#SVGID_191_"  style="overflow:visible;"/>
		</clipPath>
		<polyline style="clip-path:url(#SVGID_80_);fill:#CCDD61;stroke:#231F20;stroke-width:0.25;stroke-miterlimit:10;" points="
			30.8,72 54,-6.7 53.8,-6.8 30.5,71.9 		"/>
		<use xlink:href="#SVGID_191_"  style="overflow:visible;fill:none;stroke:#231F20;stroke-width:0.25;stroke-miterlimit:10;"/>
	</g>
	<g>
		<defs>
			<path id="SVGID_193_" d="M57.8,42.4c-3.6-3.1-16.4-8.8-17.9-9.5l0.4-0.9c1.8-5.6,7.3-2.7,7.3-2.7c17.7,4.7,18-18.8,12.3-23.5
				c-5.8-4.7-11.8-1.6-15,2.2c-3.2,3.8-9.6,18.1-9.6,18.1l-0.8,1.1l-1.3,1.4c-4.5-2.1-1.8-7-1.8-7C36.2,3.9,12.6,3.6,7.9,9.3
				s-1.6,11.8,2.2,15s18.1,9.6,18.1,9.6l0.2,0.2c-2.2,3.9-6.8,1.5-6.8,1.5C4,30.9,3.6,54.4,9.4,59.1s11.8,1.6,15-2.2
				s9.6-18.1,9.6-18.1l0.5-0.7c4.7,2,2,7.1,2,7.1c-4.7,17.7,18.8,18,23.5,12.3C64.8,51.7,61.7,45.7,57.8,42.4"/>
		</defs>
		<use xlink:href="#SVGID_193_"  style="overflow:visible;fill:#CCDD61;"/>
		<clipPath id="SVGID_82_">
			<use xlink:href="#SVGID_193_"  style="overflow:visible;"/>
		</clipPath>
		<polyline style="clip-path:url(#SVGID_82_);fill:#CCDD61;stroke:#231F20;stroke-width:0.25;stroke-miterlimit:10;" points="32,72 
			55.2,-6.7 55,-6.8 31.8,71.9 		"/>
		<use xlink:href="#SVGID_193_"  style="overflow:visible;fill:none;stroke:#231F20;stroke-width:0.25;stroke-miterlimit:10;"/>
	</g>
	<g>
		<defs>
			<path id="SVGID_195_" d="M57.8,42.4c-3.6-3.1-16.4-8.8-17.9-9.5l0.4-0.9c1.8-5.6,7.3-2.7,7.3-2.7c17.7,4.7,18-18.8,12.3-23.5
				c-5.8-4.7-11.8-1.6-15,2.2c-3.2,3.8-9.6,18.1-9.6,18.1l-0.8,1.1l-1.3,1.4c-4.5-2.1-1.8-7-1.8-7C36.2,3.9,12.6,3.6,7.9,9.3
				s-1.6,11.8,2.2,15s18.1,9.6,18.1,9.6l0.2,0.2c-2.2,3.9-6.8,1.5-6.8,1.5C4,30.9,3.6,54.4,9.4,59.1s11.8,1.6,15-2.2
				s9.6-18.1,9.6-18.1l0.5-0.7c4.7,2,2,7.1,2,7.1c-4.7,17.7,18.8,18,23.5,12.3C64.8,51.7,61.7,45.7,57.8,42.4"/>
		</defs>
		<use xlink:href="#SVGID_195_"  style="overflow:visible;fill:#CCDD61;"/>
		<clipPath id="SVGID_84_">
			<use xlink:href="#SVGID_195_"  style="overflow:visible;"/>
		</clipPath>
		<polyline style="clip-path:url(#SVGID_84_);fill:#CCDD61;stroke:#231F20;stroke-width:0.25;stroke-miterlimit:10;" points="33,72 
			56.3,-6.7 56.1,-6.8 32.8,71.9 		"/>
		<use xlink:href="#SVGID_195_"  style="overflow:visible;fill:none;stroke:#231F20;stroke-width:0.25;stroke-miterlimit:10;"/>
	</g>
	<g>
		<defs>
			<path id="SVGID_197_" d="M57.8,42.4c-3.6-3.1-16.4-8.8-17.9-9.5l0.4-0.9c1.8-5.6,7.3-2.7,7.3-2.7c17.7,4.7,18-18.8,12.3-23.5
				c-5.8-4.7-11.8-1.6-15,2.2c-3.2,3.8-9.6,18.1-9.6,18.1l-0.8,1.1l-1.3,1.4c-4.5-2.1-1.8-7-1.8-7C36.2,3.9,12.6,3.6,7.9,9.3
				s-1.6,11.8,2.2,15s18.1,9.6,18.1,9.6l0.2,0.2c-2.2,3.9-6.8,1.5-6.8,1.5C4,30.9,3.6,54.4,9.4,59.1s11.8,1.6,15-2.2
				s9.6-18.1,9.6-18.1l0.5-0.7c4.7,2,2,7.1,2,7.1c-4.7,17.7,18.8,18,23.5,12.3C64.8,51.7,61.7,45.7,57.8,42.4"/>
		</defs>
		<use xlink:href="#SVGID_197_"  style="overflow:visible;fill:#CCDD61;"/>
		<clipPath id="SVGID_86_">
			<use xlink:href="#SVGID_197_"  style="overflow:visible;"/>
		</clipPath>
		<polyline style="clip-path:url(#SVGID_86_);fill:#CCDD61;stroke:#231F20;stroke-width:0.25;stroke-miterlimit:10;" points="
			34.2,72 57.4,-6.7 57.2,-6.8 34,71.9 		"/>
		<use xlink:href="#SVGID_197_"  style="overflow:visible;fill:none;stroke:#231F20;stroke-width:0.25;stroke-miterlimit:10;"/>
	</g>
	<g>
		<defs>
			<path id="SVGID_199_" d="M57.8,42.4c-3.6-3.1-16.4-8.8-17.9-9.5l0.4-0.9c1.8-5.6,7.3-2.7,7.3-2.7c17.7,4.7,18-18.8,12.3-23.5
				c-5.8-4.7-11.8-1.6-15,2.2c-3.2,3.8-9.6,18.1-9.6,18.1l-0.8,1.1l-1.3,1.4c-4.5-2.1-1.8-7-1.8-7C36.2,3.9,12.6,3.6,7.9,9.3
				s-1.6,11.8,2.2,15s18.1,9.6,18.1,9.6l0.2,0.2c-2.2,3.9-6.8,1.5-6.8,1.5C4,30.9,3.6,54.4,9.4,59.1s11.8,1.6,15-2.2
				s9.6-18.1,9.6-18.1l0.5-0.7c4.7,2,2,7.1,2,7.1c-4.7,17.7,18.8,18,23.5,12.3C64.8,51.7,61.7,45.7,57.8,42.4"/>
		</defs>
		<use xlink:href="#SVGID_199_"  style="overflow:visible;fill:#CCDD61;"/>
		<clipPath id="SVGID_88_">
			<use xlink:href="#SVGID_199_"  style="overflow:visible;"/>
		</clipPath>
		<polyline style="clip-path:url(#SVGID_88_);fill:#CCDD61;stroke:#231F20;stroke-width:0.25;stroke-miterlimit:10;" points="
			35.3,72 58.5,-6.7 58.3,-6.8 35.1,71.9 		"/>
		<use xlink:href="#SVGID_199_"  style="overflow:visible;fill:none;stroke:#231F20;stroke-width:0.25;stroke-miterlimit:10;"/>
	</g>
	<g>
		<defs>
			<path id="SVGID_201_" d="M57.8,42.4c-3.6-3.1-16.4-8.8-17.9-9.5l0.4-0.9c1.8-5.6,7.3-2.7,7.3-2.7c17.7,4.7,18-18.8,12.3-23.5
				c-5.8-4.7-11.8-1.6-15,2.2c-3.2,3.8-9.6,18.1-9.6,18.1l-0.8,1.1l-1.3,1.4c-4.5-2.1-1.8-7-1.8-7C36.2,3.9,12.6,3.6,7.9,9.3
				s-1.6,11.8,2.2,15s18.1,9.6,18.1,9.6l0.2,0.2c-2.2,3.9-6.8,1.5-6.8,1.5C4,30.9,3.6,54.4,9.4,59.1s11.8,1.6,15-2.2
				s9.6-18.1,9.6-18.1l0.5-0.7c4.7,2,2,7.1,2,7.1c-4.7,17.7,18.8,18,23.5,12.3C64.8,51.7,61.7,45.7,57.8,42.4"/>
		</defs>
		<use xlink:href="#SVGID_201_"  style="overflow:visible;fill:#CCDD61;"/>
		<clipPath id="SVGID_90_">
			<use xlink:href="#SVGID_201_"  style="overflow:visible;"/>
		</clipPath>
		<polyline style="clip-path:url(#SVGID_90_);fill:#CCDD61;stroke:#231F20;stroke-width:0.25;stroke-miterlimit:10;" points="
			36.3,72 59.5,-6.7 59.3,-6.8 36.1,71.9 		"/>
		<use xlink:href="#SVGID_201_"  style="overflow:visible;fill:none;stroke:#231F20;stroke-width:0.25;stroke-miterlimit:10;"/>
	</g>
	<g>
		<defs>
			<path id="SVGID_203_" d="M57.8,42.4c-3.6-3.1-16.4-8.8-17.9-9.5l0.4-0.9c1.8-5.6,7.3-2.7,7.3-2.7c17.7,4.7,18-18.8,12.3-23.5
				c-5.8-4.7-11.8-1.6-15,2.2c-3.2,3.8-9.6,18.1-9.6,18.1l-0.8,1.1l-1.3,1.4c-4.5-2.1-1.8-7-1.8-7C36.2,3.9,12.6,3.6,7.9,9.3
				s-1.6,11.8,2.2,15s18.1,9.6,18.1,9.6l0.2,0.2c-2.2,3.9-6.8,1.5-6.8,1.5C4,30.9,3.6,54.4,9.4,59.1s11.8,1.6,15-2.2
				s9.6-18.1,9.6-18.1l0.5-0.7c4.7,2,2,7.1,2,7.1c-4.7,17.7,18.8,18,23.5,12.3C64.8,51.7,61.7,45.7,57.8,42.4"/>
		</defs>
		<use xlink:href="#SVGID_203_"  style="overflow:visible;fill:#CCDD61;"/>
		<clipPath id="SVGID_92_">
			<use xlink:href="#SVGID_203_"  style="overflow:visible;"/>
		</clipPath>
		<polyline style="clip-path:url(#SVGID_92_);fill:#CCDD61;stroke:#231F20;stroke-width:0.25;stroke-miterlimit:10;" points="
			37.4,72 60.6,-6.7 60.4,-6.8 37.1,71.9 		"/>
		<use xlink:href="#SVGID_203_"  style="overflow:visible;fill:none;stroke:#231F20;stroke-width:0.25;stroke-miterlimit:10;"/>
	</g>
	<g>
		<defs>
			<path id="SVGID_205_" d="M57.8,42.4c-3.6-3.1-16.4-8.8-17.9-9.5l0.4-0.9c1.8-5.6,7.3-2.7,7.3-2.7c17.7,4.7,18-18.8,12.3-23.5
				c-5.8-4.7-11.8-1.6-15,2.2c-3.2,3.8-9.6,18.1-9.6,18.1l-0.8,1.1l-1.3,1.4c-4.5-2.1-1.8-7-1.8-7C36.2,3.9,12.6,3.6,7.9,9.3
				s-1.6,11.8,2.2,15s18.1,9.6,18.1,9.6l0.2,0.2c-2.2,3.9-6.8,1.5-6.8,1.5C4,30.9,3.6,54.4,9.4,59.1s11.8,1.6,15-2.2
				s9.6-18.1,9.6-18.1l0.5-0.7c4.7,2,2,7.1,2,7.1c-4.7,17.7,18.8,18,23.5,12.3C64.8,51.7,61.7,45.7,57.8,42.4"/>
		</defs>
		<use xlink:href="#SVGID_205_"  style="overflow:visible;fill:#CCDD61;"/>
		<clipPath id="SVGID_94_">
			<use xlink:href="#SVGID_205_"  style="overflow:visible;"/>
		</clipPath>
		<polyline style="clip-path:url(#SVGID_94_);fill:#CCDD61;stroke:#231F20;stroke-width:0.25;stroke-miterlimit:10;" points="
			38.5,72 61.8,-6.7 61.5,-6.8 38.3,71.9 		"/>
		<use xlink:href="#SVGID_205_"  style="overflow:visible;fill:none;stroke:#231F20;stroke-width:0.25;stroke-miterlimit:10;"/>
	</g>
	<g>
		<defs>
			<path id="SVGID_207_" d="M57.8,42.4c-3.6-3.1-16.4-8.8-17.9-9.5l0.4-0.9c1.8-5.6,7.3-2.7,7.3-2.7c17.7,4.7,18-18.8,12.3-23.5
				c-5.8-4.7-11.8-1.6-15,2.2c-3.2,3.8-9.6,18.1-9.6,18.1l-0.8,1.1l-1.3,1.4c-4.5-2.1-1.8-7-1.8-7C36.2,3.9,12.6,3.6,7.9,9.3
				s-1.6,11.8,2.2,15s18.1,9.6,18.1,9.6l0.2,0.2c-2.2,3.9-6.8,1.5-6.8,1.5C4,30.9,3.6,54.4,9.4,59.1s11.8,1.6,15-2.2
				s9.6-18.1,9.6-18.1l0.5-0.7c4.7,2,2,7.1,2,7.1c-4.7,17.7,18.8,18,23.5,12.3C64.8,51.7,61.7,45.7,57.8,42.4"/>
		</defs>
		<use xlink:href="#SVGID_207_"  style="overflow:visible;fill:#CCDD61;"/>
		<clipPath id="SVGID_96_">
			<use xlink:href="#SVGID_207_"  style="overflow:visible;"/>
		</clipPath>
		<polyline style="clip-path:url(#SVGID_96_);fill:#CCDD61;stroke:#231F20;stroke-width:0.25;stroke-miterlimit:10;" points="
			39.6,72 62.8,-6.7 62.6,-6.8 39.4,71.9 		"/>
		<use xlink:href="#SVGID_207_"  style="overflow:visible;fill:none;stroke:#231F20;stroke-width:0.25;stroke-miterlimit:10;"/>
	</g>
	<g>
		<defs>
			<path id="SVGID_209_" d="M57.8,42.4c-3.6-3.1-16.4-8.8-17.9-9.5l0.4-0.9c1.8-5.6,7.3-2.7,7.3-2.7c17.7,4.7,18-18.8,12.3-23.5
				c-5.8-4.7-11.8-1.6-15,2.2c-3.2,3.8-9.6,18.1-9.6,18.1l-0.8,1.1l-1.3,1.4c-4.5-2.1-1.8-7-1.8-7C36.2,3.9,12.6,3.6,7.9,9.3
				s-1.6,11.8,2.2,15s18.1,9.6,18.1,9.6l0.2,0.2c-2.2,3.9-6.8,1.5-6.8,1.5C4,30.9,3.6,54.4,9.4,59.1s11.8,1.6,15-2.2
				s9.6-18.1,9.6-18.1l0.5-0.7c4.7,2,2,7.1,2,7.1c-4.7,17.7,18.8,18,23.5,12.3C64.8,51.7,61.7,45.7,57.8,42.4"/>
		</defs>
		<use xlink:href="#SVGID_209_"  style="overflow:visible;fill:#CCDD61;"/>
		<clipPath id="SVGID_98_">
			<use xlink:href="#SVGID_209_"  style="overflow:visible;"/>
		</clipPath>
		<polyline style="clip-path:url(#SVGID_98_);fill:#CCDD61;stroke:#231F20;stroke-width:0.25;stroke-miterlimit:10;" points="
			40.8,72 64,-6.7 63.8,-6.8 40.6,71.9 		"/>
		<use xlink:href="#SVGID_209_"  style="overflow:visible;fill:none;stroke:#231F20;stroke-width:0.25;stroke-miterlimit:10;"/>
	</g>
	<g>
		<defs>
			<path id="SVGID_211_" d="M57.8,42.4c-3.6-3.1-16.4-8.8-17.9-9.5l0.4-0.9c1.8-5.6,7.3-2.7,7.3-2.7c17.7,4.7,18-18.8,12.3-23.5
				c-5.8-4.7-11.8-1.6-15,2.2c-3.2,3.8-9.6,18.1-9.6,18.1l-0.8,1.1l-1.3,1.4c-4.5-2.1-1.8-7-1.8-7C36.2,3.9,12.6,3.6,7.9,9.3
				s-1.6,11.8,2.2,15s18.1,9.6,18.1,9.6l0.2,0.2c-2.2,3.9-6.8,1.5-6.8,1.5C4,30.9,3.6,54.4,9.4,59.1s11.8,1.6,15-2.2
				s9.6-18.1,9.6-18.1l0.5-0.7c4.7,2,2,7.1,2,7.1c-4.7,17.7,18.8,18,23.5,12.3C64.8,51.7,61.7,45.7,57.8,42.4"/>
		</defs>
		<use xlink:href="#SVGID_211_"  style="overflow:visible;fill:#CCDD61;"/>
		<clipPath id="SVGID_100_">
			<use xlink:href="#SVGID_211_"  style="overflow:visible;"/>
		</clipPath>
		<polyline style="clip-path:url(#SVGID_100_);fill:#CCDD61;stroke:#231F20;stroke-width:0.25;stroke-miterlimit:10;" points="
			41.9,72 65.1,-6.7 64.9,-6.8 41.7,71.9 		"/>
		<use xlink:href="#SVGID_211_"  style="overflow:visible;fill:none;stroke:#231F20;stroke-width:0.25;stroke-miterlimit:10;"/>
	</g>
	<g>
		<defs>
			<path id="SVGID_213_" d="M57.8,42.4c-3.6-3.1-16.4-8.8-17.9-9.5l0.4-0.9c1.8-5.6,7.3-2.7,7.3-2.7c17.7,4.7,18-18.8,12.3-23.5
				c-5.8-4.7-11.8-1.6-15,2.2c-3.2,3.8-9.6,18.1-9.6,18.1l-0.8,1.1l-1.3,1.4c-4.5-2.1-1.8-7-1.8-7C36.2,3.9,12.6,3.6,7.9,9.3
				s-1.6,11.8,2.2,15s18.1,9.6,18.1,9.6l0.2,0.2c-2.2,3.9-6.8,1.5-6.8,1.5C4,30.9,3.6,54.4,9.4,59.1s11.8,1.6,15-2.2
				s9.6-18.1,9.6-18.1l0.5-0.7c4.7,2,2,7.1,2,7.1c-4.7,17.7,18.8,18,23.5,12.3C64.8,51.7,61.7,45.7,57.8,42.4"/>
		</defs>
		<use xlink:href="#SVGID_213_"  style="overflow:visible;fill:#CCDD61;"/>
		<clipPath id="SVGID_102_">
			<use xlink:href="#SVGID_213_"  style="overflow:visible;"/>
		</clipPath>
		<polyline style="clip-path:url(#SVGID_102_);fill:#CCDD61;stroke:#231F20;stroke-width:0.25;stroke-miterlimit:10;" points="
			43,72 66.3,-6.7 66.1,-6.8 42.8,71.9 		"/>
		<use xlink:href="#SVGID_213_"  style="overflow:visible;fill:none;stroke:#231F20;stroke-width:0.25;stroke-miterlimit:10;"/>
	</g>
	<g>
		<defs>
			<path id="SVGID_215_" d="M57.8,42.4c-3.6-3.1-16.4-8.8-17.9-9.5l0.4-0.9c1.8-5.6,7.3-2.7,7.3-2.7c17.7,4.7,18-18.8,12.3-23.5
				c-5.8-4.7-11.8-1.6-15,2.2c-3.2,3.8-9.6,18.1-9.6,18.1l-0.8,1.1l-1.3,1.4c-4.5-2.1-1.8-7-1.8-7C36.2,3.9,12.6,3.6,7.9,9.3
				s-1.6,11.8,2.2,15s18.1,9.6,18.1,9.6l0.2,0.2c-2.2,3.9-6.8,1.5-6.8,1.5C4,30.9,3.6,54.4,9.4,59.1s11.8,1.6,15-2.2
				s9.6-18.1,9.6-18.1l0.5-0.7c4.7,2,2,7.1,2,7.1c-4.7,17.7,18.8,18,23.5,12.3C64.8,51.7,61.7,45.7,57.8,42.4"/>
		</defs>
		<use xlink:href="#SVGID_215_"  style="overflow:visible;fill:#CCDD61;"/>
		<clipPath id="SVGID_104_">
			<use xlink:href="#SVGID_215_"  style="overflow:visible;"/>
		</clipPath>
		<polyline style="clip-path:url(#SVGID_104_);fill:#CCDD61;stroke:#231F20;stroke-width:0.25;stroke-miterlimit:10;" points="
			44.1,72 67.3,-6.7 67.1,-6.8 43.9,71.9 		"/>
		<use xlink:href="#SVGID_215_"  style="overflow:visible;fill:none;stroke:#231F20;stroke-width:0.25;stroke-miterlimit:10;"/>
	</g>
	<g>
		<defs>
			<path id="SVGID_217_" d="M57.8,42.4c-3.6-3.1-16.4-8.8-17.9-9.5l0.4-0.9c1.8-5.6,7.3-2.7,7.3-2.7c17.7,4.7,18-18.8,12.3-23.5
				c-5.8-4.7-11.8-1.6-15,2.2c-3.2,3.8-9.6,18.1-9.6,18.1l-0.8,1.1l-1.3,1.4c-4.5-2.1-1.8-7-1.8-7C36.2,3.9,12.6,3.6,7.9,9.3
				s-1.6,11.8,2.2,15s18.1,9.6,18.1,9.6l0.2,0.2c-2.2,3.9-6.8,1.5-6.8,1.5C4,30.9,3.6,54.4,9.4,59.1s11.8,1.6,15-2.2
				s9.6-18.1,9.6-18.1l0.5-0.7c4.7,2,2,7.1,2,7.1c-4.7,17.7,18.8,18,23.5,12.3C64.8,51.7,61.7,45.7,57.8,42.4"/>
		</defs>
		<use xlink:href="#SVGID_217_"  style="overflow:visible;fill:#CCDD61;"/>
		<clipPath id="SVGID_106_">
			<use xlink:href="#SVGID_217_"  style="overflow:visible;"/>
		</clipPath>
		<polyline style="clip-path:url(#SVGID_106_);fill:#CCDD61;stroke:#231F20;stroke-width:0.25;stroke-miterlimit:10;" points="
			45.1,72 68.4,-6.7 68.1,-6.8 44.9,71.9 		"/>
		<use xlink:href="#SVGID_217_"  style="overflow:visible;fill:none;stroke:#231F20;stroke-width:0.25;stroke-miterlimit:10;"/>
	</g>
	<g>
		<defs>
			<path id="SVGID_219_" d="M57.8,42.4c-3.6-3.1-16.4-8.8-17.9-9.5l0.4-0.9c1.8-5.6,7.3-2.7,7.3-2.7c17.7,4.7,18-18.8,12.3-23.5
				c-5.8-4.7-11.8-1.6-15,2.2c-3.2,3.8-9.6,18.1-9.6,18.1l-0.8,1.1l-1.3,1.4c-4.5-2.1-1.8-7-1.8-7C36.2,3.9,12.6,3.6,7.9,9.3
				s-1.6,11.8,2.2,15s18.1,9.6,18.1,9.6l0.2,0.2c-2.2,3.9-6.8,1.5-6.8,1.5C4,30.9,3.6,54.4,9.4,59.1s11.8,1.6,15-2.2
				s9.6-18.1,9.6-18.1l0.5-0.7c4.7,2,2,7.1,2,7.1c-4.7,17.7,18.8,18,23.5,12.3C64.8,51.7,61.7,45.7,57.8,42.4"/>
		</defs>
		<use xlink:href="#SVGID_219_"  style="overflow:visible;fill:#CCDD61;"/>
		<clipPath id="SVGID_108_">
			<use xlink:href="#SVGID_219_"  style="overflow:visible;"/>
		</clipPath>
		<polyline style="clip-path:url(#SVGID_108_);fill:#CCDD61;stroke:#231F20;stroke-width:0.25;stroke-miterlimit:10;" points="
			46.2,72 69.4,-6.7 69.2,-6.8 46,71.9 		"/>
		<use xlink:href="#SVGID_219_"  style="overflow:visible;fill:none;stroke:#231F20;stroke-width:0.25;stroke-miterlimit:10;"/>
	</g>
	<g>
		<defs>
			<path id="SVGID_221_" d="M57.8,42.4c-3.6-3.1-16.4-8.8-17.9-9.5l0.4-0.9c1.8-5.6,7.3-2.7,7.3-2.7c17.7,4.7,18-18.8,12.3-23.5
				c-5.8-4.7-11.8-1.6-15,2.2c-3.2,3.8-9.6,18.1-9.6,18.1l-0.8,1.1l-1.3,1.4c-4.5-2.1-1.8-7-1.8-7C36.2,3.9,12.6,3.6,7.9,9.3
				s-1.6,11.8,2.2,15s18.1,9.6,18.1,9.6l0.2,0.2c-2.2,3.9-6.8,1.5-6.8,1.5C4,30.9,3.6,54.4,9.4,59.1s11.8,1.6,15-2.2
				s9.6-18.1,9.6-18.1l0.5-0.7c4.7,2,2,7.1,2,7.1c-4.7,17.7,18.8,18,23.5,12.3C64.8,51.7,61.7,45.7,57.8,42.4"/>
		</defs>
		<use xlink:href="#SVGID_221_"  style="overflow:visible;fill:#CCDD61;"/>
		<clipPath id="SVGID_110_">
			<use xlink:href="#SVGID_221_"  style="overflow:visible;"/>
		</clipPath>
		<polyline style="clip-path:url(#SVGID_110_);fill:#CCDD61;stroke:#231F20;stroke-width:0.25;stroke-miterlimit:10;" points="
			47.3,72 70.6,-6.7 70.4,-6.8 47.1,71.9 		"/>
		<use xlink:href="#SVGID_221_"  style="overflow:visible;fill:none;stroke:#231F20;stroke-width:0.25;stroke-miterlimit:10;"/>
	</g>
	<g>
		<defs>
			<path id="SVGID_223_" d="M57.8,42.4c-3.6-3.1-16.4-8.8-17.9-9.5l0.4-0.9c1.8-5.6,7.3-2.7,7.3-2.7c17.7,4.7,18-18.8,12.3-23.5
				c-5.8-4.7-11.8-1.6-15,2.2c-3.2,3.8-9.6,18.1-9.6,18.1l-0.8,1.1l-1.3,1.4c-4.5-2.1-1.8-7-1.8-7C36.2,3.9,12.6,3.6,7.9,9.3
				s-1.6,11.8,2.2,15s18.1,9.6,18.1,9.6l0.2,0.2c-2.2,3.9-6.8,1.5-6.8,1.5C4,30.9,3.6,54.4,9.4,59.1s11.8,1.6,15-2.2
				s9.6-18.1,9.6-18.1l0.5-0.7c4.7,2,2,7.1,2,7.1c-4.7,17.7,18.8,18,23.5,12.3C64.8,51.7,61.7,45.7,57.8,42.4"/>
		</defs>
		<use xlink:href="#SVGID_223_"  style="overflow:visible;fill:#CCDD61;"/>
		<clipPath id="SVGID_112_">
			<use xlink:href="#SVGID_223_"  style="overflow:visible;"/>
		</clipPath>
		<polyline style="clip-path:url(#SVGID_112_);fill:#CCDD61;stroke:#231F20;stroke-width:0.25;stroke-miterlimit:10;" points="
			48.4,72 71.7,-6.7 71.4,-6.8 48.2,71.9 		"/>
		<use xlink:href="#SVGID_223_"  style="overflow:visible;fill:none;stroke:#231F20;stroke-width:0.25;stroke-miterlimit:10;"/>
	</g>
	<g>
		<defs>
			<path id="SVGID_225_" d="M57.8,42.4c-3.6-3.1-16.4-8.8-17.9-9.5l0.4-0.9c1.8-5.6,7.3-2.7,7.3-2.7c17.7,4.7,18-18.8,12.3-23.5
				c-5.8-4.7-11.8-1.6-15,2.2c-3.2,3.8-9.6,18.1-9.6,18.1l-0.8,1.1l-1.3,1.4c-4.5-2.1-1.8-7-1.8-7C36.2,3.9,12.6,3.6,7.9,9.3
				s-1.6,11.8,2.2,15s18.1,9.6,18.1,9.6l0.2,0.2c-2.2,3.9-6.8,1.5-6.8,1.5C4,30.9,3.6,54.4,9.4,59.1s11.8,1.6,15-2.2
				s9.6-18.1,9.6-18.1l0.5-0.7c4.7,2,2,7.1,2,7.1c-4.7,17.7,18.8,18,23.5,12.3C64.8,51.7,61.7,45.7,57.8,42.4"/>
		</defs>
		<use xlink:href="#SVGID_225_"  style="overflow:visible;fill:#CCDD61;"/>
		<clipPath id="SVGID_114_">
			<use xlink:href="#SVGID_225_"  style="overflow:visible;"/>
		</clipPath>
		<polyline class="st80" points="49.6,72 72.9,-6.7 72.6,-6.8 49.4,71.9 		"/>
		<use xlink:href="#SVGID_225_"  style="overflow:visible;fill:none;stroke:#231F20;stroke-width:0.25;stroke-miterlimit:10;"/>
	</g>
	<g>
		<defs>
			<path id="SVGID_227_" d="M57.8,42.4c-3.6-3.1-16.4-8.8-17.9-9.5l0.4-0.9c1.8-5.6,7.3-2.7,7.3-2.7c17.7,4.7,18-18.8,12.3-23.5
				c-5.8-4.7-11.8-1.6-15,2.2c-3.2,3.8-9.6,18.1-9.6,18.1l-0.8,1.1l-1.3,1.4c-4.5-2.1-1.8-7-1.8-7C36.2,3.9,12.6,3.6,7.9,9.3
				s-1.6,11.8,2.2,15s18.1,9.6,18.1,9.6l0.2,0.2c-2.2,3.9-6.8,1.5-6.8,1.5C4,30.9,3.6,54.4,9.4,59.1s11.8,1.6,15-2.2
				s9.6-18.1,9.6-18.1l0.5-0.7c4.7,2,2,7.1,2,7.1c-4.7,17.7,18.8,18,23.5,12.3C64.8,51.7,61.7,45.7,57.8,42.4"/>
		</defs>
		<use xlink:href="#SVGID_227_"  style="overflow:visible;fill:#CCDD61;"/>
		<clipPath id="SVGID_116_">
			<use xlink:href="#SVGID_227_"  style="overflow:visible;"/>
		</clipPath>
		<polyline class="st81" points="50.7,72 73.9,-6.7 73.7,-6.8 50.5,71.9 		"/>
		<use xlink:href="#SVGID_227_"  style="overflow:visible;fill:none;stroke:#231F20;stroke-width:0.25;stroke-miterlimit:10;"/>
	</g>
	<g>
		<defs>
			<path id="SVGID_229_" d="M57.8,42.4c-3.6-3.1-16.4-8.8-17.9-9.5l0.4-0.9c1.8-5.6,7.3-2.7,7.3-2.7c17.7,4.7,18-18.8,12.3-23.5
				c-5.8-4.7-11.8-1.6-15,2.2c-3.2,3.8-9.6,18.1-9.6,18.1l-0.8,1.1l-1.3,1.4c-4.5-2.1-1.8-7-1.8-7C36.2,3.9,12.6,3.6,7.9,9.3
				s-1.6,11.8,2.2,15s18.1,9.6,18.1,9.6l0.2,0.2c-2.2,3.9-6.8,1.5-6.8,1.5C4,30.9,3.6,54.4,9.4,59.1s11.8,1.6,15-2.2
				s9.6-18.1,9.6-18.1l0.5-0.7c4.7,2,2,7.1,2,7.1c-4.7,17.7,18.8,18,23.5,12.3C64.8,51.7,61.7,45.7,57.8,42.4"/>
		</defs>
		<use xlink:href="#SVGID_229_"  style="overflow:visible;fill:#CCDD61;"/>
		<clipPath id="SVGID_118_">
			<use xlink:href="#SVGID_229_"  style="overflow:visible;"/>
		</clipPath>
		<polyline class="st82" points="51.9,72 75.1,-6.7 74.9,-6.8 51.7,71.9 		"/>
		<use xlink:href="#SVGID_229_"  style="overflow:visible;fill:none;stroke:#231F20;stroke-width:0.25;stroke-miterlimit:10;"/>
	</g>
	<g>
		<defs>
			<path id="SVGID_231_" d="M57.8,42.4c-3.6-3.1-16.4-8.8-17.9-9.5l0.4-0.9c1.8-5.6,7.3-2.7,7.3-2.7c17.7,4.7,18-18.8,12.3-23.5
				c-5.8-4.7-11.8-1.6-15,2.2c-3.2,3.8-9.6,18.1-9.6,18.1l-0.8,1.1l-1.3,1.4c-4.5-2.1-1.8-7-1.8-7C36.2,3.9,12.6,3.6,7.9,9.3
				s-1.6,11.8,2.2,15s18.1,9.6,18.1,9.6l0.2,0.2c-2.2,3.9-6.8,1.5-6.8,1.5C4,30.9,3.6,54.4,9.4,59.1s11.8,1.6,15-2.2
				s9.6-18.1,9.6-18.1l0.5-0.7c4.7,2,2,7.1,2,7.1c-4.7,17.7,18.8,18,23.5,12.3C64.8,51.7,61.7,45.7,57.8,42.4"/>
		</defs>
		<use xlink:href="#SVGID_231_"  style="overflow:visible;fill:#CCDD61;"/>
		<clipPath id="SVGID_120_">
			<use xlink:href="#SVGID_231_"  style="overflow:visible;"/>
		</clipPath>
		<polyline class="st83" points="52.9,72 76.2,-6.7 76,-6.8 52.7,71.9 		"/>
		<use xlink:href="#SVGID_231_"  style="overflow:visible;fill:none;stroke:#231F20;stroke-width:0.25;stroke-miterlimit:10;"/>
	</g>
	<g>
		<defs>
			<path id="SVGID_233_" d="M57.8,42.4c-3.6-3.1-16.4-8.8-17.9-9.5l0.4-0.9c1.8-5.6,7.3-2.7,7.3-2.7c17.7,4.7,18-18.8,12.3-23.5
				c-5.8-4.7-11.8-1.6-15,2.2c-3.2,3.8-9.6,18.1-9.6,18.1l-0.8,1.1l-1.3,1.4c-4.5-2.1-1.8-7-1.8-7C36.2,3.9,12.6,3.6,7.9,9.3
				s-1.6,11.8,2.2,15s18.1,9.6,18.1,9.6l0.2,0.2c-2.2,3.9-6.8,1.5-6.8,1.5C4,30.9,3.6,54.4,9.4,59.1s11.8,1.6,15-2.2
				s9.6-18.1,9.6-18.1l0.5-0.7c4.7,2,2,7.1,2,7.1c-4.7,17.7,18.8,18,23.5,12.3C64.8,51.7,61.7,45.7,57.8,42.4"/>
		</defs>
		<use xlink:href="#SVGID_233_"  style="overflow:visible;fill:#CCDD61;"/>
		<clipPath id="SVGID_122_">
			<use xlink:href="#SVGID_233_"  style="overflow:visible;"/>
		</clipPath>
		<polyline class="st84" points="54,72 77.2,-6.7 77,-6.8 53.7,71.9 		"/>
		<use xlink:href="#SVGID_233_"  style="overflow:visible;fill:none;stroke:#231F20;stroke-width:0.25;stroke-miterlimit:10;"/>
	</g>
	<g>
		<defs>
			<path id="SVGID_235_" d="M57.8,42.4c-3.6-3.1-16.4-8.8-17.9-9.5l0.4-0.9c1.8-5.6,7.3-2.7,7.3-2.7c17.7,4.7,18-18.8,12.3-23.5
				c-5.8-4.7-11.8-1.6-15,2.2c-3.2,3.8-9.6,18.1-9.6,18.1l-0.8,1.1l-1.3,1.4c-4.5-2.1-1.8-7-1.8-7C36.2,3.9,12.6,3.6,7.9,9.3
				s-1.6,11.8,2.2,15s18.1,9.6,18.1,9.6l0.2,0.2c-2.2,3.9-6.8,1.5-6.8,1.5C4,30.9,3.6,54.4,9.4,59.1s11.8,1.6,15-2.2
				s9.6-18.1,9.6-18.1l0.5-0.7c4.7,2,2,7.1,2,7.1c-4.7,17.7,18.8,18,23.5,12.3C64.8,51.7,61.7,45.7,57.8,42.4"/>
		</defs>
		<use xlink:href="#SVGID_235_"  style="overflow:visible;fill:#CCDD61;"/>
		<clipPath id="SVGID_124_">
			<use xlink:href="#SVGID_235_"  style="overflow:visible;"/>
		</clipPath>
		<polyline class="st85" points="55,72 78.2,-6.7 78,-6.8 54.8,71.9 		"/>
		<use xlink:href="#SVGID_235_"  style="overflow:visible;fill:none;stroke:#231F20;stroke-width:0.25;stroke-miterlimit:10;"/>
	</g>
	<g>
		<defs>
			<path id="SVGID_237_" d="M57.8,42.4c-3.6-3.1-16.4-8.8-17.9-9.5l0.4-0.9c1.8-5.6,7.3-2.7,7.3-2.7c17.7,4.7,18-18.8,12.3-23.5
				c-5.8-4.7-11.8-1.6-15,2.2c-3.2,3.8-9.6,18.1-9.6,18.1l-0.8,1.1l-1.3,1.4c-4.5-2.1-1.8-7-1.8-7C36.2,3.9,12.6,3.6,7.9,9.3
				s-1.6,11.8,2.2,15s18.1,9.6,18.1,9.6l0.2,0.2c-2.2,3.9-6.8,1.5-6.8,1.5C4,30.9,3.6,54.4,9.4,59.1s11.8,1.6,15-2.2
				s9.6-18.1,9.6-18.1l0.5-0.7c4.7,2,2,7.1,2,7.1c-4.7,17.7,18.8,18,23.5,12.3C64.8,51.7,61.7,45.7,57.8,42.4"/>
		</defs>
		<use xlink:href="#SVGID_237_"  style="overflow:visible;fill:#CCDD61;"/>
		<clipPath id="SVGID_126_">
			<use xlink:href="#SVGID_237_"  style="overflow:visible;"/>
		</clipPath>
		<polyline class="st86" points="56.2,72 79.4,-6.7 79.2,-6.8 56,71.9 		"/>
		<use xlink:href="#SVGID_237_"  style="overflow:visible;fill:none;stroke:#231F20;stroke-width:0.25;stroke-miterlimit:10;"/>
	</g>
	<g>
		<defs>
			<path id="SVGID_239_" d="M57.8,42.4c-3.6-3.1-16.4-8.8-17.9-9.5l0.4-0.9c1.8-5.6,7.3-2.7,7.3-2.7c17.7,4.7,18-18.8,12.3-23.5
				c-5.8-4.7-11.8-1.6-15,2.2c-3.2,3.8-9.6,18.1-9.6,18.1l-0.8,1.1l-1.3,1.4c-4.5-2.1-1.8-7-1.8-7C36.2,3.9,12.6,3.6,7.9,9.3
				s-1.6,11.8,2.2,15s18.1,9.6,18.1,9.6l0.2,0.2c-2.2,3.9-6.8,1.5-6.8,1.5C4,30.9,3.6,54.4,9.4,59.1s11.8,1.6,15-2.2
				s9.6-18.1,9.6-18.1l0.5-0.7c4.7,2,2,7.1,2,7.1c-4.7,17.7,18.8,18,23.5,12.3C64.8,51.7,61.7,45.7,57.8,42.4"/>
		</defs>
		<use xlink:href="#SVGID_239_"  style="overflow:visible;fill:#CCDD61;"/>
		<clipPath id="SVGID_128_">
			<use xlink:href="#SVGID_239_"  style="overflow:visible;"/>
		</clipPath>
		<polyline class="st87" points="57.3,72 80.5,-6.7 80.3,-6.8 57,71.9 		"/>
		<use xlink:href="#SVGID_239_"  style="overflow:visible;fill:none;stroke:#231F20;stroke-width:0.25;stroke-miterlimit:10;"/>
	</g>
</g>
</svg>
