<?xml version="1.0" encoding="UTF-8"?>
<svg width="302px" height="169px" viewBox="0 0 302 169" version="1.1" xmlns="http://www.w3.org/2000/svg" xmlns:xlink="http://www.w3.org/1999/xlink">
    <!-- Generator: Sketch 47 (45396) - http://www.bohemiancoding.com/sketch -->
    <title>Groupshape_round_yellow</title>
    <desc>Created with Sketch.</desc>
    <defs></defs>
    <g id="Page-1" stroke="none" stroke-width="1" fill="none" fill-rule="evenodd">
        <g id="Group">
            <rect id="Rectangle" fill="#FADF5A" x="0" y="0" width="302" height="169"></rect>
            <g id="shape_round" transform="translate(8.000000, 0.000000)" stroke="#000000" stroke-width="6">
                <path d="M0,79.2 L0.1,116.6" id="Shape"></path>
                <path d="M19.7,50.4 L17.9,146.2" id="Shape"></path>
                <path d="M39.5,33 L36.9,161.1" id="Shape"></path>
                <path d="M57.9,19.9 L55.6,168.4" id="Shape"></path>
                <path d="M77.6,12.4 L74.7,167.7" id="Shape"></path>
                <path d="M95.4,5.6 L93.1,168.4" id="Shape"></path>
                <path d="M114.5,1.1 L112.2,167.5" id="Shape"></path>
                <path d="M133,0.7 L130.7,167" id="Shape"></path>
                <path d="M151.3,0.6 L149.3,164.9" id="Shape"></path>
                <path d="M169.1,4 L167.7,163.1" id="Shape"></path>
                <path d="M188.5,8.5 L187.4,159.6" id="Shape"></path>
                <path d="M207,14.3 L205.6,154.1" id="Shape"></path>
                <path d="M226.3,20 L225.2,150.4" id="Shape"></path>
                <path d="M245,27.5 L244.2,145.3" id="Shape"></path>
                <path d="M263.9,42.8 L263.4,131.8" id="Shape"></path>
                <path d="M282.1,65.1 L281.8,112.6" id="Shape"></path>
            </g>
        </g>
    </g>
</svg>