<?xml version="1.0" encoding="utf-8"?>
<!-- Generator: Adobe Illustrator 20.1.0, SVG Export Plug-In . SVG Version: 6.00 Build 0)  -->
<svg version="1.1" id="Layer_1" xmlns="http://www.w3.org/2000/svg" xmlns:xlink="http://www.w3.org/1999/xlink" x="0px" y="0px"
	 viewBox="0 0 196 200" style="enable-background:new 0 0 196 200;" xml:space="preserve">
<style type="text/css">
	.st0{fill:#FBF6EC;stroke:#503433;stroke-width:1.0076;stroke-linecap:round;stroke-linejoin:round;stroke-miterlimit:10;}
	.st1{fill:#B8B9BA;stroke:#503433;stroke-width:0.75;stroke-linecap:round;stroke-linejoin:round;stroke-miterlimit:10;}
	.st2{fill:#FBF6EC;stroke:#503433;stroke-width:0.75;stroke-linecap:round;stroke-linejoin:round;stroke-miterlimit:10;}
	.st3{fill:#D6922A;stroke:#503433;stroke-width:0.75;stroke-linecap:round;stroke-linejoin:round;stroke-miterlimit:10;}
</style>
<g>
	<g>
		<ellipse class="st0" cx="99.1" cy="89.9" rx="78.4" ry="40.9"/>
		<path class="st1" d="M42.9,68.1c0,0,10.4,49.4,10.4,52s9.9,50.7,9.9,50.7s35.5,21.9,71,3.1l14-65.3l7.1-40.5L95.6,82.7L42.9,68.1z
			"/>
		<path class="st1" d="M23.8,113.7c0,0,0.8,35.1,6,43C35,164.5,47,184.5,96.1,189s64.8-27.7,66.3-35.5c1.6-7.8,3.4-34.3,3.4-34.3
			L91.9,134L23.8,113.7z"/>
		<path class="st1" d="M165.9,55.3c-2.3,3.7-5,7-8.2,9.9c10.2,6.7,16.2,15.2,16.2,24.4c0,21.8-33.9,39.4-75.7,39.4
			s-75.7-17.7-75.7-39.4c0-9.6,6.6-18.3,17.5-25.2c-2.8-2.8-5.4-5.9-7.5-9.3C17.3,63.5,7.9,74.8,7.9,87.2c0,26,40.8,47,91.1,47
			s91.1-21,91.1-47C190.2,74.9,180.9,63.6,165.9,55.3z"/>
		<ellipse class="st2" cx="99.1" cy="44.4" rx="59.7" ry="29.8"/>
		<path class="st3" d="M47,46.9c2.3-8.1,15.4-4.7,20.7-8.4c8-5.5,4.4-9.6,16.9-11.5c7.7-1.2,13.6,3.3,20.8,4.1
			c9,1.1,20.5-4.1,26.9,5.3c0.2-0.9,0.6-1.8,0.8-2.5c9.4,2.2,28.6,6.9,22.3,20.4c-3.3,6.9-20.5,13.9-26.8,15.9
			c-21.3,6.5-45.8,4.5-67.4-2.8c-5.1-1.7-25.9-12.7-16-18.6L47,46.9z"/>
		<path class="st1" d="M99.1,9.1c-38.8,0-70.2,16.5-70.2,36.8s31.4,36.8,70.2,36.8s70.2-16.5,70.2-36.8S137.8,9.1,99.1,9.1z
			 M99.1,74.1c-33,0-59.7-13.3-59.7-29.8c0-16.4,26.7-29.8,59.7-29.8s59.7,13.3,59.7,29.8S132,74.1,99.1,74.1z"/>
	</g>
</g>
</svg>
