<?xml version="1.0" encoding="utf-8"?>
<!-- Generator: Adobe Illustrator 20.1.0, SVG Export Plug-In . SVG Version: 6.00 Build 0)  -->
<svg version="1.1" id="Layer_1" xmlns="http://www.w3.org/2000/svg" xmlns:xlink="http://www.w3.org/1999/xlink" x="0px" y="0px"
	 viewBox="0 0 230.9 52.4" style="enable-background:new 0 0 230.9 52.4;" xml:space="preserve">
<style type="text/css">
	.st0{fill:none;}
	.st1{fill:none;stroke:#211E1F;stroke-width:3.6;}
	.st2{fill:none;stroke:#A91E22;stroke-width:4;stroke-miterlimit:10;}
	.st3{fill:#8DB2DE;stroke:#8DB2DE;}
	.st4{fill:#231F20;}
	.st5{fill:#513534;stroke:#513534;stroke-width:1.5777;stroke-linecap:round;stroke-linejoin:round;stroke-miterlimit:10;}
	.st6{fill:#513534;stroke:#513534;stroke-width:1.6313;stroke-linecap:round;stroke-linejoin:round;stroke-miterlimit:10;}
	.st7{fill:#513534;stroke:#513534;}
	.st8{fill:#FFFFFF;stroke:#231F20;stroke-linecap:round;stroke-linejoin:round;stroke-miterlimit:10;}
	.st9{fill:#AFF9AF;stroke:#231F20;stroke-miterlimit:10;}
	.st10{fill:#FFFFFF;stroke:#231F20;stroke-width:2;stroke-linecap:round;stroke-linejoin:round;stroke-miterlimit:10;}
	.st11{clip-path:url(#SVGID_2_);}
	.st12{clip-path:url(#SVGID_4_);}
	.st13{fill:none;stroke:#231F20;stroke-width:0.7161;}
	.st14{clip-path:url(#SVGID_6_);}
	.st15{clip-path:url(#SVGID_8_);}
	.st16{clip-path:url(#SVGID_10_);}
	.st17{clip-path:url(#SVGID_12_);}
	.st18{clip-path:url(#SVGID_14_);}
	.st19{clip-path:url(#SVGID_16_);}
	.st20{clip-path:url(#SVGID_18_);}
	.st21{clip-path:url(#SVGID_20_);}
	.st22{clip-path:url(#SVGID_22_);}
	.st23{clip-path:url(#SVGID_24_);}
	.st24{clip-path:url(#SVGID_26_);}
	.st25{clip-path:url(#SVGID_28_);}
	.st26{clip-path:url(#SVGID_30_);}
	.st27{clip-path:url(#SVGID_32_);}
	.st28{clip-path:url(#SVGID_34_);}
	.st29{clip-path:url(#SVGID_36_);}
	.st30{fill:none;stroke:#231F20;stroke-width:0.5091;}
	.st31{clip-path:url(#SVGID_38_);}
	.st32{clip-path:url(#SVGID_40_);}
	.st33{clip-path:url(#SVGID_42_);}
	.st34{clip-path:url(#SVGID_44_);}
	.st35{clip-path:url(#SVGID_46_);}
	.st36{clip-path:url(#SVGID_48_);}
	.st37{clip-path:url(#SVGID_50_);}
	.st38{clip-path:url(#SVGID_52_);}
	.st39{clip-path:url(#SVGID_54_);}
	.st40{clip-path:url(#SVGID_56_);}
	.st41{clip-path:url(#SVGID_58_);}
	.st42{clip-path:url(#SVGID_60_);}
	.st43{clip-path:url(#SVGID_62_);}
	.st44{clip-path:url(#SVGID_64_);}
	.st45{clip-path:url(#SVGID_66_);}
	.st46{clip-path:url(#SVGID_68_);}
	.st47{clip-path:url(#SVGID_70_);}
	.st48{clip-path:url(#SVGID_72_);}
	.st49{clip-path:url(#SVGID_74_);}
	.st50{clip-path:url(#SVGID_76_);}
	.st51{clip-path:url(#SVGID_78_);}
	.st52{clip-path:url(#SVGID_80_);}
	.st53{clip-path:url(#SVGID_82_);}
	.st54{clip-path:url(#SVGID_84_);}
	.st55{clip-path:url(#SVGID_86_);}
	.st56{clip-path:url(#SVGID_88_);}
	.st57{fill:#D7932A;stroke:#503433;stroke-width:1.6313;stroke-linecap:round;stroke-linejoin:round;stroke-miterlimit:10;}
	.st58{fill:#B9BABB;stroke:#503433;stroke-width:1.6313;stroke-linecap:round;stroke-linejoin:round;stroke-miterlimit:10;}
	.st59{opacity:0.6;}
	.st60{clip-path:url(#SVGID_90_);}
	.st61{clip-path:url(#SVGID_92_);}
	.st62{fill:none;stroke:#231F20;stroke-width:1.588;}
	.st63{clip-path:url(#SVGID_94_);}
	.st64{clip-path:url(#SVGID_96_);}
	.st65{clip-path:url(#SVGID_98_);}
	.st66{clip-path:url(#SVGID_100_);}
	.st67{clip-path:url(#SVGID_102_);}
	.st68{opacity:0.4;}
	.st69{clip-path:url(#SVGID_104_);}
	.st70{clip-path:url(#SVGID_106_);}
	.st71{clip-path:url(#SVGID_108_);}
	.st72{clip-path:url(#SVGID_110_);}
	.st73{clip-path:url(#SVGID_112_);}
	.st74{fill:#B8B9BA;stroke:#503433;stroke-width:1.3;stroke-linecap:round;stroke-linejoin:round;stroke-miterlimit:10;}
	.st75{fill:#8BB0DD;stroke:#503433;stroke-width:1.3;stroke-linecap:round;stroke-linejoin:round;stroke-miterlimit:10;}
	.st76{fill:#B8B9BA;stroke:#503433;stroke-linecap:round;stroke-linejoin:round;stroke-miterlimit:10;}
	.st77{fill:#FFFFFF;stroke:#503433;stroke-width:1.3;stroke-miterlimit:10;}
	.st78{fill:#FBF6EC;stroke:#503433;stroke-width:1.3;stroke-linecap:round;stroke-linejoin:round;stroke-miterlimit:10;}
	.st79{fill:#503433;stroke:#503433;stroke-width:1.3;stroke-miterlimit:10;}
	.st80{fill:#D6922A;stroke:#503433;stroke-width:0.75;stroke-linecap:round;stroke-linejoin:round;stroke-miterlimit:10;}
	.st81{fill:url(#SVGID_114_);}
	.st82{clip-path:url(#SVGID_116_);fill:#CCDD61;stroke:#231F20;stroke-width:0.25;stroke-miterlimit:10;}
	.st83{clip-path:url(#SVGID_118_);fill:#CCDD61;stroke:#231F20;stroke-width:0.25;stroke-miterlimit:10;}
	.st84{clip-path:url(#SVGID_120_);fill:#CCDD61;stroke:#231F20;stroke-width:0.25;stroke-miterlimit:10;}
	.st85{clip-path:url(#SVGID_122_);fill:#CCDD61;stroke:#231F20;stroke-width:0.25;stroke-miterlimit:10;}
	.st86{clip-path:url(#SVGID_124_);fill:#CCDD61;stroke:#231F20;stroke-width:0.25;stroke-miterlimit:10;}
	.st87{clip-path:url(#SVGID_126_);fill:#CCDD61;stroke:#231F20;stroke-width:0.25;stroke-miterlimit:10;}
	.st88{clip-path:url(#SVGID_128_);fill:#CCDD61;stroke:#231F20;stroke-width:0.25;stroke-miterlimit:10;}
	.st89{clip-path:url(#SVGID_130_);fill:#CCDD61;stroke:#231F20;stroke-width:0.25;stroke-miterlimit:10;}
	.st90{clip-path:url(#SVGID_132_);fill:#CCDD61;stroke:#231F20;stroke-width:0.25;stroke-miterlimit:10;}
	.st91{clip-path:url(#SVGID_134_);fill:#CCDD61;stroke:#231F20;stroke-width:0.25;stroke-miterlimit:10;}
	.st92{clip-path:url(#SVGID_136_);fill:#CCDD61;stroke:#231F20;stroke-width:0.25;stroke-miterlimit:10;}
	.st93{clip-path:url(#SVGID_138_);fill:#CCDD61;stroke:#231F20;stroke-width:0.25;stroke-miterlimit:10;}
	.st94{clip-path:url(#SVGID_140_);fill:#CCDD61;stroke:#231F20;stroke-width:0.25;stroke-miterlimit:10;}
	.st95{clip-path:url(#SVGID_142_);fill:#CCDD61;stroke:#231F20;stroke-width:0.25;stroke-miterlimit:10;}
	.st96{clip-path:url(#SVGID_144_);fill:#CCDD61;stroke:#231F20;stroke-width:0.25;stroke-miterlimit:10;}
	.st97{clip-path:url(#SVGID_146_);fill:#CCDD61;stroke:#231F20;stroke-width:0.25;stroke-miterlimit:10;}
	.st98{clip-path:url(#SVGID_148_);fill:#CCDD61;stroke:#231F20;stroke-width:0.25;stroke-miterlimit:10;}
	.st99{clip-path:url(#SVGID_150_);fill:#CCDD61;stroke:#231F20;stroke-width:0.25;stroke-miterlimit:10;}
	.st100{clip-path:url(#SVGID_152_);fill:#CCDD61;stroke:#231F20;stroke-width:0.25;stroke-miterlimit:10;}
	.st101{clip-path:url(#SVGID_154_);fill:#CCDD61;stroke:#231F20;stroke-width:0.25;stroke-miterlimit:10;}
	.st102{clip-path:url(#SVGID_156_);fill:#CCDD61;stroke:#231F20;stroke-width:0.25;stroke-miterlimit:10;}
	.st103{clip-path:url(#SVGID_158_);fill:#CCDD61;stroke:#231F20;stroke-width:0.25;stroke-miterlimit:10;}
	.st104{clip-path:url(#SVGID_160_);fill:#CCDD61;stroke:#231F20;stroke-width:0.25;stroke-miterlimit:10;}
	.st105{clip-path:url(#SVGID_162_);fill:#CCDD61;stroke:#231F20;stroke-width:0.25;stroke-miterlimit:10;}
	.st106{clip-path:url(#SVGID_164_);fill:#CCDD61;stroke:#231F20;stroke-width:0.25;stroke-miterlimit:10;}
	.st107{clip-path:url(#SVGID_166_);fill:#CCDD61;stroke:#231F20;stroke-width:0.25;stroke-miterlimit:10;}
	.st108{clip-path:url(#SVGID_168_);fill:#CCDD61;stroke:#231F20;stroke-width:0.25;stroke-miterlimit:10;}
	.st109{clip-path:url(#SVGID_170_);fill:#CCDD61;stroke:#231F20;stroke-width:0.25;stroke-miterlimit:10;}
	.st110{clip-path:url(#SVGID_172_);fill:#CCDD61;stroke:#231F20;stroke-width:0.25;stroke-miterlimit:10;}
	.st111{clip-path:url(#SVGID_174_);fill:#CCDD61;stroke:#231F20;stroke-width:0.25;stroke-miterlimit:10;}
	.st112{clip-path:url(#SVGID_176_);fill:#CCDD61;stroke:#231F20;stroke-width:0.25;stroke-miterlimit:10;}
	.st113{clip-path:url(#SVGID_178_);fill:#CCDD61;stroke:#231F20;stroke-width:0.25;stroke-miterlimit:10;}
	.st114{clip-path:url(#SVGID_180_);fill:#CCDD61;stroke:#231F20;stroke-width:0.25;stroke-miterlimit:10;}
	.st115{clip-path:url(#SVGID_182_);fill:#CCDD61;stroke:#231F20;stroke-width:0.25;stroke-miterlimit:10;}
	.st116{clip-path:url(#SVGID_184_);fill:#CCDD61;stroke:#231F20;stroke-width:0.25;stroke-miterlimit:10;}
	.st117{clip-path:url(#SVGID_186_);fill:#CCDD61;stroke:#231F20;stroke-width:0.25;stroke-miterlimit:10;}
	.st118{clip-path:url(#SVGID_188_);fill:#CCDD61;stroke:#231F20;stroke-width:0.25;stroke-miterlimit:10;}
	.st119{clip-path:url(#SVGID_190_);fill:#CCDD61;stroke:#231F20;stroke-width:0.25;stroke-miterlimit:10;}
	.st120{clip-path:url(#SVGID_192_);fill:#CCDD61;stroke:#231F20;stroke-width:0.25;stroke-miterlimit:10;}
	.st121{clip-path:url(#SVGID_194_);fill:#CCDD61;stroke:#231F20;stroke-width:0.25;stroke-miterlimit:10;}
	.st122{clip-path:url(#SVGID_196_);fill:#CCDD61;stroke:#231F20;stroke-width:0.25;stroke-miterlimit:10;}
	.st123{clip-path:url(#SVGID_198_);fill:#CCDD61;stroke:#231F20;stroke-width:0.25;stroke-miterlimit:10;}
	.st124{clip-path:url(#SVGID_200_);fill:#CCDD61;stroke:#231F20;stroke-width:0.25;stroke-miterlimit:10;}
	.st125{clip-path:url(#SVGID_202_);fill:#CCDD61;stroke:#231F20;stroke-width:0.25;stroke-miterlimit:10;}
	.st126{clip-path:url(#SVGID_204_);fill:#CCDD61;stroke:#231F20;stroke-width:0.25;stroke-miterlimit:10;}
	.st127{clip-path:url(#SVGID_206_);fill:#CCDD61;stroke:#231F20;stroke-width:0.25;stroke-miterlimit:10;}
	.st128{clip-path:url(#SVGID_208_);fill:#CCDD61;stroke:#231F20;stroke-width:0.25;stroke-miterlimit:10;}
	.st129{clip-path:url(#SVGID_210_);fill:#CCDD61;stroke:#231F20;stroke-width:0.25;stroke-miterlimit:10;}
	.st130{clip-path:url(#SVGID_212_);fill:#CCDD61;stroke:#231F20;stroke-width:0.25;stroke-miterlimit:10;}
	.st131{clip-path:url(#SVGID_214_);fill:#CCDD61;stroke:#231F20;stroke-width:0.25;stroke-miterlimit:10;}
	.st132{clip-path:url(#SVGID_216_);fill:#CCDD61;stroke:#231F20;stroke-width:0.25;stroke-miterlimit:10;}
	.st133{clip-path:url(#SVGID_218_);fill:#CCDD61;stroke:#231F20;stroke-width:0.25;stroke-miterlimit:10;}
	.st134{clip-path:url(#SVGID_220_);fill:#CCDD61;stroke:#231F20;stroke-width:0.25;stroke-miterlimit:10;}
	.st135{clip-path:url(#SVGID_222_);fill:#CCDD61;stroke:#231F20;stroke-width:0.25;stroke-miterlimit:10;}
	.st136{clip-path:url(#SVGID_224_);fill:#CCDD61;stroke:#231F20;stroke-width:0.25;stroke-miterlimit:10;}
	.st137{clip-path:url(#SVGID_226_);fill:#CCDD61;stroke:#231F20;stroke-width:0.25;stroke-miterlimit:10;}
	.st138{clip-path:url(#SVGID_228_);fill:#CCDD61;stroke:#231F20;stroke-width:0.25;stroke-miterlimit:10;}
	.st139{clip-path:url(#SVGID_230_);fill:#CCDD61;stroke:#231F20;stroke-width:0.25;stroke-miterlimit:10;}
	.st140{clip-path:url(#SVGID_232_);fill:#CCDD61;stroke:#231F20;stroke-width:0.25;stroke-miterlimit:10;}
	.st141{clip-path:url(#SVGID_234_);fill:#CCDD61;stroke:#231F20;stroke-width:0.25;stroke-miterlimit:10;}
	.st142{clip-path:url(#SVGID_236_);fill:#CCDD61;stroke:#231F20;stroke-width:0.25;stroke-miterlimit:10;}
	.st143{clip-path:url(#SVGID_238_);fill:#CCDD61;stroke:#231F20;stroke-width:0.25;stroke-miterlimit:10;}
	.st144{clip-path:url(#SVGID_240_);fill:#CCDD61;stroke:#231F20;stroke-width:0.25;stroke-miterlimit:10;}
	.st145{clip-path:url(#SVGID_242_);fill:#CCDD61;stroke:#231F20;stroke-width:0.25;stroke-miterlimit:10;}
	.st146{clip-path:url(#SVGID_244_);}
	.st147{clip-path:url(#SVGID_246_);}
	.st148{clip-path:url(#SVGID_248_);}
	.st149{clip-path:url(#SVGID_250_);}
	.st150{clip-path:url(#SVGID_252_);}
	.st151{clip-path:url(#SVGID_254_);}
	.st152{clip-path:url(#SVGID_256_);}
	.st153{clip-path:url(#SVGID_258_);}
	.st154{clip-path:url(#SVGID_260_);}
	.st155{clip-path:url(#SVGID_262_);}
	.st156{clip-path:url(#SVGID_264_);}
	.st157{clip-path:url(#SVGID_266_);}
	.st158{clip-path:url(#SVGID_268_);}
	.st159{clip-path:url(#SVGID_270_);}
	.st160{clip-path:url(#SVGID_272_);}
	.st161{clip-path:url(#SVGID_274_);}
	.st162{clip-path:url(#SVGID_276_);}
	.st163{clip-path:url(#SVGID_278_);}
	.st164{clip-path:url(#SVGID_280_);}
	.st165{clip-path:url(#SVGID_282_);}
	.st166{clip-path:url(#SVGID_284_);}
	.st167{clip-path:url(#SVGID_286_);}
	.st168{clip-path:url(#SVGID_288_);}
	.st169{clip-path:url(#SVGID_290_);}
	.st170{clip-path:url(#SVGID_292_);}
	.st171{clip-path:url(#SVGID_294_);}
	.st172{clip-path:url(#SVGID_296_);}
	.st173{clip-path:url(#SVGID_298_);}
	.st174{clip-path:url(#SVGID_300_);}
	.st175{clip-path:url(#SVGID_302_);}
	.st176{clip-path:url(#SVGID_304_);}
	.st177{clip-path:url(#SVGID_306_);}
	.st178{clip-path:url(#SVGID_308_);}
	.st179{clip-path:url(#SVGID_310_);}
	.st180{clip-path:url(#SVGID_312_);}
	.st181{clip-path:url(#SVGID_314_);}
	.st182{clip-path:url(#SVGID_316_);}
	.st183{fill:#6CC077;stroke:#503433;stroke-width:0.75;stroke-linecap:round;stroke-linejoin:round;stroke-miterlimit:10;}
	.st184{fill:#8BB0DD;stroke:#503433;stroke-width:0.75;stroke-linecap:round;stroke-linejoin:round;stroke-miterlimit:10;}
	.st185{fill:#FBF6EC;stroke:#503433;stroke-width:0.75;stroke-linecap:round;stroke-linejoin:round;stroke-miterlimit:10;}
	.st186{fill:none;stroke:#503433;stroke-width:0.75;stroke-linecap:round;stroke-linejoin:round;stroke-miterlimit:10;}
	.st187{fill:#503433;stroke:#503433;stroke-width:0.75;stroke-linecap:round;stroke-linejoin:round;stroke-miterlimit:10;}
	.st188{fill:url(#SVGID_318_);}
	.st189{fill:url(#SVGID_320_);}
	.st190{fill:url(#SVGID_322_);}
	.st191{fill:url(#SVGID_324_);}
	.st192{fill:#426BB2;stroke:#503433;stroke-width:1.6313;stroke-linecap:round;stroke-linejoin:round;stroke-miterlimit:10;}
	.st193{fill:#F7A480;stroke:#503433;stroke-width:1.8002;stroke-linecap:round;stroke-linejoin:round;stroke-miterlimit:10;}
	.st194{fill:#8BB1DE;stroke:#503433;stroke-width:1.6313;stroke-linecap:round;stroke-linejoin:round;stroke-miterlimit:10;}
	.st195{clip-path:url(#SVGID_326_);}
	.st196{clip-path:url(#SVGID_328_);}
	.st197{clip-path:url(#SVGID_330_);}
	.st198{clip-path:url(#SVGID_332_);}
	.st199{clip-path:url(#SVGID_334_);}
	.st200{clip-path:url(#SVGID_336_);}
	.st201{clip-path:url(#SVGID_338_);}
	.st202{clip-path:url(#SVGID_340_);}
	.st203{clip-path:url(#SVGID_342_);}
	.st204{clip-path:url(#SVGID_344_);}
	.st205{clip-path:url(#SVGID_346_);}
	.st206{clip-path:url(#SVGID_348_);}
	.st207{clip-path:url(#SVGID_350_);}
	.st208{clip-path:url(#SVGID_352_);}
	.st209{clip-path:url(#SVGID_354_);}
	.st210{clip-path:url(#SVGID_356_);}
	.st211{clip-path:url(#SVGID_358_);}
	.st212{clip-path:url(#SVGID_360_);}
	.st213{clip-path:url(#SVGID_362_);}
	.st214{clip-path:url(#SVGID_364_);}
	.st215{clip-path:url(#SVGID_366_);}
	.st216{clip-path:url(#SVGID_368_);}
	.st217{clip-path:url(#SVGID_370_);}
	.st218{clip-path:url(#SVGID_372_);}
	.st219{clip-path:url(#SVGID_374_);}
	.st220{clip-path:url(#SVGID_376_);}
	.st221{clip-path:url(#SVGID_378_);}
	.st222{clip-path:url(#SVGID_380_);}
	.st223{clip-path:url(#SVGID_382_);}
	.st224{fill:url(#);stroke:#503433;stroke-width:0.3365;stroke-linecap:round;stroke-linejoin:round;stroke-miterlimit:10;}
	.st225{clip-path:url(#SVGID_384_);}
	.st226{clip-path:url(#SVGID_386_);}
	.st227{clip-path:url(#SVGID_388_);}
	.st228{clip-path:url(#SVGID_390_);}
	.st229{clip-path:url(#SVGID_392_);}
	.st230{clip-path:url(#SVGID_394_);}
	.st231{clip-path:url(#SVGID_396_);}
	.st232{clip-path:url(#SVGID_398_);}
	.st233{clip-path:url(#SVGID_399_);}
	.st234{clip-path:url(#SVGID_400_);}
	.st235{clip-path:url(#SVGID_401_);}
	.st236{clip-path:url(#SVGID_402_);}
	.st237{clip-path:url(#SVGID_403_);}
	.st238{fill:#F05E4E;stroke:#503433;stroke-width:1.3;stroke-linecap:round;stroke-linejoin:round;stroke-miterlimit:10;}
	.st239{opacity:0.2;fill:url(#SVGID_404_);}
	.st240{opacity:0.2;fill:url(#SVGID_405_);}
	.st241{fill:url(#SVGID_406_);}
	.st242{fill:url(#SVGID_407_);}
</style>
<pattern  x="-2644.1" y="-515.2" width="72" height="72" patternUnits="userSpaceOnUse" id="_x31_0_lpi_50_x25__2" viewBox="72.2 -72 72 72" style="overflow:visible;">
	<g>
		<rect x="72.2" y="-72" class="st0" width="72" height="72"/>
		<g>
			<line class="st1" x1="144" y1="-3.6" x2="216.5" y2="-3.6"/>
			<line class="st1" x1="144" y1="-18" x2="216.5" y2="-18"/>
			<line class="st1" x1="144" y1="-32.4" x2="216.5" y2="-32.4"/>
			<line class="st1" x1="144" y1="-46.8" x2="216.5" y2="-46.8"/>
			<line class="st1" x1="144" y1="-61.2" x2="216.5" y2="-61.2"/>
			<line class="st1" x1="144" y1="-10.8" x2="216.5" y2="-10.8"/>
			<line class="st1" x1="144" y1="-25.2" x2="216.5" y2="-25.2"/>
			<line class="st1" x1="144" y1="-39.6" x2="216.5" y2="-39.6"/>
			<line class="st1" x1="144" y1="-54" x2="216.5" y2="-54"/>
			<line class="st1" x1="144" y1="-68.4" x2="216.5" y2="-68.4"/>
		</g>
		<g>
			<line class="st1" x1="72" y1="-3.6" x2="144.5" y2="-3.6"/>
			<line class="st1" x1="72" y1="-18" x2="144.5" y2="-18"/>
			<line class="st1" x1="72" y1="-32.4" x2="144.5" y2="-32.4"/>
			<line class="st1" x1="72" y1="-46.8" x2="144.5" y2="-46.8"/>
			<line class="st1" x1="72" y1="-61.2" x2="144.5" y2="-61.2"/>
			<line class="st1" x1="72" y1="-10.8" x2="144.5" y2="-10.8"/>
			<line class="st1" x1="72" y1="-25.2" x2="144.5" y2="-25.2"/>
			<line class="st1" x1="72" y1="-39.6" x2="144.5" y2="-39.6"/>
			<line class="st1" x1="72" y1="-54" x2="144.5" y2="-54"/>
			<line class="st1" x1="72" y1="-68.4" x2="144.5" y2="-68.4"/>
		</g>
		<g>
			<line class="st1" x1="0" y1="-3.6" x2="72.5" y2="-3.6"/>
			<line class="st1" x1="0" y1="-18" x2="72.5" y2="-18"/>
			<line class="st1" x1="0" y1="-32.4" x2="72.5" y2="-32.4"/>
			<line class="st1" x1="0" y1="-46.8" x2="72.5" y2="-46.8"/>
			<line class="st1" x1="0" y1="-61.2" x2="72.5" y2="-61.2"/>
			<line class="st1" x1="0" y1="-10.8" x2="72.5" y2="-10.8"/>
			<line class="st1" x1="0" y1="-25.2" x2="72.5" y2="-25.2"/>
			<line class="st1" x1="0" y1="-39.6" x2="72.5" y2="-39.6"/>
			<line class="st1" x1="0" y1="-54" x2="72.5" y2="-54"/>
			<line class="st1" x1="0" y1="-68.4" x2="72.5" y2="-68.4"/>
		</g>
	</g>
</pattern>
<g class="st59">
	<g>
		<defs>
			<ellipse id="SVGID_89_" cx="-84.6" cy="111.1" rx="31.4" ry="31.4"/>
		</defs>
		<clipPath id="SVGID_2_">
			<use xlink:href="#SVGID_89_"  style="overflow:visible;"/>
		</clipPath>
		<g class="st11">
			<g>
				<defs>
					
						<rect id="SVGID_97_" x="-49" y="72" transform="matrix(0.2757 -0.9613 0.9613 0.2757 -110.4236 46.0469)" width="48.6" height="48.6"/>
				</defs>
				<clipPath id="SVGID_4_">
					<use xlink:href="#SVGID_97_"  style="overflow:visible;"/>
				</clipPath>
				<g class="st12">
					<line class="st62" x1="2.5" y1="28" x2="-11" y2="75.1"/>
					<line class="st62" x1="11.9" y1="30.7" x2="-1.6" y2="77.8"/>
					<line class="st62" x1="7.2" y1="29.4" x2="-6.3" y2="76.4"/>
					<line class="st62" x1="16.5" y1="32" x2="3" y2="79.1"/>
				</g>
			</g>
		</g>
	</g>
</g>
<g>
	<g>
		<g>
			<g>
				<defs>
					<path id="SVGID_315_" d="M73.9,164.3c-8.4-2.6-15.6-3.3-23.9-3.3c-8.7,0.1-17.5-2.1-26.2-2c-9.5,0.1-20,0.5-29.6-0.6
						c-7.7-0.9-14.8-3.6-22.4-2.2C-43.4,170.8,12.8,170,22,170.3c7.6,0.2,15.2,1.1,22.8,1.8c7.1,0.6,12.8-0.5,19.6-0.8
						c7-0.3,8.8,0.8,10.9-6"/>
				</defs>
				<clipPath id="SVGID_6_">
					<use xlink:href="#SVGID_315_"  style="overflow:visible;"/>
				</clipPath>
				<g class="st14">
					<g>
						<defs>
							
								<rect id="SVGID_331_" x="16.6" y="98.1" transform="matrix(0.5618 -0.8273 0.8273 0.5618 -83.3494 87.495)" width="48.6" height="48.6"/>
						</defs>
						<clipPath id="SVGID_8_">
							<use xlink:href="#SVGID_331_"  style="overflow:visible;"/>
						</clipPath>
						<g class="st15">
							<line class="st62" x1="63.9" y1="49.6" x2="36.4" y2="90.1"/>
							<line class="st62" x1="67.9" y1="52.4" x2="40.4" y2="92.9"/>
						</g>
					</g>
				</g>
				<g class="st14">
					<g>
						<defs>
							
								<rect id="SVGID_333_" x="-23.6" y="70.8" transform="matrix(0.5618 -0.8273 0.8273 0.5618 -78.3799 42.2368)" width="48.6" height="48.6"/>
						</defs>
						<clipPath id="SVGID_10_">
							<use xlink:href="#SVGID_333_"  style="overflow:visible;"/>
						</clipPath>
						<g class="st16">
							<line class="st62" x1="23.6" y1="22.3" x2="-3.9" y2="62.8"/>
							<line class="st62" x1="31.7" y1="27.8" x2="4.2" y2="68.3"/>
							<line class="st62" x1="39.7" y1="33.2" x2="12.2" y2="73.8"/>
							<line class="st62" x1="47.8" y1="38.7" x2="20.3" y2="79.2"/>
							<line class="st62" x1="55.8" y1="44.2" x2="28.3" y2="84.7"/>
							<line class="st62" x1="27.7" y1="25" x2="0.2" y2="65.6"/>
							<line class="st62" x1="35.7" y1="30.5" x2="8.2" y2="71"/>
							<line class="st62" x1="43.8" y1="36" x2="16.3" y2="76.5"/>
							<line class="st62" x1="51.8" y1="41.4" x2="24.3" y2="82"/>
							<line class="st62" x1="59.9" y1="46.9" x2="32.3" y2="87.4"/>
						</g>
					</g>
				</g>
			</g>
		</g>
		<g>
			<g>
				<defs>
					<path id="SVGID_335_" d="M141.3,166.8c0.9,0.7,0.5,2,1.8,2.4c1.2-1.5,1.8-4.8,3-6c1.9-1.9,6.2,0.6,7.3,2.6
						c2.9,5.3,4.3,11.3,9.3,15.5c3.1,2.6,7.7,2.7,11.3,4.5c4.7,2.3,9.4,4.1,14.4,5.7c7.8,2.6,14.8,6.8,22.7,9
						c13.2,3.8,28.8,6.5,42.5,4.6c14.4-2,28-8,40.9-14.3c5.4-2.7,10.8-5.3,14.9-9.7c3.4-3.6,3.9-11.3,8.5-12.8
						c4.1,8-5.1,20.5-10.6,25.1c-3.2,2.7-6.3,6.1-9.7,8.6c-3.5,2.6-8.4,3.1-12.4,5.2c-6.2,3.2-10.2,5.3-17.1,5.8
						c-4.9,0.4-9.2,3.3-13.9,3.9c-6.3,0.9-13.8-1.4-20.1-2c-5.5-0.6-11,0-16.4-0.6c-5-0.6-9.1-2.2-13.9-3.3c-4.3-1-8.1,1.1-12.5,0.1
						c-4.6-1-10.6-2.8-14.8-4.9c-2.9-1.5-4.7-3.9-6.9-6.2c-2.4-2.5-4.7-3.5-7.7-5.3c-4.2-2.6-6.6-6.8-10.4-9.9
						c-2.8-2.2-5.8-4.2-8.6-6.3c-2.3-1.7-5.2-3.8-6.1-6.6C135.8,168.6,137.4,164,141.3,166.8z"/>
				</defs>
				<clipPath id="SVGID_12_">
					<use xlink:href="#SVGID_335_"  style="overflow:visible;"/>
				</clipPath>
				<g class="st17">
					<g>
						<defs>
							
								<rect id="SVGID_363_" x="191.9" y="99.6" transform="matrix(0.5618 -0.8273 0.8273 0.5618 -7.7335 233.2226)" width="48.6" height="48.6"/>
						</defs>
						<clipPath id="SVGID_14_">
							<use xlink:href="#SVGID_363_"  style="overflow:visible;"/>
						</clipPath>
						<g class="st18">
							<line class="st62" x1="239.2" y1="51.1" x2="211.7" y2="91.6"/>
						</g>
					</g>
				</g>
				<g class="st17">
					<g>
						<defs>
							<polygon id="SVGID_365_" points="209.8,90.1 182.5,130.4 142.3,103 169.6,62.8 							"/>
						</defs>
						<clipPath id="SVGID_16_">
							<use xlink:href="#SVGID_365_"  style="overflow:visible;"/>
						</clipPath>
						<g class="st19">
							<line class="st62" x1="199" y1="23.8" x2="171.5" y2="64.3"/>
							<line class="st62" x1="207.1" y1="29.3" x2="179.5" y2="69.8"/>
							<line class="st62" x1="215.1" y1="34.7" x2="187.6" y2="75.2"/>
							<line class="st62" x1="223.1" y1="40.2" x2="195.6" y2="80.7"/>
							<line class="st62" x1="231.2" y1="45.7" x2="203.7" y2="86.2"/>
							<line class="st62" x1="203" y1="26.5" x2="175.5" y2="67"/>
							<line class="st62" x1="211.1" y1="32" x2="183.6" y2="72.5"/>
							<line class="st62" x1="219.1" y1="37.5" x2="191.6" y2="78"/>
							<line class="st62" x1="227.2" y1="42.9" x2="199.7" y2="83.4"/>
							<line class="st62" x1="235.2" y1="48.4" x2="207.7" y2="88.9"/>
						</g>
					</g>
				</g>
			</g>
		</g>
	</g>
	<g>
		<g>
			<defs>
				<path id="SVGID_373_" d="M176,138.4c-5.7,2.6-11.1,6.9-14.9,11.7c-2,2.5-3.9,9.5-2.3,12.7c1.4,2.9,4.1,2.8,5.3,0.3
					c1.9-3.8,2-8.6,3.8-12.5c1.8-4,5.6-7,9.3-9.3c5.2-3.3,10.9-3.5,16.4-6.3c4.2-2.1,7.1-1.9,11.7-2.5c2-0.3,3.7-1,5.7-1.5
					c4.3-1,6.8,0.6,10.9,1.2c3.9,0.6,7.8-1.4,11.7-1.3c6.1,0.2,11.9,2.3,18,3.1c5.3,0.7,10,1.3,15.1,2.6c2.6,0.7,5.2,0.6,7.7,1.4
					c3.4,1.1,6.4,3,9.8,4.1c4,1.3,18.7,12.1,21.6,8.2c3.2-4.3-5.5-6.1-7.8-6.8c-5.1-1.7-8-5.8-12.9-7.7c-15.5-5.8-32.9-7.1-49.3-9
					c-5.9-0.7-10.8-1.2-16.5,0.2c-2.9,0.7-5.7,0.8-8.7,1.3c-4.5,0.7-11.1,1.8-15.3,3c-6.1,1.8-9.2,3.5-15.3,5.8
					c-1.7,0.7-3.2,1.2-4.8,1.3"/>
			</defs>
			<clipPath id="SVGID_18_">
				<use xlink:href="#SVGID_373_"  style="overflow:visible;"/>
			</clipPath>
			<g class="st20">
				<g>
					<defs>
						
							<rect id="SVGID_387_" x="192" y="99.6" transform="matrix(0.5617 -0.8273 0.8273 0.5617 -7.7248 233.2387)" width="48.6" height="48.6"/>
					</defs>
					<clipPath id="SVGID_20_">
						<use xlink:href="#SVGID_387_"  style="overflow:visible;"/>
					</clipPath>
					<g class="st21">
						<line class="st62" x1="239.2" y1="51.1" x2="211.7" y2="91.6"/>
					</g>
				</g>
			</g>
			<g class="st20">
				<g>
					<defs>
						<polygon id="SVGID_389_" points="209.8,90.1 182.5,130.4 142.3,103 169.6,62.8 						"/>
					</defs>
					<clipPath id="SVGID_22_">
						<use xlink:href="#SVGID_389_"  style="overflow:visible;"/>
					</clipPath>
					<g class="st22">
						<line class="st62" x1="199" y1="23.8" x2="171.5" y2="64.3"/>
						<line class="st62" x1="207.1" y1="29.3" x2="179.5" y2="69.8"/>
						<line class="st62" x1="215.1" y1="34.7" x2="187.6" y2="75.2"/>
						<line class="st62" x1="223.1" y1="40.2" x2="195.6" y2="80.7"/>
						<line class="st62" x1="231.2" y1="45.7" x2="203.7" y2="86.2"/>
						<line class="st62" x1="203" y1="26.5" x2="175.5" y2="67"/>
						<line class="st62" x1="211.1" y1="32" x2="183.6" y2="72.5"/>
						<line class="st62" x1="219.1" y1="37.5" x2="191.6" y2="78"/>
						<line class="st62" x1="227.2" y1="42.9" x2="199.7" y2="83.4"/>
						<line class="st62" x1="235.2" y1="48.4" x2="207.7" y2="88.9"/>
					</g>
				</g>
			</g>
			<g class="st20">
				<g>
					<defs>
						
							<rect id="SVGID_393_" x="259.5" y="86.7" transform="matrix(0.5618 -0.8273 0.8273 0.5618 32.556 283.4509)" width="48.6" height="48.6"/>
					</defs>
					<clipPath id="SVGID_24_">
						<use xlink:href="#SVGID_393_"  style="overflow:visible;"/>
					</clipPath>
				</g>
			</g>
			<g class="st20">
				<g>
					<defs>
						
							<rect id="SVGID_395_" x="219.3" y="59.4" transform="matrix(0.5618 -0.8273 0.8273 0.5618 37.528 238.1901)" width="48.6" height="48.6"/>
					</defs>
					<clipPath id="SVGID_26_">
						<use xlink:href="#SVGID_395_"  style="overflow:visible;"/>
					</clipPath>
					<g class="st24">
						<line class="st62" x1="239.2" y1="51.1" x2="211.7" y2="91.6"/>
					</g>
				</g>
			</g>
			<g class="st20">
				<g>
					<defs>
						
							<rect id="SVGID_397_" x="179" y="32" transform="matrix(0.5618 -0.8273 0.8273 0.5618 42.4962 192.9299)" width="48.6" height="48.6"/>
					</defs>
					<clipPath id="SVGID_28_">
						<use xlink:href="#SVGID_397_"  style="overflow:visible;"/>
					</clipPath>
					<g class="st25">
						<line class="st62" x1="199" y1="23.8" x2="171.5" y2="64.3"/>
						<line class="st62" x1="207.1" y1="29.3" x2="179.5" y2="69.8"/>
						<line class="st62" x1="215.1" y1="34.7" x2="187.6" y2="75.2"/>
						<line class="st62" x1="223.1" y1="40.2" x2="195.6" y2="80.7"/>
						<line class="st62" x1="231.2" y1="45.7" x2="203.7" y2="86.2"/>
						<line class="st62" x1="203" y1="26.5" x2="175.5" y2="67"/>
						<line class="st62" x1="211.1" y1="32" x2="183.6" y2="72.5"/>
						<line class="st62" x1="219.1" y1="37.5" x2="191.6" y2="78"/>
						<line class="st62" x1="227.2" y1="42.9" x2="199.7" y2="83.4"/>
						<line class="st62" x1="235.2" y1="48.4" x2="207.7" y2="88.9"/>
					</g>
					<g class="st25">
						<line class="st62" x1="226.3" y1="-16.4" x2="198.8" y2="24.1"/>
						<line class="st62" x1="234.4" y1="-11" x2="206.9" y2="29.5"/>
						<line class="st62" x1="242.4" y1="-5.5" x2="214.9" y2="35"/>
						<line class="st62" x1="250.5" y1="0" x2="223" y2="40.5"/>
						<line class="st62" x1="258.5" y1="5.4" x2="231" y2="45.9"/>
						<line class="st62" x1="230.3" y1="-13.7" x2="202.8" y2="26.8"/>
						<line class="st62" x1="238.4" y1="-8.2" x2="210.9" y2="32.3"/>
						<line class="st62" x1="246.4" y1="-2.8" x2="218.9" y2="37.7"/>
						<line class="st62" x1="254.5" y1="2.7" x2="227" y2="43.2"/>
					</g>
				</g>
			</g>
		</g>
	</g>
</g>
<pattern  id="SVGID_30_" xlink:href="#_x31_0_lpi_50_x25__2" patternTransform="matrix(-3.019900e-02 0.1222 -8.990200e-02 -3.061900e-02 -5103.5254 -5495.9058)">
</pattern>
<path style="opacity:0.2;fill:url(#SVGID_30_);" d="M141.1,29.5c-9.6,5-5.3,17.5,3.8,20.3c12.3,3.8,29.8-8,41.2-11.8
	c10.1-3.4,21.9-7.1,31.1-12.5c8.6-5,11-22.2-2.2-22c-15,0.2-34.4,15.5-48.2,20.9c-6.4,2.5-18.6,9.1-25.6,6.1"/>
<pattern  id="SVGID_32_" xlink:href="#_x31_0_lpi_50_x25__2" patternTransform="matrix(-3.019900e-02 0.1222 -8.990200e-02 -3.061900e-02 -5103.5254 -5495.9058)">
</pattern>
<path style="opacity:0.2;fill:url(#SVGID_32_);" d="M11.1,12.5c-1.9,12.2,2.7,17.9,14.1,21.7c13.4,4.4,27.2,8.2,40.6,12.4
	c9.8,3,23.2,8.3,30.4-1.7c8.7-11.9-7-14-16.2-16.2C57.9,23.3,34,21.1,12.6,13"/>
</svg>
