<?xml version="1.0" encoding="utf-8"?>
<!-- Generator: Adobe Illustrator 20.1.0, SVG Export Plug-In . SVG Version: 6.00 Build 0)  -->
<svg version="1.1" id="Layer_1" xmlns="http://www.w3.org/2000/svg" xmlns:xlink="http://www.w3.org/1999/xlink" x="0px" y="0px"
	 viewBox="0 0 112 158.9" style="enable-background:new 0 0 112 158.9;" xml:space="preserve">
<style type="text/css">
	.st0{fill:#F15E4F;stroke:#513534;stroke-width:0.8258;stroke-linecap:round;stroke-linejoin:round;stroke-miterlimit:10;}
	.st1{fill:#513534;}
	.st2{fill:#6BC178;stroke:#513534;stroke-width:0.4764;stroke-linecap:round;stroke-linejoin:round;stroke-miterlimit:10;}
	.st3{fill:#CCDC63;stroke:#513534;stroke-width:0.4764;stroke-linecap:round;stroke-linejoin:round;stroke-miterlimit:10;}
	.st4{fill:#F7A580;stroke:#513534;stroke-width:0.8258;stroke-linecap:round;stroke-linejoin:round;stroke-miterlimit:10;}
	.st5{fill:#D7942A;stroke:#513534;stroke-width:0.2533;stroke-linecap:round;stroke-linejoin:round;stroke-miterlimit:10;}
</style>
<g>
	<path class="st0" d="M31.2,139.7c0,0,6.1,1.2,12.1,6.4L55.8,157c0.1,0.1,0.2,0.1,0.3,0.1c0.1,0,0.2,0,0.3-0.1l12.4-10.9
		c6-5.2,12.1-6.4,12.1-6.4H31.2z"/>
	<ellipse class="st1" cx="56" cy="114.9" rx="56" ry="27.9"/>
	<path class="st0" d="M75.7,88.6v1.6c0,2.5-8.7,4.4-19.4,4.4c-10.7,0-19.4-2-19.4-4.4v-1.6H75.7z"/>
	<path class="st2" d="M55.8,87.1c-13.2,0-25.3,2.3-34.9,6.1c-0.8,0.7-1.2,1.4-1.2,2.1c0,4.5,16.3,8.2,36.5,8.2
		c20.1,0,36.5-3.7,36.5-8.2c0-0.6-0.3-1.2-0.9-1.8c-9.7-4-22.2-6.4-35.8-6.5C56,87.1,55.9,87.1,55.8,87.1z"/>
	<ellipse class="st3" cx="56.2" cy="88.6" rx="19.4" ry="4.4"/>
	<path class="st4" d="M46,4.8c0-1.7,4.5-3.1,10-3.1c5.5,0,10,1.4,10,3.1v0.1v45.6v34.7v0.3c0,1.7-4.5,3.1-10,3.1
		c-5.5,0-10-1.4-10-3.1v-0.3V50.4V4.8L46,4.8z"/>
	<path class="st5" d="M98.9,111.7c-3.9-1.3-5.9,2.5-8.9,4.2c-2.1,1.2-10.1,2.2-9,5.9c0.9,3,7.5,1.9,9.6,1.8c4.4-0.3,8.5-0.7,9.9-5.5
		c0.6-2.2,0.9-5.5-1.8-6.3"/>
</g>
</svg>
