<?xml version="1.0" encoding="utf-8"?>
<!-- Generator: Adobe Illustrator 20.1.0, SVG Export Plug-In . SVG Version: 6.00 Build 0)  -->
<svg version="1.1" id="Layer_1" xmlns="http://www.w3.org/2000/svg" xmlns:xlink="http://www.w3.org/1999/xlink" x="0px" y="0px"
	 viewBox="0 0 302 169" style="enable-background:new 0 0 302 169;" xml:space="preserve">
<style type="text/css">
	.st0{clip-path:url(#SVGID_2_);}
	.st1{clip-path:url(#SVGID_4_);}
	.st2{fill:none;stroke:#211E1F;stroke-width:0.4408;}
	.st3{clip-path:url(#SVGID_6_);}
	.st4{clip-path:url(#SVGID_8_);}
	.st5{fill:none;stroke:#7E5D25;stroke-width:2;}
	.st6{clip-path:url(#SVGID_10_);}
	.st7{fill:none;stroke:#211E1F;stroke-width:2;}
	.st8{clip-path:url(#SVGID_12_);}
	.st9{clip-path:url(#SVGID_14_);}
	.st10{clip-path:url(#SVGID_16_);}
	.st11{clip-path:url(#SVGID_18_);}
</style>
<g>
	<g>
		<defs>
			<path id="SVGID_1_" d="M248,87.6c-27.9-6.5-70.3-35.6-101.3-36.1C101.2,50.7,95.4,72.7,55,79.1c0.4,3.4,1.2,18.8,0,21.5
				c38.8,4.2,66.8-15.3,100.6-12.9c32.5,2.3,55.6,47.2,83.4,4.5"/>
		</defs>
		<clipPath id="SVGID_2_">
			<use xlink:href="#SVGID_1_"  style="overflow:visible;"/>
		</clipPath>
		<g class="st0">
			<g>
				<defs>
					
						<rect id="SVGID_3_" x="194.1" y="113.1" transform="matrix(0.2756 -0.9613 0.9613 0.2756 25.9517 311.0006)" width="50.4" height="50.4"/>
				</defs>
				<clipPath id="SVGID_4_">
					<use xlink:href="#SVGID_3_"  style="overflow:visible;"/>
				</clipPath>
				<g class="st1">
					<line class="st2" x1="190.6" y1="156.1" x2="176.7" y2="204.9"/>
					<line class="st2" x1="200.3" y1="158.9" x2="186.3" y2="207.6"/>
					<line class="st2" x1="210" y1="161.6" x2="196" y2="210.4"/>
					<line class="st2" x1="219.7" y1="164.4" x2="205.7" y2="213.2"/>
					<line class="st2" x1="229.4" y1="167.2" x2="215.4" y2="216"/>
					<line class="st2" x1="195.5" y1="157.5" x2="181.5" y2="206.2"/>
					<line class="st2" x1="205.2" y1="160.2" x2="191.2" y2="209"/>
					<line class="st2" x1="214.9" y1="163" x2="200.9" y2="211.8"/>
					<line class="st2" x1="224.5" y1="165.8" x2="210.6" y2="214.6"/>
					<line class="st2" x1="234.2" y1="168.6" x2="220.2" y2="217.4"/>
				</g>
				<g class="st1">
					<line class="st2" x1="204.5" y1="107.6" x2="190.5" y2="156.4"/>
					<line class="st2" x1="214.2" y1="110.4" x2="200.2" y2="159.2"/>
					<line class="st2" x1="223.9" y1="113.2" x2="209.9" y2="162"/>
					<line class="st2" x1="233.6" y1="116" x2="219.6" y2="164.8"/>
					<line class="st2" x1="243.3" y1="118.8" x2="229.3" y2="167.5"/>
					<line class="st2" x1="209.4" y1="109" x2="195.4" y2="157.8"/>
					<line class="st2" x1="219.1" y1="111.8" x2="205.1" y2="160.6"/>
					<line class="st2" x1="228.7" y1="114.6" x2="214.8" y2="163.4"/>
					<line class="st2" x1="238.4" y1="117.4" x2="224.4" y2="166.1"/>
					<line class="st2" x1="248.1" y1="120.1" x2="234.1" y2="168.9"/>
				</g>
				<g class="st1">
					<line class="st2" x1="218.4" y1="59.2" x2="204.4" y2="108"/>
					<line class="st2" x1="228.1" y1="62" x2="214.1" y2="110.8"/>
					<line class="st2" x1="237.8" y1="64.8" x2="223.8" y2="113.5"/>
					<line class="st2" x1="247.5" y1="67.5" x2="233.5" y2="116.3"/>
					<line class="st2" x1="257.2" y1="70.3" x2="243.2" y2="119.1"/>
					<line class="st2" x1="223.3" y1="60.6" x2="209.3" y2="109.4"/>
					<line class="st2" x1="232.9" y1="63.4" x2="219" y2="112.1"/>
					<line class="st2" x1="242.6" y1="66.1" x2="228.7" y2="114.9"/>
					<line class="st2" x1="252.3" y1="68.9" x2="238.3" y2="117.7"/>
					<line class="st2" x1="262" y1="71.7" x2="248" y2="120.5"/>
				</g>
			</g>
		</g>
		<g class="st0">
			<g>
				<defs>
					
						<rect id="SVGID_5_" x="145.7" y="99.2" transform="matrix(0.2756 -0.9613 0.9613 0.2756 4.2153 254.3752)" width="50.4" height="50.4"/>
				</defs>
				<clipPath id="SVGID_6_">
					<use xlink:href="#SVGID_5_"  style="overflow:visible;"/>
				</clipPath>
				<g class="st3">
					<line class="st2" x1="142.2" y1="142.2" x2="128.2" y2="191"/>
					<line class="st2" x1="151.9" y1="145" x2="137.9" y2="193.7"/>
					<line class="st2" x1="161.6" y1="147.7" x2="147.6" y2="196.5"/>
					<line class="st2" x1="171.3" y1="150.5" x2="157.3" y2="199.3"/>
					<line class="st2" x1="180.9" y1="153.3" x2="167" y2="202.1"/>
					<line class="st2" x1="147" y1="143.6" x2="133.1" y2="192.4"/>
					<line class="st2" x1="156.7" y1="146.4" x2="142.7" y2="195.1"/>
					<line class="st2" x1="166.4" y1="149.1" x2="152.4" y2="197.9"/>
					<line class="st2" x1="176.1" y1="151.9" x2="162.1" y2="200.7"/>
					<line class="st2" x1="185.8" y1="154.7" x2="171.8" y2="203.5"/>
				</g>
				<g class="st3">
					<line class="st2" x1="156.1" y1="93.8" x2="142.1" y2="142.5"/>
					<line class="st2" x1="165.8" y1="96.5" x2="151.8" y2="145.3"/>
					<line class="st2" x1="175.5" y1="99.3" x2="161.5" y2="148.1"/>
					<line class="st2" x1="185.2" y1="102.1" x2="171.2" y2="150.9"/>
					<line class="st2" x1="194.8" y1="104.9" x2="180.9" y2="153.6"/>
					<line class="st2" x1="160.9" y1="95.1" x2="146.9" y2="143.9"/>
					<line class="st2" x1="170.6" y1="97.9" x2="156.6" y2="146.7"/>
					<line class="st2" x1="180.3" y1="100.7" x2="166.3" y2="149.5"/>
					<line class="st2" x1="190" y1="103.5" x2="176" y2="152.3"/>
					<line class="st2" x1="199.7" y1="106.3" x2="185.7" y2="155"/>
				</g>
				<g class="st3">
					<line class="st2" x1="170" y1="45.3" x2="156" y2="94.1"/>
					<line class="st2" x1="179.7" y1="48.1" x2="165.7" y2="96.9"/>
					<line class="st2" x1="189.4" y1="50.9" x2="175.4" y2="99.6"/>
					<line class="st2" x1="199" y1="53.6" x2="185.1" y2="102.4"/>
					<line class="st2" x1="208.7" y1="56.4" x2="194.7" y2="105.2"/>
					<line class="st2" x1="174.8" y1="46.7" x2="160.8" y2="95.5"/>
					<line class="st2" x1="184.5" y1="49.5" x2="170.5" y2="98.3"/>
					<line class="st2" x1="194.2" y1="52.3" x2="180.2" y2="101"/>
					<line class="st2" x1="203.9" y1="55" x2="189.9" y2="103.8"/>
					<line class="st2" x1="213.6" y1="57.8" x2="199.6" y2="106.6"/>
				</g>
			</g>
		</g>
		<g class="st0">
			<g>
				<defs>
					
						<rect id="SVGID_7_" x="97.3" y="85.3" transform="matrix(0.2756 -0.9613 0.9613 0.2756 -17.5211 197.7497)" width="50.4" height="50.4"/>
				</defs>
				<clipPath id="SVGID_8_">
					<use xlink:href="#SVGID_7_"  style="overflow:visible;"/>
				</clipPath>
				<g class="st4">
					<line class="st2" x1="93.8" y1="128.3" x2="79.8" y2="177.1"/>
					<line class="st2" x1="103.4" y1="131.1" x2="89.5" y2="179.9"/>
					<line class="st2" x1="113.1" y1="133.9" x2="99.1" y2="182.6"/>
					<line class="st2" x1="122.8" y1="136.6" x2="108.8" y2="185.4"/>
					<line class="st2" x1="132.5" y1="139.4" x2="118.5" y2="188.2"/>
					<line class="st2" x1="98.6" y1="129.7" x2="84.6" y2="178.5"/>
					<line class="st2" x1="108.3" y1="132.5" x2="94.3" y2="181.2"/>
					<line class="st2" x1="118" y1="135.2" x2="104" y2="184"/>
					<line class="st2" x1="127.7" y1="138" x2="113.7" y2="186.8"/>
					<line class="st2" x1="137.4" y1="140.8" x2="123.4" y2="189.6"/>
				</g>
				<g class="st4">
					<line class="st5" x1="107.6" y1="79.9" x2="93.7" y2="128.6"/>
					<line class="st5" x1="117.3" y1="82.6" x2="103.3" y2="131.4"/>
					<line class="st5" x1="127" y1="85.4" x2="113" y2="134.2"/>
					<line class="st5" x1="136.7" y1="88.2" x2="122.7" y2="137"/>
					<line class="st5" x1="146.4" y1="91" x2="132.4" y2="139.8"/>
					<line class="st5" x1="112.5" y1="81.3" x2="98.5" y2="130"/>
					<line class="st5" x1="122.2" y1="84" x2="108.2" y2="132.8"/>
					<line class="st5" x1="131.9" y1="86.8" x2="117.9" y2="135.6"/>
					<line class="st5" x1="141.6" y1="89.6" x2="127.6" y2="138.4"/>
					<line class="st5" x1="151.2" y1="92.4" x2="137.3" y2="141.1"/>
				</g>
				<g class="st4">
					<line class="st5" x1="121.5" y1="31.4" x2="107.5" y2="80.2"/>
					<line class="st5" x1="131.2" y1="34.2" x2="117.2" y2="83"/>
					<line class="st5" x1="140.9" y1="37" x2="126.9" y2="85.8"/>
					<line class="st5" x1="150.6" y1="39.8" x2="136.6" y2="88.5"/>
					<line class="st5" x1="160.3" y1="42.5" x2="146.3" y2="91.3"/>
					<line class="st5" x1="126.4" y1="32.8" x2="112.4" y2="81.6"/>
					<line class="st5" x1="136.1" y1="35.6" x2="122.1" y2="84.4"/>
					<line class="st5" x1="145.8" y1="38.4" x2="131.8" y2="87.1"/>
					<line class="st5" x1="155.4" y1="41.1" x2="141.5" y2="89.9"/>
					<line class="st5" x1="165.1" y1="43.9" x2="151.1" y2="92.7"/>
				</g>
			</g>
		</g>
		<g class="st0">
			<g>
				<defs>
					
						<rect id="SVGID_9_" x="48.8" y="71.4" transform="matrix(0.2756 -0.9613 0.9613 0.2756 -39.2575 141.1242)" width="50.4" height="50.4"/>
				</defs>
				<clipPath id="SVGID_10_">
					<use xlink:href="#SVGID_9_"  style="overflow:visible;"/>
				</clipPath>
				<g class="st6">
					<line class="st2" x1="45.3" y1="114.4" x2="31.3" y2="163.2"/>
					<line class="st2" x1="55" y1="117.2" x2="41" y2="166"/>
					<line class="st2" x1="64.7" y1="120" x2="50.7" y2="168.7"/>
					<line class="st2" x1="74.4" y1="122.7" x2="60.4" y2="171.5"/>
					<line class="st2" x1="84.1" y1="125.5" x2="70.1" y2="174.3"/>
					<line class="st2" x1="50.2" y1="115.8" x2="36.2" y2="164.6"/>
					<line class="st2" x1="59.8" y1="118.6" x2="45.9" y2="167.4"/>
					<line class="st2" x1="69.5" y1="121.4" x2="55.5" y2="170.1"/>
					<line class="st2" x1="79.2" y1="124.1" x2="65.2" y2="172.9"/>
					<line class="st2" x1="88.9" y1="126.9" x2="74.9" y2="175.7"/>
				</g>
				<g class="st6">
					<line class="st5" x1="59.2" y1="66" x2="45.2" y2="114.7"/>
					<line class="st5" x1="68.9" y1="68.7" x2="54.9" y2="117.5"/>
					<line class="st5" x1="78.6" y1="71.5" x2="64.6" y2="120.3"/>
					<line class="st5" x1="88.3" y1="74.3" x2="74.3" y2="123.1"/>
					<line class="st5" x1="98" y1="77.1" x2="84" y2="125.9"/>
					<line class="st5" x1="64.1" y1="67.4" x2="50.1" y2="116.1"/>
					<line class="st5" x1="73.7" y1="70.1" x2="59.8" y2="118.9"/>
					<line class="st5" x1="83.4" y1="72.9" x2="69.4" y2="121.7"/>
					<line class="st5" x1="93.1" y1="75.7" x2="79.1" y2="124.5"/>
					<line class="st5" x1="102.8" y1="78.5" x2="88.8" y2="127.2"/>
				</g>
				<g class="st6">
					<line class="st7" x1="73.1" y1="17.5" x2="59.1" y2="66.3"/>
					<line class="st7" x1="82.8" y1="20.3" x2="68.8" y2="69.1"/>
					<line class="st7" x1="92.5" y1="23.1" x2="78.5" y2="71.9"/>
					<line class="st7" x1="102.2" y1="25.9" x2="88.2" y2="74.6"/>
					<line class="st7" x1="111.8" y1="28.6" x2="97.9" y2="77.4"/>
					<line class="st7" x1="77.9" y1="18.9" x2="64" y2="67.7"/>
					<line class="st7" x1="87.6" y1="21.7" x2="73.6" y2="70.5"/>
					<line class="st7" x1="97.3" y1="24.5" x2="83.3" y2="73.3"/>
					<line class="st7" x1="107" y1="27.3" x2="93" y2="76"/>
					<line class="st7" x1="116.7" y1="30" x2="102.7" y2="78.8"/>
				</g>
			</g>
		</g>
		<g class="st0">
			<g>
				<defs>
					
						<rect id="SVGID_11_" x="208" y="64.6" transform="matrix(0.2756 -0.9613 0.9613 0.2756 82.5771 289.2643)" width="50.4" height="50.4"/>
				</defs>
				<clipPath id="SVGID_12_">
					<use xlink:href="#SVGID_11_"  style="overflow:visible;"/>
				</clipPath>
				<g class="st8">
					<line class="st7" x1="204.5" y1="107.6" x2="190.5" y2="156.4"/>
					<line class="st7" x1="214.2" y1="110.4" x2="200.2" y2="159.2"/>
					<line class="st7" x1="223.9" y1="113.2" x2="209.9" y2="162"/>
					<line class="st7" x1="233.6" y1="116" x2="219.6" y2="164.8"/>
					<line class="st7" x1="243.3" y1="118.8" x2="229.3" y2="167.5"/>
					<line class="st7" x1="209.4" y1="109" x2="195.4" y2="157.8"/>
					<line class="st7" x1="219.1" y1="111.8" x2="205.1" y2="160.6"/>
					<line class="st7" x1="228.7" y1="114.6" x2="214.8" y2="163.4"/>
					<line class="st7" x1="238.4" y1="117.4" x2="224.4" y2="166.1"/>
					<line class="st7" x1="248.1" y1="120.1" x2="234.1" y2="168.9"/>
				</g>
				<g class="st8">
					<line class="st5" x1="218.4" y1="59.2" x2="204.4" y2="108"/>
					<line class="st5" x1="228.1" y1="62" x2="214.1" y2="110.8"/>
					<line class="st5" x1="237.8" y1="64.8" x2="223.8" y2="113.5"/>
					<line class="st5" x1="247.5" y1="67.5" x2="233.5" y2="116.3"/>
					<line class="st5" x1="257.2" y1="70.3" x2="243.2" y2="119.1"/>
					<line class="st5" x1="223.3" y1="60.6" x2="209.3" y2="109.4"/>
					<line class="st5" x1="232.9" y1="63.4" x2="219" y2="112.1"/>
					<line class="st5" x1="242.6" y1="66.1" x2="228.7" y2="114.9"/>
					<line class="st5" x1="252.3" y1="68.9" x2="238.3" y2="117.7"/>
					<line class="st5" x1="262" y1="71.7" x2="248" y2="120.5"/>
				</g>
				<g class="st8">
					<line class="st7" x1="232.3" y1="10.8" x2="218.3" y2="59.5"/>
					<line class="st7" x1="242" y1="13.5" x2="228" y2="62.3"/>
					<line class="st7" x1="251.7" y1="16.3" x2="237.7" y2="65.1"/>
					<line class="st7" x1="261.4" y1="19.1" x2="247.4" y2="67.9"/>
					<line class="st7" x1="271.1" y1="21.9" x2="257.1" y2="70.6"/>
					<line class="st7" x1="237.2" y1="12.1" x2="223.2" y2="60.9"/>
					<line class="st7" x1="246.8" y1="14.9" x2="232.9" y2="63.7"/>
					<line class="st7" x1="256.5" y1="17.7" x2="242.5" y2="66.5"/>
					<line class="st7" x1="266.2" y1="20.5" x2="252.2" y2="69.3"/>
					<line class="st7" x1="275.9" y1="23.3" x2="261.9" y2="72"/>
				</g>
			</g>
		</g>
		<g class="st0">
			<g>
				<defs>
					
						<rect id="SVGID_13_" x="159.6" y="50.8" transform="matrix(0.2756 -0.9613 0.9613 0.2756 60.8408 232.6388)" width="50.4" height="50.4"/>
				</defs>
				<clipPath id="SVGID_14_">
					<use xlink:href="#SVGID_13_"  style="overflow:visible;"/>
				</clipPath>
				<g class="st9">
					<line class="st7" x1="156.1" y1="93.8" x2="142.1" y2="142.5"/>
					<line class="st7" x1="165.8" y1="96.5" x2="151.8" y2="145.3"/>
					<line class="st7" x1="175.5" y1="99.3" x2="161.5" y2="148.1"/>
					<line class="st7" x1="185.2" y1="102.1" x2="171.2" y2="150.9"/>
					<line class="st7" x1="194.8" y1="104.9" x2="180.9" y2="153.6"/>
					<line class="st7" x1="160.9" y1="95.1" x2="146.9" y2="143.9"/>
					<line class="st7" x1="170.6" y1="97.9" x2="156.6" y2="146.7"/>
					<line class="st7" x1="180.3" y1="100.7" x2="166.3" y2="149.5"/>
					<line class="st7" x1="190" y1="103.5" x2="176" y2="152.3"/>
					<line class="st7" x1="199.7" y1="106.3" x2="185.7" y2="155"/>
				</g>
				<g class="st9">
					<line class="st5" x1="170" y1="45.3" x2="156" y2="94.1"/>
					<line class="st5" x1="179.7" y1="48.1" x2="165.7" y2="96.9"/>
					<line class="st5" x1="189.4" y1="50.9" x2="175.4" y2="99.6"/>
					<line class="st5" x1="199" y1="53.6" x2="185.1" y2="102.4"/>
					<line class="st5" x1="208.7" y1="56.4" x2="194.7" y2="105.2"/>
					<line class="st5" x1="174.8" y1="46.7" x2="160.8" y2="95.5"/>
					<line class="st5" x1="184.5" y1="49.5" x2="170.5" y2="98.3"/>
					<line class="st5" x1="194.2" y1="52.3" x2="180.2" y2="101"/>
					<line class="st5" x1="203.9" y1="55" x2="189.9" y2="103.8"/>
					<line class="st5" x1="213.6" y1="57.8" x2="199.6" y2="106.6"/>
				</g>
				<g class="st9">
					<line class="st7" x1="183.9" y1="-3.1" x2="169.9" y2="45.6"/>
					<line class="st7" x1="193.6" y1="-0.4" x2="179.6" y2="48.4"/>
					<line class="st7" x1="203.2" y1="2.4" x2="189.3" y2="51.2"/>
					<line class="st7" x1="212.9" y1="5.2" x2="198.9" y2="54"/>
					<line class="st7" x1="222.6" y1="8" x2="208.6" y2="56.8"/>
					<line class="st7" x1="188.7" y1="-1.7" x2="174.7" y2="47"/>
					<line class="st7" x1="198.4" y1="1" x2="184.4" y2="49.8"/>
					<line class="st7" x1="208.1" y1="3.8" x2="194.1" y2="52.6"/>
					<line class="st7" x1="217.8" y1="6.6" x2="203.8" y2="55.4"/>
					<line class="st7" x1="227.5" y1="9.4" x2="213.5" y2="58.1"/>
				</g>
			</g>
		</g>
		<g class="st0">
			<g>
				<defs>
					
						<rect id="SVGID_15_" x="111.1" y="36.9" transform="matrix(0.2756 -0.9613 0.9613 0.2756 39.1044 176.0133)" width="50.4" height="50.4"/>
				</defs>
				<clipPath id="SVGID_16_">
					<use xlink:href="#SVGID_15_"  style="overflow:visible;"/>
				</clipPath>
				<g class="st10">
					<line class="st7" x1="107.6" y1="79.9" x2="93.7" y2="128.6"/>
					<line class="st7" x1="117.3" y1="82.6" x2="103.3" y2="131.4"/>
					<line class="st7" x1="127" y1="85.4" x2="113" y2="134.2"/>
					<line class="st7" x1="136.7" y1="88.2" x2="122.7" y2="137"/>
					<line class="st7" x1="146.4" y1="91" x2="132.4" y2="139.8"/>
					<line class="st7" x1="112.5" y1="81.3" x2="98.5" y2="130"/>
					<line class="st7" x1="122.2" y1="84" x2="108.2" y2="132.8"/>
					<line class="st7" x1="131.9" y1="86.8" x2="117.9" y2="135.6"/>
					<line class="st7" x1="141.6" y1="89.6" x2="127.6" y2="138.4"/>
					<line class="st7" x1="151.2" y1="92.4" x2="137.3" y2="141.1"/>
				</g>
				<g class="st10">
					<line class="st5" x1="121.5" y1="31.4" x2="107.5" y2="80.2"/>
					<line class="st5" x1="131.2" y1="34.2" x2="117.2" y2="83"/>
					<line class="st5" x1="140.9" y1="37" x2="126.9" y2="85.8"/>
					<line class="st5" x1="150.6" y1="39.8" x2="136.6" y2="88.5"/>
					<line class="st5" x1="160.3" y1="42.5" x2="146.3" y2="91.3"/>
					<line class="st5" x1="126.4" y1="32.8" x2="112.4" y2="81.6"/>
					<line class="st5" x1="136.1" y1="35.6" x2="122.1" y2="84.4"/>
					<line class="st5" x1="145.8" y1="38.4" x2="131.8" y2="87.1"/>
					<line class="st5" x1="155.4" y1="41.1" x2="141.5" y2="89.9"/>
					<line class="st5" x1="165.1" y1="43.9" x2="151.1" y2="92.7"/>
				</g>
				<g class="st10">
					<line class="st7" x1="135.4" y1="-17" x2="121.4" y2="31.8"/>
					<line class="st7" x1="145.1" y1="-14.2" x2="131.1" y2="34.5"/>
					<line class="st7" x1="154.8" y1="-11.5" x2="140.8" y2="37.3"/>
					<line class="st7" x1="164.5" y1="-8.7" x2="150.5" y2="40.1"/>
					<line class="st7" x1="174.2" y1="-5.9" x2="160.2" y2="42.9"/>
					<line class="st7" x1="140.3" y1="-15.6" x2="126.3" y2="33.1"/>
					<line class="st7" x1="150" y1="-12.9" x2="136" y2="35.9"/>
					<line class="st7" x1="159.6" y1="-10.1" x2="145.7" y2="38.7"/>
					<line class="st7" x1="169.3" y1="-7.3" x2="155.3" y2="41.5"/>
					<line class="st7" x1="179" y1="-4.5" x2="165" y2="44.3"/>
				</g>
			</g>
		</g>
		<g class="st0">
			<g>
				<defs>
					
						<rect id="SVGID_17_" x="62.7" y="23" transform="matrix(0.2756 -0.9613 0.9613 0.2756 17.368 119.3878)" width="50.4" height="50.4"/>
				</defs>
				<clipPath id="SVGID_18_">
					<use xlink:href="#SVGID_17_"  style="overflow:visible;"/>
				</clipPath>
				<g class="st11">
					<line class="st7" x1="59.2" y1="66" x2="45.2" y2="114.7"/>
					<line class="st7" x1="68.9" y1="68.7" x2="54.9" y2="117.5"/>
					<line class="st7" x1="78.6" y1="71.5" x2="64.6" y2="120.3"/>
					<line class="st7" x1="88.3" y1="74.3" x2="74.3" y2="123.1"/>
					<line class="st7" x1="98" y1="77.1" x2="84" y2="125.9"/>
					<line class="st7" x1="64.1" y1="67.4" x2="50.1" y2="116.1"/>
					<line class="st7" x1="73.7" y1="70.1" x2="59.8" y2="118.9"/>
					<line class="st7" x1="83.4" y1="72.9" x2="69.4" y2="121.7"/>
					<line class="st7" x1="93.1" y1="75.7" x2="79.1" y2="124.5"/>
					<line class="st7" x1="102.8" y1="78.5" x2="88.8" y2="127.2"/>
				</g>
				<g class="st11">
					<line class="st5" x1="73.1" y1="17.5" x2="59.1" y2="66.3"/>
					<line class="st5" x1="82.8" y1="20.3" x2="68.8" y2="69.1"/>
					<line class="st5" x1="92.5" y1="23.1" x2="78.5" y2="71.9"/>
					<line class="st5" x1="102.2" y1="25.9" x2="88.2" y2="74.6"/>
					<line class="st5" x1="111.8" y1="28.6" x2="97.9" y2="77.4"/>
					<line class="st5" x1="77.9" y1="18.9" x2="64" y2="67.7"/>
					<line class="st5" x1="87.6" y1="21.7" x2="73.6" y2="70.5"/>
					<line class="st5" x1="97.3" y1="24.5" x2="83.3" y2="73.3"/>
					<line class="st5" x1="107" y1="27.3" x2="93" y2="76"/>
					<line class="st5" x1="116.7" y1="30" x2="102.7" y2="78.8"/>
				</g>
				<g class="st11">
					<line class="st7" x1="87" y1="-30.9" x2="73" y2="17.9"/>
					<line class="st7" x1="96.7" y1="-28.1" x2="82.7" y2="20.6"/>
					<line class="st7" x1="106.4" y1="-25.4" x2="92.4" y2="23.4"/>
					<line class="st7" x1="116.1" y1="-22.6" x2="102.1" y2="26.2"/>
					<line class="st7" x1="125.7" y1="-19.8" x2="111.8" y2="29"/>
					<line class="st7" x1="91.8" y1="-29.5" x2="77.8" y2="19.3"/>
					<line class="st7" x1="101.5" y1="-26.7" x2="87.5" y2="22"/>
					<line class="st7" x1="111.2" y1="-24" x2="97.2" y2="24.8"/>
					<line class="st7" x1="120.9" y1="-21.2" x2="106.9" y2="27.6"/>
					<line class="st7" x1="130.6" y1="-18.4" x2="116.6" y2="30.4"/>
				</g>
			</g>
		</g>
	</g>
</g>
</svg>
