<?xml version="1.0" encoding="utf-8"?>
<!-- Generator: Adobe Illustrator 20.1.0, SVG Export Plug-In . SVG Version: 6.00 Build 0)  -->
<svg version="1.1" id="Layer_1" xmlns="http://www.w3.org/2000/svg" xmlns:xlink="http://www.w3.org/1999/xlink" x="0px" y="0px"
	 viewBox="0 0 68.2 68" style="enable-background:new 0 0 68.2 68;" xml:space="preserve">
<style type="text/css">
	.st0{fill:#CCDD61;stroke:#000000;stroke-width:0.25;stroke-miterlimit:10;}
</style>
<path class="st0" d="M57.5,38.1c-3.2-1.7-11.6-3.7-16.7-4.9c-0.4-0.2-0.7-0.3-0.8-0.4l0.4-0.9c0.2-0.5,0.3-0.9,0.5-1.3
	c0.7-1.3,2.4-1.8,3.7-1.1l0,0C63.7,34.5,64.1,9.9,57.9,4.9C51.6,0,45.1,3.2,41.6,7.3c-3.5,4-10.4,19-10.4,19L31,26.6
	c-0.9-1.4-0.9-3.1-0.8-4.4c0.2-2,0.2-4-0.1-6c-0.3-2.2-0.8-4-1.4-5.5c-0.7-2.3-2.1-3.6-2.7-4.1c-0.5-0.4-0.9-0.7-1.4-1
	C15.9,0.6,8.8,8.4,6.9,10.9c-1.9,2.6-5.2,8.7,0,14.4c1.9,2.1,4.3,3.7,6.6,4.9c0,0,0,0,0,0c5.4,2.6,12.7,4.3,14.4,4.6
	c-1.2,1.7-4.6,4.2-4.6,4.2c-1,0.7-5.6-2.9-12.1,0c-3.5,1.6-4.9,5.7-5.1,9.8c-0.2,1.9,0,3.8,0.4,5.5c0.3,1.4,0.7,2.7,1.1,3.6
	c2.2,4.5,4,9.6,11.8,6.1C24.7,61.7,29,51.6,31.3,45c0.3-0.9,0.7-1.8,1.1-2.6c0.8-1.7,1.4-2.9,1.6-3.4c2,1,2.6,3.1,2.6,4.7
	c0.1,1.3-0.2,2.6-0.7,3.8c-1,2.6-1.9,3.6-3.4,6.2c-2.9,5.1,5.1,12.3,8.2,12.6c10.8,1,19.7-8.9,21.7-13.1
	C65.8,45.9,62.2,40.6,57.5,38.1z"/>
</svg>
