<svg enable-background="new 0 0 106 62.8" viewBox="0 0 106 62.8" xmlns="http://www.w3.org/2000/svg"><path d="m102.7 54.2-97.1 5.8-2.7-51.7 97.1-5.8-13.8 28.8z" fill="#aff9af" stroke="#231f20" stroke-miterlimit="10"/><g fill="#231f20"><path d="m11.4 27.2-.6-8.4 3.8-.3.5 8.1c.1 1.2.9 1.9 2.1 1.8s1.9-.9 1.9-2.1l-.5-8 3.7-.2.6 8.4c.2 3.1-1.9 5.2-5.4 5.4-3.6.2-5.9-1.6-6.1-4.7z"/><path d="m33.8 23.9.4 6.5-3.5.2-.4-5.2c-.1-.8-.4-1.2-1.1-1.1-.3 0-.6.1-1 .3l.4 6.2-3.6.2-.6-9.3 3.1-.2.3 1.8h.1c.5-1.5 1.7-2.2 2.7-2.2 1.7-.2 3 .7 3.2 2.8z"/><path d="m45.8 25.7c.2 2.4-1.8 4.1-4.3 4.2l-5.2.3-.9-13.1 4.9-.3c2.4-.2 4 1.2 4.1 3.2.1.9-.5 1.9-1.3 2.5 1.6.6 2.6 1.7 2.7 3.2zm-6.4-6 .2 2.2h.7c.7 0 1.1-.5 1.1-1.2 0-.6-.5-1.1-1.2-1zm1.5 7.5c1-.1 1.5-.5 1.4-1.4s-.6-1.3-1.6-1.2l-1 .1.2 2.6z"/><path d="m47.1 24.9c-.2-3 1.7-5.1 4.7-5.3s5.1 1.7 5.3 4.6c.2 3-1.7 5.1-4.7 5.3s-5.1-1.7-5.3-4.6zm6.6-.5c-.1-1.3-.8-2-1.8-2-1 .1-1.6.9-1.5 2.2s.8 2 1.8 2c1-.1 1.6-.9 1.5-2.2z"/><path d="m64.8 28.4-1.5-2.3-1.2 2.4-3.9.3 2.6-4.9-3.2-4.4 4.1-.3 1.5 2.2 1.1-2.3 3.9-.3-2.6 4.8 3.2 4.5z"/><path d="m16.2 40.3.1 2.2 3.6-.2.2 3-3.5.2.3 4.8-3.7.3-.9-13.1 7.8-.5.2 3z"/><path d="m31.6 45.5-5.9.4c.3.9 1.1 1.2 2.7 1.1 1.2-.1 1.9-.3 2.7-.7l.2 2.6c-.9.5-2 .8-3.4.9-3.3.2-5.4-2-5.6-4.4-.2-3 1.5-5.3 4.7-5.5 2.4-.2 4.3 1.5 4.5 4.6zm-3.2-1.8c-.1-.8-.4-1.4-1.3-1.3-.8.1-1.3.7-1.5 1.5z"/><path d="m33.7 48.9-.2-2.7c.8.4 2.1.6 3.1.5.5 0 .8-.2.7-.5-.1-1.3-3.7.1-3.9-3.5-.1-1.8 1.2-3.3 3.6-3.5.8-.1 2 0 2.6.2l.2 2.6c-.6-.1-1.5-.3-2.3-.2-.7 0-.9.2-.8.6.1 1 3.6-.2 3.9 3.3.2 2.3-1.7 3.4-3.6 3.5-1.1.2-2.3 0-3.3-.3z"/><path d="m48.3 45.4.2 2.8c-.5.2-1 .3-1.8.4-2.2.1-3.6-1.1-3.7-2.9l-.3-3.6-1.1.1-.2-2.9 1.1-.1-.2-2.5 3.5-.6.2 2.9 1.7-.1.2 2.9-1.7.1.2 2.5c.1 1 .4 1.2 1 1.2.4-.1.6-.1.9-.2z"/><path d="m49.1 35.5c-.1-.8 1-2.1 1.8-2.1.8-.1 2 1 2.1 1.9s-1 2.1-1.8 2.1-2-1-2.1-1.9zm.5 3.3 3.5-.2.6 9.3-3.5.2z"/><path d="m64.1 37.8-2.8 9.6-2.9.2-4.1-9.1 3.3-.2 1.2 2.5c.4.8.6 1.4.8 2.5.1-1.2.3-1.7.6-2.6l.7-2.6z"/><path d="m74.6 44.1.2 2.3c-.3.2-.6.2-1.1.3-1.3.1-2.3-.6-2.4-1.6h-.1c-.3 1.4-1.5 2-2.6 2.1-1.8.1-3-1.2-3.1-2.7-.1-1.7.6-2.8 2-3.2l2.8-.8c-.1-.5-.6-.8-1.4-.7-1.2.1-2.4.5-3.1.9l-.2-2.7c.9-.5 2.4-.8 3.9-.9 2.7-.2 4.2.9 4.4 3.6l.2 3c0 .3.2.5.5.4-.2.1-.1.1 0 0zm-4.1.1-.1-1.7-1.4.3c-.1 0-.4.3-.3.9 0 .5.3.8.9.8.4 0 .7-.2.9-.3z"/><path d="m80.8 43.2.2 2.8c-.4.2-.9.3-1.6.4-2 .1-3.1-.9-3.2-2.7l-.7-10.6 3.5-.7.7 10.2c0 .6.3.8.8.8 0-.1.1-.1.3-.2z"/></g></svg>