<?xml version="1.0" encoding="utf-8"?>
<!-- Generator: Adobe Illustrator 20.1.0, SVG Export Plug-In . SVG Version: 6.00 Build 0)  -->
<svg version="1.1" id="Layer_1" xmlns="http://www.w3.org/2000/svg" xmlns:xlink="http://www.w3.org/1999/xlink" x="0px" y="0px"
	 viewBox="0 0 68.2 68" style="enable-background:new 0 0 68.2 68;" xml:space="preserve">
<style type="text/css">
	.st0{fill:#8BB1DE;}
	.st1{fill:#503433;}
	.st2{fill:#B9BABB;}
	.st3{fill:#FBF7EC;}
</style>
<g>
	<path class="st0" d="M30.3,25.5c0,0,6.8-14.9,10.3-18.9s10-7.3,16.2-2.3c6.2,4.9,5.9,29.5-13.3,24.6c0,0-6.5-3.2-8.5,2.6h-0.7
		l-4.9-4.9L30.3,25.5z"/>
	<path class="st1" d="M35,31.7h-0.7c-0.1,0-0.1,0-0.2-0.1l-4.9-4.9c-0.1-0.1-0.1-0.2,0-0.4l0.8-1.1c0.4-0.9,6.9-15,10.4-19
		C44.4,1.8,51-0.7,57,4c1.8,1.4,3.1,4.5,3.6,8.3c0.4,3.9-0.2,7.9-1.7,11c-3.8,7.6-11.2,6.9-15.4,5.9c0,0,0,0-0.1,0
		c0,0-3.1-1.5-5.6-0.5c-1.2,0.5-2,1.5-2.5,3C35.3,31.6,35.2,31.7,35,31.7z M34.5,31.2h0.3c0.6-1.5,1.5-2.6,2.8-3.1
		c2.6-1.1,5.7,0.4,6,0.5c6.8,1.7,12-0.2,14.7-5.6c3.2-6.5,1.7-15.8-1.7-18.5c-3.8-3-10.2-4.2-15.8,2.3c-3.4,3.9-10.2,18.7-10.3,18.9
		c0,0,0,0,0,0.1l-0.7,0.9L34.5,31.2z M30.3,25.5L30.3,25.5L30.3,25.5z"/>
</g>
<g>
	<path class="st0" d="M35.6,31.6c0,0,16.1,3.2,20.8,5.7s8.3,7.8,4.9,14.9c-2,4.3-10.9,14.1-21.6,13.1c-3.1-0.3-11.1-7.5-8.2-12.6
		c1.7-2.9,3.8-4.3,3.8-7.5c0,0,1.7-7.1-4.5-7.7l0-0.5l3.6-5.9L35.6,31.6z"/>
	<path class="st1" d="M41.3,65.7c-0.5,0-1.1,0-1.6-0.1c-2.1-0.2-6.3-3.5-8.1-7c-1.1-2.2-1.2-4.3-0.3-6c0.5-0.9,1.1-1.7,1.6-2.4
		c1.1-1.5,2.1-2.9,2.2-5c0,0,0,0,0-0.1c0,0,0.8-3.4-0.8-5.6c-0.7-1-1.9-1.6-3.5-1.8c-0.1,0-0.2-0.1-0.2-0.2L30.5,37
		c0-0.1,0-0.1,0-0.2l3.6-5.9c0.1-0.1,0.2-0.2,0.3-0.1l1.2,0.5c1,0.2,16.2,3.3,20.8,5.7c4.7,2.5,8.6,7.8,5.1,15.3
		C59.9,56,51.8,65.7,41.3,65.7z M35.6,45.3c-0.1,2.3-1.1,3.7-2.3,5.3c-0.5,0.7-1.1,1.5-1.6,2.4c-1.1,1.9-0.5,4,0.3,5.5
		c1.3,2.5,5.1,6.5,7.7,6.7c0.5,0.1,1.1,0.1,1.6,0.1c10.3,0,18.1-9.5,19.8-13c3.3-7.1-0.3-12.2-4.8-14.6C51.7,35.3,35.8,32,35.6,32
		c0,0,0,0-0.1,0l-1-0.5L31.1,37l0.1,0.3c1.6,0.2,2.9,0.9,3.7,2C36.4,41.6,35.7,45,35.6,45.3z"/>
</g>
<g>
	<path class="st0" d="M32.2,38.2c0,0-5.8,21.4-13.6,24.9S9,61.5,6.8,57s-3-15.9,3.5-18.8c6.5-2.9,11.1,0.7,12.1,0H32.2z"/>
	<path class="st1" d="M14,64.6c-3.9,0-5.5-3.3-7.1-6.6c-0.1-0.3-0.3-0.5-0.4-0.8C4.9,53.9,4.2,47.5,5.9,43c0.9-2.4,2.3-4.1,4.3-5
		c4.5-2,8.2-0.9,10.3-0.3c0.8,0.2,1.5,0.5,1.7,0.3c0,0,0.1,0,0.2,0h9.8c0.1,0,0.2,0,0.2,0.1c0.1,0.1,0.1,0.2,0,0.2
		c0,0.1-1.5,5.4-3.9,11.2c-3.3,7.8-6.6,12.4-9.9,13.9C16.8,64.2,15.3,64.6,14,64.6z M15.5,37.3c-1.5,0-3.2,0.3-5.1,1.1
		c-1.8,0.8-3.2,2.4-4,4.7C4.8,47.6,5.5,53.8,7,57c0.1,0.3,0.3,0.5,0.4,0.8c2,4.3,4,8.3,11,5.1S31,41.2,31.8,38.5h-9.4
		c-0.4,0.2-1.1,0-2.1-0.3C19.1,37.9,17.5,37.3,15.5,37.3z"/>
</g>
<g>
	<path class="st0" d="M20.5,32.6c0,0-9.3-2.3-14.4-8c-5.2-5.7-1.9-11.8,0-14.4s9.6-11,18.7-4.4c0,0,7.6,4.9,0,16.3
		c0,0-1.5,3.4,0.1,5.1L20.5,32.6z"/>
	<path class="st1" d="M20.5,32.9C20.4,32.9,20.4,32.9,20.5,32.9c-0.2,0-9.5-2.4-14.6-8.1c-5.6-6.2-1.4-12.8,0-14.7
		C6.5,9.1,9,6,12.6,4.3c4.2-2,8.3-1.6,12.3,1.3c0.1,0.1,2.6,1.7,3.3,5.2c0.7,3.3-0.4,7.2-3.2,11.4c-0.1,0.3-1.4,3.3,0,4.8
		c0.1,0.1,0.1,0.2,0,0.4l-4.3,5.4C20.6,32.8,20.5,32.9,20.5,32.9z M17.7,3.6c-1.6,0-3.3,0.4-4.9,1.2c-3.5,1.7-5.9,4.7-6.6,5.6
		c-5.2,7-1.7,12.1,0,14c4.7,5.2,12.9,7.6,14.1,7.9l4-5.1c-1.5-1.9,0-5.1,0-5.2l0,0c2.8-4.1,3.8-7.8,3.2-11c-0.6-3.4-2.9-5-3-5
		C22.3,4.4,20,3.6,17.7,3.6z"/>
</g>
<g>
	<ellipse class="st2" cx="28.6" cy="32.6" rx="5.9" ry="7.1"/>
	<path class="st1" d="M28.6,40c-3.4,0-6.1-3.3-6.1-7.4s2.8-7.4,6.1-7.4c3.4,0,6.1,3.3,6.1,7.4S32,40,28.6,40z M28.6,25.7
		c-3.1,0-5.6,3.1-5.6,6.9s2.5,6.9,5.6,6.9s5.6-3.1,5.6-6.9S31.7,25.7,28.6,25.7z"/>
</g>
<g>
	<ellipse class="st3" cx="26.3" cy="32.6" rx="5.9" ry="7.1"/>
	<path class="st1" d="M26.3,40c-3.4,0-6.1-3.3-6.1-7.4s2.8-7.4,6.1-7.4c3.4,0,6.1,3.3,6.1,7.4C32.5,36.7,29.7,40,26.3,40z
		 M26.3,25.7c-3.1,0-5.6,3.1-5.6,6.9s2.5,6.9,5.6,6.9s5.6-3.1,5.6-6.9S29.4,25.7,26.3,25.7z"/>
</g>
<g>
	<ellipse class="st3" cx="26.3" cy="32.6" rx="4" ry="4.8"/>
	<path class="st1" d="M26.3,37.7c-2.3,0-4.2-2.3-4.2-5.1s1.9-5.1,4.2-5.1s4.2,2.3,4.2,5.1C30.6,35.4,28.7,37.7,26.3,37.7z
		 M26.3,28.1c-2,0-3.7,2-3.7,4.5s1.7,4.5,3.7,4.5s3.7-2,3.7-4.5S28.4,28.1,26.3,28.1z"/>
</g>
</svg>
