<?xml version="1.0" encoding="utf-8"?>
<!-- Generator: Adobe Illustrator 20.1.0, SVG Export Plug-In . SVG Version: 6.00 Build 0)  -->
<svg version="1.1" id="Layer_1" xmlns="http://www.w3.org/2000/svg" xmlns:xlink="http://www.w3.org/1999/xlink" x="0px" y="0px"
	 viewBox="0 0 312.9 246.6" style="enable-background:new 0 0 312.9 246.6;" xml:space="preserve">
<style type="text/css">
	.st0{fill:none;stroke:#000000;stroke-width:6;stroke-miterlimit:10;}
	.st1{fill:none;stroke:#EC5445;stroke-width:4;stroke-miterlimit:10;}
	.st2{fill:none;stroke:#A91E22;stroke-width:4;stroke-miterlimit:10;}
	.st3{fill:#8DB2DE;stroke:#8DB2DE;}
	.st4{fill:#231F20;}
	.st5{fill:#513534;stroke:#513534;stroke-width:1.5777;stroke-linecap:round;stroke-linejoin:round;stroke-miterlimit:10;}
	.st6{fill:#513534;stroke:#513534;stroke-width:1.6313;stroke-linecap:round;stroke-linejoin:round;stroke-miterlimit:10;}
	.st7{fill:#513534;stroke:#513534;}
	.st8{fill:#E2C7CF;}
	.st9{fill:#8CB1DE;}
	.st10{fill:#B4DBB4;}
	.st11{fill:#F37E65;}
	.st12{fill:#FCF7EC;}
	.st13{fill:#E9C189;}
	.st14{fill:#CCDD61;}
	.st15{fill:#EC5244;}
	.st16{fill:#AFF9AF;}
	.st17{clip-path:url(#SVGID_2_);fill:#EC5244;}
	.st18{clip-path:url(#SVGID_4_);fill:#AFF9AF;}
	.st19{clip-path:url(#SVGID_6_);fill:#8CB1DE;}
	.st20{fill:#D7C18E;}
	.st21{fill:#503433;}
	.st22{clip-path:url(#SVGID_8_);}
	.st23{clip-path:url(#SVGID_10_);}
	.st24{fill:#221F1F;}
	.st25{clip-path:url(#SVGID_12_);}
	.st26{clip-path:url(#SVGID_14_);}
	.st27{clip-path:url(#SVGID_16_);}
	.st28{clip-path:url(#SVGID_18_);}
	.st29{clip-path:url(#SVGID_20_);}
</style>
<line class="st0" x1="18" y1="113.2" x2="18.1" y2="150.6"/>
<line class="st0" x1="37.7" y1="84.4" x2="35.9" y2="180.2"/>
<line class="st0" x1="57.5" y1="67" x2="54.9" y2="195.1"/>
<line class="st0" x1="75.9" y1="53.9" x2="73.6" y2="202.4"/>
<line class="st0" x1="95.6" y1="46.4" x2="92.7" y2="201.7"/>
<line class="st0" x1="113.4" y1="39.6" x2="111.1" y2="202.4"/>
<line class="st0" x1="132.5" y1="35.1" x2="130.2" y2="201.5"/>
<line class="st0" x1="151" y1="34.7" x2="148.7" y2="201"/>
<line class="st0" x1="169.3" y1="34.6" x2="167.3" y2="198.9"/>
<line class="st0" x1="187.1" y1="38" x2="185.7" y2="197.1"/>
<line class="st0" x1="206.5" y1="42.5" x2="205.4" y2="193.6"/>
<line class="st0" x1="225" y1="48.3" x2="223.6" y2="188.1"/>
<line class="st0" x1="244.3" y1="54" x2="243.2" y2="184.4"/>
<line class="st0" x1="263" y1="61.5" x2="262.2" y2="179.3"/>
<line class="st0" x1="281.9" y1="76.8" x2="281.4" y2="165.8"/>
<line class="st0" x1="300.1" y1="99.1" x2="299.8" y2="146.6"/>
</svg>
