<?xml version="1.0" encoding="utf-8"?>
<!-- Generator: Adobe Illustrator 20.1.0, SVG Export Plug-In . SVG Version: 6.00 Build 0)  -->
<svg version="1.1" id="Layer_1" xmlns="http://www.w3.org/2000/svg" xmlns:xlink="http://www.w3.org/1999/xlink" x="0px" y="0px"
	 viewBox="0 0 344.3 328.5" style="enable-background:new 0 0 344.3 328.5;" xml:space="preserve">
<style type="text/css">
	.st0{fill:none;stroke:#A91E22;stroke-width:4;stroke-miterlimit:10;}
	.st1{fill:none;stroke:#EC5445;stroke-width:4;stroke-miterlimit:10;}
	.st2{fill:#8DB2DE;stroke:#8DB2DE;}
	.st3{fill:#231F20;}
	.st4{fill:#513534;stroke:#513534;stroke-width:1.5777;stroke-linecap:round;stroke-linejoin:round;stroke-miterlimit:10;}
	.st5{fill:#513534;stroke:#513534;stroke-width:1.6313;stroke-linecap:round;stroke-linejoin:round;stroke-miterlimit:10;}
	.st6{fill:#513534;stroke:#513534;}
	.st7{fill:#E2C7CF;}
	.st8{fill:#8CB1DE;}
	.st9{fill:#B4DBB4;}
	.st10{fill:#F37E65;}
	.st11{fill:#FCF7EC;}
	.st12{fill:#E9C189;}
	.st13{fill:#CCDD61;}
	.st14{fill:#EC5244;}
	.st15{fill:#AFF9AF;}
	.st16{clip-path:url(#SVGID_2_);fill:#EC5244;}
	.st17{clip-path:url(#SVGID_4_);fill:#AFF9AF;}
	.st18{clip-path:url(#SVGID_6_);fill:#8CB1DE;}
</style>
<g>
	<defs>
		<path id="SVGID_1_" d="M276.3,208.4c-16.1-13.6-73.1-39.3-79.8-42.2l1.8-3.8c8.2-24.8,32.6-11.8,32.6-11.8
			c78.8,20.9,80.2-83.7,54.6-104.6c-25.6-20.9-52.3-7.2-66.7,9.9c-14.4,17.1-42.5,80.4-42.5,80.4l-3.4,4.7l-5.6,6.2
			c-19.8-9.3-8.2-31.2-8.2-31.2C180,37.1,75.4,35.6,54.5,61.2c-20.9,25.6-7.2,52.3,9.9,66.7c17.1,14.4,80.4,42.5,80.4,42.5l1.1,0.8
			c-9.7,17.5-30.4,6.6-30.4,6.6C36.8,157,35.3,261.6,60.9,282.5c25.6,20.9,52.3,7.2,66.7-9.9c14.4-17.1,42.5-80.4,42.5-80.4l2.4-3.3
			c20.9,9.1,9,31.5,9,31.5c-20.9,78.8,83.7,80.2,104.6,54.6C307.1,249.5,293.4,222.8,276.3,208.4"/>
	</defs>
	<clipPath id="SVGID_2_">
		<use xlink:href="#SVGID_1_"  style="overflow:visible;"/>
	</clipPath>
	<polyline class="st16" points="-34.3,339.7 69,-10.1 68.1,-10.4 -35.2,339.4 	"/>
	<polyline class="st16" points="-29.5,339.7 73.8,-10.1 72.8,-10.4 -30.5,339.4 	"/>
	<polyline class="st16" points="-24.3,339.7 79,-10.1 78,-10.4 -25.3,339.4 	"/>
	<polyline class="st16" points="-19.6,339.7 83.7,-10.1 82.8,-10.4 -20.5,339.4 	"/>
	<polyline class="st16" points="-15.1,339.7 88.2,-10.1 87.2,-10.4 -16,339.4 	"/>
	<polyline class="st16" points="-10.3,339.7 93,-10.1 92,-10.4 -11.3,339.4 	"/>
	<polyline class="st16" points="-5.1,339.7 98.2,-10.1 97.2,-10.4 -6.1,339.4 	"/>
	<polyline class="st16" points="-0.4,339.7 102.9,-10.1 102,-10.4 -1.3,339.4 	"/>
	<polyline class="st16" points="5,339.7 108.3,-10.1 107.3,-10.4 4,339.4 	"/>
	<polyline class="st16" points="9.8,339.7 113.1,-10.1 112.1,-10.4 8.8,339.4 	"/>
	<polyline class="st16" points="14.9,339.7 118.2,-10.1 117.3,-10.4 14,339.4 	"/>
	<polyline class="st16" points="19.7,339.7 123,-10.1 122,-10.4 18.8,339.4 	"/>
	<polyline class="st16" points="24.2,339.7 127.5,-10.1 126.5,-10.4 23.2,339.4 	"/>
	<polyline class="st16" points="29,339.7 132.2,-10.1 131.3,-10.4 28,339.4 	"/>
	<polyline class="st16" points="34.1,339.7 137.4,-10.1 136.5,-10.4 33.2,339.4 	"/>
	<polyline class="st16" points="38.9,339.7 142.2,-10.1 141.2,-10.4 37.9,339.4 	"/>
	<polyline class="st16" points="44.3,339.7 147.6,-10.1 146.6,-10.4 43.3,339.4 	"/>
	<polyline class="st16" points="49,339.7 152.3,-10.1 151.4,-10.4 48.1,339.4 	"/>
	<polyline class="st16" points="54.2,339.7 157.5,-10.1 156.6,-10.4 53.3,339.4 	"/>
	<polyline class="st16" points="59,339.7 162.3,-10.1 161.3,-10.4 58,339.4 	"/>
	<polyline class="st16" points="63.5,339.7 166.8,-10.1 165.8,-10.4 62.5,339.4 	"/>
	<polyline class="st16" points="68.2,339.7 171.5,-10.1 170.6,-10.4 67.3,339.4 	"/>
	<polyline class="st16" points="73.4,339.7 176.7,-10.1 175.7,-10.4 72.5,339.4 	"/>
	<polyline class="st16" points="78.2,339.7 181.5,-10.1 180.5,-10.4 77.2,339.4 	"/>
	<polyline class="st16" points="83.5,339.7 186.8,-10.1 185.9,-10.4 82.6,339.4 	"/>
	<polyline class="st16" points="88.3,339.7 191.6,-10.1 190.6,-10.4 87.4,339.4 	"/>
	<polyline class="st16" points="93.5,339.7 196.8,-10.1 195.8,-10.4 92.5,339.4 	"/>
	<polyline class="st16" points="98.3,339.7 201.5,-10.1 200.6,-10.4 97.3,339.4 	"/>
	<polyline class="st16" points="102.7,339.7 206,-10.1 205.1,-10.4 101.8,339.4 	"/>
	<polyline class="st16" points="107.5,339.7 210.8,-10.1 209.8,-10.4 106.5,339.4 	"/>
	<polyline class="st16" points="112.7,339.7 216,-10.1 215,-10.4 111.7,339.4 	"/>
	<polyline class="st16" points="117.5,339.7 220.7,-10.1 219.8,-10.4 116.5,339.4 	"/>
	<polyline class="st16" points="122,339.7 225.3,-10.1 224.4,-10.4 121.1,339.4 	"/>
	<polyline class="st16" points="126.8,339.7 230.1,-10.1 229.1,-10.4 125.9,339.4 	"/>
	<polyline class="st16" points="132,339.7 235.3,-10.1 234.3,-10.4 131,339.4 	"/>
	<polyline class="st16" points="136.8,339.7 240.1,-10.1 239.1,-10.4 135.8,339.4 	"/>
	<polyline class="st16" points="141.2,339.7 244.5,-10.1 243.6,-10.4 140.3,339.4 	"/>
	<polyline class="st16" points="146,339.7 249.3,-10.1 248.3,-10.4 145,339.4 	"/>
	<polyline class="st16" points="151.2,339.7 254.5,-10.1 253.5,-10.4 150.2,339.4 	"/>
	<polyline class="st16" points="156,339.7 259.2,-10.1 258.3,-10.4 155,339.4 	"/>
	<polyline class="st16" points="161.3,339.7 264.6,-10.1 263.6,-10.4 160.4,339.4 	"/>
	<polyline class="st16" points="166.1,339.7 269.4,-10.1 268.4,-10.4 165.1,339.4 	"/>
	<polyline class="st16" points="171.3,339.7 274.6,-10.1 273.6,-10.4 170.3,339.4 	"/>
	<polyline class="st16" points="176,339.7 279.3,-10.1 278.4,-10.4 175.1,339.4 	"/>
	<polyline class="st16" points="180.5,339.7 283.8,-10.1 282.8,-10.4 179.6,339.4 	"/>
	<polyline class="st16" points="185.3,339.7 288.6,-10.1 287.6,-10.4 184.3,339.4 	"/>
	<polyline class="st16" points="190.5,339.7 293.8,-10.1 292.8,-10.4 189.5,339.4 	"/>
	<polyline class="st16" points="195.2,339.7 298.5,-10.1 297.6,-10.4 194.3,339.4 	"/>
	<polyline class="st16" points="200.6,339.7 303.9,-10.1 302.9,-10.4 199.6,339.4 	"/>
	<polyline class="st16" points="205.4,339.7 308.6,-10.1 307.7,-10.4 204.4,339.4 	"/>
	<polyline class="st16" points="210.5,339.7 313.8,-10.1 312.9,-10.4 209.6,339.4 	"/>
	<polyline class="st16" points="215.3,339.7 318.6,-10.1 317.6,-10.4 214.4,339.4 	"/>
	<polyline class="st16" points="219.8,339.7 323.1,-10.1 322.1,-10.4 218.8,339.4 	"/>
	<polyline class="st16" points="224.6,339.7 327.8,-10.1 326.9,-10.4 223.6,339.4 	"/>
	<polyline class="st16" points="229.7,339.7 333,-10.1 332.1,-10.4 228.8,339.4 	"/>
	<polyline class="st16" points="234.5,339.7 337.8,-10.1 336.8,-10.4 233.5,339.4 	"/>
	<polyline class="st16" points="239.9,339.7 343.2,-10.1 342.2,-10.4 238.9,339.4 	"/>
	<polyline class="st16" points="244.6,339.7 347.9,-10.1 347,-10.4 243.7,339.4 	"/>
	<polyline class="st16" points="249.8,339.7 353.1,-10.1 352.1,-10.4 248.9,339.4 	"/>
	<polyline class="st16" points="254.6,339.7 357.9,-10.1 356.9,-10.4 253.6,339.4 	"/>
	<polyline class="st16" points="259.1,339.7 362.3,-10.1 361.4,-10.4 258.1,339.4 	"/>
	<polyline class="st16" points="263.8,339.7 367.1,-10.1 366.2,-10.4 262.9,339.4 	"/>
	<polyline class="st16" points="269,339.7 372.3,-10.1 371.3,-10.4 268.1,339.4 	"/>
	<polyline class="st16" points="273.8,339.7 377.1,-10.1 376.1,-10.4 272.8,339.4 	"/>
</g>
</svg>
