<?xml version="1.0" encoding="utf-8"?>
<!-- Generator: Adobe Illustrator 20.1.0, SVG Export Plug-In . SVG Version: 6.00 Build 0)  -->
<svg version="1.1" id="Layer_1" xmlns="http://www.w3.org/2000/svg" xmlns:xlink="http://www.w3.org/1999/xlink" x="0px" y="0px"
	 viewBox="0 0 36.5 43.4" style="enable-background:new 0 0 36.5 43.4;" xml:space="preserve">
<style type="text/css">
	.st0{clip-path:url(#SVGID_2_);}
	.st1{clip-path:url(#SVGID_4_);}
	.st2{fill:none;stroke:#231F20;stroke-width:1.588;}
	.st3{clip-path:url(#SVGID_6_);}
	.st4{clip-path:url(#SVGID_8_);}
	.st5{clip-path:url(#SVGID_10_);}
</style>
<g>
	<g>
		<defs>
			<path id="SVGID_1_" d="M1.7,12.3C8.3,9.5,13,2.5,21.2,2.8c10.5,0.4,11.3,10,13.4,18.4c2,8.6-9.3,16.8-18.5,19.2
				c-4.4,1.1-10.1-4.8-13-8.9"/>
		</defs>
		<clipPath id="SVGID_2_">
			<use xlink:href="#SVGID_1_"  style="overflow:visible;"/>
		</clipPath>
		<g class="st0">
			<g>
				<defs>
					<polygon id="SVGID_3_" points="58.2,42.6 58.3,91.8 21.2,88.7 21.1,39.5 					"/>
				</defs>
				<clipPath id="SVGID_4_">
					<use xlink:href="#SVGID_3_"  style="overflow:visible;"/>
				</clipPath>
				<g class="st1">
					<line class="st2" x1="23.1" y1="88.7" x2="23.2" y2="138.3"/>
					<line class="st2" x1="30.5" y1="89.3" x2="30.6" y2="139"/>
					<line class="st2" x1="37.9" y1="90" x2="38" y2="139.6"/>
					<line class="st2" x1="45.3" y1="90.6" x2="45.5" y2="140.2"/>
					<line class="st2" x1="52.7" y1="91.2" x2="52.9" y2="140.8"/>
					<line class="st2" x1="26.8" y1="89" x2="26.9" y2="138.7"/>
					<line class="st2" x1="34.2" y1="89.7" x2="34.3" y2="139.3"/>
					<line class="st2" x1="41.6" y1="90.3" x2="41.8" y2="139.9"/>
					<line class="st2" x1="49" y1="90.9" x2="49.2" y2="140.5"/>
					<line class="st2" x1="56.4" y1="91.5" x2="56.6" y2="141.1"/>
				</g>
				<g class="st1">
					<line class="st2" x1="23" y1="39.4" x2="23.1" y2="89.1"/>
					<line class="st2" x1="30.4" y1="40.1" x2="30.5" y2="89.7"/>
					<line class="st2" x1="37.8" y1="40.7" x2="37.9" y2="90.3"/>
					<line class="st2" x1="45.2" y1="41.3" x2="45.3" y2="90.9"/>
					<line class="st2" x1="52.6" y1="41.9" x2="52.7" y2="91.5"/>
					<line class="st2" x1="26.7" y1="39.8" x2="26.8" y2="89.4"/>
					<line class="st2" x1="34.1" y1="40.4" x2="34.2" y2="90"/>
					<line class="st2" x1="41.5" y1="41" x2="41.6" y2="90.6"/>
					<line class="st2" x1="48.9" y1="41.6" x2="49" y2="91.2"/>
					<line class="st2" x1="56.3" y1="42.2" x2="56.4" y2="91.9"/>
				</g>
				<g class="st1">
					<line class="st2" x1="22.9" y1="-9.8" x2="23" y2="39.8"/>
					<line class="st2" x1="30.3" y1="-9.2" x2="30.4" y2="40.4"/>
					<line class="st2" x1="37.7" y1="-8.6" x2="37.8" y2="41"/>
					<line class="st2" x1="45.1" y1="-8" x2="45.2" y2="41.7"/>
					<line class="st2" x1="52.5" y1="-7.3" x2="52.6" y2="42.3"/>
					<line class="st2" x1="26.6" y1="-9.5" x2="26.7" y2="40.1"/>
					<line class="st2" x1="34" y1="-8.9" x2="34.1" y2="40.7"/>
					<line class="st2" x1="41.4" y1="-8.3" x2="41.5" y2="41.3"/>
					<line class="st2" x1="48.8" y1="-7.7" x2="48.9" y2="42"/>
					<line class="st2" x1="56.2" y1="-7" x2="56.3" y2="42.6"/>
				</g>
			</g>
		</g>
		<g class="st0">
			<g>
				<defs>
					<polygon id="SVGID_5_" points="21.1,39.5 21.2,88.7 -15.8,85.6 -15.9,36.4 					"/>
				</defs>
				<clipPath id="SVGID_6_">
					<use xlink:href="#SVGID_5_"  style="overflow:visible;"/>
				</clipPath>
				<g class="st3">
					<line class="st2" x1="-13.9" y1="85.6" x2="-13.8" y2="135.2"/>
					<line class="st2" x1="-6.5" y1="86.2" x2="-6.4" y2="135.9"/>
					<line class="st2" x1="0.9" y1="86.9" x2="1" y2="136.5"/>
					<line class="st2" x1="8.3" y1="87.5" x2="8.4" y2="137.1"/>
					<line class="st2" x1="15.7" y1="88.1" x2="15.8" y2="137.7"/>
					<line class="st2" x1="-10.2" y1="85.9" x2="-10.1" y2="135.6"/>
					<line class="st2" x1="-2.8" y1="86.6" x2="-2.7" y2="136.2"/>
					<line class="st2" x1="4.6" y1="87.2" x2="4.7" y2="136.8"/>
					<line class="st2" x1="12" y1="87.8" x2="12.1" y2="137.4"/>
					<line class="st2" x1="19.4" y1="88.4" x2="19.5" y2="138"/>
				</g>
				<g class="st3">
					<line class="st2" x1="-14.1" y1="36.3" x2="-13.9" y2="86"/>
					<line class="st2" x1="-6.7" y1="37" x2="-6.5" y2="86.6"/>
					<line class="st2" x1="0.7" y1="37.6" x2="0.9" y2="87.2"/>
					<line class="st2" x1="8.2" y1="38.2" x2="8.3" y2="87.8"/>
					<line class="st2" x1="15.6" y1="38.8" x2="15.7" y2="88.4"/>
					<line class="st2" x1="-10.4" y1="36.7" x2="-10.2" y2="86.3"/>
					<line class="st2" x1="-3" y1="37.3" x2="-2.8" y2="86.9"/>
					<line class="st2" x1="4.4" y1="37.9" x2="4.6" y2="87.5"/>
					<line class="st2" x1="11.9" y1="38.5" x2="12" y2="88.1"/>
					<line class="st2" x1="19.3" y1="39.1" x2="19.4" y2="88.8"/>
				</g>
				<g class="st3">
					<line class="st2" x1="-14.2" y1="-12.9" x2="-14.1" y2="36.7"/>
					<line class="st2" x1="-6.8" y1="-12.3" x2="-6.7" y2="37.3"/>
					<line class="st2" x1="0.6" y1="-11.7" x2="0.7" y2="37.9"/>
					<line class="st2" x1="8" y1="-11.1" x2="8.2" y2="38.5"/>
					<line class="st2" x1="15.4" y1="-10.4" x2="15.6" y2="39.2"/>
					<line class="st2" x1="-10.5" y1="-12.6" x2="-10.4" y2="37"/>
					<line class="st2" x1="-3.1" y1="-12" x2="-3" y2="37.6"/>
					<line class="st2" x1="4.3" y1="-11.4" x2="4.4" y2="38.2"/>
					<line class="st2" x1="11.7" y1="-10.8" x2="11.9" y2="38.9"/>
					<line class="st2" x1="19.1" y1="-10.1" x2="19.3" y2="39.5"/>
				</g>
			</g>
		</g>
		<g class="st0">
			<g>
				<defs>
					<polygon id="SVGID_7_" points="58.1,-6.7 58.2,42.6 21.1,39.5 21,-9.8 					"/>
				</defs>
				<clipPath id="SVGID_8_">
					<use xlink:href="#SVGID_7_"  style="overflow:visible;"/>
				</clipPath>
				<g class="st4">
					<line class="st2" x1="23" y1="39.4" x2="23.1" y2="89.1"/>
					<line class="st2" x1="30.4" y1="40.1" x2="30.5" y2="89.7"/>
					<line class="st2" x1="37.8" y1="40.7" x2="37.9" y2="90.3"/>
					<line class="st2" x1="45.2" y1="41.3" x2="45.3" y2="90.9"/>
					<line class="st2" x1="52.6" y1="41.9" x2="52.7" y2="91.5"/>
					<line class="st2" x1="26.7" y1="39.8" x2="26.8" y2="89.4"/>
					<line class="st2" x1="34.1" y1="40.4" x2="34.2" y2="90"/>
					<line class="st2" x1="41.5" y1="41" x2="41.6" y2="90.6"/>
					<line class="st2" x1="48.9" y1="41.6" x2="49" y2="91.2"/>
					<line class="st2" x1="56.3" y1="42.2" x2="56.4" y2="91.9"/>
				</g>
				<g class="st4">
					<line class="st2" x1="22.9" y1="-9.8" x2="23" y2="39.8"/>
					<line class="st2" x1="30.3" y1="-9.2" x2="30.4" y2="40.4"/>
					<line class="st2" x1="37.7" y1="-8.6" x2="37.8" y2="41"/>
					<line class="st2" x1="45.1" y1="-8" x2="45.2" y2="41.7"/>
					<line class="st2" x1="52.5" y1="-7.4" x2="52.6" y2="42.3"/>
					<line class="st2" x1="26.6" y1="-9.5" x2="26.7" y2="40.1"/>
					<line class="st2" x1="34" y1="-8.9" x2="34.1" y2="40.7"/>
					<line class="st2" x1="41.4" y1="-8.3" x2="41.5" y2="41.3"/>
					<line class="st2" x1="48.8" y1="-7.7" x2="48.9" y2="42"/>
					<line class="st2" x1="56.2" y1="-7" x2="56.3" y2="42.6"/>
				</g>
				<g class="st4">
					<line class="st2" x1="22.7" y1="-59.1" x2="22.9" y2="-9.5"/>
					<line class="st2" x1="30.1" y1="-58.5" x2="30.3" y2="-8.9"/>
					<line class="st2" x1="37.5" y1="-57.9" x2="37.7" y2="-8.2"/>
					<line class="st2" x1="45" y1="-57.2" x2="45.1" y2="-7.6"/>
					<line class="st2" x1="52.4" y1="-56.6" x2="52.5" y2="-7"/>
					<line class="st2" x1="26.4" y1="-58.8" x2="26.6" y2="-9.2"/>
					<line class="st2" x1="33.8" y1="-58.2" x2="34" y2="-8.6"/>
					<line class="st2" x1="41.3" y1="-57.6" x2="41.4" y2="-7.9"/>
					<line class="st2" x1="48.7" y1="-56.9" x2="48.8" y2="-7.3"/>
					<line class="st2" x1="56.1" y1="-56.3" x2="56.2" y2="-6.7"/>
				</g>
			</g>
		</g>
		<g class="st0">
			<g>
				<defs>
					<polygon id="SVGID_9_" points="21,-9.8 21.1,39.5 -15.9,36.4 -16.1,-12.9 					"/>
				</defs>
				<clipPath id="SVGID_10_">
					<use xlink:href="#SVGID_9_"  style="overflow:visible;"/>
				</clipPath>
				<g class="st5">
					<line class="st2" x1="-14.1" y1="36.3" x2="-13.9" y2="86"/>
					<line class="st2" x1="-6.7" y1="37" x2="-6.5" y2="86.6"/>
					<line class="st2" x1="0.7" y1="37.6" x2="0.9" y2="87.2"/>
					<line class="st2" x1="8.2" y1="38.2" x2="8.3" y2="87.8"/>
					<line class="st2" x1="15.6" y1="38.8" x2="15.7" y2="88.4"/>
					<line class="st2" x1="-10.4" y1="36.7" x2="-10.2" y2="86.3"/>
					<line class="st2" x1="-3" y1="37.3" x2="-2.8" y2="86.9"/>
					<line class="st2" x1="4.4" y1="37.9" x2="4.6" y2="87.5"/>
					<line class="st2" x1="11.9" y1="38.5" x2="12" y2="88.1"/>
					<line class="st2" x1="19.3" y1="39.1" x2="19.4" y2="88.8"/>
				</g>
				<g class="st5">
					<line class="st2" x1="-14.2" y1="-12.9" x2="-14.1" y2="36.7"/>
					<line class="st2" x1="-6.8" y1="-12.3" x2="-6.7" y2="37.3"/>
					<line class="st2" x1="0.6" y1="-11.7" x2="0.7" y2="37.9"/>
					<line class="st2" x1="8" y1="-11.1" x2="8.2" y2="38.5"/>
					<line class="st2" x1="15.4" y1="-10.4" x2="15.6" y2="39.2"/>
					<line class="st2" x1="-10.5" y1="-12.6" x2="-10.4" y2="37"/>
					<line class="st2" x1="-3.1" y1="-12" x2="-3" y2="37.6"/>
					<line class="st2" x1="4.3" y1="-11.4" x2="4.4" y2="38.2"/>
					<line class="st2" x1="11.7" y1="-10.8" x2="11.9" y2="38.9"/>
					<line class="st2" x1="19.1" y1="-10.1" x2="19.3" y2="39.5"/>
				</g>
				<g class="st5">
					<line class="st2" x1="-14.3" y1="-62.2" x2="-14.2" y2="-12.6"/>
					<line class="st2" x1="-6.9" y1="-61.6" x2="-6.8" y2="-12"/>
					<line class="st2" x1="0.5" y1="-61" x2="0.6" y2="-11.3"/>
					<line class="st2" x1="7.9" y1="-60.3" x2="8" y2="-10.7"/>
					<line class="st2" x1="15.3" y1="-59.7" x2="15.4" y2="-10.1"/>
					<line class="st2" x1="-10.6" y1="-61.9" x2="-10.5" y2="-12.3"/>
					<line class="st2" x1="-3.2" y1="-61.3" x2="-3.1" y2="-11.7"/>
					<line class="st2" x1="4.2" y1="-60.7" x2="4.3" y2="-11"/>
					<line class="st2" x1="11.6" y1="-60" x2="11.7" y2="-10.4"/>
					<line class="st2" x1="19" y1="-59.4" x2="19.1" y2="-9.8"/>
				</g>
			</g>
		</g>
	</g>
</g>
</svg>
