<svg enable-background="new 0 0 202.5 115.3" viewBox="0 0 202.5 115.3" xmlns="http://www.w3.org/2000/svg" xmlns:xlink="http://www.w3.org/1999/xlink"><clipPath id="a"><path d="m54.6 81.6-37 9-23-15 30-42 60-28 65-5 59 33-12 53-54 41-71-17s-17-27-17-29z"/></clipPath><clipPath id="b"><path d="m121.1 94.2c19.4-6.3 22.5-13.9 18.5-19-4.1-5.1-27.6-16.7-27.6-16.7l-.6-.5c14.3-5.3 20.2 1.4 20.2 1.4 26 15 72-12 69.7-20.6-2.3-8.5-20.2-8.2-34-5.5s-53.8 15.8-53.8 15.8l-.8.2c-.6-.4-1.3-.7-2.3-1-2.7-.7-6.5-.7-10.4.1h.2c.3-2.7 9.3-5.7 9.3-5.7 35-8.8 30.1-18 30.1-18-4.5-11.8-34-6.3-42.3-4.4s-25.5 7-26.5 15.9 11.7 16.1 11.7 16.1l14.9-3.2c-3.8.9-7.6 2.4-10.7 4.3-4.2 2.5-6.3 5.2-6.2 7.4l-4.9-1.3c-3.2.3-4.9-6-22.2-6s-36.8 13-41.1 19.1c-4.4 5.8-10.4 12.3 10.3 12.3s70.9-20.8 70.9-20.8c.3-.1.7-.1 1-.2 5 3.9-8.2 9.6-8.2 9.6-2 1.2-4.1 2-6.3 2.7l-9.6-.6s-2.9 2.1-7.7 5.2c-2.4 1-4.2 2.1-5.6 3.5-10.5 6.4-25.7 14.6-40.1 18.6-25.4 7.1-37.6 9.3-50.9 8.3l-11.6 7 30.9 23.5 64.6-6.1 10.4-6.2s-11.4-3.1-8.8-11.2c1.4-4.3 3-11.3 9.2-19.2 18.6 4.6 49.5-1.3 60.3-4.8z"/></clipPath><clipPath id="c"><path d="m174.6 83h27.2v27.2h-27.2z" transform="matrix(.9997 -.0241125 .0241125 .9997 -2.2739 4.5671)"/></clipPath><clipPath id="d"><path d="m147.4 83.6h27.2v27.2h-27.2z" transform="matrix(.9997 -.02413403 .02413403 .9997 -2.2997 3.9142)"/></clipPath><clipPath id="e"><path d="m120.2 84.3h27.2v27.2h-27.2z" transform="matrix(.9997 -.0240499 .0240499 .9997 -2.3154 3.2458)"/></clipPath><clipPath id="f"><path d="m92.9 84.9h27.2v27.2h-27.2z" transform="matrix(.9997 -.02418391 .02418391 .9997 -2.352 2.6058)"/></clipPath><clipPath id="g"><path d="m65.7 85.6h27.2v27.2h-27.2z" transform="matrix(.9997 -.02402646 .02402646 .9997 -2.3605 1.9346)"/></clipPath><clipPath id="h"><path d="m38.5 86.2h27.2v27.2h-27.2z" transform="matrix(.9997 -.02412894 .02412894 .9997 -2.3942 1.2862)"/></clipPath><clipPath id="i"><path d="m174 55.7h27.2v27.2h-27.2z" transform="matrix(.9997 -.02395506 .02395506 .9997 -1.6073 4.5136)"/></clipPath><clipPath id="j"><path d="m146.7 56.4h27.2v27.2h-27.2z" transform="matrix(.9997 -.02411817 .02411817 .9997 -1.6417 3.8879)"/></clipPath><clipPath id="k"><path d="m119.5 57h27.2v27.2h-27.2z" transform="matrix(.9997 -.02416414 .02416414 .9997 -1.6685 3.2376)"/></clipPath><clipPath id="l"><path d="m92.3 57.7h27.2v27.2h-27.2z" transform="matrix(.9997 -.0241341 .0241341 .9997 -1.6902 2.5766)"/></clipPath><clipPath id="m"><path d="m65.1 58.3h27.2v27.2h-27.2z" transform="matrix(.9997 -.02402978 .02402978 .9997 -1.7066 1.9112)"/></clipPath><clipPath id="n"><path d="m37.8 59h27.2v27.2h-27.2z" transform="matrix(.9997 -.02404991 .02404991 .9997 -1.7317 1.2582)"/></clipPath><clipPath id="o"><path d="m10.6 59.7h27.2v27.2h-27.2z" transform="matrix(.9997 -.02421689 .02421689 .9997 -1.7675 .6079)"/></clipPath><clipPath id="p"><path d="m173.3 28.5h27.2v27.2h-27.2z" transform="matrix(.9997 -.02409551 .02409551 .9997 -.9605 4.5165)"/></clipPath><clipPath id="q"><path d="m146.1 29.2h27.2v27.2h-27.2z" transform="matrix(.9997 -.0240499 .0240499 .9997 -.9825 3.8532)"/></clipPath><clipPath id="r"><path d="m118.9 29.8h27.2v27.2h-27.2z" transform="matrix(.9997 -.02412893 .02412893 .9997 -1.0093 3.2091)"/></clipPath><clipPath id="s"><path d="m91.6 30.5h27.2v27.2h-27.2z" transform="matrix(.9997 -.02420679 .02420679 .9997 -1.0363 2.5606)"/></clipPath><clipPath id="t"><path d="m64.4 31.1h27.2v27.2h-27.2z" transform="matrix(.9997 -.02411769 .02411769 .9997 -1.0563 1.8946)"/></clipPath><clipPath id="u"><path d="m37.2 31.8h27.2v27.2h-27.2z" transform="matrix(.9997 -.0241162 .0241162 .9997 -1.0799 1.238)"/></clipPath><clipPath id="v"><path d="m9.9 32.4h27.2v27.2h-27.2z" transform="matrix(.9997 -.02406654 .02406654 .9997 -1.1014 .5803)"/></clipPath><clipPath id="w"><path d="m172.7 1.3h27.2v27.2h-27.2z" transform="matrix(.9997 -.02405187 .02405187 .9997 -.3042 4.4846)"/></clipPath><clipPath id="x"><path d="m145.4 1.9h27.2v27.2h-27.2z" transform="matrix(.9997 -.02409607 .02409607 .9997 -.3284 3.8369)"/></clipPath><clipPath id="y"><path d="m118.2 2.6h27.2v27.2h-27.2z" transform="matrix(.9997 -.02412893 .02412893 .9997 -.3525 3.1853)"/></clipPath><clipPath id="z"><path d="m91 3.2h27.2v27.2h-27.2z" transform="matrix(.9997 -.02396073 .02396073 .9997 -.3738 2.5109)"/></clipPath><clipPath id="A"><path d="m63.7 3.9h27.2v27.2h-27.2z" transform="matrix(.9997 -.02414585 .02414585 .9997 -.4002 1.873)"/></clipPath><clipPath id="B"><path d="m36.5 4.5h27.2v27.2h-27.2z" transform="matrix(.9997 -.02412327 .02412327 .9997 -.4236 1.2146)"/></clipPath><clipPath id="C"><path d="m9.3 5.2h27.2v27.2h-27.2z" transform="matrix(.9997 -.02402079 .02402079 .9997 -.4454 .5556)"/></clipPath><g fill="none"><path d="m188.6 69.6h48.6v48.6h-48.6z" transform="matrix(.2756 -.9613 .9613 .2756 63.9228 272.7231)"/><path d="m141.9 56.2h48.6v48.6h-48.6z" transform="matrix(.2757 -.9612 .9612 .2757 42.996 218.051)"/><path d="m95.1 42.8h48.6v48.6h-48.6z" transform="matrix(.2756 -.9613 .9613 .2756 21.9694 163.4304)"/><path d="m48.4 29.4h48.6v48.6h-48.6z" transform="matrix(.2755 -.9613 .9613 .2755 1.0497 108.7649)"/><path d="m1.6 16h48.6v48.6h-48.6z" transform="matrix(.2756 -.9613 .9613 .2756 -19.9845 54.1346)"/><path d="m-45.1 2.6h48.6v48.6h-48.6z" transform="matrix(.2756 -.9613 .9613 .2756 -40.9023 -.5332)"/><path d="m155.2 9.4h48.6v48.6h-48.6z" transform="matrix(.2756 -.9613 .9613 .2756 97.629 197.0184)"/><path d="m108.6-3.9h48.6v48.6h-48.6z" transform="matrix(.2758 -.9612 .9612 .2758 76.6482 142.4344)"/><path d="m61.8-17.4h48.6v48.7h-48.6z" transform="matrix(.2758 -.9612 .9612 .2758 55.6725 87.7935)"/><path d="m15-30.7h48.6v48.6h-48.6z" transform="matrix(.2756 -.9613 .9613 .2756 34.6443 33.1022)"/><path d="m-31.7-44.2h48.6v48.6h-48.6z" transform="matrix(.2756 -.9613 .9613 .2756 13.7243 -21.5677)"/><g clip-path="url(#a)" stroke="#231f20" stroke-width=".9"><g clip-path="url(#b)"><g clip-path="url(#c)"><path d="m176.3 110.4.7 27.4"/><path d="m181.8 110.3.6 27.4"/><path d="m187.2 110.1.7 27.4"/><path d="m192.7 110 .6 27.4"/><path d="m198.1 109.9.7 27.4"/><path d="m179 110.3.7 27.4"/><path d="m184.5 110.2.6 27.4"/><path d="m189.9 110.1.7 27.4"/><path d="m195.4 109.9.6 27.4"/><path d="m200.8 109.8.7 27.4"/></g><g clip-path="url(#c)"><path d="m175.7 83.2.6 27.4"/><path d="m181.1 83 .7 27.4"/><path d="m186.6 82.9.6 27.4"/><path d="m192 82.8.7 27.4"/><path d="m197.4 82.6.7 27.5"/><path d="m178.4 83.1.6 27.4"/><path d="m183.8 83 .7 27.4"/><path d="m189.3 82.8.6 27.5"/><path d="m194.7 82.7.7 27.4"/><path d="m200.2 82.6.6 27.4"/></g><g clip-path="url(#c)"><path d="m175 55.9.7 27.4"/><path d="m180.5 55.8.6 27.4"/><path d="m185.9 55.7.7 27.4"/><path d="m191.3 55.5.7 27.5"/><path d="m196.8 55.4.6 27.4"/><path d="m177.7 55.9.7 27.4"/><path d="m183.2 55.7.6 27.5"/><path d="m188.6 55.6.7 27.4"/><path d="m194.1 55.5.6 27.4"/><path d="m199.5 55.3.7 27.5"/></g></g><g clip-path="url(#b)"><g clip-path="url(#d)"><path d="m149.1 111 .6 27.5"/><path d="m154.5 110.9.7 27.4"/><path d="m160 110.8.6 27.4"/><path d="m165.4 110.7.7 27.4"/><path d="m170.9 110.5.6 27.4"/><path d="m151.8 111 .7 27.4"/><path d="m157.3 110.8.6 27.5"/><path d="m162.7 110.7.7 27.4"/><path d="m168.1 110.6.7 27.4"/><path d="m173.6 110.5.7 27.4"/></g><g clip-path="url(#d)"><path d="m148.4 83.8.7 27.4"/><path d="m153.9 83.7.6 27.4"/><path d="m159.3 83.6.7 27.4"/><path d="m164.8 83.4.6 27.4"/><path d="m170.2 83.3.7 27.4"/><path d="m151.2 83.8.6 27.4"/><path d="m156.6 83.6.7 27.4"/><path d="m162 83.5.7 27.4"/><path d="m167.5 83.4.6 27.4"/><path d="m172.9 83.2.7 27.4"/></g><g clip-path="url(#d)"><path d="m147.8 56.6.6 27.4"/><path d="m153.2 56.5.7 27.4"/><path d="m158.7 56.3.6 27.4"/><path d="m164.1 56.2.7 27.4"/><path d="m169.6 56.1.6 27.4"/><path d="m150.5 56.5.7 27.4"/><path d="m155.9 56.4.7 27.4"/><path d="m161.4 56.3.6 27.4"/><path d="m166.8 56.1.7 27.4"/><path d="m172.3 56 .6 27.4"/></g></g><g clip-path="url(#b)"><g clip-path="url(#e)"><path d="m121.9 111.7.6 27.4"/><path d="m127.3 111.6.7 27.4"/><path d="m132.7 111.4.7 27.5"/><path d="m138.2 111.3.7 27.4"/><path d="m143.6 111.2.7 27.4"/><path d="m124.6 111.6.6 27.5"/><path d="m130 111.5.7 27.4"/><path d="m135.5 111.4.6 27.4"/><path d="m140.9 111.2.7 27.5"/><path d="m146.4 111.1.6 27.4"/></g><g clip-path="url(#e)"><path d="m121.2 84.5.7 27.4"/><path d="m126.6 84.3.7 27.5"/><path d="m132.1 84.2.7 27.4"/><path d="m137.5 84.1.7 27.4"/><path d="m143 83.9.6 27.5"/><path d="m123.9 84.4.7 27.4"/><path d="m129.4 84.3.6 27.4"/><path d="m134.8 84.1.7 27.5"/><path d="m140.3 84 .6 27.4"/><path d="m145.7 83.9.7 27.4"/></g><g clip-path="url(#e)"><path d="m120.5 57.2.7 27.5"/><path d="m126 57.1.7 27.4"/><path d="m131.4 57 .7 27.4"/><path d="m136.9 56.8.6 27.5"/><path d="m142.3 56.7.7 27.4"/><path d="m123.3 57.2.6 27.4"/><path d="m128.7 57 .7 27.5"/><path d="m134.2 56.9.6 27.4"/><path d="m139.6 56.8.7 27.4"/><path d="m145.1 56.7.6 27.4"/></g></g><g clip-path="url(#b)"><g clip-path="url(#f)"><path d="m94.6 112.4.7 27.4"/><path d="m100.1 112.2.6 27.4"/><path d="m105.5 112.1.7 27.4"/><path d="m111 112 .6 27.4"/><path d="m116.4 111.8.7 27.5"/><path d="m97.4 112.3.6 27.4"/><path d="m102.8 112.2.7 27.4"/><path d="m108.2 112 .7 27.4"/><path d="m113.7 111.9.6 27.4"/><path d="m119.1 111.8.7 27.4"/></g><g clip-path="url(#f)"><path d="m94 85.1.6 27.4"/><path d="m99.4 85 .7 27.4"/><path d="m104.9 84.9.6 27.4"/><path d="m110.3 84.7.7 27.5"/><path d="m115.8 84.6.6 27.4"/><path d="m96.7 85.1.7 27.4"/><path d="m102.1 84.9.7 27.4"/><path d="m107.6 84.8.6 27.4"/><path d="m113 84.7.7 27.4"/><path d="m118.5 84.5.6 27.5"/></g><g clip-path="url(#f)"><path d="m93.3 57.9.7 27.4"/><path d="m98.8 57.8.6 27.4"/><path d="m104.2 57.6.7 27.5"/><path d="m109.7 57.5.6 27.4"/><path d="m115.1 57.4.7 27.4"/><path d="m96 57.8.7 27.5"/><path d="m101.5 57.7.6 27.4"/><path d="m106.9 57.6.7 27.4"/><path d="m112.4 57.4.6 27.5"/><path d="m117.8 57.3.7 27.4"/></g></g><g clip-path="url(#b)"><g clip-path="url(#g)"><path d="m67.4 113 .7 27.4"/><path d="m72.8 112.9.7 27.4"/><path d="m78.3 112.7.7 27.5"/><path d="m83.7 112.6.7 27.4"/><path d="m89.2 112.5.6 27.4"/><path d="m70.1 112.9.7 27.5"/><path d="m75.6 112.8.6 27.4"/><path d="m81 112.7.7 27.4"/><path d="m86.5 112.6.6 27.4"/><path d="m91.9 112.4.7 27.4"/></g><g clip-path="url(#g)"><path d="m66.7 85.8.7 27.4"/><path d="m72.2 85.7.7 27.4"/><path d="m77.6 85.5.7 27.4"/><path d="m83.1 85.4.6 27.4"/><path d="m88.5 85.3.7 27.4"/><path d="m69.5 85.7.6 27.4"/><path d="m74.9 85.6.7 27.4"/><path d="m80.4 85.5.6 27.4"/><path d="m85.8 85.3.7 27.4"/><path d="m91.3 85.2.6 27.4"/></g><g clip-path="url(#g)"><path d="m66.1 58.6.6 27.4"/><path d="m71.5 58.4.7 27.4"/><path d="m77 58.3.6 27.4"/><path d="m82.4 58.2.7 27.4"/><path d="m87.9 58 .6 27.4"/><path d="m68.8 58.5.7 27.4"/><path d="m74.3 58.4.6 27.4"/><path d="m79.7 58.2.7 27.4"/><path d="m85.2 58.1.6 27.4"/><path d="m90.6 58 .7 27.4"/></g></g><g clip-path="url(#b)"><g clip-path="url(#h)"><path d="m40.2 113.7.6 27.4"/><path d="m45.6 113.5.7 27.5"/><path d="m51.1 113.4.6 27.4"/><path d="m56.5 113.3.7 27.4"/><path d="m62 113.1.6 27.5"/><path d="m42.9 113.6.7 27.4"/><path d="m48.3 113.5.7 27.4"/><path d="m53.8 113.3.6 27.5"/><path d="m59.2 113.2.7 27.4"/><path d="m64.7 113.1.6 27.4"/></g><g clip-path="url(#h)"><path d="m39.5 86.4.7 27.5"/><path d="m45 86.3.6 27.4"/><path d="m50.4 86.2.7 27.4"/><path d="m55.9 86 .6 27.5"/><path d="m61.3 85.9.7 27.4"/><path d="m42.2 86.4.7 27.4"/><path d="m47.7 86.2.6 27.5"/><path d="m53.1 86.1.7 27.4"/><path d="m58.6 86 .6 27.4"/><path d="m64 85.8.7 27.5"/></g><g clip-path="url(#h)"><path d="m38.9 59.2.6 27.4"/><path d="m44.3 59.1.7 27.4"/><path d="m49.8 58.9.6 27.5"/><path d="m55.2 58.8.7 27.4"/><path d="m60.6 58.7.7 27.4"/><path d="m41.6 59.1.6 27.5"/><path d="m47 59 .7 27.4"/><path d="m52.5 58.9.6 27.4"/><path d="m57.9 58.8.7 27.4"/><path d="m63.4 58.6.6 27.4"/></g></g><g clip-path="url(#b)"><g clip-path="url(#i)"><path d="m175.7 83.2.6 27.4"/><path d="m181.1 83 .7 27.4"/><path d="m186.6 82.9.6 27.4"/><path d="m192 82.8.7 27.4"/><path d="m197.4 82.6.7 27.5"/><path d="m178.4 83.1.6 27.4"/><path d="m183.8 83 .7 27.4"/><path d="m189.3 82.8.6 27.5"/><path d="m194.7 82.7.7 27.4"/><path d="m200.2 82.6.6 27.4"/></g><g clip-path="url(#i)"><path d="m175 55.9.7 27.4"/><path d="m180.5 55.8.6 27.4"/><path d="m185.9 55.7.7 27.4"/><path d="m191.3 55.5.7 27.5"/><path d="m196.8 55.4.6 27.4"/><path d="m177.7 55.9.7 27.4"/><path d="m183.2 55.7.6 27.5"/><path d="m188.6 55.6.7 27.4"/><path d="m194.1 55.5.6 27.4"/><path d="m199.5 55.3.7 27.5"/></g><g clip-path="url(#i)"><path d="m174.3 28.7.7 27.4"/><path d="m179.8 28.6.7 27.4"/><path d="m185.2 28.4.7 27.5"/><path d="m190.7 28.3.6 27.4"/><path d="m196.1 28.2.7 27.4"/><path d="m177.1 28.6.6 27.5"/><path d="m182.5 28.5.7 27.4"/><path d="m188 28.4.6 27.4"/><path d="m193.4 28.2.7 27.5"/><path d="m198.9 28.1.6 27.4"/></g></g><g clip-path="url(#b)"><g clip-path="url(#j)"><path d="m148.4 83.8.7 27.4"/><path d="m153.9 83.7.6 27.4"/><path d="m159.3 83.6.7 27.4"/><path d="m164.8 83.4.6 27.4"/><path d="m170.2 83.3.7 27.4"/><path d="m151.2 83.7.6 27.5"/><path d="m156.6 83.6.7 27.4"/><path d="m162 83.5.7 27.4"/><path d="m167.5 83.4.7 27.4"/><path d="m172.9 83.2.7 27.4"/></g><g clip-path="url(#j)"><path d="m147.8 56.6.6 27.4"/><path d="m153.2 56.5.7 27.4"/><path d="m158.7 56.3.6 27.4"/><path d="m164.1 56.2.7 27.4"/><path d="m169.6 56.1.6 27.4"/><path d="m150.5 56.5.7 27.4"/><path d="m155.9 56.4.7 27.4"/><path d="m161.4 56.3.6 27.4"/><path d="m166.8 56.1.7 27.4"/><path d="m172.3 56 .6 27.4"/></g><g clip-path="url(#j)"><path d="m147.1 29.4.7 27.4"/><path d="m152.6 29.2.6 27.4"/><path d="m158 29.1.7 27.4"/><path d="m163.5 29 .6 27.4"/><path d="m168.9 28.8.7 27.5"/><path d="m149.8 29.3.7 27.4"/><path d="m155.3 29.2.7 27.4"/><path d="m160.7 29 .7 27.4"/><path d="m166.2 28.9.6 27.4"/><path d="m171.6 28.8.7 27.4"/></g></g><g clip-path="url(#b)"><g clip-path="url(#k)"><path d="m121.2 84.5.7 27.4"/><path d="m126.6 84.3.7 27.5"/><path d="m132.1 84.2.7 27.4"/><path d="m137.5 84.1.7 27.4"/><path d="m143 83.9.6 27.5"/><path d="m123.9 84.4.7 27.4"/><path d="m129.4 84.3.6 27.4"/><path d="m134.8 84.1.7 27.5"/><path d="m140.3 84 .6 27.4"/><path d="m145.7 83.9.7 27.4"/></g><g clip-path="url(#k)"><path d="m120.5 57.2.7 27.5"/><path d="m126 57.1.7 27.4"/><path d="m131.4 57 .7 27.4"/><path d="m136.9 56.8.6 27.5"/><path d="m142.3 56.7.7 27.4"/><path d="m123.3 57.2.6 27.4"/><path d="m128.7 57 .7 27.5"/><path d="m134.2 56.9.6 27.4"/><path d="m139.6 56.8.7 27.4"/><path d="m145.1 56.7.6 27.4"/></g><g clip-path="url(#k)"><path d="m119.9 30 .7 27.4"/><path d="m125.3 29.9.7 27.4"/><path d="m130.8 29.8.6 27.4"/><path d="m136.2 29.6.7 27.4"/><path d="m141.7 29.5.6 27.4"/><path d="m122.6 29.9.7 27.5"/><path d="m128.1 29.8.6 27.4"/><path d="m133.5 29.7.7 27.4"/><path d="m139 29.6.6 27.4"/><path d="m144.4 29.4.7 27.4"/></g></g><g clip-path="url(#b)"><g clip-path="url(#l)"><path d="m94 85.1.6 27.4"/><path d="m99.4 85 .7 27.4"/><path d="m104.9 84.9.6 27.4"/><path d="m110.3 84.7.7 27.5"/><path d="m115.8 84.6.6 27.4"/><path d="m96.7 85.1.7 27.4"/><path d="m102.1 84.9.7 27.4"/><path d="m107.6 84.8.6 27.4"/><path d="m113 84.7.7 27.4"/><path d="m118.5 84.5.6 27.5"/></g><g clip-path="url(#l)"><path d="m93.3 57.9.7 27.4"/><path d="m98.8 57.8.6 27.4"/><path d="m104.2 57.6.7 27.5"/><path d="m109.7 57.5.6 27.4"/><path d="m115.1 57.4.7 27.4"/><path d="m96 57.8.7 27.5"/><path d="m101.5 57.7.6 27.4"/><path d="m106.9 57.6.7 27.4"/><path d="m112.4 57.4.6 27.5"/><path d="m117.8 57.3.7 27.4"/></g><g clip-path="url(#l)"><path d="m92.7 30.7.6 27.4"/><path d="m98.1 30.5.7 27.5"/><path d="m103.6 30.4.6 27.4"/><path d="m109 30.3.7 27.4"/><path d="m114.4 30.1.7 27.5"/><path d="m95.4 30.6.6 27.4"/><path d="m100.8 30.5.7 27.4"/><path d="m106.3 30.3.6 27.5"/><path d="m111.7 30.2.7 27.4"/><path d="m117.2 30.1.6 27.4"/></g></g><g clip-path="url(#b)"><g clip-path="url(#m)"><path d="m66.7 85.8.7 27.4"/><path d="m72.2 85.7.7 27.4"/><path d="m77.6 85.5.7 27.4"/><path d="m83.1 85.4.6 27.4"/><path d="m88.5 85.3.7 27.4"/><path d="m69.5 85.7.6 27.4"/><path d="m74.9 85.6.7 27.4"/><path d="m80.4 85.5.6 27.4"/><path d="m85.8 85.3.7 27.4"/><path d="m91.2 85.2.7 27.4"/></g><g clip-path="url(#m)"><path d="m66.1 58.6.6 27.4"/><path d="m71.5 58.4.7 27.4"/><path d="m77 58.3.6 27.4"/><path d="m82.4 58.2.7 27.4"/><path d="m87.9 58 .6 27.4"/><path d="m68.8 58.5.7 27.4"/><path d="m74.3 58.4.6 27.4"/><path d="m79.7 58.2.7 27.4"/><path d="m85.1 58.1.7 27.4"/><path d="m90.6 58 .7 27.4"/></g><g clip-path="url(#m)"><path d="m65.4 31.3.7 27.4"/><path d="m70.9 31.2.6 27.4"/><path d="m76.3 31.1.7 27.4"/><path d="m81.8 30.9.6 27.4"/><path d="m87.2 30.8.7 27.4"/><path d="m68.2 31.3.6 27.4"/><path d="m73.6 31.1.7 27.4"/><path d="m79 31 .7 27.4"/><path d="m84.5 30.9.7 27.4"/><path d="m89.9 30.7.7 27.5"/></g></g><g clip-path="url(#b)"><g clip-path="url(#n)"><path d="m39.5 86.4.7 27.5"/><path d="m45 86.3.6 27.4"/><path d="m50.4 86.2.7 27.4"/><path d="m55.9 86 .6 27.5"/><path d="m61.3 85.9.7 27.4"/><path d="m42.2 86.4.7 27.4"/><path d="m47.7 86.2.6 27.5"/><path d="m53.1 86.1.7 27.4"/><path d="m58.6 86 .6 27.4"/><path d="m64 85.8.7 27.5"/></g><g clip-path="url(#n)"><path d="m38.9 59.2.6 27.4"/><path d="m44.3 59.1.7 27.4"/><path d="m49.8 58.9.6 27.5"/><path d="m55.2 58.8.7 27.4"/><path d="m60.6 58.7.7 27.4"/><path d="m41.6 59.1.6 27.5"/><path d="m47 59 .7 27.4"/><path d="m52.5 58.9.6 27.4"/><path d="m57.9 58.8.7 27.4"/><path d="m63.4 58.6.6 27.4"/></g><g clip-path="url(#n)"><path d="m38.2 32 .7 27.4"/><path d="m43.7 31.8.6 27.5"/><path d="m49.1 31.7.7 27.4"/><path d="m54.5 31.6.7 27.4"/><path d="m60 31.5.6 27.4"/><path d="m40.9 31.9.7 27.4"/><path d="m46.4 31.8.6 27.4"/><path d="m51.8 31.7.7 27.4"/><path d="m57.3 31.5.6 27.4"/><path d="m62.7 31.4.7 27.4"/></g></g><g clip-path="url(#b)"><g clip-path="url(#o)"><path d="m12.3 87.1.6 27.4"/><path d="m17.7 87 .7 27.4"/><path d="m23.2 86.8.6 27.5"/><path d="m28.6 86.7.7 27.4"/><path d="m34.1 86.6.6 27.4"/><path d="m15 87 .7 27.4"/><path d="m20.5 86.9.6 27.4"/><path d="m25.9 86.8.7 27.4"/><path d="m31.3 86.6.7 27.5"/><path d="m36.8 86.5.7 27.4"/></g><g clip-path="url(#o)"><path d="m11.6 59.9.7 27.4"/><path d="m17.1 59.7.6 27.5"/><path d="m22.5 59.6.7 27.4"/><path d="m28 59.5.6 27.4"/><path d="m33.4 59.3.7 27.5"/><path d="m14.4 59.8.6 27.4"/><path d="m19.8 59.7.7 27.4"/><path d="m25.2 59.5.7 27.5"/><path d="m30.7 59.4.7 27.4"/><path d="m36.1 59.3.7 27.4"/></g><g clip-path="url(#o)"><path d="m11 32.6.6 27.5"/><path d="m16.4 32.5.7 27.4"/><path d="m21.9 32.4.6 27.4"/><path d="m27.3 32.2.7 27.5"/><path d="m32.8 32.1.6 27.4"/><path d="m13.7 32.6.7 27.4"/><path d="m19.1 32.4.7 27.5"/><path d="m24.6 32.3.7 27.4"/><path d="m30 32.2.7 27.4"/><path d="m35.5 32 .6 27.5"/></g></g><g clip-path="url(#b)"><g clip-path="url(#p)"><path d="m175 55.9.7 27.4"/><path d="m180.5 55.8.6 27.4"/><path d="m185.9 55.7.7 27.4"/><path d="m191.3 55.5.7 27.5"/><path d="m196.8 55.4.6 27.4"/><path d="m177.7 55.9.7 27.4"/><path d="m183.2 55.7.6 27.5"/><path d="m188.6 55.6.7 27.4"/><path d="m194.1 55.5.6 27.4"/><path d="m199.5 55.3.7 27.5"/></g><g clip-path="url(#p)"><path d="m174.3 28.7.7 27.4"/><path d="m179.8 28.6.7 27.4"/><path d="m185.2 28.4.7 27.5"/><path d="m190.7 28.3.6 27.4"/><path d="m196.1 28.2.7 27.4"/><path d="m177.1 28.6.6 27.5"/><path d="m182.5 28.5.7 27.4"/><path d="m188 28.4.6 27.4"/><path d="m193.4 28.2.7 27.5"/><path d="m198.9 28.1.6 27.4"/></g><g clip-path="url(#p)"><path d="m173.7 1.5.7 27.4"/><path d="m179.1 1.3.7 27.5"/><path d="m184.6 1.2.6 27.4"/><path d="m190 1.1.7 27.4"/><path d="m195.5.9.6 27.5"/><path d="m176.4 1.4.7 27.4"/><path d="m181.9 1.3.6 27.4"/><path d="m187.3 1.1.7 27.5"/><path d="m192.8 1 .6 27.4"/><path d="m198.2.9.7 27.4"/></g></g><g clip-path="url(#b)"><g clip-path="url(#q)"><path d="m147.8 56.6.6 27.4"/><path d="m153.2 56.5.7 27.4"/><path d="m158.7 56.3.6 27.4"/><path d="m164.1 56.2.7 27.4"/><path d="m169.6 56.1.6 27.4"/><path d="m150.5 56.5.7 27.4"/><path d="m155.9 56.4.7 27.4"/><path d="m161.4 56.3.6 27.4"/><path d="m166.8 56.1.7 27.4"/><path d="m172.3 56 .6 27.4"/></g><g clip-path="url(#q)"><path d="m147.1 29.4.7 27.4"/><path d="m152.6 29.2.6 27.4"/><path d="m158 29.1.7 27.4"/><path d="m163.5 29 .6 27.4"/><path d="m168.9 28.8.7 27.5"/><path d="m149.8 29.3.7 27.4"/><path d="m155.3 29.2.7 27.4"/><path d="m160.7 29 .7 27.4"/><path d="m166.2 28.9.6 27.4"/><path d="m171.6 28.8.7 27.4"/></g><g clip-path="url(#q)"><path d="m146.5 2.1.6 27.4"/><path d="m151.9 2 .7 27.4"/><path d="m157.4 1.9.6 27.4"/><path d="m162.8 1.7.7 27.5"/><path d="m168.2 1.6.7 27.4"/><path d="m149.2 2.1.6 27.4"/><path d="m154.6 1.9.7 27.5"/><path d="m160.1 1.8.6 27.4"/><path d="m165.5 1.7.7 27.4"/><path d="m171 1.5.6 27.5"/></g></g><g clip-path="url(#b)"><g clip-path="url(#r)"><path d="m120.5 57.2.7 27.5"/><path d="m126 57.1.7 27.4"/><path d="m131.4 57 .7 27.4"/><path d="m136.9 56.8.6 27.5"/><path d="m142.3 56.7.7 27.4"/><path d="m123.3 57.2.6 27.4"/><path d="m128.7 57 .7 27.5"/><path d="m134.2 56.9.6 27.4"/><path d="m139.6 56.8.7 27.4"/><path d="m145.1 56.7.6 27.4"/></g><g clip-path="url(#r)"><path d="m119.9 30 .7 27.4"/><path d="m125.3 29.9.7 27.4"/><path d="m130.8 29.8.6 27.4"/><path d="m136.2 29.6.7 27.4"/><path d="m141.7 29.5.6 27.4"/><path d="m122.6 29.9.7 27.5"/><path d="m128.1 29.8.6 27.4"/><path d="m133.5 29.7.7 27.4"/><path d="m139 29.6.6 27.4"/><path d="m144.4 29.4.7 27.4"/></g><g clip-path="url(#r)"><path d="m119.2 2.8.7 27.4"/><path d="m124.7 2.7.6 27.4"/><path d="m130.1 2.5.7 27.4"/><path d="m135.6 2.4.6 27.4"/><path d="m141 2.3.7 27.4"/><path d="m122 2.7.6 27.4"/><path d="m127.4 2.6.7 27.4"/><path d="m132.9 2.5.6 27.4"/><path d="m138.3 2.3.7 27.4"/><path d="m143.7 2.2.7 27.4"/></g></g><g clip-path="url(#b)"><g clip-path="url(#s)"><path d="m93.3 57.9.7 27.4"/><path d="m98.8 57.8.6 27.4"/><path d="m104.2 57.6.7 27.5"/><path d="m109.7 57.5.6 27.4"/><path d="m115.1 57.4.7 27.4"/><path d="m96 57.8.7 27.5"/><path d="m101.5 57.7.6 27.4"/><path d="m106.9 57.6.7 27.4"/><path d="m112.4 57.4.6 27.5"/><path d="m117.8 57.3.7 27.4"/></g><g clip-path="url(#s)"><path d="m92.7 30.7.6 27.4"/><path d="m98.1 30.5.7 27.5"/><path d="m103.6 30.4.6 27.4"/><path d="m109 30.3.7 27.4"/><path d="m114.4 30.1.7 27.5"/><path d="m95.4 30.6.6 27.4"/><path d="m100.8 30.5.7 27.4"/><path d="m106.3 30.3.6 27.5"/><path d="m111.7 30.2.7 27.4"/><path d="m117.2 30.1.6 27.4"/></g><g clip-path="url(#s)"><path d="m92 3.4.7 27.5"/><path d="m97.5 3.3.6 27.4"/><path d="m102.9 3.2.7 27.4"/><path d="m108.3 3 .7 27.5"/><path d="m113.8 2.9.6 27.4"/><path d="m94.7 3.4.7 27.4"/><path d="m100.2 3.2.6 27.5"/><path d="m105.6 3.1.7 27.4"/><path d="m111.1 3 .6 27.4"/><path d="m116.5 2.9.7 27.4"/></g></g><g clip-path="url(#b)"><g clip-path="url(#t)"><path d="m66.1 58.6.6 27.4"/><path d="m71.5 58.4.7 27.4"/><path d="m77 58.3.6 27.4"/><path d="m82.4 58.2.7 27.4"/><path d="m87.9 58 .6 27.4"/><path d="m68.8 58.5.7 27.4"/><path d="m74.3 58.4.6 27.4"/><path d="m79.7 58.2.7 27.4"/><path d="m85.1 58.1.7 27.4"/><path d="m90.6 58 .7 27.4"/></g><g clip-path="url(#t)"><path d="m65.4 31.3.7 27.4"/><path d="m70.9 31.2.6 27.4"/><path d="m76.3 31.1.7 27.4"/><path d="m81.8 30.9.6 27.4"/><path d="m87.2 30.8.7 27.4"/><path d="m68.2 31.3.6 27.4"/><path d="m73.6 31.1.7 27.4"/><path d="m79 31 .7 27.4"/><path d="m84.5 30.9.7 27.4"/><path d="m89.9 30.7.7 27.5"/></g><g clip-path="url(#t)"><path d="m64.8 4.1.6 27.4"/><path d="m70.2 4 .7 27.4"/><path d="m75.7 3.8.6 27.5"/><path d="m81.1 3.7.7 27.4"/><path d="m86.6 3.6.6 27.4"/><path d="m67.5 4 .7 27.5"/><path d="m72.9 3.9.7 27.4"/><path d="m78.4 3.8.7 27.4"/><path d="m83.8 3.6.7 27.5"/><path d="m89.3 3.5.6 27.4"/></g></g><g clip-path="url(#b)"><g clip-path="url(#u)"><path d="m38.9 59.2.6 27.4"/><path d="m44.3 59.1.7 27.4"/><path d="m49.8 58.9.6 27.5"/><path d="m55.2 58.8.7 27.4"/><path d="m60.6 58.7.7 27.4"/><path d="m41.6 59.1.6 27.5"/><path d="m47 59 .7 27.4"/><path d="m52.5 58.9.6 27.4"/><path d="m57.9 58.8.7 27.4"/><path d="m63.4 58.6.6 27.4"/></g><g clip-path="url(#u)"><path d="m38.2 32 .7 27.4"/><path d="m43.7 31.8.6 27.5"/><path d="m49.1 31.7.7 27.4"/><path d="m54.5 31.6.7 27.4"/><path d="m60 31.5.6 27.4"/><path d="m40.9 31.9.7 27.4"/><path d="m46.4 31.8.6 27.4"/><path d="m51.8 31.7.7 27.4"/><path d="m57.3 31.5.6 27.4"/><path d="m62.7 31.4.7 27.4"/></g><g clip-path="url(#u)"><path d="m37.5 4.8.7 27.4"/><path d="m43 4.6.7 27.4"/><path d="m48.4 4.5.7 27.4"/><path d="m53.9 4.4.6 27.4"/><path d="m59.3 4.2.7 27.4"/><path d="m40.3 4.7.6 27.4"/><path d="m45.7 4.6.7 27.4"/><path d="m51.2 4.4.6 27.4"/><path d="m56.6 4.3.7 27.4"/><path d="m62.1 4.2.6 27.4"/></g></g><g clip-path="url(#b)"><g clip-path="url(#v)"><path d="m11.6 59.9.7 27.4"/><path d="m17.1 59.7.6 27.5"/><path d="m22.5 59.6.7 27.4"/><path d="m28 59.5.6 27.4"/><path d="m33.4 59.3.7 27.5"/><path d="m14.4 59.8.6 27.4"/><path d="m19.8 59.7.7 27.4"/><path d="m25.2 59.5.7 27.5"/><path d="m30.7 59.4.7 27.4"/><path d="m36.1 59.3.7 27.4"/></g><g clip-path="url(#v)"><path d="m11 32.6.6 27.5"/><path d="m16.4 32.5.7 27.4"/><path d="m21.9 32.4.6 27.4"/><path d="m27.3 32.2.7 27.5"/><path d="m32.8 32.1.6 27.4"/><path d="m13.7 32.6.7 27.4"/><path d="m19.1 32.4.7 27.5"/><path d="m24.6 32.3.7 27.4"/><path d="m30 32.2.7 27.4"/><path d="m35.5 32 .6 27.5"/></g><g clip-path="url(#v)"><path d="m10.3 5.4.7 27.4"/><path d="m15.8 5.3.6 27.4"/><path d="m21.2 5.1.7 27.5"/><path d="m26.7 5 .6 27.4"/><path d="m32.1 4.9.7 27.4"/><path d="m13 5.3.7 27.5"/><path d="m18.5 5.2.6 27.4"/><path d="m23.9 5.1.7 27.4"/><path d="m29.4 4.9.6 27.5"/><path d="m34.8 4.8.7 27.4"/></g></g><g clip-path="url(#b)"><g clip-path="url(#w)"><path d="m174.3 28.7.7 27.4"/><path d="m179.8 28.6.7 27.4"/><path d="m185.2 28.4.7 27.5"/><path d="m190.7 28.3.6 27.4"/><path d="m196.1 28.2.7 27.4"/><path d="m177.1 28.6.6 27.5"/><path d="m182.5 28.5.7 27.4"/><path d="m188 28.4.6 27.4"/><path d="m193.4 28.2.7 27.5"/><path d="m198.9 28.1.6 27.4"/></g><g clip-path="url(#w)"><path d="m173.7 1.5.7 27.4"/><path d="m179.1 1.3.7 27.5"/><path d="m184.6 1.2.6 27.4"/><path d="m190 1.1.7 27.4"/><path d="m195.5 1 .6 27.4"/><path d="m176.4 1.4.7 27.4"/><path d="m181.9 1.3.6 27.4"/><path d="m187.3 1.1.7 27.5"/><path d="m192.8 1 .6 27.4"/><path d="m198.2.9.7 27.4"/></g><g clip-path="url(#w)"><path d="m173-25.8.7 27.5"/><path d="m178.5-25.9.6 27.4"/><path d="m183.9-26 .7 27.4"/><path d="m189.4-26.1.6 27.4"/><path d="m194.8-26.3.7 27.4"/><path d="m175.8-25.8.6 27.4"/><path d="m181.2-26 .7 27.5"/><path d="m186.7-26.1.6 27.4"/><path d="m192.1-26.2.7 27.4"/><path d="m197.5-26.3.7 27.4"/></g></g><g clip-path="url(#b)"><g clip-path="url(#x)"><path d="m147.1 29.4.7 27.4"/><path d="m152.6 29.2.6 27.4"/><path d="m158 29.1.7 27.4"/><path d="m163.5 29 .6 27.4"/><path d="m168.9 28.8.7 27.5"/><path d="m149.8 29.3.7 27.4"/><path d="m155.3 29.2.7 27.4"/><path d="m160.7 29 .7 27.5"/><path d="m166.2 28.9.6 27.4"/><path d="m171.6 28.8.7 27.4"/></g><g clip-path="url(#x)"><path d="m146.5 2.1.6 27.4"/><path d="m151.9 2 .7 27.4"/><path d="m157.4 1.9.6 27.4"/><path d="m162.8 1.7.7 27.5"/><path d="m168.2 1.6.7 27.4"/><path d="m149.2 2.1.6 27.4"/><path d="m154.6 1.9.7 27.5"/><path d="m160.1 1.8.6 27.4"/><path d="m165.5 1.7.7 27.4"/><path d="m171 1.5.6 27.5"/></g><g clip-path="url(#x)"><path d="m145.8-25.1.7 27.4"/><path d="m151.3-25.2.6 27.4"/><path d="m156.7-25.4.7 27.5"/><path d="m162.1-25.5.7 27.4"/><path d="m167.6-25.6.7 27.4"/><path d="m148.5-25.2.7 27.5"/><path d="m154-25.3.6 27.4"/><path d="m159.4-25.4.7 27.4"/><path d="m164.9-25.6.6 27.5"/><path d="m170.3-25.7.7 27.4"/></g></g><g clip-path="url(#b)"><g clip-path="url(#y)"><path d="m119.9 30 .7 27.4"/><path d="m125.3 29.9.7 27.4"/><path d="m130.8 29.8.6 27.4"/><path d="m136.2 29.6.7 27.4"/><path d="m141.7 29.5.6 27.4"/><path d="m122.6 29.9.7 27.5"/><path d="m128.1 29.8.6 27.4"/><path d="m133.5 29.7.7 27.4"/><path d="m139 29.6.6 27.4"/><path d="m144.4 29.4.7 27.4"/></g><g clip-path="url(#y)"><path d="m119.2 2.8.7 27.4"/><path d="m124.7 2.7.6 27.4"/><path d="m130.1 2.5.7 27.4"/><path d="m135.6 2.4.6 27.4"/><path d="m141 2.3.7 27.4"/><path d="m122 2.7.6 27.4"/><path d="m127.4 2.6.7 27.4"/><path d="m132.9 2.5.6 27.4"/><path d="m138.3 2.3.7 27.4"/><path d="m143.7 2.2.7 27.4"/></g><g clip-path="url(#y)"><path d="m118.6-24.4.6 27.4"/><path d="m124-24.6.7 27.4"/><path d="m129.5-24.7.6 27.4"/><path d="m134.9-24.8.7 27.4"/><path d="m140.4-25 .6 27.4"/><path d="m121.3-24.5.7 27.4"/><path d="m126.7-24.6.7 27.4"/><path d="m132.2-24.8.7 27.4"/><path d="m137.6-24.9.7 27.4"/><path d="m143.1-25 .6 27.4"/></g></g><g clip-path="url(#b)"><g clip-path="url(#z)"><path d="m92.7 30.7.6 27.4"/><path d="m98.1 30.5.7 27.5"/><path d="m103.6 30.4.6 27.4"/><path d="m109 30.3.7 27.4"/><path d="m114.4 30.1.7 27.5"/><path d="m95.4 30.6.6 27.4"/><path d="m100.8 30.5.7 27.4"/><path d="m106.3 30.3.6 27.5"/><path d="m111.7 30.2.7 27.4"/><path d="m117.2 30.1.6 27.4"/></g><g clip-path="url(#z)"><path d="m92 3.4.7 27.5"/><path d="m97.5 3.3.6 27.4"/><path d="m102.9 3.2.7 27.4"/><path d="m108.3 3 .7 27.5"/><path d="m113.8 2.9.6 27.4"/><path d="m94.7 3.4.7 27.4"/><path d="m100.2 3.2.6 27.5"/><path d="m105.6 3.1.7 27.4"/><path d="m111.1 3 .6 27.4"/><path d="m116.5 2.9.7 27.4"/></g><g clip-path="url(#z)"><path d="m91.4-23.8.6 27.4"/><path d="m96.8-23.9.7 27.4"/><path d="m102.2-24 .7 27.4"/><path d="m107.7-24.2.6 27.4"/><path d="m113.1-24.3.7 27.4"/><path d="m94.1-23.9.6 27.5"/><path d="m99.5-24 .7 27.4"/><path d="m105-24.1.6 27.4"/><path d="m110.4-24.2.7 27.4"/><path d="m115.9-24.4.6 27.4"/></g></g><g clip-path="url(#b)"><g clip-path="url(#A)"><path d="m65.4 31.3.7 27.4"/><path d="m70.9 31.2.6 27.4"/><path d="m76.3 31.1.7 27.4"/><path d="m81.8 30.9.6 27.4"/><path d="m87.2 30.8.7 27.4"/><path d="m68.2 31.3.6 27.4"/><path d="m73.6 31.1.7 27.4"/><path d="m79 31 .7 27.4"/><path d="m84.5 30.9.7 27.4"/><path d="m89.9 30.7.7 27.5"/></g><g clip-path="url(#A)"><path d="m64.8 4.1.6 27.4"/><path d="m70.2 4 .7 27.4"/><path d="m75.7 3.8.6 27.5"/><path d="m81.1 3.7.7 27.4"/><path d="m86.6 3.6.6 27.4"/><path d="m67.5 4 .7 27.4"/><path d="m72.9 3.9.7 27.4"/><path d="m78.4 3.8.7 27.4"/><path d="m83.8 3.6.7 27.5"/><path d="m89.3 3.5.6 27.4"/></g><g clip-path="url(#A)"><path d="m64.1-23.1.7 27.4"/><path d="m69.6-23.3.6 27.5"/><path d="m75-23.4.7 27.4"/><path d="m80.5-23.5.6 27.4"/><path d="m85.9-23.7.7 27.5"/><path d="m66.8-23.2.7 27.4"/><path d="m72.3-23.3.7 27.4"/><path d="m77.7-23.5.7 27.5"/><path d="m83.2-23.6.6 27.4"/><path d="m88.6-23.7.7 27.4"/></g></g><g clip-path="url(#b)"><g clip-path="url(#B)"><path d="m38.2 32 .7 27.4"/><path d="m43.7 31.8.6 27.5"/><path d="m49.1 31.7.7 27.4"/><path d="m54.5 31.6.7 27.4"/><path d="m60 31.5.6 27.4"/><path d="m40.9 31.9.7 27.4"/><path d="m46.4 31.8.6 27.4"/><path d="m51.8 31.7.7 27.4"/><path d="m57.3 31.5.6 27.4"/><path d="m62.7 31.4.7 27.4"/></g><g clip-path="url(#B)"><path d="m37.5 4.8.7 27.4"/><path d="m43 4.6.7 27.4"/><path d="m48.4 4.5.7 27.4"/><path d="m53.9 4.4.6 27.4"/><path d="m59.3 4.2.7 27.4"/><path d="m40.3 4.7.6 27.4"/><path d="m45.7 4.6.7 27.4"/><path d="m51.2 4.4.6 27.4"/><path d="m56.6 4.3.7 27.4"/><path d="m62.1 4.2.6 27.4"/></g><g clip-path="url(#B)"><path d="m36.9-22.5.7 27.4"/><path d="m42.3-22.6.7 27.4"/><path d="m47.8-22.7.6 27.4"/><path d="m53.2-22.9.7 27.4"/><path d="m58.7-23 .6 27.4"/><path d="m39.6-22.5.7 27.4"/><path d="m45.1-22.7.6 27.4"/><path d="m50.5-22.8.7 27.4"/><path d="m56-22.9.6 27.4"/><path d="m61.4-23.1.7 27.4"/></g></g><g clip-path="url(#b)"><g clip-path="url(#C)"><path d="m11 32.6.6 27.5"/><path d="m16.4 32.5.7 27.4"/><path d="m21.9 32.4.6 27.4"/><path d="m27.3 32.2.7 27.5"/><path d="m32.8 32.1.6 27.4"/><path d="m13.7 32.6.7 27.4"/><path d="m19.1 32.4.7 27.5"/><path d="m24.6 32.3.7 27.4"/><path d="m30 32.2.7 27.4"/><path d="m35.5 32 .6 27.5"/></g><g clip-path="url(#C)"><path d="m10.3 5.4.7 27.4"/><path d="m15.8 5.3.6 27.4"/><path d="m21.2 5.1.7 27.5"/><path d="m26.7 5 .6 27.4"/><path d="m32.1 4.9.7 27.4"/><path d="m13 5.3.7 27.5"/><path d="m18.5 5.2.6 27.4"/><path d="m23.9 5.1.7 27.4"/><path d="m29.4 4.9.6 27.5"/><path d="m34.8 4.8.7 27.4"/></g><g clip-path="url(#C)"><path d="m9.7-21.8.6 27.4"/><path d="m15.1-22 .7 27.5"/><path d="m20.6-22.1.6 27.4"/><path d="m26-22.2.7 27.4"/><path d="m31.4-22.3.7 27.4"/><path d="m12.4-21.9.7 27.4"/><path d="m17.8-22 .7 27.4"/><path d="m23.3-22.1.6 27.4"/><path d="m28.7-22.3.7 27.4"/><path d="m34.2-22.4.6 27.4"/></g></g></g></g></svg>