<?xml version="1.0" encoding="utf-8"?>
<!-- Generator: Adobe Illustrator 20.1.0, SVG Export Plug-In . SVG Version: 6.00 Build 0)  -->
<svg version="1.1" id="Layer_1" xmlns="http://www.w3.org/2000/svg" xmlns:xlink="http://www.w3.org/1999/xlink" x="0px" y="0px"
	 viewBox="0 0 149.8 124.8" style="enable-background:new 0 0 149.8 124.8;" xml:space="preserve">
<style type="text/css">
	.st0{fill:none;}
	.st1{fill:none;stroke:#211E1F;stroke-width:3.6;}
	.st2{fill:none;stroke:#A91E22;stroke-width:4;stroke-miterlimit:10;}
	.st3{fill:#8DB2DE;stroke:#8DB2DE;}
	.st4{fill:#231F20;}
	.st5{fill:#513534;stroke:#513534;stroke-width:1.5777;stroke-linecap:round;stroke-linejoin:round;stroke-miterlimit:10;}
	.st6{fill:#513534;stroke:#513534;stroke-width:1.6313;stroke-linecap:round;stroke-linejoin:round;stroke-miterlimit:10;}
	.st7{fill:#513534;stroke:#513534;}
	.st8{fill:#FFFFFF;stroke:#231F20;stroke-linecap:round;stroke-linejoin:round;stroke-miterlimit:10;}
	.st9{fill:#AFF9AF;stroke:#231F20;stroke-miterlimit:10;}
	.st10{fill:#FFFFFF;stroke:#231F20;stroke-width:2;stroke-linecap:round;stroke-linejoin:round;stroke-miterlimit:10;}
	.st11{clip-path:url(#SVGID_2_);}
	.st12{clip-path:url(#SVGID_4_);}
	.st13{fill:none;stroke:#231F20;stroke-width:0.7161;}
	.st14{clip-path:url(#SVGID_6_);}
	.st15{clip-path:url(#SVGID_8_);}
	.st16{clip-path:url(#SVGID_10_);}
	.st17{clip-path:url(#SVGID_12_);}
	.st18{clip-path:url(#SVGID_14_);}
	.st19{clip-path:url(#SVGID_16_);}
	.st20{clip-path:url(#SVGID_18_);}
	.st21{clip-path:url(#SVGID_20_);}
	.st22{clip-path:url(#SVGID_22_);}
	.st23{clip-path:url(#SVGID_24_);}
	.st24{clip-path:url(#SVGID_26_);}
	.st25{clip-path:url(#SVGID_28_);}
	.st26{clip-path:url(#SVGID_30_);}
	.st27{clip-path:url(#SVGID_32_);}
	.st28{clip-path:url(#SVGID_34_);}
	.st29{clip-path:url(#SVGID_36_);}
	.st30{fill:none;stroke:#231F20;stroke-width:0.5091;}
	.st31{clip-path:url(#SVGID_38_);}
	.st32{clip-path:url(#SVGID_40_);}
	.st33{clip-path:url(#SVGID_42_);}
	.st34{clip-path:url(#SVGID_44_);}
	.st35{clip-path:url(#SVGID_46_);}
	.st36{clip-path:url(#SVGID_48_);}
	.st37{clip-path:url(#SVGID_50_);}
	.st38{clip-path:url(#SVGID_52_);}
	.st39{clip-path:url(#SVGID_54_);}
	.st40{clip-path:url(#SVGID_56_);}
	.st41{clip-path:url(#SVGID_58_);}
	.st42{clip-path:url(#SVGID_60_);}
	.st43{clip-path:url(#SVGID_62_);}
	.st44{clip-path:url(#SVGID_64_);}
	.st45{clip-path:url(#SVGID_66_);}
	.st46{clip-path:url(#SVGID_68_);}
	.st47{clip-path:url(#SVGID_70_);}
	.st48{clip-path:url(#SVGID_72_);}
	.st49{clip-path:url(#SVGID_74_);}
	.st50{clip-path:url(#SVGID_76_);}
	.st51{clip-path:url(#SVGID_78_);}
	.st52{clip-path:url(#SVGID_80_);}
	.st53{clip-path:url(#SVGID_82_);}
	.st54{clip-path:url(#SVGID_84_);}
	.st55{clip-path:url(#SVGID_86_);}
	.st56{clip-path:url(#SVGID_88_);}
	.st57{fill:#D7932A;stroke:#503433;stroke-width:1.6313;stroke-linecap:round;stroke-linejoin:round;stroke-miterlimit:10;}
	.st58{fill:#B9BABB;stroke:#503433;stroke-width:1.6313;stroke-linecap:round;stroke-linejoin:round;stroke-miterlimit:10;}
	.st59{opacity:0.6;}
	.st60{clip-path:url(#SVGID_90_);}
	.st61{clip-path:url(#SVGID_92_);}
	.st62{fill:none;stroke:#231F20;stroke-width:1.588;}
	.st63{clip-path:url(#SVGID_94_);}
	.st64{clip-path:url(#SVGID_96_);}
	.st65{clip-path:url(#SVGID_98_);}
	.st66{clip-path:url(#SVGID_100_);}
	.st67{clip-path:url(#SVGID_102_);}
	.st68{opacity:0.4;}
	.st69{clip-path:url(#SVGID_104_);}
	.st70{clip-path:url(#SVGID_106_);}
	.st71{clip-path:url(#SVGID_108_);}
	.st72{clip-path:url(#SVGID_110_);}
	.st73{clip-path:url(#SVGID_112_);}
	.st74{fill:#B8B9BA;stroke:#503433;stroke-width:1.3;stroke-linecap:round;stroke-linejoin:round;stroke-miterlimit:10;}
	.st75{fill:#8BB0DD;stroke:#503433;stroke-width:1.3;stroke-linecap:round;stroke-linejoin:round;stroke-miterlimit:10;}
	.st76{fill:#B8B9BA;stroke:#503433;stroke-linecap:round;stroke-linejoin:round;stroke-miterlimit:10;}
	.st77{fill:#FFFFFF;stroke:#503433;stroke-width:1.3;stroke-miterlimit:10;}
	.st78{fill:#FBF6EC;stroke:#503433;stroke-width:1.3;stroke-linecap:round;stroke-linejoin:round;stroke-miterlimit:10;}
	.st79{fill:#503433;stroke:#503433;stroke-width:1.3;stroke-miterlimit:10;}
	.st80{fill:#D6922A;stroke:#503433;stroke-width:0.75;stroke-linecap:round;stroke-linejoin:round;stroke-miterlimit:10;}
	.st81{fill:url(#SVGID_114_);}
	.st82{clip-path:url(#SVGID_116_);fill:#CCDD61;stroke:#231F20;stroke-width:0.25;stroke-miterlimit:10;}
	.st83{clip-path:url(#SVGID_118_);fill:#CCDD61;stroke:#231F20;stroke-width:0.25;stroke-miterlimit:10;}
	.st84{clip-path:url(#SVGID_120_);fill:#CCDD61;stroke:#231F20;stroke-width:0.25;stroke-miterlimit:10;}
	.st85{clip-path:url(#SVGID_122_);fill:#CCDD61;stroke:#231F20;stroke-width:0.25;stroke-miterlimit:10;}
	.st86{clip-path:url(#SVGID_124_);fill:#CCDD61;stroke:#231F20;stroke-width:0.25;stroke-miterlimit:10;}
	.st87{clip-path:url(#SVGID_126_);fill:#CCDD61;stroke:#231F20;stroke-width:0.25;stroke-miterlimit:10;}
	.st88{clip-path:url(#SVGID_128_);fill:#CCDD61;stroke:#231F20;stroke-width:0.25;stroke-miterlimit:10;}
	.st89{clip-path:url(#SVGID_130_);fill:#CCDD61;stroke:#231F20;stroke-width:0.25;stroke-miterlimit:10;}
	.st90{clip-path:url(#SVGID_132_);fill:#CCDD61;stroke:#231F20;stroke-width:0.25;stroke-miterlimit:10;}
	.st91{clip-path:url(#SVGID_134_);fill:#CCDD61;stroke:#231F20;stroke-width:0.25;stroke-miterlimit:10;}
	.st92{clip-path:url(#SVGID_136_);fill:#CCDD61;stroke:#231F20;stroke-width:0.25;stroke-miterlimit:10;}
	.st93{clip-path:url(#SVGID_138_);fill:#CCDD61;stroke:#231F20;stroke-width:0.25;stroke-miterlimit:10;}
	.st94{clip-path:url(#SVGID_140_);fill:#CCDD61;stroke:#231F20;stroke-width:0.25;stroke-miterlimit:10;}
	.st95{clip-path:url(#SVGID_142_);fill:#CCDD61;stroke:#231F20;stroke-width:0.25;stroke-miterlimit:10;}
	.st96{clip-path:url(#SVGID_144_);fill:#CCDD61;stroke:#231F20;stroke-width:0.25;stroke-miterlimit:10;}
	.st97{clip-path:url(#SVGID_146_);fill:#CCDD61;stroke:#231F20;stroke-width:0.25;stroke-miterlimit:10;}
	.st98{clip-path:url(#SVGID_148_);fill:#CCDD61;stroke:#231F20;stroke-width:0.25;stroke-miterlimit:10;}
	.st99{clip-path:url(#SVGID_150_);fill:#CCDD61;stroke:#231F20;stroke-width:0.25;stroke-miterlimit:10;}
	.st100{clip-path:url(#SVGID_152_);fill:#CCDD61;stroke:#231F20;stroke-width:0.25;stroke-miterlimit:10;}
	.st101{clip-path:url(#SVGID_154_);fill:#CCDD61;stroke:#231F20;stroke-width:0.25;stroke-miterlimit:10;}
	.st102{clip-path:url(#SVGID_156_);fill:#CCDD61;stroke:#231F20;stroke-width:0.25;stroke-miterlimit:10;}
	.st103{clip-path:url(#SVGID_158_);fill:#CCDD61;stroke:#231F20;stroke-width:0.25;stroke-miterlimit:10;}
	.st104{clip-path:url(#SVGID_160_);fill:#CCDD61;stroke:#231F20;stroke-width:0.25;stroke-miterlimit:10;}
	.st105{clip-path:url(#SVGID_162_);fill:#CCDD61;stroke:#231F20;stroke-width:0.25;stroke-miterlimit:10;}
	.st106{clip-path:url(#SVGID_164_);fill:#CCDD61;stroke:#231F20;stroke-width:0.25;stroke-miterlimit:10;}
	.st107{clip-path:url(#SVGID_166_);fill:#CCDD61;stroke:#231F20;stroke-width:0.25;stroke-miterlimit:10;}
	.st108{clip-path:url(#SVGID_168_);fill:#CCDD61;stroke:#231F20;stroke-width:0.25;stroke-miterlimit:10;}
	.st109{clip-path:url(#SVGID_170_);fill:#CCDD61;stroke:#231F20;stroke-width:0.25;stroke-miterlimit:10;}
	.st110{clip-path:url(#SVGID_172_);fill:#CCDD61;stroke:#231F20;stroke-width:0.25;stroke-miterlimit:10;}
	.st111{clip-path:url(#SVGID_174_);fill:#CCDD61;stroke:#231F20;stroke-width:0.25;stroke-miterlimit:10;}
	.st112{clip-path:url(#SVGID_176_);fill:#CCDD61;stroke:#231F20;stroke-width:0.25;stroke-miterlimit:10;}
	.st113{clip-path:url(#SVGID_178_);fill:#CCDD61;stroke:#231F20;stroke-width:0.25;stroke-miterlimit:10;}
	.st114{clip-path:url(#SVGID_180_);fill:#CCDD61;stroke:#231F20;stroke-width:0.25;stroke-miterlimit:10;}
	.st115{clip-path:url(#SVGID_182_);fill:#CCDD61;stroke:#231F20;stroke-width:0.25;stroke-miterlimit:10;}
	.st116{clip-path:url(#SVGID_184_);fill:#CCDD61;stroke:#231F20;stroke-width:0.25;stroke-miterlimit:10;}
	.st117{clip-path:url(#SVGID_186_);fill:#CCDD61;stroke:#231F20;stroke-width:0.25;stroke-miterlimit:10;}
	.st118{clip-path:url(#SVGID_188_);fill:#CCDD61;stroke:#231F20;stroke-width:0.25;stroke-miterlimit:10;}
	.st119{clip-path:url(#SVGID_190_);fill:#CCDD61;stroke:#231F20;stroke-width:0.25;stroke-miterlimit:10;}
	.st120{clip-path:url(#SVGID_192_);fill:#CCDD61;stroke:#231F20;stroke-width:0.25;stroke-miterlimit:10;}
	.st121{clip-path:url(#SVGID_194_);fill:#CCDD61;stroke:#231F20;stroke-width:0.25;stroke-miterlimit:10;}
	.st122{clip-path:url(#SVGID_196_);fill:#CCDD61;stroke:#231F20;stroke-width:0.25;stroke-miterlimit:10;}
	.st123{clip-path:url(#SVGID_198_);fill:#CCDD61;stroke:#231F20;stroke-width:0.25;stroke-miterlimit:10;}
	.st124{clip-path:url(#SVGID_200_);fill:#CCDD61;stroke:#231F20;stroke-width:0.25;stroke-miterlimit:10;}
	.st125{clip-path:url(#SVGID_202_);fill:#CCDD61;stroke:#231F20;stroke-width:0.25;stroke-miterlimit:10;}
	.st126{clip-path:url(#SVGID_204_);fill:#CCDD61;stroke:#231F20;stroke-width:0.25;stroke-miterlimit:10;}
	.st127{clip-path:url(#SVGID_206_);fill:#CCDD61;stroke:#231F20;stroke-width:0.25;stroke-miterlimit:10;}
	.st128{clip-path:url(#SVGID_208_);fill:#CCDD61;stroke:#231F20;stroke-width:0.25;stroke-miterlimit:10;}
	.st129{clip-path:url(#SVGID_210_);fill:#CCDD61;stroke:#231F20;stroke-width:0.25;stroke-miterlimit:10;}
	.st130{clip-path:url(#SVGID_212_);fill:#CCDD61;stroke:#231F20;stroke-width:0.25;stroke-miterlimit:10;}
	.st131{clip-path:url(#SVGID_214_);fill:#CCDD61;stroke:#231F20;stroke-width:0.25;stroke-miterlimit:10;}
	.st132{clip-path:url(#SVGID_216_);fill:#CCDD61;stroke:#231F20;stroke-width:0.25;stroke-miterlimit:10;}
	.st133{clip-path:url(#SVGID_218_);fill:#CCDD61;stroke:#231F20;stroke-width:0.25;stroke-miterlimit:10;}
	.st134{clip-path:url(#SVGID_220_);fill:#CCDD61;stroke:#231F20;stroke-width:0.25;stroke-miterlimit:10;}
	.st135{clip-path:url(#SVGID_222_);fill:#CCDD61;stroke:#231F20;stroke-width:0.25;stroke-miterlimit:10;}
	.st136{clip-path:url(#SVGID_224_);fill:#CCDD61;stroke:#231F20;stroke-width:0.25;stroke-miterlimit:10;}
	.st137{clip-path:url(#SVGID_226_);fill:#CCDD61;stroke:#231F20;stroke-width:0.25;stroke-miterlimit:10;}
	.st138{clip-path:url(#SVGID_228_);fill:#CCDD61;stroke:#231F20;stroke-width:0.25;stroke-miterlimit:10;}
	.st139{clip-path:url(#SVGID_230_);fill:#CCDD61;stroke:#231F20;stroke-width:0.25;stroke-miterlimit:10;}
	.st140{clip-path:url(#SVGID_232_);fill:#CCDD61;stroke:#231F20;stroke-width:0.25;stroke-miterlimit:10;}
	.st141{clip-path:url(#SVGID_234_);fill:#CCDD61;stroke:#231F20;stroke-width:0.25;stroke-miterlimit:10;}
	.st142{clip-path:url(#SVGID_236_);fill:#CCDD61;stroke:#231F20;stroke-width:0.25;stroke-miterlimit:10;}
	.st143{clip-path:url(#SVGID_238_);fill:#CCDD61;stroke:#231F20;stroke-width:0.25;stroke-miterlimit:10;}
	.st144{clip-path:url(#SVGID_240_);fill:#CCDD61;stroke:#231F20;stroke-width:0.25;stroke-miterlimit:10;}
	.st145{clip-path:url(#SVGID_242_);fill:#CCDD61;stroke:#231F20;stroke-width:0.25;stroke-miterlimit:10;}
	.st146{clip-path:url(#SVGID_244_);}
	.st147{clip-path:url(#SVGID_246_);}
	.st148{clip-path:url(#SVGID_248_);}
	.st149{clip-path:url(#SVGID_250_);}
	.st150{clip-path:url(#SVGID_252_);}
	.st151{clip-path:url(#SVGID_254_);}
	.st152{clip-path:url(#SVGID_256_);}
	.st153{clip-path:url(#SVGID_258_);}
	.st154{clip-path:url(#SVGID_260_);}
	.st155{clip-path:url(#SVGID_262_);}
	.st156{clip-path:url(#SVGID_264_);}
	.st157{clip-path:url(#SVGID_266_);}
	.st158{clip-path:url(#SVGID_268_);}
	.st159{clip-path:url(#SVGID_270_);}
	.st160{clip-path:url(#SVGID_272_);}
	.st161{clip-path:url(#SVGID_274_);}
	.st162{clip-path:url(#SVGID_276_);}
	.st163{clip-path:url(#SVGID_278_);}
	.st164{clip-path:url(#SVGID_280_);}
	.st165{clip-path:url(#SVGID_282_);}
	.st166{clip-path:url(#SVGID_284_);}
	.st167{clip-path:url(#SVGID_286_);}
	.st168{clip-path:url(#SVGID_288_);}
	.st169{clip-path:url(#SVGID_290_);}
	.st170{clip-path:url(#SVGID_292_);}
	.st171{clip-path:url(#SVGID_294_);}
	.st172{clip-path:url(#SVGID_296_);}
	.st173{clip-path:url(#SVGID_298_);}
	.st174{clip-path:url(#SVGID_300_);}
	.st175{clip-path:url(#SVGID_302_);}
	.st176{clip-path:url(#SVGID_304_);}
	.st177{clip-path:url(#SVGID_306_);}
	.st178{clip-path:url(#SVGID_308_);}
	.st179{clip-path:url(#SVGID_310_);}
	.st180{clip-path:url(#SVGID_312_);}
	.st181{clip-path:url(#SVGID_314_);}
	.st182{clip-path:url(#SVGID_316_);}
	.st183{fill:#6CC077;stroke:#503433;stroke-width:0.75;stroke-linecap:round;stroke-linejoin:round;stroke-miterlimit:10;}
	.st184{fill:#8BB0DD;stroke:#503433;stroke-width:0.75;stroke-linecap:round;stroke-linejoin:round;stroke-miterlimit:10;}
	.st185{fill:#FBF6EC;stroke:#503433;stroke-width:0.75;stroke-linecap:round;stroke-linejoin:round;stroke-miterlimit:10;}
	.st186{fill:none;stroke:#503433;stroke-width:0.75;stroke-linecap:round;stroke-linejoin:round;stroke-miterlimit:10;}
	.st187{fill:#503433;stroke:#503433;stroke-width:0.75;stroke-linecap:round;stroke-linejoin:round;stroke-miterlimit:10;}
	.st188{fill:url(#SVGID_318_);}
	.st189{fill:url(#SVGID_320_);}
	.st190{fill:url(#SVGID_322_);}
	.st191{fill:url(#SVGID_324_);}
	.st192{fill:#426BB2;stroke:#503433;stroke-width:1.6313;stroke-linecap:round;stroke-linejoin:round;stroke-miterlimit:10;}
	.st193{fill:#F7A480;stroke:#503433;stroke-width:1.8002;stroke-linecap:round;stroke-linejoin:round;stroke-miterlimit:10;}
	.st194{fill:#8BB1DE;stroke:#503433;stroke-width:1.6313;stroke-linecap:round;stroke-linejoin:round;stroke-miterlimit:10;}
	.st195{clip-path:url(#SVGID_326_);}
	.st196{clip-path:url(#SVGID_328_);}
	.st197{clip-path:url(#SVGID_330_);}
	.st198{clip-path:url(#SVGID_332_);}
	.st199{clip-path:url(#SVGID_334_);}
	.st200{clip-path:url(#SVGID_336_);}
	.st201{clip-path:url(#SVGID_338_);}
	.st202{clip-path:url(#SVGID_340_);}
	.st203{clip-path:url(#SVGID_342_);}
	.st204{clip-path:url(#SVGID_344_);}
	.st205{clip-path:url(#SVGID_346_);}
	.st206{clip-path:url(#SVGID_348_);}
	.st207{clip-path:url(#SVGID_350_);}
	.st208{clip-path:url(#SVGID_352_);}
	.st209{clip-path:url(#SVGID_354_);}
	.st210{clip-path:url(#SVGID_356_);}
	.st211{clip-path:url(#SVGID_358_);}
	.st212{clip-path:url(#SVGID_360_);}
	.st213{clip-path:url(#SVGID_362_);}
	.st214{clip-path:url(#SVGID_364_);}
	.st215{clip-path:url(#SVGID_366_);}
	.st216{clip-path:url(#SVGID_368_);}
	.st217{clip-path:url(#SVGID_370_);}
	.st218{clip-path:url(#SVGID_372_);}
	.st219{clip-path:url(#SVGID_374_);}
	.st220{clip-path:url(#SVGID_376_);}
	.st221{clip-path:url(#SVGID_378_);}
	.st222{clip-path:url(#SVGID_380_);}
	.st223{clip-path:url(#SVGID_382_);}
	.st224{fill:url(#);stroke:#503433;stroke-width:0.3365;stroke-linecap:round;stroke-linejoin:round;stroke-miterlimit:10;}
	.st225{clip-path:url(#SVGID_384_);}
	.st226{clip-path:url(#SVGID_386_);}
	.st227{clip-path:url(#SVGID_388_);}
	.st228{clip-path:url(#SVGID_390_);}
	.st229{clip-path:url(#SVGID_392_);}
	.st230{clip-path:url(#SVGID_394_);}
	.st231{clip-path:url(#SVGID_396_);}
	.st232{clip-path:url(#SVGID_398_);}
	.st233{clip-path:url(#SVGID_399_);}
	.st234{clip-path:url(#SVGID_400_);}
	.st235{clip-path:url(#SVGID_401_);}
	.st236{clip-path:url(#SVGID_402_);}
	.st237{clip-path:url(#SVGID_403_);}
	.st238{fill:#F05E4E;stroke:#503433;stroke-width:1.3;stroke-linecap:round;stroke-linejoin:round;stroke-miterlimit:10;}
	.st239{opacity:0.2;fill:url(#SVGID_404_);}
	.st240{opacity:0.2;fill:url(#SVGID_405_);}
	.st241{fill:url(#SVGID_406_);}
	.st242{fill:url(#SVGID_407_);}
</style>
<pattern  x="-2885.7" y="-338.8" width="72" height="72" patternUnits="userSpaceOnUse" id="_x31_0_lpi_50_x25__2" viewBox="72.2 -72 72 72" style="overflow:visible;">
	<g>
		<rect x="72.2" y="-72" class="st0" width="72" height="72"/>
		<g>
			<line class="st1" x1="144" y1="-3.6" x2="216.5" y2="-3.6"/>
			<line class="st1" x1="144" y1="-18" x2="216.5" y2="-18"/>
			<line class="st1" x1="144" y1="-32.4" x2="216.5" y2="-32.4"/>
			<line class="st1" x1="144" y1="-46.8" x2="216.5" y2="-46.8"/>
			<line class="st1" x1="144" y1="-61.2" x2="216.5" y2="-61.2"/>
			<line class="st1" x1="144" y1="-10.8" x2="216.5" y2="-10.8"/>
			<line class="st1" x1="144" y1="-25.2" x2="216.5" y2="-25.2"/>
			<line class="st1" x1="144" y1="-39.6" x2="216.5" y2="-39.6"/>
			<line class="st1" x1="144" y1="-54" x2="216.5" y2="-54"/>
			<line class="st1" x1="144" y1="-68.4" x2="216.5" y2="-68.4"/>
		</g>
		<g>
			<line class="st1" x1="72" y1="-3.6" x2="144.5" y2="-3.6"/>
			<line class="st1" x1="72" y1="-18" x2="144.5" y2="-18"/>
			<line class="st1" x1="72" y1="-32.4" x2="144.5" y2="-32.4"/>
			<line class="st1" x1="72" y1="-46.8" x2="144.5" y2="-46.8"/>
			<line class="st1" x1="72" y1="-61.2" x2="144.5" y2="-61.2"/>
			<line class="st1" x1="72" y1="-10.8" x2="144.5" y2="-10.8"/>
			<line class="st1" x1="72" y1="-25.2" x2="144.5" y2="-25.2"/>
			<line class="st1" x1="72" y1="-39.6" x2="144.5" y2="-39.6"/>
			<line class="st1" x1="72" y1="-54" x2="144.5" y2="-54"/>
			<line class="st1" x1="72" y1="-68.4" x2="144.5" y2="-68.4"/>
		</g>
		<g>
			<line class="st1" x1="0" y1="-3.6" x2="72.5" y2="-3.6"/>
			<line class="st1" x1="0" y1="-18" x2="72.5" y2="-18"/>
			<line class="st1" x1="0" y1="-32.4" x2="72.5" y2="-32.4"/>
			<line class="st1" x1="0" y1="-46.8" x2="72.5" y2="-46.8"/>
			<line class="st1" x1="0" y1="-61.2" x2="72.5" y2="-61.2"/>
			<line class="st1" x1="0" y1="-10.8" x2="72.5" y2="-10.8"/>
			<line class="st1" x1="0" y1="-25.2" x2="72.5" y2="-25.2"/>
			<line class="st1" x1="0" y1="-39.6" x2="72.5" y2="-39.6"/>
			<line class="st1" x1="0" y1="-54" x2="72.5" y2="-54"/>
			<line class="st1" x1="0" y1="-68.4" x2="72.5" y2="-68.4"/>
		</g>
	</g>
</pattern>
<g>
	<g>
		<path class="st183" d="M123.5,66.7c0,0,8.7-1.1,13.4-5c4.8-3.9,5.8-15.4-2.6-19.3c-8.4-3.9-8.7-1.1-11.9-5.8c0,0-6.5-0.7-7.6,3
			c0,0,7.5-0.6,10.2,1.7c2.6,2.4,4.6,3.6,4.6,15C129.5,62.1,123.5,66.7,123.5,66.7z"/>
		<path class="st184" d="M38.9,97.7c0,0,9.3,0.2,11.3-21.3c2-21.5-0.7-37.2-3.2-44.7c-2.5-7.5-10.2-21.1-18.1-12
			c-8,9-6.6,38.9-5.9,46.5C23.7,73.8,28.6,96.7,38.9,97.7z"/>
		<path class="st185" d="M121.1,39.6c0,0-29.5,0-38.8-1.5c-9.3-1.5-22.2-4.5-33.7-13.4c0,0,11.6,31,3.6,64.3c0,0,7.8-7.1,17.1-11.3
			c9.3-4.1,21.2-5.8,26.2-6.7c5-0.9,8.2-4.8,8.2-4.8l19.7-2.8l-1.5,3.7c0,0,4.1-0.4,6.1-3.7c1.6-2.6,3.7-8.7,1.7-15.6
			C127.8,40.9,121.1,39.6,121.1,39.6z"/>
		<path class="st185" d="M95.5,71c0,0,4.1,0.4,3.9,3.2c-0.2,2.8-4.5,7.8-1.9,11.3c0,0-1.1,11.9-5.6,19.9c0,0,5,5.2,7.6,6.9
			c2.6,1.7,6.7,0.2,8.4-6.9c1.7-7.1,5.8-25.8,5.8-25.8s2.2-2.6,4.3-3.2c2.2-0.7,5.4-13,5.4-13l-19.7,2.8
			C103.7,66.3,100.2,70.2,95.5,71z"/>
		<path class="st186" d="M38.9,97.7c0,0,9.3,0.2,11.3-21.3c2-21.5-0.7-37.2-3.2-44.7c-2.5-7.5-10.2-21.1-18.1-12
			c-8,9-6.6,38.9-5.9,46.5C23.7,73.8,28.6,96.7,38.9,97.7z"/>
		<path class="st185" d="M50,45.2c0,0-12.2,1.5-15.8,3.3c-2.8,1.4-3.8,6.5-3.1,12c1,7.9,7,7.3,7,7.3l12.8-1.2
			C50.9,66.7,53.5,56.3,50,45.2z"/>
		
			<ellipse transform="matrix(0.9998 -2.216179e-02 2.216179e-02 0.9998 -1.284 0.7725)" class="st187" cx="34.2" cy="58.3" rx="2.5" ry="6.7"/>
		<path class="st187" d="M51.3,28.8c-3.2-8.3-13-23.1-23.2-13.2c-10.2,9.9-8.4,42.7-7.6,51.1c0.9,8.4,7.1,33.5,20.4,34.6
			c0,0,11.9,0.2,14.5-23.4C58,54.3,54.6,37.1,51.3,28.8z M50.3,76.4c-2,21.5-11.3,21.3-11.3,21.3c-10.3-1-15.2-23.9-15.9-31.5
			c-0.7-7.7-2-37.5,5.9-46.5c8-9,15.6,4.5,18.1,12C49.6,39.2,52.3,54.9,50.3,76.4z"/>
		
			<pattern  id="SVGID_2_" xlink:href="#_x31_0_lpi_50_x25__2" patternTransform="matrix(-0.1486 0.5182 -0.5182 -0.1486 -7448.8345 -3734.9482)">
		</pattern>
		<path style="fill:url(#SVGID_2_);" d="M49,42.7c-1.1-5.4-3.9-18.1-11.3-17.4c-2.7,0.3-5.5,2.6-5.4,5.5c0.1,4.4,2.7,2.2,5.1,4.4
			c3,2.6,1.8,7.5,0.7,10.9c4.9,0.7,11.4-2,10.7-7.6"/>
		
			<pattern  id="SVGID_4_" xlink:href="#_x31_0_lpi_50_x25__2" patternTransform="matrix(-0.1486 0.5182 -0.5182 -0.1486 -7448.8345 -3734.9482)">
		</pattern>
		<path style="fill:url(#SVGID_4_);" d="M31.8,83.3c2.9,10.1,12.9,13.3,15.2,1.1c0.5-2.9,2.2-10.7,0-13.2c-4.3-4.8-6.6,4.5-8.1,7
			c-2,3.4-8.1,3.7-6.5,8.5"/>
		
			<pattern  id="SVGID_6_" xlink:href="#_x31_0_lpi_50_x25__2" patternTransform="matrix(-0.1486 0.5182 -0.5182 -0.1486 -7448.8345 -3738.5923)">
		</pattern>
		<path style="fill:url(#SVGID_6_);" d="M102.5,111.2c-1.5-2.9-5.1-3.9-6.1-7c-1.1-3.7,2.3-8.1,3.4-11.4c0.9-2.9,2.9-5.6,2.9-8.4
			c0-2.9-3-6.6,1.4-8.5c2.5-1.1,7.6,1.2,10.4,1.3c0.4-0.7,0.6-1.4,0.5-2.2c-2.6-0.7-6.4-1.3-8.5-3.2c-1.5-1.4-2.6-6.6-4.6-3.7
			c-0.9,0.5-4.2,1.3-4.6,2.3c-0.8,1.7,1.5,2.8,1.7,4.4c0.4,3.3-2.2,7-2.3,10.7c-0.2,7.8-8,17.6-1.8,24.1c2.2,2.3,10.9,5.3,7.3-0.8"
			/>
		
			<pattern  id="SVGID_8_" xlink:href="#_x31_0_lpi_50_x25__2" patternTransform="matrix(-0.1486 0.5182 -0.5182 -0.1486 -7440.2095 -3738.5923)">
		</pattern>
		<path style="fill:url(#SVGID_8_);" d="M65.2,81.3c1.9-2.1,3.2-5.3,5.5-6.9c2.8-2,6.5-2.1,9.7-2.6c7.1-1.1,16.2-8,23.4-7.2
			c0.9,8.5-9.4,6-15.4,7.2c-7.7,1.5-15.3,8.1-22.6,8.9"/>
	</g>
</g>
</svg>
