<?xml version="1.0" encoding="utf-8"?>
<!-- Generator: Adobe Illustrator 20.1.0, SVG Export Plug-In . SVG Version: 6.00 Build 0)  -->
<svg version="1.1" id="Layer_1" xmlns="http://www.w3.org/2000/svg" xmlns:xlink="http://www.w3.org/1999/xlink" x="0px" y="0px"
	 viewBox="0 0 323.5 210.7" style="enable-background:new 0 0 323.5 210.7;" xml:space="preserve">
<style type="text/css">
	.st0{clip-path:url(#SVGID_2_);}
	.st1{fill:none;stroke:#231F20;stroke-width:1.588;}
</style>
<g>
	<defs>
		<path id="SVGID_1_" d="M304.2,61.6c3.5-0.7,6.3-1.6,8-2.9c4.5-3.3,1.1-7.8-7.9-12.5c0-3.4-1.5-6.3-3-7.6c-0.3-0.3-0.8-0.6-1.3-0.9
			l4.4-3.2c0,0,1.2-2.5-6.4-5.8c-0.2-0.3-0.5-0.5-0.8-0.8c3.4-2.5,7.8-5.7,9.5-7c3.1-2.4-0.6-3.2-5.1-3.5s-15.3-1-17.7-2.7
			c-2.4-1.7-4.6-0.3-4.6-0.3l-10.5,6.5c-2.2,0-4.1,0.1-5.5,0.4c-11.8-0.9-14.3,1.3-14.3,1.3l-3.8,2.8c-0.3,0-0.5,0-0.5,0
			c-7.1,0.3-14.5,1.8-20.6,3.5c-15-0.6-26.7,0.8-31.3,4.1c-2.1,1.5-2.5,3.3-1.4,5.3L24.7,164.8c0,0-3.8-0.2-9.6,4.6
			c0,0-4.8,2.7-3.2,6.8s5.2,13.4,43.2,21.5s63.9-2.5,67.2-4.8c3-2.1,7.7-4.4,5.7-5.5L304.2,61.6L304.2,61.6z"/>
	</defs>
	<clipPath id="SVGID_2_">
		<use xlink:href="#SVGID_1_"  style="overflow:visible;"/>
	</clipPath>
	<g class="st0">
		<path class="st1" d="M303.3,127.2l-13.5-47.1"/>
		<path class="st1" d="M294,129.9l-13.5-47.1"/>
		<path class="st1" d="M284.6,132.6l-13.5-47.1"/>
		<path class="st1" d="M275.3,135.3l-13.5-47.1"/>
		<path class="st1" d="M265.9,137.9l-13.5-47"/>
		<path class="st1" d="M298.6,128.6l-13.5-47.1"/>
		<path class="st1" d="M289.3,131.2l-13.5-47"/>
		<path class="st1" d="M279.9,133.9l-13.5-47"/>
		<path class="st1" d="M270.6,136.6l-13.5-47.1"/>
		<path class="st1" d="M261.2,139.3l-13.5-47.1"/>
		<path class="st1" d="M289.9,80.5l-13.5-47.1"/>
		<path class="st1" d="M280.5,83.1l-13.4-47"/>
		<path class="st1" d="M271.2,85.8l-13.5-47"/>
		<path class="st1" d="M261.9,88.5l-13.5-47.1"/>
		<path class="st1" d="M252.5,91.2L239,44.1"/>
		<path class="st1" d="M285.2,81.8l-13.5-47.1"/>
		<path class="st1" d="M275.9,84.5l-13.5-47.1"/>
		<path class="st1" d="M266.5,87.2L253,40.1"/>
		<path class="st1" d="M257.2,89.9l-13.5-47.1"/>
		<path class="st1" d="M247.8,92.5l-13.5-47"/>
		<path class="st1" d="M276.5,33.7L263-13.4"/>
		<path class="st1" d="M267.1,36.4l-13.5-47.1"/>
		<path class="st1" d="M257.8,39.1L244.3-8"/>
		<path class="st1" d="M248.4,41.8L234.9-5.3"/>
		<path class="st1" d="M239.1,44.4l-13.5-47"/>
		<path class="st1" d="M271.8,35.1L258.3-12"/>
		<path class="st1" d="M262.5,37.7L249-9.3"/>
		<path class="st1" d="M253.1,40.4L239.6-6.7"/>
		<path class="st1" d="M243.8,43.1L230.3-4"/>
		<path class="st1" d="M234.4,45.8L220.9-1.3"/>
		<path class="st1" d="M350.1,113.8l-13.5-47.1"/>
		<path class="st1" d="M340.7,116.5l-13.5-47.1"/>
		<path class="st1" d="M331.4,119.2l-13.5-47.1"/>
		<path class="st1" d="M322,121.9l-13.5-47.1"/>
		<path class="st1" d="M312.7,124.5l-13.5-47"/>
		<path class="st1" d="M345.4,115.2l-13.5-47.1"/>
		<path class="st1" d="M336,117.8l-13.5-47"/>
		<path class="st1" d="M326.7,120.5l-13.5-47.1"/>
		<path class="st1" d="M317.3,123.2l-13.5-47.1"/>
		<path class="st1" d="M308,125.9l-13.5-47.1"/>
		<path class="st1" d="M336.7,67.1L323.2,20"/>
		<path class="st1" d="M327.3,69.7l-13.5-47"/>
		<path class="st1" d="M318,72.4l-13.6-47.1"/>
		<path class="st1" d="M308.6,75.1L295.1,28"/>
		<path class="st1" d="M299.3,77.8l-13.5-47.1"/>
		<path class="st1" d="M332,68.4l-13.5-47.1"/>
		<path class="st1" d="M322.6,71.1L309.1,24"/>
		<path class="st1" d="M313.3,73.8l-13.5-47.1"/>
		<path class="st1" d="M303.9,76.4l-13.5-47"/>
		<path class="st1" d="M294.6,79.1L281.1,32"/>
		<path class="st1" d="M323.2,20.3l-13.5-47.1"/>
		<path class="st1" d="M313.9,23l-13.5-47.1"/>
		<path class="st1" d="M304.5,25.7L291-21.4"/>
		<path class="st1" d="M295.2,28.4l-13.5-47.1"/>
		<path class="st1" d="M285.8,31l-13.5-47"/>
		<path class="st1" d="M318.6,21.6l-13.5-47"/>
		<path class="st1" d="M309.2,24.3l-13.5-47"/>
		<path class="st1" d="M299.9,27l-13.5-47.1"/>
		<path class="st1" d="M290.5,29.7L277-17.4"/>
		<path class="st1" d="M281.2,32.4l-13.5-47.1"/>
		<path class="st1" d="M210.9,155.1l-13.5-47"/>
		<path class="st1" d="M201.6,157.8l-13.5-47.1"/>
		<path class="st1" d="M192.2,160.5l-13.4-47.1"/>
		<path class="st1" d="M182.9,163.2l-13.5-47.1"/>
		<path class="st1" d="M173.5,165.9L160,118.8"/>
		<path class="st1" d="M206.3,156.5l-13.5-47.1"/>
		<path class="st1" d="M196.9,159.2l-13.5-47.1"/>
		<path class="st1" d="M187.6,161.8l-13.5-47"/>
		<path class="st1" d="M178.2,164.5l-13.5-47.1"/>
		<path class="st1" d="M168.9,167.2l-13.5-47.1"/>
		<path class="st1" d="M197.5,108.4L184,61.3"/>
		<path class="st1" d="M188.2,111.1L174.7,64"/>
		<path class="st1" d="M178.8,113.7l-13.5-47"/>
		<path class="st1" d="M169.5,116.4L156,69.3"/>
		<path class="st1" d="M160.1,119.1L146.6,72"/>
		<path class="st1" d="M192.9,109.7l-13.5-47.1"/>
		<path class="st1" d="M183.5,112.4L170,65.3"/>
		<path class="st1" d="M174.2,115.1L160.7,68"/>
		<path class="st1" d="M164.8,117.8l-13.5-47.1"/>
		<path class="st1" d="M155.5,120.4l-13.5-47"/>
		<path class="st1" d="M184.1,61.6l-13.5-47.1"/>
		<path class="st1" d="M174.8,64.3l-13.5-47.1"/>
		<path class="st1" d="M165.4,67l-13.5-47.1"/>
		<path class="st1" d="M156.1,69.7l-13.5-47.1"/>
		<path class="st1" d="M146.7,72.3l-13.5-47"/>
		<path class="st1" d="M179.5,63L166,15.9"/>
		<path class="st1" d="M170.1,65.6l-13.5-47"/>
		<path class="st1" d="M160.8,68.3l-13.5-47.1"/>
		<path class="st1" d="M151.4,71l-13.5-47.1"/>
		<path class="st1" d="M142.1,73.7l-13.5-47.1"/>
		<path class="st1" d="M257.7,141.7l-13.5-47.1"/>
		<path class="st1" d="M248.4,144.4l-13.5-47.1"/>
		<path class="st1" d="M239,147.1L225.5,100"/>
		<path class="st1" d="M229.6,149.8l-13.4-47.1"/>
		<path class="st1" d="M220.3,152.4l-13.5-47"/>
		<path class="st1" d="M253,143.1L239.5,96"/>
		<path class="st1" d="M243.7,145.7l-13.5-47"/>
		<path class="st1" d="M234.3,148.4l-13.5-47.1"/>
		<path class="st1" d="M225,151.1L211.5,104"/>
		<path class="st1" d="M215.6,153.8l-13.5-47.1"/>
		<path class="st1" d="M244.3,95l-13.5-47.1"/>
		<path class="st1" d="M234.9,97.6l-13.5-47"/>
		<path class="st1" d="M225.6,100.3l-13.5-47"/>
		<path class="st1" d="M216.2,103l-13.5-47.1"/>
		<path class="st1" d="M206.9,105.7l-13.5-47.1"/>
		<path class="st1" d="M239.6,96.3l-13.5-47.1"/>
		<path class="st1" d="M230.3,99l-13.5-47.1"/>
		<path class="st1" d="M220.9,101.7l-13.5-47.1"/>
		<path class="st1" d="M211.6,104.4l-13.5-47.1"/>
		<path class="st1" d="M202.2,107l-13.5-47"/>
		<path class="st1" d="M230.9,48.2L217.4,1.1"/>
		<path class="st1" d="M221.5,50.9L208,3.8"/>
		<path class="st1" d="M212.2,53.6L198.7,6.5"/>
		<path class="st1" d="M202.8,56.3L189.3,9.2"/>
		<path class="st1" d="M193.5,58.9l-13.5-47"/>
		<path class="st1" d="M226.2,49.6L212.7,2.5"/>
		<path class="st1" d="M216.9,52.2l-13.5-47"/>
		<path class="st1" d="M207.5,54.9L194,7.8"/>
		<path class="st1" d="M198.2,57.6l-13.5-47.1"/>
		<path class="st1" d="M188.8,60.3l-13.5-47.1"/>
		<path class="st1" d="M118.6,181.7l-13.5-47.1"/>
		<path class="st1" d="M109.2,184.4l-13.5-47.1"/>
		<path class="st1" d="M99.9,187.1L86.4,140"/>
		<path class="st1" d="M90.5,189.7l-13.5-47"/>
		<path class="st1" d="M81.2,192.4l-13.5-47.1"/>
		<path class="st1" d="M113.9,183l-13.5-47"/>
		<path class="st1" d="M104.6,185.7l-13.5-47.1"/>
		<path class="st1" d="M95.2,188.4l-13.5-47.1"/>
		<path class="st1" d="M85.9,191.1L72.4,144"/>
		<path class="st1" d="M76.5,193.8L63,146.7"/>
		<path class="st1" d="M105.2,134.9l-13.5-47"/>
		<path class="st1" d="M95.8,137.6L82.3,90.5"/>
		<path class="st1" d="M86.5,140.3L73,93.2"/>
		<path class="st1" d="M77.1,143L63.6,95.9"/>
		<path class="st1" d="M67.8,145.7L54.3,98.6"/>
		<path class="st1" d="M100.5,136.3L87,89.2"/>
		<path class="st1" d="M91.2,139L77.7,91.9"/>
		<path class="st1" d="M81.8,141.6l-13.5-47"/>
		<path class="st1" d="M72.5,144.3L59,97.2"/>
		<path class="st1" d="M63.1,147L49.6,99.9"/>
		<path class="st1" d="M91.8,88.2L78.3,41.1"/>
		<path class="st1" d="M82.4,90.9L68.9,43.8"/>
		<path class="st1" d="M73.1,93.5l-13.5-47"/>
		<path class="st1" d="M63.7,96.2l-13.5-47"/>
		<path class="st1" d="M54.4,98.9L40.9,51.8"/>
		<path class="st1" d="M87.1,89.5l-13.5-47"/>
		<path class="st1" d="M77.8,92.2L64.3,45.1"/>
		<path class="st1" d="M68.4,94.9L54.9,47.8"/>
		<path class="st1" d="M59.1,97.6L45.6,50.5"/>
		<path class="st1" d="M49.7,100.3L36.2,53.2"/>
		<path class="st1" d="M165.3,168.3l-13.5-47.1"/>
		<path class="st1" d="M156,171l-13.5-47.1"/>
		<path class="st1" d="M146.6,173.7l-13.5-47.1"/>
		<path class="st1" d="M137.3,176.3l-13.5-47"/>
		<path class="st1" d="M127.9,179l-13.5-47.1"/>
		<path class="st1" d="M160.7,169.6l-13.5-47.1"/>
		<path class="st1" d="M151.3,172.3l-13.5-47.1"/>
		<path class="st1" d="M142,175l-13.5-47.1"/>
		<path class="st1" d="M132.6,177.7l-13.5-47.1"/>
		<path class="st1" d="M123.3,180.4l-13.5-47.1"/>
		<path class="st1" d="M151.9,121.5l-13.5-47"/>
		<path class="st1" d="M142.6,124.2l-13.5-47.1"/>
		<path class="st1" d="M133.2,126.9l-13.5-47.1"/>
		<path class="st1" d="M123.9,129.6l-13.5-47.1"/>
		<path class="st1" d="M114.5,132.3L101,85.2"/>
		<path class="st1" d="M147.3,122.9l-13.5-47.1"/>
		<path class="st1" d="M137.9,125.6l-13.5-47.1"/>
		<path class="st1" d="M128.6,128.2l-13.5-47"/>
		<path class="st1" d="M119.2,130.9l-13.5-47.1"/>
		<path class="st1" d="M109.9,133.6L96.4,86.5"/>
		<path class="st1" d="M138.5,74.8L125,27.7"/>
		<path class="st1" d="M129.2,77.5l-13.5-47.1"/>
		<path class="st1" d="M119.8,80.1l-13.5-47"/>
		<path class="st1" d="M110.5,82.8L97,35.7"/>
		<path class="st1" d="M101.1,85.5L87.6,38.4"/>
		<path class="st1" d="M133.9,76.1L120.4,29"/>
		<path class="st1" d="M124.5,78.8L111,31.7"/>
		<path class="st1" d="M115.2,81.5l-13.5-47.1"/>
		<path class="st1" d="M105.8,84.2L92.3,37.1"/>
		<path class="st1" d="M96.5,86.8L83,39.8"/>
		<path class="st1" d="M25.1,207.9l-13.5-47.1"/>
		<path class="st1" d="M15.7,210.6L2.2,163.5"/>
		<path class="st1" d="M6.4,213.3l-13.5-47.1"/>
		<path class="st1" d="M-3,216l-13.5-47.1"/>
		<path class="st1" d="M-12.3,218.6l-13.5-47"/>
		<path class="st1" d="M20.4,209.3L6.9,162.2"/>
		<path class="st1" d="M11.1,211.9l-13.5-47"/>
		<path class="st1" d="M1.7,214.6l-13.5-47.1"/>
		<path class="st1" d="M-7.6,217.3l-13.5-47.1"/>
		<path class="st1" d="M-17,220l-13.5-47.1"/>
		<path class="st1" d="M11.7,161.2l-13.5-47.1"/>
		<path class="st1" d="M2.3,163.8l-13.5-47"/>
		<path class="st1" d="M-7,166.5l-13.5-47.1"/>
		<path class="st1" d="M-16.4,169.2l-13.5-47.1"/>
		<path class="st1" d="M-25.7,171.9l-13.5-47.1"/>
		<path class="st1" d="M7,162.5l-13.5-47.1"/>
		<path class="st1" d="M-2.3,165.2l-13.5-47.1"/>
		<path class="st1" d="M-11.7,167.9l-13.5-47.1"/>
		<path class="st1" d="M-21,170.5l-13.5-47"/>
		<path class="st1" d="M-30.4,173.2l-13.5-47.1"/>
		<path class="st1" d="M-1.7,114.4l-13.5-47.1"/>
		<path class="st1" d="M-11.1,117.1L-24.6,70"/>
		<path class="st1" d="M-20.4,119.8l-13.5-47.1"/>
		<path class="st1" d="M-29.8,122.5l-13.5-47.1"/>
		<path class="st1" d="M-39.1,125.1l-13.5-47"/>
		<path class="st1" d="M-6.4,115.7l-13.5-47"/>
		<path class="st1" d="M-15.8,118.4l-13.5-47.1"/>
		<path class="st1" d="M-25.1,121.1L-38.6,74"/>
		<path class="st1" d="M-34.5,123.8L-48,76.7"/>
		<path class="st1" d="M-43.8,126.5l-13.5-47.1"/>
		<path class="st1" d="M71.8,194.5l-13.5-47.1"/>
		<path class="st1" d="M62.5,197.2L49,150.1"/>
		<path class="st1" d="M53.1,199.9l-13.5-47.1"/>
		<path class="st1" d="M43.8,202.6l-13.5-47.1"/>
		<path class="st1" d="M34.4,205.2l-13.5-47"/>
		<path class="st1" d="M67.2,195.8l-13.5-47"/>
		<path class="st1" d="M57.8,198.5l-13.5-47"/>
		<path class="st1" d="M48.5,201.2L35,154.1"/>
		<path class="st1" d="M39.1,203.9l-13.5-47.1"/>
		<path class="st1" d="M29.8,206.6l-13.5-47.1"/>
		<path class="st1" d="M58.4,147.8l-13.5-47.1"/>
		<path class="st1" d="M49.1,150.4l-13.5-47"/>
		<path class="st1" d="M39.7,153.1L26.2,106"/>
		<path class="st1" d="M30.4,155.8l-13.5-47.1"/>
		<path class="st1" d="M21,158.5L7.5,111.4"/>
		<path class="st1" d="M53.8,149.1L40.3,102"/>
		<path class="st1" d="M44.4,151.8l-13.5-47.1"/>
		<path class="st1" d="M35.1,154.5l-13.5-47.1"/>
		<path class="st1" d="M25.7,157.1l-13.5-47"/>
		<path class="st1" d="M16.4,159.8L2.9,112.7"/>
		<path class="st1" d="M45,101L31.5,53.9"/>
		<path class="st1" d="M35.7,103.7L22.2,56.6"/>
		<path class="st1" d="M26.3,106.4L12.8,59.3"/>
		<path class="st1" d="M17,109L3.5,62"/>
		<path class="st1" d="M7.6,111.7l-13.5-47"/>
		<path class="st1" d="M40.3,102.3l-13.4-47"/>
		<path class="st1" d="M31,105L17.5,57.9"/>
		<path class="st1" d="M21.6,107.7L8.2,60.6"/>
		<path class="st1" d="M12.3,110.4L-1.2,63.3"/>
		<path class="st1" d="M2.9,113.1L-10.6,66"/>
		<path class="st1" d="M343.1,266.1L329.6,219"/>
		<path class="st1" d="M333.8,268.7l-13.5-47"/>
		<path class="st1" d="M324.4,271.4l-13.5-47.1"/>
		<path class="st1" d="M315.1,274.1L301.6,227"/>
		<path class="st1" d="M305.7,276.8l-13.5-47.1"/>
		<path class="st1" d="M338.5,267.4L325,220.3"/>
		<path class="st1" d="M329.1,270.1L315.6,223"/>
		<path class="st1" d="M319.8,272.8l-13.5-47.1"/>
		<path class="st1" d="M310.4,275.4l-13.5-47"/>
		<path class="st1" d="M301.1,278.1l-13.5-47"/>
		<path class="st1" d="M329.7,219.3l-13.5-47.1"/>
		<path class="st1" d="M320.4,222l-13.5-47.1"/>
		<path class="st1" d="M311,224.7l-13.5-47.1"/>
		<path class="st1" d="M301.7,227.4l-13.5-47.1"/>
		<path class="st1" d="M292.3,230l-13.5-47"/>
		<path class="st1" d="M325.1,220.6l-13.5-47"/>
		<path class="st1" d="M315.7,223.3l-13.5-47"/>
		<path class="st1" d="M306.4,226l-13.5-47.1"/>
		<path class="st1" d="M297,228.7l-13.5-47.1"/>
		<path class="st1" d="M287.7,231.4l-13.5-47.1"/>
		<path class="st1" d="M316.3,172.6l-13.5-47.1"/>
		<path class="st1" d="M307,175.2l-13.5-47"/>
		<path class="st1" d="M297.6,177.9l-13.5-47.1"/>
		<path class="st1" d="M288.3,180.6l-13.5-47.1"/>
		<path class="st1" d="M278.9,183.3l-13.5-47.1"/>
		<path class="st1" d="M311.7,173.9l-13.5-47.1"/>
		<path class="st1" d="M302.3,176.6l-13.5-47.1"/>
		<path class="st1" d="M293,179.3l-13.5-47.1"/>
		<path class="st1" d="M283.6,181.9l-13.5-47"/>
		<path class="st1" d="M274.3,184.6l-13.6-47.1"/>
		<path class="st1" d="M389.9,252.7l-13.5-47.1"/>
		<path class="st1" d="M380.5,255.3l-13.5-47"/>
		<path class="st1" d="M371.2,258l-13.5-47.1"/>
		<path class="st1" d="M361.8,260.7l-13.5-47.1"/>
		<path class="st1" d="M352.5,263.4L339,216.3"/>
		<path class="st1" d="M385.2,254l-13.5-47.1"/>
		<path class="st1" d="M375.9,256.7l-13.5-47.1"/>
		<path class="st1" d="M366.5,259.4L353,212.3"/>
		<path class="st1" d="M357.2,262l-13.5-47"/>
		<path class="st1" d="M347.8,264.7l-13.5-47.1"/>
		<path class="st1" d="M376.5,205.9L363,158.8"/>
		<path class="st1" d="M367.1,208.6l-13.5-47.1"/>
		<path class="st1" d="M357.8,211.3l-13.5-47.1"/>
		<path class="st1" d="M348.4,213.9l-13.5-47"/>
		<path class="st1" d="M339.1,216.6l-13.5-47.1"/>
		<path class="st1" d="M371.8,207.2l-13.5-47"/>
		<path class="st1" d="M362.5,209.9L349,162.8"/>
		<path class="st1" d="M353.1,212.6l-13.5-47.1"/>
		<path class="st1" d="M343.8,215.3l-13.5-47.1"/>
		<path class="st1" d="M334.4,218l-13.5-47.1"/>
		<path class="st1" d="M167.7,264.9l-13.5-47.1"/>
		<path class="st1" d="M158.4,267.6l-13.5-47.1"/>
		<path class="st1" d="M149,270.2l-13.5-47"/>
		<path class="st1" d="M139.7,272.9l-13.5-47"/>
		<path class="st1" d="M130.3,275.6l-13.5-47.1"/>
		<path class="st1" d="M163.1,266.2l-13.5-47.1"/>
		<path class="st1" d="M153.7,268.9l-13.5-47.1"/>
		<path class="st1" d="M144.4,271.6l-13.5-47.1"/>
		<path class="st1" d="M135,274.3l-13.5-47.1"/>
		<path class="st1" d="M125.7,277l-13.5-47.1"/>
		<path class="st1" d="M154.3,218.1l-13.5-47"/>
		<path class="st1" d="M145,220.8l-13.5-47.1"/>
		<path class="st1" d="M135.6,223.5l-13.5-47.1"/>
		<path class="st1" d="M126.3,226.2l-13.5-47.1"/>
		<path class="st1" d="M116.9,228.9l-13.5-47.1"/>
		<path class="st1" d="M149.6,219.5l-13.4-47.1"/>
		<path class="st1" d="M140.3,222.2l-13.5-47.1"/>
		<path class="st1" d="M130.9,224.8l-13.5-47"/>
		<path class="st1" d="M121.6,227.5l-13.5-47.1"/>
		<path class="st1" d="M112.2,230.2l-13.5-47.1"/>
		<path class="st1" d="M214.5,251.5L201,204.4"/>
		<path class="st1" d="M205.1,254.2l-13.5-47.1"/>
		<path class="st1" d="M195.8,256.8l-13.5-47"/>
		<path class="st1" d="M186.4,259.5l-13.5-47.1"/>
		<path class="st1" d="M177.1,262.2l-13.5-47.1"/>
		<path class="st1" d="M209.8,252.8l-13.5-47.1"/>
		<path class="st1" d="M200.5,255.5L187,208.4"/>
		<path class="st1" d="M191.1,258.2l-13.5-47.1"/>
		<path class="st1" d="M181.8,260.9l-13.5-47.1"/>
		<path class="st1" d="M172.4,263.5l-13.5-47"/>
		<path class="st1" d="M61.7,247.7l-13.5-47.1"/>
		<path class="st1" d="M52.3,250.4l-13.5-47.1"/>
		<path class="st1" d="M43,253.1L29.5,206"/>
		<path class="st1" d="M33.6,255.7l-13.5-47"/>
		<path class="st1" d="M24.3,258.4l-13.5-47"/>
		<path class="st1" d="M57,249l-13.5-47"/>
		<path class="st1" d="M47.7,251.7l-13.5-47.1"/>
		<path class="st1" d="M38.3,254.4l-13.5-47.1"/>
		<path class="st1" d="M28.9,257.1L15.4,210"/>
		<path class="st1" d="M19.6,259.8L6.1,212.7"/>
		<path class="st1" d="M108.4,234.3l-13.5-47.1"/>
		<path class="st1" d="M99.1,237l-13.5-47.1"/>
		<path class="st1" d="M89.7,239.7l-13.5-47.1"/>
		<path class="st1" d="M80.4,242.3l-13.5-47"/>
		<path class="st1" d="M71,245l-13.5-47.1"/>
		<path class="st1" d="M103.8,235.6l-13.5-47"/>
		<path class="st1" d="M94.4,238.3l-13.5-47.1"/>
		<path class="st1" d="M85.1,241l-13.5-47.1"/>
		<path class="st1" d="M75.7,243.7l-13.5-47.1"/>
		<path class="st1" d="M66.3,246.4l-13.4-47.1"/>
		<path class="st1" d="M201.1,204.7l-13.5-47.1"/>
		<path class="st1" d="M191.7,207.4l-13.5-47.1"/>
		<path class="st1" d="M182.4,210.1L168.9,163"/>
		<path class="st1" d="M173,212.8l-13.5-47.1"/>
		<path class="st1" d="M163.7,215.5l-13.5-47.1"/>
		<path class="st1" d="M196.4,206.1L182.9,159"/>
		<path class="st1" d="M187,208.7l-13.4-47"/>
		<path class="st1" d="M177.7,211.4l-13.5-47"/>
		<path class="st1" d="M168.3,214.1L154.9,167"/>
		<path class="st1" d="M159,216.8l-13.5-47.1"/>
		<path class="st1" d="M363.1,159.1l-13.5-47"/>
		<path class="st1" d="M353.7,161.8l-13.5-47"/>
		<path class="st1" d="M344.4,164.5l-13.5-47.1"/>
		<path class="st1" d="M335,167.2l-13.5-47.1"/>
		<path class="st1" d="M325.7,169.9l-13.5-47.1"/>
		<path class="st1" d="M358.4,160.5l-13.5-47.1"/>
		<path class="st1" d="M349.1,163.2l-13.5-47.1"/>
		<path class="st1" d="M339.7,165.9l-13.5-47.1"/>
		<path class="st1" d="M330.4,168.5l-13.5-47"/>
		<path class="st1" d="M321,171.2l-13.5-47.1"/>
	</g>
</g>
</svg>
