<?xml version="1.0" encoding="utf-8"?>
<!-- Generator: Adobe Illustrator 20.1.0, SVG Export Plug-In . SVG Version: 6.00 Build 0)  -->
<svg version="1.1" id="Layer_2" xmlns="http://www.w3.org/2000/svg" xmlns:xlink="http://www.w3.org/1999/xlink" x="0px" y="0px"
	 viewBox="0 0 299.6 286" style="enable-background:new 0 0 299.6 286;" xml:space="preserve">
<style type="text/css">
	.st0{fill:#8DB2DE;}
	.st1{fill:#513534;}
	.st2{fill:#6BC077;}
	.st3{clip-path:url(#SVGID_2_);}
	.st4{clip-path:url(#SVGID_4_);fill:#231F20;}
	.st5{clip-path:url(#SVGID_6_);fill:#231F20;}
	.st6{fill:#F47E65;}
	.st7{fill:#523634;}
	.st8{clip-path:url(#SVGID_8_);}
	.st9{fill:#231F20;}
	.st10{clip-path:url(#SVGID_10_);}
	.st11{clip-path:url(#SVGID_12_);fill:#221F1F;}
	.st12{clip-path:url(#SVGID_14_);fill:#221F1F;}
	.st13{clip-path:url(#SVGID_16_);}
	.st14{clip-path:url(#SVGID_18_);fill:#221F1F;}
	.st15{clip-path:url(#SVGID_20_);fill:#221F1F;}
	.st16{clip-path:url(#SVGID_22_);}
	.st17{clip-path:url(#SVGID_24_);}
	.st18{clip-path:url(#SVGID_26_);fill:#8C8786;}
	.st19{clip-path:url(#SVGID_28_);fill:#8C8786;}
	.st20{clip-path:url(#SVGID_30_);fill:#8C8786;}
	.st21{clip-path:url(#SVGID_32_);fill:#8C8786;}
	.st22{clip-path:url(#SVGID_34_);fill:#8C8786;}
	.st23{clip-path:url(#SVGID_36_);fill:#8C8786;}
	.st24{clip-path:url(#SVGID_38_);fill:#8C8786;}
	.st25{clip-path:url(#SVGID_40_);fill:#8C8786;}
	.st26{clip-path:url(#SVGID_42_);fill:#8C8786;}
	.st27{clip-path:url(#SVGID_44_);fill:#8C8786;}
	.st28{clip-path:url(#SVGID_46_);}
	.st29{clip-path:url(#SVGID_48_);fill:#8C8786;}
	.st30{clip-path:url(#SVGID_50_);fill:#8C8786;}
	.st31{clip-path:url(#SVGID_52_);fill:#8C8786;}
	.st32{clip-path:url(#SVGID_54_);fill:#8C8786;}
	.st33{clip-path:url(#SVGID_56_);fill:#8C8786;}
	.st34{clip-path:url(#SVGID_58_);fill:#8C8786;}
	.st35{clip-path:url(#SVGID_60_);fill:#8C8786;}
	.st36{clip-path:url(#SVGID_62_);fill:#8C8786;}
	.st37{clip-path:url(#SVGID_64_);}
	.st38{clip-path:url(#SVGID_66_);fill:#8C8786;}
	.st39{clip-path:url(#SVGID_68_);fill:#8C8786;}
	.st40{clip-path:url(#SVGID_70_);fill:#8C8786;}
	.st41{clip-path:url(#SVGID_72_);}
	.st42{clip-path:url(#SVGID_74_);}
	.st43{clip-path:url(#SVGID_76_);fill:#221F1F;}
	.st44{clip-path:url(#SVGID_78_);fill:#221F1F;}
	.st45{clip-path:url(#SVGID_80_);fill:#221F1F;}
	.st46{clip-path:url(#SVGID_82_);fill:#221F1F;}
	.st47{clip-path:url(#SVGID_84_);fill:#221F1F;}
	.st48{clip-path:url(#SVGID_86_);fill:#221F1F;}
	.st49{clip-path:url(#SVGID_88_);}
	.st50{clip-path:url(#SVGID_90_);fill:#8C8786;}
	.st51{clip-path:url(#SVGID_92_);fill:#8C8786;}
	.st52{clip-path:url(#SVGID_94_);fill:#8C8786;}
	.st53{clip-path:url(#SVGID_96_);fill:#8C8786;}
	.st54{clip-path:url(#SVGID_98_);fill:#8C8786;}
	.st55{clip-path:url(#SVGID_100_);}
	.st56{clip-path:url(#SVGID_102_);fill:#8C8786;}
	.st57{clip-path:url(#SVGID_104_);fill:#8C8786;}
	.st58{clip-path:url(#SVGID_106_);fill:#8C8786;}
	.st59{clip-path:url(#SVGID_108_);fill:#8C8786;}
	.st60{clip-path:url(#SVGID_110_);fill:#8C8786;}
	.st61{clip-path:url(#SVGID_112_);fill:#8C8786;}
	.st62{clip-path:url(#SVGID_114_);}
	.st63{clip-path:url(#SVGID_116_);fill:#8C8786;}
	.st64{clip-path:url(#SVGID_116_);fill:#5C5656;}
	.st65{clip-path:url(#SVGID_118_);fill:#8C8786;}
	.st66{clip-path:url(#SVGID_120_);fill:#8C8786;}
	.st67{clip-path:url(#SVGID_122_);}
	.st68{clip-path:url(#SVGID_124_);fill:#221F1F;}
	.st69{clip-path:url(#SVGID_126_);fill:#221F1F;}
	.st70{clip-path:url(#SVGID_128_);}
	.st71{clip-path:url(#SVGID_130_);fill:#8C8786;}
	.st72{clip-path:url(#SVGID_132_);fill:#8C8786;}
	.st73{clip-path:url(#SVGID_134_);fill:#8C8786;}
	.st74{clip-path:url(#SVGID_136_);fill:#8C8786;}
	.st75{clip-path:url(#SVGID_138_);fill:#8C8786;}
	.st76{clip-path:url(#SVGID_140_);}
	.st77{clip-path:url(#SVGID_142_);fill:#211E1F;}
	.st78{clip-path:url(#SVGID_144_);fill:#211E1F;}
	.st79{clip-path:url(#SVGID_146_);fill:#211E1F;}
	.st80{clip-path:url(#SVGID_148_);fill:#211E1F;}
	.st81{clip-path:url(#SVGID_150_);fill:#211E1F;}
	.st82{clip-path:url(#SVGID_152_);fill:#211E1F;}
	.st83{clip-path:url(#SVGID_154_);fill:#211E1F;}
	.st84{clip-path:url(#SVGID_156_);}
	.st85{clip-path:url(#SVGID_158_);fill:#211E1F;}
	.st86{clip-path:url(#SVGID_160_);fill:#211E1F;}
	.st87{clip-path:url(#SVGID_162_);fill:#211E1F;}
	.st88{clip-path:url(#SVGID_164_);fill:#211E1F;}
	.st89{clip-path:url(#SVGID_166_);fill:#211E1F;}
	.st90{clip-path:url(#SVGID_168_);}
	.st91{clip-path:url(#SVGID_170_);fill:#211E1F;}
	.st92{clip-path:url(#SVGID_172_);fill:#211E1F;}
	.st93{clip-path:url(#SVGID_174_);fill:#211E1F;}
	.st94{clip-path:url(#SVGID_176_);fill:#211E1F;}
	.st95{clip-path:url(#SVGID_178_);fill:#211E1F;}
	.st96{clip-path:url(#SVGID_180_);fill:#211E1F;}
	.st97{clip-path:url(#SVGID_182_);}
	.st98{clip-path:url(#SVGID_184_);fill:#211E1F;}
	.st99{clip-path:url(#SVGID_186_);fill:#211E1F;}
	.st100{clip-path:url(#SVGID_188_);fill:#211E1F;}
	.st101{clip-path:url(#SVGID_190_);fill:#211E1F;}
	.st102{clip-path:url(#SVGID_192_);fill:#211E1F;}
	.st103{clip-path:url(#SVGID_194_);fill:#211E1F;}
	.st104{clip-path:url(#SVGID_196_);}
	.st105{clip-path:url(#SVGID_198_);fill:#211E1F;}
	.st106{clip-path:url(#SVGID_200_);fill:#211E1F;}
	.st107{clip-path:url(#SVGID_202_);fill:#211E1F;}
	.st108{clip-path:url(#SVGID_204_);fill:#211E1F;}
	.st109{clip-path:url(#SVGID_206_);fill:#211E1F;}
	.st110{fill:#BDB9B9;}
	.st111{clip-path:url(#SVGID_208_);}
	.st112{fill:#CDC2C0;}
	.st113{clip-path:url(#SVGID_210_);}
	.st114{clip-path:url(#SVGID_212_);}
	.st115{clip-path:url(#SVGID_214_);fill:#BDB9B9;}
	.st116{clip-path:url(#SVGID_216_);fill:#BDB9B9;}
	.st117{clip-path:url(#SVGID_218_);fill:#BDB9B9;}
	.st118{clip-path:url(#SVGID_220_);fill:#BDB9B9;}
	.st119{clip-path:url(#SVGID_222_);fill:#BDB9B9;}
	.st120{clip-path:url(#SVGID_224_);fill:#BDB9B9;}
	.st121{clip-path:url(#SVGID_226_);fill:#BDB9B9;}
	.st122{clip-path:url(#SVGID_228_);fill:#BDB9B9;}
	.st123{clip-path:url(#SVGID_230_);fill:#BDB9B9;}
	.st124{clip-path:url(#SVGID_232_);fill:#BDB9B9;}
	.st125{clip-path:url(#SVGID_234_);fill:#BDB9B9;}
	.st126{clip-path:url(#SVGID_236_);fill:#BDB9B9;}
	.st127{display:none;}
	.st128{display:inline;}
	.st129{display:inline;clip-path:url(#SVGID_238_);}
	.st130{clip-path:url(#SVGID_240_);}
	.st131{clip-path:url(#SVGID_242_);fill:#211E1F;}
	.st132{clip-path:url(#SVGID_244_);fill:#211E1F;}
	.st133{clip-path:url(#SVGID_246_);fill:#211E1F;}
	.st134{clip-path:url(#SVGID_248_);fill:#211E1F;}
	.st135{clip-path:url(#SVGID_250_);fill:#211E1F;}
	.st136{clip-path:url(#SVGID_252_);}
	.st137{clip-path:url(#SVGID_254_);fill:#211E1F;}
	.st138{clip-path:url(#SVGID_256_);fill:#211E1F;}
	.st139{clip-path:url(#SVGID_258_);fill:#211E1F;}
	.st140{clip-path:url(#SVGID_260_);fill:#211E1F;}
	.st141{clip-path:url(#SVGID_262_);fill:#211E1F;}
	.st142{clip-path:url(#SVGID_264_);fill:#211E1F;}
	.st143{clip-path:url(#SVGID_266_);fill:#211E1F;}
	.st144{clip-path:url(#SVGID_268_);}
	.st145{clip-path:url(#SVGID_270_);fill:#211E1F;}
	.st146{clip-path:url(#SVGID_272_);fill:#211E1F;}
	.st147{clip-path:url(#SVGID_274_);fill:#211E1F;}
	.st148{clip-path:url(#SVGID_276_);fill:#211E1F;}
	.st149{clip-path:url(#SVGID_278_);fill:#211E1F;}
	.st150{clip-path:url(#SVGID_280_);fill:#211E1F;}
	.st151{clip-path:url(#SVGID_282_);fill:#211E1F;}
	.st152{clip-path:url(#SVGID_284_);fill:#211E1F;}
	.st153{clip-path:url(#SVGID_286_);}
	.st154{clip-path:url(#SVGID_288_);}
	.st155{clip-path:url(#SVGID_290_);}
	.st156{clip-path:url(#SVGID_292_);}
	.st157{clip-path:url(#SVGID_294_);}
	.st158{clip-path:url(#SVGID_296_);fill:#635D5D;}
	.st159{clip-path:url(#SVGID_298_);fill:#635D5D;}
	.st160{clip-path:url(#SVGID_300_);fill:#635D5D;}
	.st161{clip-path:url(#SVGID_302_);fill:#635D5D;}
	.st162{clip-path:url(#SVGID_304_);fill:#635D5D;}
	.st163{clip-path:url(#SVGID_306_);}
	.st164{clip-path:url(#SVGID_308_);fill:#8C8786;}
	.st165{clip-path:url(#SVGID_308_);fill:#474242;}
	.st166{clip-path:url(#SVGID_310_);fill:#8C8786;}
	.st167{clip-path:url(#SVGID_310_);fill:#474242;}
	.st168{clip-path:url(#SVGID_312_);fill:#474242;}
	.st169{clip-path:url(#SVGID_312_);fill:#8C8786;}
	.st170{clip-path:url(#SVGID_314_);}
	.st171{clip-path:url(#SVGID_316_);}
	.st172{clip-path:url(#SVGID_318_);}
</style>
<g>
	<defs>
		<path id="SVGID_317_" d="M253.4,190.8c-16.1-13.6-73.1-39.3-79.8-42.2l1.8-3.8C183.6,120,208,133,208,133
			c78.8,20.9,80.2-83.7,54.6-104.6c-25.6-20.9-52.3-7.2-66.7,9.9c-14.4,17.1-42.5,80.4-42.5,80.4l-3.4,4.7l-5.6,6.2
			c-19.8-9.3-8.2-31.2-8.2-31.2c20.9-78.8-83.7-80.2-104.6-54.6c-20.9,25.6-7.2,52.3,9.9,66.7c17.1,14.4,80.4,42.5,80.4,42.5
			l1.1,0.8c-9.7,17.5-30.4,6.6-30.4,6.6C13.9,139.4,12.4,244,38,265c25.6,20.9,52.3,7.2,66.7-9.9c14.4-17.1,42.5-80.4,42.5-80.4
			l2.4-3.3c20.9,9.1,9,31.5,9,31.5c-20.9,78.8,83.7,80.2,104.6,54.6C284.2,231.9,270.4,205.2,253.4,190.8"/>
	</defs>
	<clipPath id="SVGID_2_">
		<use xlink:href="#SVGID_317_"  style="overflow:visible;"/>
	</clipPath>
	<polyline class="st3" points="-57.2,322.2 46.1,-27.7 45.1,-28 -58.1,321.9 	"/>
	<polyline class="st3" points="-52.4,322.2 50.9,-27.7 49.9,-28 -53.4,321.9 	"/>
	<polyline class="st3" points="-47.2,322.2 56.1,-27.7 55.1,-28 -48.2,321.9 	"/>
	<polyline class="st3" points="-42.5,322.2 60.8,-27.7 59.9,-28 -43.4,321.9 	"/>
	<polyline class="st3" points="-38,322.2 65.3,-27.7 64.3,-28 -38.9,321.9 	"/>
	<polyline class="st3" points="-33.2,322.2 70.1,-27.7 69.1,-28 -34.2,321.9 	"/>
	<polyline class="st3" points="-28,322.2 75.3,-27.7 74.3,-28 -29,321.9 	"/>
	<polyline class="st3" points="-23.3,322.2 80,-27.7 79.1,-28 -24.2,321.9 	"/>
	<polyline class="st3" points="-17.9,322.2 85.4,-27.7 84.4,-28 -18.9,321.9 	"/>
	<polyline class="st3" points="-13.1,322.2 90.1,-27.7 89.2,-28 -14.1,321.9 	"/>
	<polyline class="st3" points="-8,322.2 95.3,-27.7 94.4,-28 -8.9,321.9 	"/>
	<polyline class="st3" points="-3.2,322.2 100.1,-27.7 99.1,-28 -4.2,321.9 	"/>
	<polyline class="st3" points="1.3,322.2 104.6,-27.7 103.6,-28 0.3,321.9 	"/>
	<polyline class="st3" points="6,322.2 109.3,-27.7 108.4,-28 5.1,321.9 	"/>
	<polyline class="st3" points="11.2,322.2 114.5,-27.7 113.6,-28 10.3,321.9 	"/>
	<polyline class="st3" points="16,322.2 119.3,-27.7 118.3,-28 15,321.9 	"/>
	<polyline class="st3" points="21.4,322.2 124.7,-27.7 123.7,-28 20.4,321.9 	"/>
	<polyline class="st3" points="26.1,322.2 129.4,-27.7 128.5,-28 25.2,321.9 	"/>
	<polyline class="st3" points="31.3,322.2 134.6,-27.7 133.6,-28 30.4,321.9 	"/>
	<polyline class="st3" points="36.1,322.2 139.4,-27.7 138.4,-28 35.1,321.9 	"/>
	<polyline class="st3" points="40.6,322.2 143.8,-27.7 142.9,-28 39.6,321.9 	"/>
	<polyline class="st3" points="45.3,322.2 148.6,-27.7 147.7,-28 44.4,321.9 	"/>
	<polyline class="st3" points="50.5,322.2 153.8,-27.7 152.8,-28 49.6,321.9 	"/>
	<polyline class="st3" points="55.3,322.2 158.6,-27.7 157.6,-28 54.3,321.9 	"/>
	<polyline class="st3" points="60.6,322.2 163.9,-27.7 163,-28 59.7,321.9 	"/>
	<polyline class="st3" points="65.4,322.2 168.7,-27.7 167.7,-28 64.4,321.9 	"/>
	<polyline class="st3" points="70.6,322.2 173.9,-27.7 172.9,-28 69.6,321.9 	"/>
	<polyline class="st3" points="75.4,322.2 178.6,-27.7 177.7,-28 74.4,321.9 	"/>
	<polyline class="st3" points="79.8,322.2 183.1,-27.7 182.2,-28 78.9,321.9 	"/>
	<polyline class="st3" points="84.6,322.2 187.9,-27.7 186.9,-28 83.6,321.9 	"/>
	<polyline class="st3" points="89.8,322.2 193.1,-27.7 192.1,-28 88.8,321.9 	"/>
	<polyline class="st3" points="94.5,322.2 197.8,-27.7 196.9,-28 93.6,321.9 	"/>
	<polyline class="st3" points="99.1,322.2 202.4,-27.7 201.5,-28 98.2,321.9 	"/>
	<polyline class="st3" points="103.9,322.2 207.2,-27.7 206.2,-28 102.9,321.9 	"/>
	<polyline class="st3" points="109.1,322.2 212.4,-27.7 211.4,-28 108.1,321.9 	"/>
	<polyline class="st3" points="113.9,322.2 217.1,-27.7 216.2,-28 112.9,321.9 	"/>
	<polyline class="st3" points="118.3,322.2 221.6,-27.7 220.7,-28 117.4,321.9 	"/>
	<polyline class="st3" points="123.1,322.2 226.4,-27.7 225.4,-28 122.1,321.9 	"/>
	<polyline class="st3" points="128.3,322.2 231.6,-27.7 230.6,-28 127.3,321.9 	"/>
	<polyline class="st3" points="133,322.2 236.3,-27.7 235.4,-28 132.1,321.9 	"/>
	<polyline class="st3" points="138.4,322.2 241.7,-27.7 240.7,-28 137.5,321.9 	"/>
	<polyline class="st3" points="143.2,322.2 246.5,-27.7 245.5,-28 142.2,321.9 	"/>
	<polyline class="st3" points="148.4,322.2 251.6,-27.7 250.7,-28 147.4,321.9 	"/>
	<polyline class="st3" points="153.1,322.2 256.4,-27.7 255.5,-28 152.2,321.9 	"/>
	<polyline class="st3" points="157.6,322.2 260.9,-27.7 259.9,-28 156.6,321.9 	"/>
	<polyline class="st3" points="162.4,322.2 265.7,-27.7 264.7,-28 161.4,321.9 	"/>
	<polyline class="st3" points="167.6,322.2 270.8,-27.7 269.9,-28 166.6,321.9 	"/>
	<polyline class="st3" points="172.3,322.2 275.6,-27.7 274.6,-28 171.4,321.9 	"/>
	<polyline class="st3" points="177.7,322.2 281,-27.7 280,-28 176.7,321.9 	"/>
	<polyline class="st3" points="182.5,322.2 285.7,-27.7 284.8,-28 181.5,321.9 	"/>
	<polyline class="st3" points="187.6,322.2 290.9,-27.7 290,-28 186.7,321.9 	"/>
	<polyline class="st3" points="192.4,322.2 295.7,-27.7 294.7,-28 191.4,321.9 	"/>
	<polyline class="st3" points="196.9,322.2 300.2,-27.7 299.2,-28 195.9,321.9 	"/>
	<polyline class="st3" points="201.6,322.2 304.9,-27.7 304,-28 200.7,321.9 	"/>
	<polyline class="st3" points="206.8,322.2 310.1,-27.7 309.2,-28 205.9,321.9 	"/>
	<polyline class="st3" points="211.6,322.2 314.9,-27.7 313.9,-28 210.6,321.9 	"/>
	<polyline class="st3" points="217,322.2 320.2,-27.7 319.3,-28 216,321.9 	"/>
	<polyline class="st3" points="221.7,322.2 325,-27.7 324,-28 220.8,321.9 	"/>
	<polyline class="st3" points="226.9,322.2 330.2,-27.7 329.2,-28 225.9,321.9 	"/>
	<polyline class="st3" points="231.7,322.2 335,-27.7 334,-28 230.7,321.9 	"/>
	<polyline class="st3" points="236.2,322.2 339.4,-27.7 338.5,-28 235.2,321.9 	"/>
	<polyline class="st3" points="240.9,322.2 344.2,-27.7 343.2,-28 240,321.9 	"/>
	<polyline class="st3" points="246.1,322.2 349.4,-27.7 348.4,-28 245.1,321.9 	"/>
	<polyline class="st3" points="250.9,322.2 354.2,-27.7 353.2,-28 249.9,321.9 	"/>
</g>
</svg>
