<?xml version="1.0" encoding="utf-8"?>
<!-- Generator: Adobe Illustrator 20.1.0, SVG Export Plug-In . SVG Version: 6.00 Build 0)  -->
<svg version="1.1" id="Layer_1" xmlns="http://www.w3.org/2000/svg" xmlns:xlink="http://www.w3.org/1999/xlink" x="0px" y="0px"
	 viewBox="0 0 149.8 124.8" style="enable-background:new 0 0 149.8 124.8;" xml:space="preserve">
<style type="text/css">
	.st0{fill:#6CC077;stroke:#503433;stroke-width:0.75;stroke-linecap:round;stroke-linejoin:round;stroke-miterlimit:10;}
	.st1{fill:#8BB0DD;stroke:#503433;stroke-width:0.75;stroke-linecap:round;stroke-linejoin:round;stroke-miterlimit:10;}
	.st2{fill:#FBF6EC;stroke:#503433;stroke-width:0.75;stroke-linecap:round;stroke-linejoin:round;stroke-miterlimit:10;}
	.st3{fill:none;stroke:#503433;stroke-width:0.75;stroke-linecap:round;stroke-linejoin:round;stroke-miterlimit:10;}
	.st4{fill:#503433;stroke:#503433;stroke-width:0.75;stroke-linecap:round;stroke-linejoin:round;stroke-miterlimit:10;}
</style>
<g>
	<path class="st0" d="M30.8,56.3c0-11.4,2-12.6,4.6-15c2.7-2.3,10.2-1.7,10.2-1.7c-1.1-3.7-7.6-3-7.6-3c-3.2,4.7-3.5,1.9-11.9,5.8
		s-7.4,15.4-2.6,19.3c4.7,3.9,13.4,5,13.4,5C36.9,66.7,30.9,62.1,30.8,56.3z"/>
	<path class="st1" d="M137.4,66.2c0.7-7.6,2.1-37.5-5.9-46.5c-7.9-9.1-15.6,4.5-18.1,12s-5.2,23.2-3.2,44.7s11.3,21.3,11.3,21.3
		C131.8,96.7,136.7,73.8,137.4,66.2z"/>
	<path class="st2" d="M30.7,47.8c-2,6.9,0.1,13,1.7,15.6c2,3.3,6.1,3.7,6.1,3.7L37,63.4l19.7,2.8c0,0,3.2,3.9,8.2,4.8
		s16.9,2.6,26.2,6.7c9.3,4.2,17.1,11.3,17.1,11.3c-8-33.3,3.6-64.3,3.6-64.3c-11.5,8.9-24.4,11.9-33.7,13.4s-38.8,1.5-38.8,1.5
		C39.3,39.6,32.6,40.9,30.7,47.8z"/>
	<path class="st2" d="M64.9,71c-4.7-0.8-8.2-4.7-8.2-4.8L37,63.4c0,0,3.2,12.3,5.4,13c2.1,0.6,4.3,3.2,4.3,3.2s4.1,18.7,5.8,25.8
		s5.8,8.6,8.4,6.9s7.6-6.9,7.6-6.9c-4.5-8-5.6-19.9-5.6-19.9C65.5,82,61.2,77,61,74.2S64.9,71,64.9,71L64.9,71z"/>
	<path class="st3" d="M137.4,66.2c0.7-7.6,2.1-37.5-5.9-46.5c-7.9-9.1-15.6,4.5-18.1,12s-5.2,23.2-3.2,44.7s11.3,21.3,11.3,21.3
		C131.8,96.7,136.7,73.8,137.4,66.2z"/>
	<path class="st2" d="M109.5,66.6l12.8,1.2c0,0,6,0.6,7-7.3c0.7-5.5-0.3-10.6-3.1-12c-3.6-1.8-15.8-3.3-15.8-3.3
		C106.9,56.3,109.5,66.7,109.5,66.6z"/>
	<g>
		
			<ellipse transform="matrix(2.215977e-02 -0.9998 0.9998 2.215977e-02 65.1296 183.1945)" class="st4" cx="126.2" cy="58.3" rx="6.7" ry="2.5"/>
		<path class="st4" d="M105,77.9c2.6,23.6,14.5,23.4,14.5,23.4c13.3-1.1,19.5-26.2,20.4-34.6c0.8-8.4,2.6-41.2-7.6-51.1
			s-20,4.9-23.2,13.2C105.8,37.1,102.4,54.3,105,77.9z M113.3,31.7c2.5-7.5,10.1-21,18.1-12c7.9,9,6.6,38.8,5.9,46.5
			c-0.7,7.6-5.6,30.5-15.9,31.5c0,0-9.3,0.2-11.3-21.3S110.8,39.2,113.3,31.7z"/>
	</g>
</g>
</svg>
