<?xml version="1.0" encoding="utf-8"?>
<!-- Generator: Adobe Illustrator 20.1.0, SVG Export Plug-In . SVG Version: 6.00 Build 0)  -->
<svg version="1.1" id="Layer_1" xmlns="http://www.w3.org/2000/svg" xmlns:xlink="http://www.w3.org/1999/xlink" x="0px" y="0px"
	 viewBox="0 0 330.1 292.1" style="enable-background:new 0 0 330.1 292.1;" xml:space="preserve">
<style type="text/css">
	.st0{fill:none;stroke:#A91E22;stroke-width:4;stroke-miterlimit:10;}
	.st1{fill:none;stroke:#EB5344;stroke-width:4;stroke-miterlimit:10;}
	.st2{fill:#8DB2DE;stroke:#8DB2DE;}
	.st3{fill:#231F20;}
	.st4{fill:#513534;stroke:#513534;stroke-width:1.5777;stroke-linecap:round;stroke-linejoin:round;stroke-miterlimit:10;}
	.st5{fill:#513534;stroke:#513534;stroke-width:1.6313;stroke-linecap:round;stroke-linejoin:round;stroke-miterlimit:10;}
	.st6{fill:#513534;stroke:#513534;}
	.st7{fill:#EC5244;}
	.st8{clip-path:url(#SVGID_2_);fill:#EC5244;}
</style>
<path class="st2" d="M49.9,221.3c0,0,56.4-123,85.2-156.2C164,32,217.5,5.2,268.9,45.9c51.3,40.6,48.4,243.9-109.5,203.2
	c0,0-53.7-26.7-70.2,21.4h-5.4L43,230.4L49.9,221.3z"/>
<g>
	<defs>
		<path id="SVGID_1_" d="M-265.2,568.5c28.8-2.3,42.5-8.2,40.8-15.5l0.6,0.3c0,0,7.3-6.8,45.1-13c18.6-3,42.2-5.2,67.9-6.5
			c22.4-1.1,61-3.5,96.4-8.5c0,0,0.4,0,0.9-0.1c-2.3,0.5-5.1,0.9-8.4,1.2l6.8-0.6l0.5,0c3.9-0.3,7.1-0.8,9.6-1.5l38.7-5
			c0.9-0.1,1.7-0.2,2.5-0.3l0.1,0l0,0c15-2.2,16.4-6.8,2.2-11c-15.8-4.7-44.8-7.1-65.2-5.4h0l-4.6,0.4l-3.8,0.3l-4.6,0.4l-2.2-0.5
			c-0.8-0.2-2-0.3-3.4-0.3l-14.6-0.1c-0.9,0-1.8-0.1-2.5-0.1l-0.4,0c-0.7-0.1-1.2-0.2-1.5-0.3c-0.4-0.2-0.8-0.4-1.1-0.7
			c0,0-3.8-6.1-37.9-14c-3.2-0.7-0.1-3.5-6.7-4.4c-4.5-0.6-20.7,0.4-26,0.7c-14.9,0.7-23.9,0.9-39.5,2.4c-7.8,0.8-3,2.3,8,3.8
			c3.9,0.5,7.6,1.1,10.3,2.6c0,0,10,4.7,16.3,7.5c1.6,0.7,3.4,1.3,5.4,2c1.5,0.5,3.2,1.4,0.2,2.2l-1.5,0.5c-0.4,0.1-0.6,0.3-0.5,0.4
			c0.1,0.1,0.4,0.2,0.9,0.3c0.9,0.2,1.9,0.3,2.7,0.5c0.1,0,0.2,0.1,0.3,0.1l0.1,0l-0.8,0.2c-1.3,0.3-1.2,0.6,0.2,0.8l5.9,0.9
			c0,0.2-0.6,0.5-1.9,0.6c-8,1.1-12.7,2.6-13.2,2.8c-11,1.1-20.1,2.2-26.8,3.1c-20.5,2.7-45,4.7-71.2,5.5c-39.6,1.2-71.7,0-85.6-0.7
			c-38-5.3-78.8-7.3-109.5-4.9c-51.5,4.2-54.9,19.7-7.7,34.6C-396.7,563.9-316.7,572.7-265.2,568.5"/>
	</defs>
	<clipPath id="SVGID_2_">
		<use xlink:href="#SVGID_1_"  style="overflow:visible;"/>
	</clipPath>
	<polyline class="st8" points="-586.1,1870.9 240.2,-927.7 232.5,-930 -593.8,1868.7 	"/>
	<polyline class="st8" points="-548,1870.9 278.3,-927.7 270.6,-930 -555.7,1868.7 	"/>
	<polyline class="st8" points="-506.5,1870.9 319.8,-927.7 312.1,-930 -514.2,1868.7 	"/>
	<polyline class="st8" points="-468.4,1870.9 357.9,-927.7 350.2,-930 -476.1,1868.7 	"/>
	<polyline class="st8" points="-432.6,1870.9 393.7,-927.7 386.1,-930 -440.2,1868.7 	"/>
	<polyline class="st8" points="-394.5,1870.9 431.8,-927.7 424.2,-930 -402.1,1868.7 	"/>
	<polyline class="st8" points="-353,1870.9 473.3,-927.7 465.7,-930 -360.6,1868.7 	"/>
	<polyline class="st8" points="-314.8,1870.9 511.5,-927.7 503.8,-930 -322.5,1868.7 	"/>
	<polyline class="st8" points="-272,1870.9 554.3,-927.7 546.7,-930 -279.6,1868.7 	"/>
	<polyline class="st8" points="-233.8,1870.9 592.5,-927.7 584.8,-930 -241.5,1868.7 	"/>
	<polyline class="st8" points="-192.3,1870.9 634,-927.7 626.3,-930 -200,1868.7 	"/>
	<polyline class="st8" points="-154.2,1870.9 672.1,-927.7 664.4,-930 -161.9,1868.7 	"/>
	<polyline class="st8" points="-118.4,1870.9 707.9,-927.7 700.2,-930 -126.1,1868.7 	"/>
	<polyline class="st8" points="-80.3,1870.9 746,-927.7 738.3,-930 -88,1868.7 	"/>
	<polyline class="st8" points="-38.8,1870.9 787.5,-927.7 779.8,-930 -46.5,1868.7 	"/>
	<polyline class="st8" points="-0.7,1870.9 825.6,-927.7 818,-930 -8.3,1868.7 	"/>
	<polyline class="st8" points="42.3,1870.9 868.6,-927.7 860.9,-930 34.6,1868.7 	"/>
	<polyline class="st8" points="80.4,1870.9 906.7,-927.7 899,-930 72.7,1868.7 	"/>
	<polyline class="st8" points="121.9,1870.9 948.2,-927.7 940.5,-930 114.2,1868.7 	"/>
	<polyline class="st8" points="160,1870.9 986.3,-927.7 978.6,-930 152.3,1868.7 	"/>
	<polyline class="st8" points="195.8,1870.9 1022.1,-927.7 1014.4,-930 188.1,1868.7 	"/>
	<polyline class="st8" points="233.9,1870.9 1060.2,-927.7 1052.6,-930 226.3,1868.7 	"/>
	<polyline class="st8" points="275.4,1870.9 1101.7,-927.7 1094,-930 267.7,1868.7 	"/>
	<polyline class="st8" points="313.5,1870.9 1139.8,-927.7 1132.2,-930 305.9,1868.7 	"/>
	<polyline class="st8" points="-810.5,1870.9 15.8,-927.7 8.1,-930 -818.2,1868.7 	"/>
	<polyline class="st8" points="-772.4,1870.9 53.9,-927.7 46.2,-930 -780.1,1868.7 	"/>
	<polyline class="st8" points="-736.6,1870.9 89.7,-927.7 82,-930 -744.3,1868.7 	"/>
	<polyline class="st8" points="-698.5,1870.9 127.8,-927.7 120.2,-930 -706.1,1868.7 	"/>
	<polyline class="st8" points="-657,1870.9 169.3,-927.7 161.7,-930 -664.6,1868.7 	"/>
	<polyline class="st8" points="-618.8,1870.9 207.5,-927.7 199.8,-930 -626.5,1868.7 	"/>
</g>
</svg>
