<?xml version="1.0" encoding="utf-8"?>
<!-- Generator: Adobe Illustrator 20.1.0, SVG Export Plug-In . SVG Version: 6.00 Build 0)  -->
<svg version="1.1" id="Layer_1" xmlns="http://www.w3.org/2000/svg" xmlns:xlink="http://www.w3.org/1999/xlink" x="0px" y="0px"
	 viewBox="0 0 323.5 210.7" style="enable-background:new 0 0 323.5 210.7;" xml:space="preserve">
<style type="text/css">
	.st0{fill:none;}
	.st1{fill:none;stroke:#221F1F;stroke-width:3.6;}
	.st2{fill:url(#SVGID_1_);enable-background:new    ;}
</style>
<pattern  y="210.7" width="72" height="72" patternUnits="userSpaceOnUse" id="SVGID_2_" viewBox="72.2 -72 72 72" style="overflow:visible;">
	<g>
		<rect x="72.2" y="-72" class="st0" width="72" height="72"/>
		<g>
			<rect x="72.2" y="-72" class="st0" width="72" height="72"/>
			<g>
				<line class="st1" x1="144" y1="-68.4" x2="216.5" y2="-68.4"/>
				<line class="st1" x1="144" y1="-54" x2="216.5" y2="-54"/>
				<line class="st1" x1="144" y1="-39.6" x2="216.5" y2="-39.6"/>
				<line class="st1" x1="144" y1="-25.2" x2="216.5" y2="-25.2"/>
				<line class="st1" x1="144" y1="-10.8" x2="216.5" y2="-10.8"/>
				<line class="st1" x1="144" y1="-61.2" x2="216.5" y2="-61.2"/>
				<line class="st1" x1="144" y1="-46.8" x2="216.5" y2="-46.8"/>
				<line class="st1" x1="144" y1="-32.4" x2="216.5" y2="-32.4"/>
				<line class="st1" x1="144" y1="-18" x2="216.5" y2="-18"/>
				<line class="st1" x1="144" y1="-3.6" x2="216.5" y2="-3.6"/>
			</g>
			<g>
				<line class="st1" x1="72" y1="-68.4" x2="144.5" y2="-68.4"/>
				<line class="st1" x1="72" y1="-54" x2="144.5" y2="-54"/>
				<line class="st1" x1="72" y1="-39.6" x2="144.5" y2="-39.6"/>
				<line class="st1" x1="72" y1="-25.2" x2="144.5" y2="-25.2"/>
				<line class="st1" x1="72" y1="-10.8" x2="144.5" y2="-10.8"/>
				<line class="st1" x1="72" y1="-61.2" x2="144.5" y2="-61.2"/>
				<line class="st1" x1="72" y1="-46.8" x2="144.5" y2="-46.8"/>
				<line class="st1" x1="72" y1="-32.4" x2="144.5" y2="-32.4"/>
				<line class="st1" x1="72" y1="-18" x2="144.5" y2="-18"/>
				<line class="st1" x1="72" y1="-3.6" x2="144.5" y2="-3.6"/>
			</g>
			<g>
				<line class="st1" x1="0" y1="-68.4" x2="72.5" y2="-68.4"/>
				<line class="st1" x1="0" y1="-54" x2="72.5" y2="-54"/>
				<line class="st1" x1="0" y1="-39.6" x2="72.5" y2="-39.6"/>
				<line class="st1" x1="0" y1="-25.2" x2="72.5" y2="-25.2"/>
				<line class="st1" x1="0" y1="-10.8" x2="72.5" y2="-10.8"/>
				<line class="st1" x1="0" y1="-61.2" x2="72.5" y2="-61.2"/>
				<line class="st1" x1="0" y1="-46.8" x2="72.5" y2="-46.8"/>
				<line class="st1" x1="0" y1="-32.4" x2="72.5" y2="-32.4"/>
				<line class="st1" x1="0" y1="-18" x2="72.5" y2="-18"/>
				<line class="st1" x1="0" y1="-3.6" x2="72.5" y2="-3.6"/>
			</g>
		</g>
	</g>
</pattern>
<pattern  id="SVGID_1_" xlink:href="#SVGID_2_" patternTransform="matrix(-9.059700e-02 0.3666 0.2697 9.185700e-02 -15316.918 723.9827)">
</pattern>
<path class="st2" d="M312.2,58.7c4.5-3.3,1.1-7.8-7.9-12.5c0-3.4-1.5-6.3-3-7.6c-0.3-0.3-0.8-0.6-1.3-0.9l4.4-3.2
	c0,0,1.2-2.5-6.4-5.8c-0.2-0.3-0.5-0.5-0.8-0.8c3.4-2.5,7.8-5.7,9.5-7c3.1-2.4-0.6-3.2-5.1-3.5s-15.3-1-17.7-2.7
	c-2.4-1.7-4.6-0.3-4.6-0.3l-10.5,6.5c-2.2,0-4.1,0.1-5.5,0.4c-11.8-0.9-14.3,1.3-14.3,1.3l-3.8,2.8c-0.3,0-0.5,0-0.5,0
	c-7.1,0.3-14.5,1.8-20.6,3.5c-15-0.6-26.7,0.8-31.3,4.1c-2.1,1.5-2.5,3.3-1.4,5.3l0,0L24.7,164.8c0,0-3.8-0.2-9.6,4.6
	c0,0-4.8,2.7-3.2,6.8s5.2,13.4,43.2,21.5s63.9-2.5,67.2-4.8c3-2.1,7.7-4.4,5.7-5.5L304.2,61.6C307.7,60.9,310.5,60,312.2,58.7z"/>
</svg>
