<?xml version="1.0" encoding="utf-8"?>
<!-- Generator: Adobe Illustrator 20.1.0, SVG Export Plug-In . SVG Version: 6.00 Build 0)  -->
<svg version="1.1" id="Layer_1" xmlns="http://www.w3.org/2000/svg" xmlns:xlink="http://www.w3.org/1999/xlink" x="0px" y="0px"
	 viewBox="0 0 344.2 68.4" style="enable-background:new 0 0 344.2 68.4;" xml:space="preserve">
<style type="text/css">
	.st0{clip-path:url(#SVGID_2_);}
	.st1{fill:none;stroke:#231F20;stroke-width:1.588;}
</style>
<g>
	<defs>
		<path id="SVGID_1_" d="M322.2,49.8c31-9.8,28.7-19.9-4.9-22.6c-20-1.6-46.7-0.2-71.6,3.2c-9,0.5-30.1,1.3-56,0.5
			c-17.1-0.5-33.2-1.8-46.6-3.6c-4.4-0.5-10.3-1.3-17.5-2c-0.3-0.1-3.4-1.1-8.6-1.8c-0.8-0.1-1.2-0.2-1.2-0.4l3.8-0.6
			c0.9-0.1,0.9-0.3,0.1-0.5l-0.6-0.1h0.1c0.1-0.1,0.1-0.1,0.2-0.1c0.6-0.1,1.2-0.2,1.8-0.3c0.4,0,0.5-0.1,0.6-0.2s0-0.2-0.3-0.3
			l-1-0.4c-2-0.5-0.9-1.1,0.1-1.4c1.3-0.4,2.5-0.9,3.5-1.3c4.2-1.8,10.7-4.9,10.7-4.9c1.8-1,4.2-1.4,6.7-1.7c7.2-1,10.3-2,5.2-2.5
			c-10.2-1-16-1.1-25.8-1.6c-3.5-0.1-14.1-0.8-17-0.4c-4.4,0.6-2.3,2.4-4.4,2.9c-22.3,5.1-24.8,9.1-24.8,9.1
			c-0.2,0.1-0.4,0.3-0.7,0.4c-0.2,0.1-0.5,0.1-1,0.2h-0.3c-0.5,0.1-1.1,0.1-1.7,0.1l-9.6,0.1c-0.9,0-1.7,0.1-2.2,0.2l-1.5,0.3
			l-3-0.3l-2.5-0.2l-3-0.3c-13.3-1.1-32.4,0.4-42.7,3.5c-9.3,2.7-8.4,5.8,1.4,7.2H8c0.5,0.1,1,0.1,1.6,0.2L35,33.5
			c1.6,0.5,3.7,0.8,6.3,1h0.3l4.5,0.4c-2.2-0.2-4-0.5-5.5-0.8c0.4,0.1,0.6,0.1,0.6,0.1c23.2,3.3,48.5,4.9,63.1,5.6
			c16.8,0.8,32.2,2.2,44.4,4.2c24.7,4,29.5,8.5,29.5,8.5l0.4-0.2c-1.1,4.8,7.9,8.7,26.7,10.2C238.9,65.3,291.3,59.6,322.2,49.8z"/>
	</defs>
	<clipPath id="SVGID_2_">
		<use xlink:href="#SVGID_1_"  style="overflow:visible;"/>
	</clipPath>
	<g class="st0">
		<g>
			<line class="st1" x1="43.1" y1="-10.9" x2="29.6" y2="36.2"/>
			<line class="st1" x1="52.4" y1="-8.2" x2="38.9" y2="38.9"/>
			<line class="st1" x1="61.8" y1="-5.5" x2="48.3" y2="41.6"/>
			<line class="st1" x1="71.1" y1="-2.8" x2="57.6" y2="44.3"/>
			<line class="st1" x1="80.5" y1="-0.1" x2="67" y2="46.9"/>
			<line class="st1" x1="47.8" y1="-9.5" x2="34.3" y2="37.6"/>
			<line class="st1" x1="57.1" y1="-6.8" x2="43.6" y2="40.2"/>
			<line class="st1" x1="66.5" y1="-4.1" x2="53" y2="42.9"/>
			<line class="st1" x1="75.8" y1="-1.5" x2="62.3" y2="45.6"/>
			<line class="st1" x1="85.2" y1="1.2" x2="71.7" y2="48.3"/>
		</g>
		<g>
			<line class="st1" x1="56.5" y1="-57.6" x2="43" y2="-10.5"/>
			<line class="st1" x1="65.8" y1="-54.9" x2="52.3" y2="-7.9"/>
			<line class="st1" x1="75.2" y1="-52.2" x2="61.7" y2="-5.2"/>
			<line class="st1" x1="84.5" y1="-49.6" x2="71" y2="-2.5"/>
			<line class="st1" x1="93.9" y1="-46.9" x2="80.4" y2="0.2"/>
			<line class="st1" x1="61.2" y1="-56.3" x2="47.7" y2="-9.2"/>
			<line class="st1" x1="70.5" y1="-53.6" x2="57" y2="-6.5"/>
			<line class="st1" x1="79.9" y1="-50.9" x2="66.4" y2="-3.8"/>
			<line class="st1" x1="89.2" y1="-48.2" x2="75.7" y2="-1.1"/>
			<line class="st1" x1="98.6" y1="-45.5" x2="85.1" y2="1.5"/>
		</g>
		<g>
			<line class="st1" x1="69.9" y1="-104.4" x2="56.4" y2="-57.3"/>
			<line class="st1" x1="79.2" y1="-101.7" x2="65.7" y2="-54.6"/>
			<line class="st1" x1="88.6" y1="-99" x2="75.1" y2="-51.9"/>
			<line class="st1" x1="97.9" y1="-96.3" x2="84.4" y2="-49.2"/>
			<line class="st1" x1="107.3" y1="-93.6" x2="93.8" y2="-46.6"/>
			<line class="st1" x1="74.6" y1="-103" x2="61.1" y2="-55.9"/>
			<line class="st1" x1="83.9" y1="-100.3" x2="70.4" y2="-53.3"/>
			<line class="st1" x1="93.3" y1="-97.7" x2="79.8" y2="-50.6"/>
			<line class="st1" x1="102.6" y1="-95" x2="89.1" y2="-47.9"/>
			<line class="st1" x1="112" y1="-92.3" x2="98.5" y2="-45.2"/>
		</g>
		<g>
			<line class="st1" x1="-3.7" y1="-24.3" x2="-17.2" y2="22.8"/>
			<line class="st1" x1="5.7" y1="-21.6" x2="-7.8" y2="25.5"/>
			<line class="st1" x1="15" y1="-18.9" x2="1.5" y2="28.2"/>
			<line class="st1" x1="24.4" y1="-16.2" x2="10.9" y2="30.9"/>
			<line class="st1" x1="33.7" y1="-13.5" x2="20.2" y2="33.5"/>
			<line class="st1" x1="1" y1="-22.9" x2="-12.5" y2="24.2"/>
			<line class="st1" x1="10.4" y1="-20.2" x2="-3.1" y2="26.8"/>
			<line class="st1" x1="19.7" y1="-17.6" x2="6.2" y2="29.5"/>
			<line class="st1" x1="29.1" y1="-14.9" x2="15.6" y2="32.2"/>
			<line class="st1" x1="38.4" y1="-12.2" x2="24.9" y2="34.9"/>
		</g>
		<g>
			<line class="st1" x1="9.7" y1="-71" x2="-3.8" y2="-23.9"/>
			<line class="st1" x1="19.1" y1="-68.3" x2="5.6" y2="-21.3"/>
			<line class="st1" x1="28.4" y1="-65.7" x2="14.9" y2="-18.6"/>
			<line class="st1" x1="37.8" y1="-63" x2="24.3" y2="-15.9"/>
			<line class="st1" x1="47.1" y1="-60.3" x2="33.6" y2="-13.2"/>
			<line class="st1" x1="14.4" y1="-69.7" x2="0.9" y2="-22.6"/>
			<line class="st1" x1="23.8" y1="-67" x2="10.3" y2="-19.9"/>
			<line class="st1" x1="33.1" y1="-64.3" x2="19.6" y2="-17.2"/>
			<line class="st1" x1="42.5" y1="-61.6" x2="29" y2="-14.6"/>
			<line class="st1" x1="51.8" y1="-59" x2="38.3" y2="-11.9"/>
		</g>
		<g>
			<line class="st1" x1="23.1" y1="-117.8" x2="9.6" y2="-70.7"/>
			<line class="st1" x1="32.5" y1="-115.1" x2="19" y2="-68"/>
			<line class="st1" x1="41.8" y1="-112.4" x2="28.3" y2="-65.3"/>
			<line class="st1" x1="51.2" y1="-109.7" x2="37.7" y2="-62.6"/>
			<line class="st1" x1="60.5" y1="-107" x2="47" y2="-60"/>
			<line class="st1" x1="27.8" y1="-116.4" x2="14.3" y2="-69.4"/>
			<line class="st1" x1="37.2" y1="-113.7" x2="23.7" y2="-66.7"/>
			<line class="st1" x1="46.5" y1="-111.1" x2="33" y2="-64"/>
			<line class="st1" x1="55.9" y1="-108.4" x2="42.4" y2="-61.3"/>
			<line class="st1" x1="65.2" y1="-105.7" x2="51.7" y2="-58.6"/>
		</g>
		<g>
			<line class="st1" x1="135.4" y1="17.1" x2="121.9" y2="64.1"/>
			<line class="st1" x1="144.8" y1="19.7" x2="131.3" y2="66.8"/>
			<line class="st1" x1="154.1" y1="22.4" x2="140.6" y2="69.5"/>
			<line class="st1" x1="163.5" y1="25.1" x2="150" y2="72.2"/>
			<line class="st1" x1="172.8" y1="27.8" x2="159.3" y2="74.9"/>
			<line class="st1" x1="140.1" y1="18.4" x2="126.6" y2="65.5"/>
			<line class="st1" x1="149.5" y1="21.1" x2="136" y2="68.2"/>
			<line class="st1" x1="158.8" y1="23.8" x2="145.3" y2="70.8"/>
			<line class="st1" x1="168.2" y1="26.4" x2="154.7" y2="73.5"/>
			<line class="st1" x1="177.5" y1="29.1" x2="164" y2="76.2"/>
		</g>
		<g>
			<line class="st1" x1="148.8" y1="-29.7" x2="135.3" y2="17.4"/>
			<line class="st1" x1="158.2" y1="-27" x2="144.7" y2="20.1"/>
			<line class="st1" x1="167.5" y1="-24.3" x2="154" y2="22.7"/>
			<line class="st1" x1="176.9" y1="-21.7" x2="163.4" y2="25.4"/>
			<line class="st1" x1="186.2" y1="-19" x2="172.8" y2="28.1"/>
			<line class="st1" x1="153.5" y1="-28.4" x2="140" y2="18.7"/>
			<line class="st1" x1="162.9" y1="-25.7" x2="149.4" y2="21.4"/>
			<line class="st1" x1="172.2" y1="-23" x2="158.7" y2="24.1"/>
			<line class="st1" x1="181.6" y1="-20.3" x2="168.1" y2="26.8"/>
			<line class="st1" x1="190.9" y1="-17.6" x2="177.4" y2="29.4"/>
		</g>
		<g>
			<line class="st1" x1="162.2" y1="-76.5" x2="148.7" y2="-29.4"/>
			<line class="st1" x1="171.6" y1="-73.8" x2="158.1" y2="-26.7"/>
			<line class="st1" x1="181" y1="-71.1" x2="167.5" y2="-24"/>
			<line class="st1" x1="190.3" y1="-68.4" x2="176.8" y2="-21.3"/>
			<line class="st1" x1="199.7" y1="-65.7" x2="186.2" y2="-18.7"/>
			<line class="st1" x1="166.9" y1="-75.1" x2="153.4" y2="-28"/>
			<line class="st1" x1="176.3" y1="-72.4" x2="162.8" y2="-25.4"/>
			<line class="st1" x1="185.6" y1="-69.8" x2="172.1" y2="-22.7"/>
			<line class="st1" x1="195" y1="-67.1" x2="181.5" y2="-20"/>
			<line class="st1" x1="204.3" y1="-64.4" x2="190.8" y2="-17.3"/>
		</g>
		<g>
			<line class="st1" x1="88.7" y1="3.6" x2="75.2" y2="50.7"/>
			<line class="st1" x1="98" y1="6.3" x2="84.5" y2="53.4"/>
			<line class="st1" x1="107.4" y1="9" x2="93.9" y2="56.1"/>
			<line class="st1" x1="116.7" y1="11.7" x2="103.2" y2="58.8"/>
			<line class="st1" x1="126.1" y1="14.4" x2="112.6" y2="61.4"/>
			<line class="st1" x1="93.4" y1="5" x2="79.9" y2="52.1"/>
			<line class="st1" x1="102.7" y1="7.7" x2="89.2" y2="54.7"/>
			<line class="st1" x1="112.1" y1="10.3" x2="98.6" y2="57.4"/>
			<line class="st1" x1="121.4" y1="13" x2="107.9" y2="60.1"/>
			<line class="st1" x1="130.8" y1="15.7" x2="117.3" y2="62.8"/>
		</g>
		<g>
			<line class="st1" x1="102.1" y1="-43.1" x2="88.6" y2="4"/>
			<line class="st1" x1="111.4" y1="-40.4" x2="97.9" y2="6.6"/>
			<line class="st1" x1="120.8" y1="-37.7" x2="107.3" y2="9.3"/>
			<line class="st1" x1="130.1" y1="-35.1" x2="116.6" y2="12"/>
			<line class="st1" x1="139.5" y1="-32.4" x2="126" y2="14.7"/>
			<line class="st1" x1="106.8" y1="-41.8" x2="93.3" y2="5.3"/>
			<line class="st1" x1="116.1" y1="-39.1" x2="102.6" y2="8"/>
			<line class="st1" x1="125.5" y1="-36.4" x2="112" y2="10.7"/>
			<line class="st1" x1="134.8" y1="-33.7" x2="121.3" y2="13.4"/>
			<line class="st1" x1="144.2" y1="-31" x2="130.7" y2="16"/>
		</g>
		<g>
			<line class="st1" x1="115.5" y1="-89.9" x2="102" y2="-42.8"/>
			<line class="st1" x1="124.8" y1="-87.2" x2="111.3" y2="-40.1"/>
			<line class="st1" x1="134.2" y1="-84.5" x2="120.7" y2="-37.4"/>
			<line class="st1" x1="143.6" y1="-81.8" x2="130.1" y2="-34.7"/>
			<line class="st1" x1="152.9" y1="-79.1" x2="139.4" y2="-32.1"/>
			<line class="st1" x1="120.2" y1="-88.5" x2="106.7" y2="-41.4"/>
			<line class="st1" x1="129.5" y1="-85.8" x2="116" y2="-38.8"/>
			<line class="st1" x1="138.9" y1="-83.2" x2="125.4" y2="-36.1"/>
			<line class="st1" x1="148.2" y1="-80.5" x2="134.7" y2="-33.4"/>
			<line class="st1" x1="157.6" y1="-77.8" x2="144.1" y2="-30.7"/>
		</g>
		<g>
			<line class="st1" x1="227.8" y1="43.6" x2="214.3" y2="90.7"/>
			<line class="st1" x1="237.1" y1="46.3" x2="223.6" y2="93.4"/>
			<line class="st1" x1="246.5" y1="49" x2="233" y2="96.1"/>
			<line class="st1" x1="255.8" y1="51.7" x2="242.3" y2="98.7"/>
			<line class="st1" x1="265.2" y1="54.3" x2="251.7" y2="101.4"/>
			<line class="st1" x1="232.5" y1="45" x2="219" y2="92"/>
			<line class="st1" x1="241.8" y1="47.6" x2="228.3" y2="94.7"/>
			<line class="st1" x1="251.2" y1="50.3" x2="237.7" y2="97.4"/>
			<line class="st1" x1="260.5" y1="53" x2="247" y2="100.1"/>
			<line class="st1" x1="269.9" y1="55.7" x2="256.4" y2="102.8"/>
		</g>
		<g>
			<line class="st1" x1="241.2" y1="-3.1" x2="227.7" y2="43.9"/>
			<line class="st1" x1="250.5" y1="-0.5" x2="237.1" y2="46.6"/>
			<line class="st1" x1="259.9" y1="2.2" x2="246.4" y2="49.3"/>
			<line class="st1" x1="269.2" y1="4.9" x2="255.8" y2="52"/>
			<line class="st1" x1="278.6" y1="7.6" x2="265.1" y2="54.7"/>
			<line class="st1" x1="245.9" y1="-1.8" x2="232.4" y2="45.3"/>
			<line class="st1" x1="255.2" y1="0.9" x2="241.7" y2="48"/>
			<line class="st1" x1="264.6" y1="3.6" x2="251.1" y2="50.6"/>
			<line class="st1" x1="273.9" y1="6.2" x2="260.4" y2="53.3"/>
			<line class="st1" x1="283.3" y1="8.9" x2="269.8" y2="56"/>
		</g>
		<g>
			<line class="st1" x1="254.6" y1="-49.9" x2="241.1" y2="-2.8"/>
			<line class="st1" x1="264" y1="-47.2" x2="250.5" y2="-0.1"/>
			<line class="st1" x1="273.3" y1="-44.5" x2="259.8" y2="2.5"/>
			<line class="st1" x1="282.7" y1="-41.8" x2="269.2" y2="5.2"/>
			<line class="st1" x1="292" y1="-39.2" x2="278.5" y2="7.9"/>
			<line class="st1" x1="259.3" y1="-48.5" x2="245.8" y2="-1.5"/>
			<line class="st1" x1="268.6" y1="-45.9" x2="255.1" y2="1.2"/>
			<line class="st1" x1="278" y1="-43.2" x2="264.5" y2="3.9"/>
			<line class="st1" x1="287.3" y1="-40.5" x2="273.8" y2="6.6"/>
			<line class="st1" x1="296.7" y1="-37.8" x2="283.2" y2="9.3"/>
		</g>
		<g>
			<line class="st1" x1="181" y1="30.2" x2="167.5" y2="77.3"/>
			<line class="st1" x1="190.4" y1="32.9" x2="176.9" y2="80"/>
			<line class="st1" x1="199.7" y1="35.6" x2="186.2" y2="82.7"/>
			<line class="st1" x1="209.1" y1="38.3" x2="195.6" y2="85.3"/>
			<line class="st1" x1="218.4" y1="40.9" x2="204.9" y2="88"/>
			<line class="st1" x1="185.7" y1="31.5" x2="172.2" y2="78.6"/>
			<line class="st1" x1="195.1" y1="34.2" x2="181.6" y2="81.3"/>
			<line class="st1" x1="204.4" y1="36.9" x2="190.9" y2="84"/>
			<line class="st1" x1="213.8" y1="39.6" x2="200.3" y2="86.7"/>
			<line class="st1" x1="223.1" y1="42.3" x2="209.6" y2="89.4"/>
		</g>
		<g>
			<line class="st1" x1="194.4" y1="-16.5" x2="180.9" y2="30.5"/>
			<line class="st1" x1="203.8" y1="-13.9" x2="190.3" y2="33.2"/>
			<line class="st1" x1="213.2" y1="-11.2" x2="199.6" y2="35.9"/>
			<line class="st1" x1="222.5" y1="-8.5" x2="209" y2="38.6"/>
			<line class="st1" x1="231.8" y1="-5.8" x2="218.4" y2="41.3"/>
			<line class="st1" x1="199.1" y1="-15.2" x2="185.6" y2="31.9"/>
			<line class="st1" x1="208.5" y1="-12.5" x2="195" y2="34.6"/>
			<line class="st1" x1="217.8" y1="-9.8" x2="204.3" y2="37.2"/>
			<line class="st1" x1="227.2" y1="-7.2" x2="213.7" y2="39.9"/>
			<line class="st1" x1="236.5" y1="-4.5" x2="223" y2="42.6"/>
		</g>
		<g>
			<line class="st1" x1="207.9" y1="-63.3" x2="194.4" y2="-16.2"/>
			<line class="st1" x1="217.2" y1="-60.6" x2="203.7" y2="-13.5"/>
			<line class="st1" x1="226.6" y1="-57.9" x2="213.1" y2="-10.9"/>
			<line class="st1" x1="235.9" y1="-55.3" x2="222.4" y2="-8.2"/>
			<line class="st1" x1="245.3" y1="-52.6" x2="231.8" y2="-5.5"/>
			<line class="st1" x1="212.5" y1="-62" x2="199" y2="-14.9"/>
			<line class="st1" x1="221.9" y1="-59.3" x2="208.4" y2="-12.2"/>
			<line class="st1" x1="231.2" y1="-56.6" x2="217.7" y2="-9.5"/>
			<line class="st1" x1="240.6" y1="-53.9" x2="227.1" y2="-6.8"/>
			<line class="st1" x1="249.9" y1="-51.2" x2="236.4" y2="-4.2"/>
		</g>
		<g>
			<line class="st1" x1="321.3" y1="69.8" x2="307.8" y2="116.9"/>
			<line class="st1" x1="330.7" y1="72.5" x2="317.2" y2="119.6"/>
			<line class="st1" x1="340" y1="75.2" x2="326.5" y2="122.3"/>
			<line class="st1" x1="349.4" y1="77.9" x2="335.9" y2="125"/>
			<line class="st1" x1="358.7" y1="80.6" x2="345.2" y2="127.6"/>
			<line class="st1" x1="326" y1="71.2" x2="312.5" y2="118.3"/>
			<line class="st1" x1="335.3" y1="73.9" x2="321.8" y2="120.9"/>
			<line class="st1" x1="344.7" y1="76.5" x2="331.2" y2="123.6"/>
			<line class="st1" x1="354" y1="79.2" x2="340.5" y2="126.3"/>
			<line class="st1" x1="363.4" y1="81.9" x2="349.9" y2="129"/>
		</g>
		<g>
			<line class="st1" x1="334.7" y1="23.1" x2="321.2" y2="70.2"/>
			<line class="st1" x1="344.1" y1="25.8" x2="330.6" y2="72.8"/>
			<line class="st1" x1="353.4" y1="28.4" x2="339.9" y2="75.5"/>
			<line class="st1" x1="362.8" y1="31.1" x2="349.3" y2="78.2"/>
			<line class="st1" x1="372.1" y1="33.8" x2="358.6" y2="80.9"/>
			<line class="st1" x1="339.4" y1="24.4" x2="325.9" y2="71.5"/>
			<line class="st1" x1="348.7" y1="27.1" x2="335.2" y2="74.2"/>
			<line class="st1" x1="358.1" y1="29.8" x2="344.6" y2="76.9"/>
			<line class="st1" x1="367.4" y1="32.5" x2="353.9" y2="79.5"/>
			<line class="st1" x1="376.8" y1="35.1" x2="363.3" y2="82.2"/>
		</g>
		<g>
			<line class="st1" x1="348.1" y1="-23.7" x2="334.6" y2="23.4"/>
			<line class="st1" x1="357.5" y1="-21" x2="344" y2="26.1"/>
			<line class="st1" x1="366.8" y1="-18.3" x2="353.3" y2="28.8"/>
			<line class="st1" x1="376.2" y1="-15.6" x2="362.7" y2="31.5"/>
			<line class="st1" x1="385.5" y1="-12.9" x2="372" y2="34.1"/>
			<line class="st1" x1="352.8" y1="-22.3" x2="339.3" y2="24.7"/>
			<line class="st1" x1="362.1" y1="-19.7" x2="348.6" y2="27.4"/>
			<line class="st1" x1="371.5" y1="-17" x2="358" y2="30.1"/>
			<line class="st1" x1="380.8" y1="-14.3" x2="367.3" y2="32.8"/>
			<line class="st1" x1="390.2" y1="-11.6" x2="376.7" y2="35.5"/>
		</g>
		<g>
			<line class="st1" x1="274.6" y1="56.4" x2="261.1" y2="103.5"/>
			<line class="st1" x1="283.9" y1="59.1" x2="270.4" y2="106.2"/>
			<line class="st1" x1="293.3" y1="61.8" x2="279.8" y2="108.9"/>
			<line class="st1" x1="302.6" y1="64.5" x2="289.1" y2="111.6"/>
			<line class="st1" x1="312" y1="67.2" x2="298.5" y2="114.2"/>
			<line class="st1" x1="279.2" y1="57.8" x2="265.7" y2="104.8"/>
			<line class="st1" x1="288.6" y1="60.5" x2="275.1" y2="107.5"/>
			<line class="st1" x1="297.9" y1="63.1" x2="284.4" y2="110.2"/>
			<line class="st1" x1="307.3" y1="65.8" x2="293.8" y2="112.9"/>
			<line class="st1" x1="316.6" y1="68.5" x2="303.1" y2="115.6"/>
		</g>
		<g>
			<line class="st1" x1="288" y1="9.7" x2="274.5" y2="56.8"/>
			<line class="st1" x1="297.3" y1="12.4" x2="283.8" y2="59.4"/>
			<line class="st1" x1="306.7" y1="15" x2="293.2" y2="62.1"/>
			<line class="st1" x1="316" y1="17.7" x2="302.5" y2="64.8"/>
			<line class="st1" x1="325.4" y1="20.4" x2="311.9" y2="67.5"/>
			<line class="st1" x1="292.6" y1="11" x2="279.1" y2="58.1"/>
			<line class="st1" x1="302" y1="13.7" x2="288.5" y2="60.8"/>
			<line class="st1" x1="311.3" y1="16.4" x2="297.8" y2="63.5"/>
			<line class="st1" x1="320.7" y1="19.1" x2="307.2" y2="66.1"/>
			<line class="st1" x1="330" y1="21.7" x2="316.5" y2="68.8"/>
		</g>
		<g>
			<line class="st1" x1="301.4" y1="-37.1" x2="287.9" y2="10"/>
			<line class="st1" x1="310.7" y1="-34.4" x2="297.2" y2="12.7"/>
			<line class="st1" x1="320.1" y1="-31.7" x2="306.6" y2="15.4"/>
			<line class="st1" x1="329.4" y1="-29" x2="315.9" y2="18"/>
			<line class="st1" x1="338.8" y1="-26.3" x2="325.3" y2="20.7"/>
			<line class="st1" x1="306" y1="-35.7" x2="292.5" y2="11.3"/>
			<line class="st1" x1="315.4" y1="-33.1" x2="301.9" y2="14"/>
			<line class="st1" x1="324.7" y1="-30.4" x2="311.2" y2="16.7"/>
			<line class="st1" x1="334.1" y1="-27.7" x2="320.6" y2="19.4"/>
			<line class="st1" x1="343.4" y1="-25" x2="329.9" y2="22.1"/>
		</g>
		<g>
			<line class="st1" x1="3.3" y1="128" x2="-10.2" y2="175.1"/>
			<line class="st1" x1="12.6" y1="130.7" x2="-0.9" y2="177.7"/>
			<line class="st1" x1="21.9" y1="133.3" x2="8.5" y2="180.4"/>
			<line class="st1" x1="31.3" y1="136" x2="17.8" y2="183.1"/>
			<line class="st1" x1="40.7" y1="138.7" x2="27.2" y2="185.8"/>
			<line class="st1" x1="7.9" y1="129.3" x2="-5.6" y2="176.4"/>
			<line class="st1" x1="17.3" y1="132" x2="3.8" y2="179.1"/>
			<line class="st1" x1="26.6" y1="134.7" x2="13.1" y2="181.8"/>
			<line class="st1" x1="36" y1="137.4" x2="22.5" y2="184.4"/>
			<line class="st1" x1="45.3" y1="140.1" x2="31.8" y2="187.1"/>
		</g>
		<g>
			<line class="st1" x1="16.7" y1="81.2" x2="3.2" y2="128.3"/>
			<line class="st1" x1="26" y1="83.9" x2="12.5" y2="131"/>
			<line class="st1" x1="35.4" y1="86.6" x2="21.9" y2="133.7"/>
			<line class="st1" x1="44.7" y1="89.3" x2="31.2" y2="136.4"/>
			<line class="st1" x1="54.1" y1="92" x2="40.6" y2="139"/>
			<line class="st1" x1="21.3" y1="82.6" x2="7.8" y2="129.6"/>
			<line class="st1" x1="30.7" y1="85.3" x2="17.2" y2="132.3"/>
			<line class="st1" x1="40" y1="87.9" x2="26.5" y2="135"/>
			<line class="st1" x1="49.4" y1="90.6" x2="35.9" y2="137.7"/>
			<line class="st1" x1="58.7" y1="93.3" x2="45.2" y2="140.4"/>
		</g>
		<g>
			<line class="st1" x1="30.1" y1="34.5" x2="16.6" y2="81.6"/>
			<line class="st1" x1="39.4" y1="37.2" x2="25.9" y2="84.2"/>
			<line class="st1" x1="48.8" y1="39.8" x2="35.3" y2="86.9"/>
			<line class="st1" x1="58.1" y1="42.5" x2="44.6" y2="89.6"/>
			<line class="st1" x1="67.5" y1="45.2" x2="54" y2="92.3"/>
			<line class="st1" x1="34.7" y1="35.8" x2="21.2" y2="82.9"/>
			<line class="st1" x1="44.1" y1="38.5" x2="30.6" y2="85.6"/>
			<line class="st1" x1="53.4" y1="41.2" x2="39.9" y2="88.3"/>
			<line class="st1" x1="62.8" y1="43.9" x2="49.3" y2="90.9"/>
			<line class="st1" x1="72.1" y1="46.5" x2="58.6" y2="93.6"/>
		</g>
		<g>
			<line class="st1" x1="-43.5" y1="114.6" x2="-57" y2="161.7"/>
			<line class="st1" x1="-34.2" y1="117.3" x2="-47.7" y2="164.3"/>
			<line class="st1" x1="-24.8" y1="119.9" x2="-38.3" y2="167"/>
			<line class="st1" x1="-15.5" y1="122.6" x2="-28.9" y2="169.7"/>
			<line class="st1" x1="-6.1" y1="125.3" x2="-19.6" y2="172.4"/>
			<line class="st1" x1="-38.8" y1="115.9" x2="-52.3" y2="163"/>
			<line class="st1" x1="-29.5" y1="118.6" x2="-43" y2="165.7"/>
			<line class="st1" x1="-20.1" y1="121.3" x2="-33.6" y2="168.4"/>
			<line class="st1" x1="-10.8" y1="124" x2="-24.3" y2="171"/>
			<line class="st1" x1="-1.4" y1="126.6" x2="-14.9" y2="173.7"/>
		</g>
		<g>
			<line class="st1" x1="-30.1" y1="67.8" x2="-43.6" y2="114.9"/>
			<line class="st1" x1="-20.7" y1="70.5" x2="-34.2" y2="117.6"/>
			<line class="st1" x1="-11.4" y1="73.2" x2="-24.9" y2="120.3"/>
			<line class="st1" x1="-2" y1="75.9" x2="-15.5" y2="122.9"/>
			<line class="st1" x1="7.3" y1="78.5" x2="-6.2" y2="125.6"/>
			<line class="st1" x1="-25.4" y1="69.2" x2="-38.9" y2="116.2"/>
			<line class="st1" x1="-16.1" y1="71.8" x2="-29.6" y2="118.9"/>
			<line class="st1" x1="-6.7" y1="74.5" x2="-20.2" y2="121.6"/>
			<line class="st1" x1="2.6" y1="77.2" x2="-10.9" y2="124.3"/>
			<line class="st1" x1="12" y1="79.9" x2="-1.5" y2="127"/>
		</g>
		<g>
			<line class="st1" x1="178.7" y1="126.8" x2="165.2" y2="173.9"/>
			<line class="st1" x1="188" y1="129.5" x2="174.5" y2="176.6"/>
			<line class="st1" x1="197.4" y1="132.2" x2="183.9" y2="179.2"/>
			<line class="st1" x1="206.7" y1="134.9" x2="193.2" y2="181.9"/>
			<line class="st1" x1="216.1" y1="137.5" x2="202.6" y2="184.6"/>
			<line class="st1" x1="183.3" y1="128.1" x2="169.8" y2="175.2"/>
			<line class="st1" x1="192.7" y1="130.8" x2="179.2" y2="177.9"/>
			<line class="st1" x1="202" y1="133.5" x2="188.5" y2="180.6"/>
			<line class="st1" x1="211.4" y1="136.2" x2="197.9" y2="183.3"/>
			<line class="st1" x1="220.7" y1="138.9" x2="207.2" y2="186"/>
		</g>
		<g>
			<line class="st1" x1="192.1" y1="80.1" x2="178.6" y2="127.1"/>
			<line class="st1" x1="201.4" y1="82.7" x2="187.9" y2="129.8"/>
			<line class="st1" x1="210.8" y1="85.4" x2="197.3" y2="132.5"/>
			<line class="st1" x1="220.1" y1="88.1" x2="206.6" y2="135.2"/>
			<line class="st1" x1="229.5" y1="90.8" x2="216" y2="137.9"/>
			<line class="st1" x1="196.7" y1="81.4" x2="183.2" y2="128.5"/>
			<line class="st1" x1="206.1" y1="84.1" x2="192.6" y2="131.2"/>
			<line class="st1" x1="215.4" y1="86.8" x2="201.9" y2="133.8"/>
			<line class="st1" x1="224.8" y1="89.4" x2="211.3" y2="136.5"/>
			<line class="st1" x1="234.1" y1="92.1" x2="220.6" y2="139.2"/>
		</g>
		<g>
			<line class="st1" x1="131.9" y1="113.4" x2="118.4" y2="160.5"/>
			<line class="st1" x1="141.3" y1="116.1" x2="127.8" y2="163.2"/>
			<line class="st1" x1="150.6" y1="118.8" x2="137.1" y2="165.8"/>
			<line class="st1" x1="160" y1="121.4" x2="146.5" y2="168.5"/>
			<line class="st1" x1="169.3" y1="124.1" x2="155.8" y2="171.2"/>
			<line class="st1" x1="136.6" y1="114.7" x2="123.1" y2="161.8"/>
			<line class="st1" x1="145.9" y1="117.4" x2="132.4" y2="164.5"/>
			<line class="st1" x1="155.3" y1="120.1" x2="141.8" y2="167.2"/>
			<line class="st1" x1="164.6" y1="122.8" x2="151.1" y2="169.9"/>
			<line class="st1" x1="174" y1="125.5" x2="160.5" y2="172.5"/>
		</g>
		<g>
			<line class="st1" x1="284.7" y1="109.6" x2="271.2" y2="156.7"/>
			<line class="st1" x1="294.1" y1="112.3" x2="280.6" y2="159.4"/>
			<line class="st1" x1="303.4" y1="115" x2="289.9" y2="162.1"/>
			<line class="st1" x1="312.8" y1="117.7" x2="299.3" y2="164.7"/>
			<line class="st1" x1="322.1" y1="120.4" x2="308.6" y2="167.4"/>
			<line class="st1" x1="289.4" y1="111" x2="275.9" y2="158"/>
			<line class="st1" x1="298.7" y1="113.6" x2="285.2" y2="160.7"/>
			<line class="st1" x1="308.1" y1="116.3" x2="294.6" y2="163.4"/>
			<line class="st1" x1="317.4" y1="119" x2="303.9" y2="166.1"/>
			<line class="st1" x1="326.8" y1="121.7" x2="313.3" y2="168.8"/>
		</g>
		<g>
			<line class="st1" x1="238" y1="96.2" x2="224.5" y2="143.3"/>
			<line class="st1" x1="247.3" y1="98.9" x2="233.8" y2="146"/>
			<line class="st1" x1="256.7" y1="101.6" x2="243.2" y2="148.7"/>
			<line class="st1" x1="266" y1="104.3" x2="252.5" y2="151.3"/>
			<line class="st1" x1="275.4" y1="106.9" x2="261.9" y2="154"/>
			<line class="st1" x1="242.6" y1="97.6" x2="229.1" y2="144.6"/>
			<line class="st1" x1="252" y1="100.2" x2="238.5" y2="147.3"/>
			<line class="st1" x1="261.3" y1="102.9" x2="247.8" y2="150"/>
			<line class="st1" x1="270.7" y1="105.6" x2="257.2" y2="152.7"/>
			<line class="st1" x1="280" y1="108.3" x2="266.5" y2="155.4"/>
		</g>
		<g>
			<line class="st1" x1="145.3" y1="66.6" x2="131.8" y2="113.7"/>
			<line class="st1" x1="154.7" y1="69.3" x2="141.2" y2="116.4"/>
			<line class="st1" x1="164" y1="72" x2="150.5" y2="119.1"/>
			<line class="st1" x1="173.4" y1="74.7" x2="159.9" y2="121.8"/>
			<line class="st1" x1="182.7" y1="77.4" x2="169.2" y2="124.5"/>
			<line class="st1" x1="150" y1="68" x2="136.5" y2="115.1"/>
			<line class="st1" x1="159.3" y1="70.7" x2="145.8" y2="117.7"/>
			<line class="st1" x1="168.7" y1="73.4" x2="155.2" y2="120.4"/>
			<line class="st1" x1="178" y1="76" x2="164.5" y2="123.1"/>
			<line class="st1" x1="187.4" y1="78.7" x2="173.9" y2="125.8"/>
		</g>
		<g>
			<line class="st1" x1="-16.7" y1="21.1" x2="-30.2" y2="68.1"/>
			<line class="st1" x1="-7.3" y1="23.8" x2="-20.8" y2="70.8"/>
			<line class="st1" x1="2" y1="26.4" x2="-11.5" y2="73.5"/>
			<line class="st1" x1="11.4" y1="29.1" x2="-2.1" y2="76.2"/>
			<line class="st1" x1="20.7" y1="31.8" x2="7.2" y2="78.9"/>
			<line class="st1" x1="-12" y1="22.4" x2="-25.5" y2="69.5"/>
			<line class="st1" x1="-2.7" y1="25.1" x2="-16.2" y2="72.2"/>
			<line class="st1" x1="6.7" y1="27.8" x2="-6.8" y2="74.9"/>
			<line class="st1" x1="16" y1="30.5" x2="2.5" y2="77.5"/>
			<line class="st1" x1="25.4" y1="33.1" x2="11.9" y2="80.2"/>
		</g>
	</g>
</g>
</svg>
