<svg enable-background="new 0 0 323.5 210.7" viewBox="0 0 323.5 210.7" xmlns="http://www.w3.org/2000/svg" xmlns:xlink="http://www.w3.org/1999/xlink"><clipPath id="a"><path d="m21.6 61.6 176.2 125.8c-2 1.1 2.7 3.4 5.7 5.5 3.3 2.3 29.2 12.9 67.2 4.8s41.6-17.4 43.2-21.5-3.2-6.8-3.2-6.8c-5.8-4.8-9.6-4.6-9.6-4.6l-166.7-126.5c1.1-2 .7-3.8-1.4-5.3-4.6-3.3-16.3-4.7-31.3-4.1-6.1-1.7-13.5-3.2-20.6-3.5 0 0-.2 0-.5 0l-3.8-2.8s-2.5-2.2-14.3-1.3c-1.4-.3-3.3-.4-5.5-.4l-10.5-6.5s-2.2-1.4-4.6.3-13.2 2.4-17.7 2.7-8.2 1.1-5.1 3.5c1.7 1.3 6.1 4.5 9.5 7-.3.3-.6.5-.8.8-7.6 3.3-6.4 5.8-6.4 5.8l4.4 3.2c-.5.3-1 .6-1.3.9-1.5 1.3-3 4.2-3 7.6-9 4.7-12.4 9.2-7.9 12.5 1.7 1.3 4.5 2.2 8 2.9z"/></clipPath><g clip-path="url(#a)" fill="none" stroke="#231f20" stroke-width="1.588"><path d="m36 80.1-13.5 47.1"/><path d="m45.3 82.8-13.5 47.1"/><path d="m54.7 85.5-13.5 47.1"/><path d="m64 88.2-13.5 47.1"/><path d="m73.4 90.9-13.5 47"/><path d="m40.7 81.5-13.5 47.1"/><path d="m50 84.2-13.5 47"/><path d="m59.4 86.9-13.5 47"/><path d="m68.7 89.5-13.5 47.1"/><path d="m78.1 92.2-13.5 47.1"/><path d="m49.4 33.4-13.5 47.1"/><path d="m58.7 36.1-13.4 47"/><path d="m68.1 38.8-13.5 47"/><path d="m77.4 41.4-13.5 47.1"/><path d="m86.8 44.1-13.5 47.1"/><path d="m54.1 34.7-13.5 47.1"/><path d="m63.4 37.4-13.5 47.1"/><path d="m72.8 40.1-13.5 47.1"/><path d="m82.1 42.8-13.5 47.1"/><path d="m91.5 45.5-13.5 47"/><path d="m62.8-13.4-13.5 47.1"/><path d="m72.2-10.7-13.5 47.1"/><path d="m81.5-8-13.5 47.1"/><path d="m90.9-5.3-13.5 47.1"/><path d="m100.2-2.6-13.5 47"/><path d="m67.5-12-13.5 47.1"/><path d="m76.8-9.3-13.5 47"/><path d="m86.2-6.7-13.5 47.1"/><path d="m95.5-4-13.5 47.1"/><path d="m104.9-1.3-13.5 47.1"/><path d="m-10.8 66.7-13.5 47.1"/><path d="m-1.4 69.4-13.5 47.1"/><path d="m7.9 72.1-13.5 47.1"/><path d="m17.3 74.8-13.5 47.1"/><path d="m26.6 77.5-13.5 47"/><path d="m-6.1 68.1-13.5 47.1"/><path d="m3.3 70.8-13.5 47"/><path d="m12.6 73.4-13.5 47.1"/><path d="m22 76.1-13.5 47.1"/><path d="m31.3 78.8-13.5 47.1"/><path d="m2.6 20-13.5 47.1"/><path d="m12 22.7-13.5 47"/><path d="m21.4 25.3-13.6 47.1"/><path d="m30.7 28-13.5 47.1"/><path d="m40 30.7-13.5 47.1"/><path d="m7.3 21.3-13.5 47.1"/><path d="m16.7 24-13.5 47.1"/><path d="m26 26.7-13.5 47.1"/><path d="m35.4 29.4-13.5 47"/><path d="m44.7 32-13.5 47.1"/><path d="m16.1-26.8-13.5 47.1"/><path d="m25.4-24.1-13.5 47.1"/><path d="m34.8-21.4-13.5 47.1"/><path d="m44.1-18.7-13.5 47.1"/><path d="m53.5-16-13.5 47"/><path d="m20.7-25.4-13.5 47"/><path d="m30.1-22.7-13.5 47"/><path d="m39.4-20.1-13.5 47.1"/><path d="m48.8-17.4-13.5 47.1"/><path d="m58.1-14.7-13.5 47.1"/><path d="m128.4 108.1-13.5 47"/><path d="m137.7 110.7-13.5 47.1"/><path d="m147 113.4-13.4 47.1"/><path d="m156.4 116.1-13.5 47.1"/><path d="m165.8 118.8-13.5 47.1"/><path d="m133 109.4-13.5 47.1"/><path d="m142.4 112.1-13.5 47.1"/><path d="m151.7 114.8-13.5 47"/><path d="m161.1 117.4-13.5 47.1"/><path d="m170.4 120.1-13.5 47.1"/><path d="m141.8 61.3-13.5 47.1"/><path d="m151.1 64-13.5 47.1"/><path d="m160.5 66.7-13.5 47"/><path d="m169.8 69.3-13.5 47.1"/><path d="m179.2 72-13.5 47.1"/><path d="m146.4 62.6-13.5 47.1"/><path d="m155.8 65.3-13.5 47.1"/><path d="m165.1 68-13.5 47.1"/><path d="m174.5 70.7-13.5 47.1"/><path d="m183.8 73.4-13.5 47"/><path d="m155.2 14.5-13.5 47.1"/><path d="m164.5 17.2-13.5 47.1"/><path d="m173.9 19.9-13.5 47.1"/><path d="m183.2 22.6-13.5 47.1"/><path d="m192.6 25.3-13.5 47"/><path d="m159.8 15.9-13.5 47.1"/><path d="m169.2 18.6-13.5 47"/><path d="m178.5 21.2-13.5 47.1"/><path d="m187.9 23.9-13.5 47.1"/><path d="m197.2 26.6-13.5 47.1"/><path d="m81.6 94.6-13.5 47.1"/><path d="m90.9 97.3-13.5 47.1"/><path d="m100.3 100-13.5 47.1"/><path d="m109.6 102.7-13.4 47.1"/><path d="m119 105.4-13.5 47"/><path d="m86.3 96-13.5 47.1"/><path d="m95.6 98.7-13.5 47"/><path d="m105 101.3-13.5 47.1"/><path d="m114.3 104-13.5 47.1"/><path d="m123.7 106.7-13.5 47.1"/><path d="m95 47.9-13.5 47.1"/><path d="m104.4 50.6-13.5 47"/><path d="m113.7 53.3-13.5 47"/><path d="m123.1 55.9-13.5 47.1"/><path d="m132.4 58.6-13.5 47.1"/><path d="m99.7 49.2-13.5 47.1"/><path d="m109 51.9-13.5 47.1"/><path d="m118.4 54.6-13.5 47.1"/><path d="m127.7 57.3-13.5 47.1"/><path d="m137.1 60-13.5 47"/><path d="m108.4 1.1-13.5 47.1"/><path d="m117.8 3.8-13.5 47.1"/><path d="m127.1 6.5-13.5 47.1"/><path d="m136.5 9.2-13.5 47.1"/><path d="m145.8 11.9-13.5 47"/><path d="m113.1 2.5-13.5 47.1"/><path d="m122.4 5.2-13.5 47"/><path d="m131.8 7.8-13.5 47.1"/><path d="m141.1 10.5-13.5 47.1"/><path d="m150.5 13.2-13.5 47.1"/><path d="m220.7 134.6-13.5 47.1"/><path d="m230.1 137.3-13.5 47.1"/><path d="m239.4 140-13.5 47.1"/><path d="m248.8 142.7-13.5 47"/><path d="m258.1 145.3-13.5 47.1"/><path d="m225.4 136-13.5 47"/><path d="m234.7 138.6-13.5 47.1"/><path d="m244.1 141.3-13.5 47.1"/><path d="m253.4 144-13.5 47.1"/><path d="m262.8 146.7-13.5 47.1"/><path d="m234.1 87.9-13.5 47"/><path d="m243.5 90.5-13.5 47.1"/><path d="m252.8 93.2-13.5 47.1"/><path d="m262.2 95.9-13.5 47.1"/><path d="m271.5 98.6-13.5 47.1"/><path d="m238.8 89.2-13.5 47.1"/><path d="m248.1 91.9-13.5 47.1"/><path d="m257.5 94.6-13.5 47"/><path d="m266.8 97.2-13.5 47.1"/><path d="m276.2 99.9-13.5 47.1"/><path d="m247.5 41.1-13.5 47.1"/><path d="m256.9 43.8-13.5 47.1"/><path d="m266.2 46.5-13.5 47"/><path d="m275.6 49.2-13.5 47"/><path d="m284.9 51.8-13.5 47.1"/><path d="m252.2 42.5-13.5 47"/><path d="m261.5 45.1-13.5 47.1"/><path d="m270.9 47.8-13.5 47.1"/><path d="m280.2 50.5-13.5 47.1"/><path d="m289.6 53.2-13.5 47.1"/><path d="m174 121.2-13.5 47.1"/><path d="m183.3 123.9-13.5 47.1"/><path d="m192.7 126.6-13.5 47.1"/><path d="m202 129.3-13.5 47"/><path d="m211.4 131.9-13.5 47.1"/><path d="m178.6 122.5-13.5 47.1"/><path d="m188 125.2-13.5 47.1"/><path d="m197.3 127.9-13.5 47.1"/><path d="m206.7 130.6-13.5 47.1"/><path d="m216 133.3-13.5 47.1"/><path d="m187.4 74.5-13.5 47"/><path d="m196.7 77.1-13.5 47.1"/><path d="m206.1 79.8-13.5 47.1"/><path d="m215.4 82.5-13.5 47.1"/><path d="m224.8 85.2-13.5 47.1"/><path d="m192 75.8-13.5 47.1"/><path d="m201.4 78.5-13.5 47.1"/><path d="m210.7 81.2-13.5 47"/><path d="m220.1 83.8-13.5 47.1"/><path d="m229.4 86.5-13.5 47.1"/><path d="m200.8 27.7-13.5 47.1"/><path d="m210.1 30.4-13.5 47.1"/><path d="m219.5 33.1-13.5 47"/><path d="m228.8 35.7-13.5 47.1"/><path d="m238.2 38.4-13.5 47.1"/><path d="m205.4 29-13.5 47.1"/><path d="m214.8 31.7-13.5 47.1"/><path d="m224.1 34.4-13.5 47.1"/><path d="m233.5 37.1-13.5 47.1"/><path d="m242.8 39.8-13.5 47"/><path d="m314.2 160.8-13.5 47.1"/><path d="m323.6 163.5-13.5 47.1"/><path d="m332.9 166.2-13.5 47.1"/><path d="m342.3 168.9-13.5 47.1"/><path d="m351.6 171.6-13.5 47"/><path d="m318.9 162.2-13.5 47.1"/><path d="m328.2 164.9-13.5 47"/><path d="m337.6 167.5-13.5 47.1"/><path d="m346.9 170.2-13.5 47.1"/><path d="m356.3 172.9-13.5 47.1"/><path d="m327.6 114.1-13.5 47.1"/><path d="m337 116.8-13.5 47"/><path d="m346.3 119.4-13.5 47.1"/><path d="m355.7 122.1-13.5 47.1"/><path d="m365 124.8-13.5 47.1"/><path d="m332.3 115.4-13.5 47.1"/><path d="m341.6 118.1-13.5 47.1"/><path d="m351 120.8-13.5 47.1"/><path d="m360.3 123.5-13.5 47"/><path d="m369.7 126.1-13.5 47.1"/><path d="m341 67.3-13.5 47.1"/><path d="m350.4 70-13.5 47.1"/><path d="m359.7 72.7-13.5 47.1"/><path d="m369.1 75.4-13.5 47.1"/><path d="m378.4 78.1-13.5 47"/><path d="m345.7 68.7-13.5 47"/><path d="m355.1 71.3-13.5 47.1"/><path d="m364.4 74-13.5 47.1"/><path d="m373.8 76.7-13.5 47.1"/><path d="m383.1 79.4-13.5 47.1"/><path d="m267.5 147.4-13.5 47.1"/><path d="m276.8 150.1-13.5 47.1"/><path d="m286.2 152.8-13.5 47.1"/><path d="m295.5 155.5-13.5 47.1"/><path d="m304.9 158.2-13.5 47"/><path d="m272.1 148.8-13.5 47"/><path d="m281.5 151.5-13.5 47"/><path d="m290.8 154.1-13.5 47.1"/><path d="m300.2 156.8-13.5 47.1"/><path d="m309.5 159.5-13.5 47.1"/><path d="m280.9 100.7-13.5 47.1"/><path d="m290.2 103.4-13.5 47"/><path d="m299.6 106-13.5 47.1"/><path d="m308.9 108.7-13.5 47.1"/><path d="m318.3 111.4-13.5 47.1"/><path d="m285.5 102-13.5 47.1"/><path d="m294.9 104.7-13.5 47.1"/><path d="m304.2 107.4-13.5 47.1"/><path d="m313.6 110.1-13.5 47"/><path d="m322.9 112.7-13.5 47.1"/><path d="m294.3 53.9-13.5 47.1"/><path d="m303.6 56.6-13.5 47.1"/><path d="m313 59.3-13.5 47.1"/><path d="m322.3 62-13.5 47"/><path d="m331.7 64.7-13.5 47"/><path d="m298.9 55.3-13.4 47"/><path d="m308.3 57.9-13.5 47.1"/><path d="m317.6 60.6-13.4 47.1"/><path d="m327 63.3-13.5 47.1"/><path d="m336.4 66-13.5 47.1"/><path d="m-3.8 219-13.5 47.1"/><path d="m5.5 221.7-13.5 47"/><path d="m14.9 224.3-13.5 47.1"/><path d="m24.2 227-13.5 47.1"/><path d="m33.6 229.7-13.5 47.1"/><path d="m.8 220.3-13.5 47.1"/><path d="m10.2 223-13.5 47.1"/><path d="m19.5 225.7-13.5 47.1"/><path d="m28.9 228.4-13.5 47"/><path d="m38.2 231.1-13.5 47"/><path d="m9.6 172.2-13.5 47.1"/><path d="m18.9 174.9-13.5 47.1"/><path d="m28.3 177.6-13.5 47.1"/><path d="m37.6 180.3-13.5 47.1"/><path d="m47 183-13.5 47"/><path d="m14.2 173.6-13.5 47"/><path d="m23.6 176.3-13.5 47"/><path d="m32.9 178.9-13.5 47.1"/><path d="m42.3 181.6-13.5 47.1"/><path d="m51.6 184.3-13.5 47.1"/><path d="m23 125.5-13.5 47.1"/><path d="m32.3 128.2-13.5 47"/><path d="m41.7 130.8-13.5 47.1"/><path d="m51 133.5-13.5 47.1"/><path d="m60.4 136.2-13.5 47.1"/><path d="m27.6 126.8-13.5 47.1"/><path d="m37 129.5-13.5 47.1"/><path d="m46.3 132.2-13.5 47.1"/><path d="m55.7 134.9-13.5 47"/><path d="m65.1 137.5-13.6 47.1"/><path d="m-50.6 205.6-13.5 47.1"/><path d="m-41.2 208.3-13.5 47"/><path d="m-31.9 210.9-13.5 47.1"/><path d="m-22.5 213.6-13.5 47.1"/><path d="m-13.2 216.3-13.5 47.1"/><path d="m-45.9 206.9-13.5 47.1"/><path d="m-36.6 209.6-13.5 47.1"/><path d="m-27.2 212.3-13.5 47.1"/><path d="m-17.9 215-13.5 47"/><path d="m-8.5 217.6-13.5 47.1"/><path d="m-37.2 158.8-13.5 47.1"/><path d="m-27.8 161.5-13.5 47.1"/><path d="m-18.5 164.2-13.5 47.1"/><path d="m-9.1 166.9-13.5 47"/><path d="m.2 169.5-13.5 47.1"/><path d="m-32.5 160.2-13.5 47"/><path d="m-23.2 162.8-13.5 47.1"/><path d="m-13.8 165.5-13.5 47.1"/><path d="m-4.5 168.2-13.5 47.1"/><path d="m4.9 170.9-13.5 47.1"/><path d="m171.6 217.8-13.5 47.1"/><path d="m180.9 220.5-13.5 47.1"/><path d="m190.3 223.2-13.5 47"/><path d="m199.6 225.9-13.5 47"/><path d="m209 228.5-13.5 47.1"/><path d="m176.2 219.1-13.5 47.1"/><path d="m185.6 221.8-13.5 47.1"/><path d="m194.9 224.5-13.5 47.1"/><path d="m204.3 227.2-13.5 47.1"/><path d="m213.6 229.9-13.5 47.1"/><path d="m185 171.1-13.5 47"/><path d="m194.3 173.7-13.5 47.1"/><path d="m203.7 176.4-13.5 47.1"/><path d="m213 179.1-13.5 47.1"/><path d="m222.4 181.8-13.5 47.1"/><path d="m189.6 172.4-13.4 47.1"/><path d="m199 175.1-13.5 47.1"/><path d="m208.4 177.8-13.5 47"/><path d="m217.7 180.4-13.5 47.1"/><path d="m227.1 183.1-13.5 47.1"/><path d="m124.8 204.4-13.5 47.1"/><path d="m134.2 207.1-13.5 47.1"/><path d="m143.5 209.8-13.5 47"/><path d="m152.9 212.4-13.5 47.1"/><path d="m162.2 215.1-13.5 47.1"/><path d="m129.5 205.7-13.5 47.1"/><path d="m138.8 208.4-13.5 47.1"/><path d="m148.2 211.1-13.5 47.1"/><path d="m157.5 213.8-13.5 47.1"/><path d="m166.9 216.5-13.5 47"/><path d="m277.6 200.6-13.5 47.1"/><path d="m287 203.3-13.5 47.1"/><path d="m296.3 206-13.5 47.1"/><path d="m305.7 208.7-13.5 47"/><path d="m315 211.4-13.5 47"/><path d="m282.3 202-13.5 47"/><path d="m291.6 204.6-13.5 47.1"/><path d="m301 207.3-13.5 47.1"/><path d="m310.4 210-13.5 47.1"/><path d="m319.7 212.7-13.5 47.1"/><path d="m230.9 187.2-13.5 47.1"/><path d="m240.2 189.9-13.5 47.1"/><path d="m249.6 192.6-13.5 47.1"/><path d="m258.9 195.3-13.5 47"/><path d="m268.3 197.9-13.5 47.1"/><path d="m235.5 188.6-13.5 47"/><path d="m244.9 191.2-13.5 47.1"/><path d="m254.2 193.9-13.5 47.1"/><path d="m263.6 196.6-13.5 47.1"/><path d="m272.9 199.3-13.4 47.1"/><path d="m138.2 157.6-13.5 47.1"/><path d="m147.6 160.3-13.5 47.1"/><path d="m156.9 163-13.5 47.1"/><path d="m166.3 165.7-13.5 47.1"/><path d="m175.6 168.4-13.5 47.1"/><path d="m142.9 159-13.5 47.1"/><path d="m152.2 161.7-13.4 47"/><path d="m161.6 164.4-13.5 47"/><path d="m170.9 167-13.4 47.1"/><path d="m180.3 169.7-13.5 47.1"/><path d="m-23.8 112.1-13.5 47"/><path d="m-14.4 114.8-13.5 47"/><path d="m-5.1 117.4-13.5 47.1"/><path d="m4.3 120.1-13.5 47.1"/><path d="m13.6 122.8-13.5 47.1"/><path d="m-19.1 113.4-13.5 47.1"/><path d="m-9.8 116.1-13.5 47.1"/><path d="m-.4 118.8-13.5 47.1"/><path d="m8.9 121.5-13.5 47"/><path d="m18.3 124.1-13.5 47.1"/></g></svg>