<?xml version="1.0" encoding="utf-8"?>
<!-- Generator: Adobe Illustrator 20.1.0, SVG Export Plug-In . SVG Version: 6.00 Build 0)  -->
<svg version="1.1" id="Layer_1" xmlns="http://www.w3.org/2000/svg" xmlns:xlink="http://www.w3.org/1999/xlink" x="0px" y="0px"
	 viewBox="0 0 44.2 42.4" style="enable-background:new 0 0 44.2 42.4;" xml:space="preserve">
<style type="text/css">
	.st0{fill:none;}
	.st1{fill:none;stroke:#211E1F;stroke-width:3.6;}
	.st2{fill:url(#SVGID_1_);}
</style>
<pattern  y="242.9" width="72" height="72" patternUnits="userSpaceOnUse" id="_x31_0_lpi_50_x25_" viewBox="72.2 -72 72 72" style="overflow:visible;">
	<g>
		<rect x="72.2" y="-72" class="st0" width="72" height="72"/>
		<g>
			<line class="st1" x1="144" y1="-3.6" x2="216.5" y2="-3.6"/>
			<line class="st1" x1="144" y1="-18" x2="216.5" y2="-18"/>
			<line class="st1" x1="144" y1="-32.4" x2="216.5" y2="-32.4"/>
			<line class="st1" x1="144" y1="-46.8" x2="216.5" y2="-46.8"/>
			<line class="st1" x1="144" y1="-61.2" x2="216.5" y2="-61.2"/>
			<line class="st1" x1="144" y1="-10.8" x2="216.5" y2="-10.8"/>
			<line class="st1" x1="144" y1="-25.2" x2="216.5" y2="-25.2"/>
			<line class="st1" x1="144" y1="-39.6" x2="216.5" y2="-39.6"/>
			<line class="st1" x1="144" y1="-54" x2="216.5" y2="-54"/>
			<line class="st1" x1="144" y1="-68.4" x2="216.5" y2="-68.4"/>
		</g>
		<g>
			<line class="st1" x1="72" y1="-3.6" x2="144.5" y2="-3.6"/>
			<line class="st1" x1="72" y1="-18" x2="144.5" y2="-18"/>
			<line class="st1" x1="72" y1="-32.4" x2="144.5" y2="-32.4"/>
			<line class="st1" x1="72" y1="-46.8" x2="144.5" y2="-46.8"/>
			<line class="st1" x1="72" y1="-61.2" x2="144.5" y2="-61.2"/>
			<line class="st1" x1="72" y1="-10.8" x2="144.5" y2="-10.8"/>
			<line class="st1" x1="72" y1="-25.2" x2="144.5" y2="-25.2"/>
			<line class="st1" x1="72" y1="-39.6" x2="144.5" y2="-39.6"/>
			<line class="st1" x1="72" y1="-54" x2="144.5" y2="-54"/>
			<line class="st1" x1="72" y1="-68.4" x2="144.5" y2="-68.4"/>
		</g>
		<g>
			<line class="st1" x1="0" y1="-3.6" x2="72.5" y2="-3.6"/>
			<line class="st1" x1="0" y1="-18" x2="72.5" y2="-18"/>
			<line class="st1" x1="0" y1="-32.4" x2="72.5" y2="-32.4"/>
			<line class="st1" x1="0" y1="-46.8" x2="72.5" y2="-46.8"/>
			<line class="st1" x1="0" y1="-61.2" x2="72.5" y2="-61.2"/>
			<line class="st1" x1="0" y1="-10.8" x2="72.5" y2="-10.8"/>
			<line class="st1" x1="0" y1="-25.2" x2="72.5" y2="-25.2"/>
			<line class="st1" x1="0" y1="-39.6" x2="72.5" y2="-39.6"/>
			<line class="st1" x1="0" y1="-54" x2="72.5" y2="-54"/>
			<line class="st1" x1="0" y1="-68.4" x2="72.5" y2="-68.4"/>
		</g>
	</g>
</pattern>
<g>
	<g>
		
			<pattern  id="SVGID_1_" xlink:href="#_x31_0_lpi_50_x25_" patternTransform="matrix(-0.1224 0.427 -0.427 -0.1224 -12039.1816 -5021.9482)">
		</pattern>
		<path class="st2" d="M10.8,31.1c6.8,0.3,24.1,1.1,26.1-8.8c0.8-4-6.8-12.3-10.1-14.1c-6-3.3-13.9,2.3-14.2,8.8
			c-0.2,3.8,1.6,4.5-0.4,8.1c-1.4,2.5-4.2,3.2-5,6.3c1.8,1,4,1.4,6,1.1"/>
	</g>
</g>
</svg>
