<?xml version="1.0" encoding="utf-8"?>
<!-- Generator: Adobe Illustrator 20.1.0, SVG Export Plug-In . SVG Version: 6.00 Build 0)  -->
<svg version="1.1" id="Layer_1" xmlns="http://www.w3.org/2000/svg" xmlns:xlink="http://www.w3.org/1999/xlink" x="0px" y="0px"
	 viewBox="0 0 2.9 2.4" style="enable-background:new 0 0 2.9 2.4;" xml:space="preserve">
<style type="text/css">
	.st0{fill:none;stroke:#000000;stroke-width:6;stroke-miterlimit:10;}
	.st1{fill:none;stroke:#EC5445;stroke-width:4;stroke-miterlimit:10;}
	.st2{fill:none;stroke:#A91E22;stroke-width:4;stroke-miterlimit:10;}
	.st3{fill:#8DB2DE;stroke:#8DB2DE;}
	.st4{fill:#231F20;}
	.st5{fill:#513534;stroke:#513534;stroke-width:1.5777;stroke-linecap:round;stroke-linejoin:round;stroke-miterlimit:10;}
	.st6{fill:#513534;stroke:#513534;stroke-width:1.6313;stroke-linecap:round;stroke-linejoin:round;stroke-miterlimit:10;}
	.st7{fill:#513534;stroke:#513534;}
	.st8{fill:#E2C7CF;}
	.st9{fill:#8CB1DE;}
	.st10{fill:#B4DBB4;}
	.st11{fill:#F37E65;}
	.st12{fill:#FCF7EC;}
	.st13{fill:#E9C189;}
	.st14{fill:#CCDD61;}
	.st15{fill:#EC5244;}
	.st16{fill:#AFF9AF;}
	.st17{clip-path:url(#SVGID_2_);fill:#EC5244;}
	.st18{clip-path:url(#SVGID_4_);fill:#AFF9AF;}
	.st19{clip-path:url(#SVGID_6_);fill:#8CB1DE;}
	.st20{fill:#D7C18E;}
	.st21{fill:#503433;}
	.st22{clip-path:url(#SVGID_8_);}
	.st23{clip-path:url(#SVGID_10_);}
	.st24{fill:#221F1F;}
	.st25{clip-path:url(#SVGID_12_);}
	.st26{clip-path:url(#SVGID_14_);}
	.st27{clip-path:url(#SVGID_16_);}
	.st28{clip-path:url(#SVGID_18_);}
	.st29{clip-path:url(#SVGID_20_);}
</style>
<g>
	<g>
		<g>
			<defs>
				<path id="SVGID_7_" d="M-48.9,19.8c-12.1,0-24.4,5.6-36.4,4c-4.6-0.6-8.7-2.5-11.3-4.9c-2.7-2.4-5.4-4.4-8.5-6.6
					c2.2-2.4,7.9,1,10.1,1.8c3.3,1.3,8.4,2.6,12.2,3.1c6.9,0.9,15.5,0.2,22.6,0.2c2.8,0,15.4-1.2,13.5,2.1c-1.3,0.2-2.5,0.3-3.9,0.3
					"/>
			</defs>
			<clipPath id="SVGID_2_">
				<use xlink:href="#SVGID_7_"  style="overflow:visible;"/>
			</clipPath>
			<g style="clip-path:url(#SVGID_2_);">
				<g>
					<defs>
						
							<rect id="SVGID_9_" x="-66" y="33.2" transform="matrix(0.2756 -0.9613 0.9613 0.2756 -85.5095 1.5649)" width="48.6" height="48.6"/>
					</defs>
					<clipPath id="SVGID_4_">
						<use xlink:href="#SVGID_9_"  style="overflow:visible;"/>
					</clipPath>
					<g style="clip-path:url(#SVGID_4_);">
						<g>
							
								<rect x="-31.8" y="16" transform="matrix(0.2754 -0.9613 0.9613 0.2754 -21.4139 5.1802)" class="st24" width="49" height="1.6"/>
						</g>
					</g>
				</g>
			</g>
			<g style="clip-path:url(#SVGID_2_);">
				<g>
					<defs>
						
							<rect id="SVGID_15_" x="-52.6" y="-13.6" transform="matrix(0.2756 -0.9613 0.9613 0.2756 -30.855 -19.4182)" width="48.6" height="48.6"/>
					</defs>
					<clipPath id="SVGID_6_">
						<use xlink:href="#SVGID_15_"  style="overflow:visible;"/>
					</clipPath>
					<g style="clip-path:url(#SVGID_6_);">
						<g>
							
								<rect x="-31.8" y="16" transform="matrix(0.2754 -0.9613 0.9613 0.2754 -21.4139 5.1802)" class="st24" width="49" height="1.6"/>
						</g>
					</g>
				</g>
			</g>
		</g>
	</g>
</g>
</svg>
