<?xml version="1.0" encoding="utf-8"?>
<!-- Generator: Adobe Illustrator 20.1.0, SVG Export Plug-In . SVG Version: 6.00 Build 0)  -->
<svg version="1.1" id="Layer_1" xmlns="http://www.w3.org/2000/svg" xmlns:xlink="http://www.w3.org/1999/xlink" x="0px" y="0px"
	 viewBox="0 0 138.1 343.1" style="enable-background:new 0 0 138.1 343.1;" xml:space="preserve">
<style type="text/css">
	.st0{fill:#B8B9BA;stroke:#503433;stroke-width:1.3;stroke-linecap:round;stroke-linejoin:round;stroke-miterlimit:10;}
	.st1{fill:#8BB0DD;stroke:#503433;stroke-width:1.3;stroke-linecap:round;stroke-linejoin:round;stroke-miterlimit:10;}
	.st2{fill:#B8B9BA;stroke:#503433;stroke-linecap:round;stroke-linejoin:round;stroke-miterlimit:10;}
	.st3{fill:#FFFFFF;stroke:#503433;stroke-width:1.3;stroke-miterlimit:10;}
	.st4{fill:#FBF6EC;stroke:#503433;stroke-width:1.3;stroke-linecap:round;stroke-linejoin:round;stroke-miterlimit:10;}
	.st5{fill:#503433;stroke:#503433;stroke-width:1.3;stroke-miterlimit:10;}
	.st6{fill:#D6922A;stroke:#503433;stroke-width:0.75;stroke-linecap:round;stroke-linejoin:round;stroke-miterlimit:10;}
</style>
<g>
	<g>
		<path class="st0" d="M17.3,292.7c-3.8,0.2-2.5,5.2-2.3,9.2c0.2,4,8.8,25.6,46.5,25.8c37.7,0.1,50.2-11.2,55.7-16.2s4.7-10,4.7-10
			c0.5-8-2.6-8.8-2.6-8.8S21.3,292.6,17.3,292.7z"/>
		<path class="st1" d="M12.9,74.2l3.7,223.3c0,0,6.1,25.6,48.2,26.2s54.3-22,54.3-22L124,75.9C63,100.9,13,74.1,12.9,74.2z"/>
		<ellipse class="st0" cx="69.2" cy="68.4" rx="59.3" ry="19.4"/>
		<path class="st0" d="M9.9,68.4c0,10.7,26.6,19.4,59.3,19.4s59.3-8.7,59.3-19.4S102,49,69.2,49C36.5,49,9.9,57.7,9.9,68.4z
			 M14.4,67.3c0-8.8,24.5-16,54.8-16s54.8,7.2,54.8,16s-24.5,16-54.8,16C39,83.3,14.5,76.2,14.4,67.3z"/>
		<path class="st1" d="M19.2,66.3c0,8.2,22.4,14.9,49.9,14.9S119,74.5,119,66.3S96.7,51.4,69.1,51.4S19.2,58.1,19.2,66.3z M23,65.4
			c0-6.8,20.6-12.3,46.1-12.3c25.4,0,46.1,5.5,46.1,12.3S94.6,77.7,69.1,77.7S23,72.2,23,65.4z"/>
		<path class="st0" d="M63.3,77.7c-42.8-1.6-40.2-13.1-40.2-13.1c3.4-9.7,12.1-17.5,16.2-19.7c4.1-2.1,14.7-4.3,29.9-4.3
			s27.4,2.8,27.4,2.8c12.8,6,18.6,22,18.6,22C114.6,69.8,106.1,79.2,63.3,77.7z"/>
		<path class="st2" d="M70.7,31c-26-0.6-29.8,7.5-29.8,7.5V45c0,0,7.6,5.2,25.1,6.4c17.6,1.2,29.9-5.7,29.9-5.7v-7.2
			C95.9,38.5,96.6,31.7,70.7,31z"/>
		<ellipse class="st1" cx="69.1" cy="39.1" rx="22" ry="5.2"/>
		<path class="st2" d="M49.9,41.6v-6.5c2-7.1,25.8-6.3,31.5-4.9c5.7,1.4,6.5,4.7,6.5,4.7v7.2C68.9,48.7,49.9,41.6,49.9,41.6z"/>
		<ellipse class="st3" cx="68.5" cy="37" rx="16.1" ry="2.2"/>
		<path class="st4" d="M53.8,37.8c0,0-0.2-14,0-18.1c0.1-4.1,3.7-4.1,7.5-3.2c3.7,0.9,12.8,3,16.4,1.5c3.6-1.5,3.9,0.9,3.9,0.9
			l2,18.8C66.4,41,53.8,37.8,53.8,37.8z"/>
		<circle class="st5" cx="62.4" cy="27.3" r="4.8"/>
		<polygon class="st6" points="84.4,152.9 62.4,152.9 85.4,202 70.8,202 82,253.2 39.4,189.1 58,189.1 29.9,134.8 77.2,134.8 		"/>
	</g>
</g>
</svg>
