<?xml version="1.0" encoding="utf-8"?>
<!-- Generator: Adobe Illustrator 20.1.0, SVG Export Plug-In . SVG Version: 6.00 Build 0)  -->
<svg version="1.1" id="Layer_1" xmlns="http://www.w3.org/2000/svg" xmlns:xlink="http://www.w3.org/1999/xlink" x="0px" y="0px"
	 viewBox="0 0 284.6 240.2" style="enable-background:new 0 0 284.6 240.2;" xml:space="preserve">
<style type="text/css">
	.st0{fill:none;stroke:#A91E22;stroke-width:4;stroke-miterlimit:10;}
	.st1{fill:none;stroke:#EB5344;stroke-width:4;stroke-miterlimit:10;}
	.st2{fill:#8DB2DE;stroke:#8DB2DE;}
	.st3{fill:#231F20;}
	.st4{fill:#513534;stroke:#513534;stroke-width:1.5777;stroke-linecap:round;stroke-linejoin:round;stroke-miterlimit:10;}
	.st5{fill:#513534;stroke:#513534;stroke-width:1.6313;stroke-linecap:round;stroke-linejoin:round;stroke-miterlimit:10;}
	.st6{fill:#513534;stroke:#513534;}
	.st7{fill:#EC5244;}
</style>
<line class="st0" x1="-1182" y1="1493.1" x2="-1192.1" y2="1529.1"/>
<line class="st0" x1="-1155.2" y1="1470.8" x2="-1182.9" y2="1562.6"/>
<line class="st0" x1="-1131.4" y1="1459.4" x2="-1168.7" y2="1582.1"/>
<line class="st0" x1="-1110.2" y1="1451.8" x2="-1152.7" y2="1594.1"/>
<line class="st0" x1="-1089.2" y1="1449.9" x2="-1134.1" y2="1598.6"/>
<line class="st0" x1="-1070.3" y1="1448.2" x2="-1116.6" y2="1604.3"/>
<line class="st0" x1="-1050.6" y1="1449.1" x2="-1097.9" y2="1608.6"/>
<line class="st0" x1="-1032.7" y1="1453.6" x2="-1080" y2="1613.1"/>
<line class="st0" x1="-1015.1" y1="1458.6" x2="-1061.5" y2="1616.1"/>
<line class="st0" x1="-998.8" y1="1466.7" x2="-1043.4" y2="1619.4"/>
<line class="st0" x1="-981.4" y1="1476.2" x2="-1023.5" y2="1621.4"/>
<line class="st0" x1="-965.2" y1="1486.9" x2="-1004.4" y2="1621.1"/>
<line class="st0" x1="-948.1" y1="1497.5" x2="-984.5" y2="1622.8"/>
<line class="st0" x1="-932.1" y1="1509.9" x2="-964.9" y2="1623"/>
<line class="st0" x1="-918.1" y1="1529.8" x2="-942.8" y2="1615.2"/>
<line class="st0" x1="-906.6" y1="1556.1" x2="-919.8" y2="1601.8"/>
<line class="st0" x1="-1273.2" y1="843.2" x2="-1283.3" y2="879.2"/>
<line class="st0" x1="-1253.8" y1="844.3" x2="-1268.4" y2="893.9"/>
<line class="st0" x1="-1235.1" y1="844.5" x2="-1250.3" y2="897.7"/>
<line class="st0" x1="-1214.4" y1="845.5" x2="-1230.7" y2="900.7"/>
<line class="st0" x1="-1194.8" y1="844.9" x2="-1212.5" y2="905.3"/>
<line class="st0" x1="-1177.7" y1="845.4" x2="-1195.8" y2="908.6"/>
<line class="st0" x1="-1155.5" y1="845.8" x2="-1174.7" y2="912.8"/>
<line class="st0" x1="-1137.8" y1="846.8" x2="-1157.9" y2="916.2"/>
<line class="st0" x1="-1117.6" y1="845.7" x2="-1139.1" y2="918.4"/>
<line class="st0" x1="-1098" y1="846.7" x2="-1120.1" y2="923.8"/>
<line class="st0" x1="-1078.9" y1="847.3" x2="-1102" y2="926.1"/>
<line class="st0" x1="-1060.5" y1="846.9" x2="-1084.8" y2="931.4"/>
<line class="st0" x1="-1039.3" y1="847.6" x2="-1064.1" y2="934.8"/>
<line class="st0" x1="-1018.3" y1="848" x2="-1044.4" y2="939"/>
<path class="st0" d="M-1011,951.8"/>
<line class="st0" x1="-1025.4" y1="870.4" x2="-1035.5" y2="906.4"/>
<line class="st0" x1="-998.6" y1="848.1" x2="-1026.2" y2="943.4"/>
<line class="st0" x1="-978.5" y1="848.6" x2="-1009.3" y2="947.7"/>
<line class="st0" x1="-959.6" y1="848.5" x2="-989.5" y2="950.4"/>
<line class="st0" x1="-938.7" y1="849.2" x2="-969" y2="954.1"/>
<line class="st0" x1="-920.9" y1="850.2" x2="-952.5" y2="956.8"/>
<line class="st0" x1="-903.2" y1="849.8" x2="-935.1" y2="960.9"/>
<line class="st0" x1="-882.2" y1="849.8" x2="-916.2" y2="964.8"/>
<line class="st0" x1="-863.4" y1="850.4" x2="-897.2" y2="968.5"/>
<line class="st0" x1="-845.7" y1="850.7" x2="-880.5" y2="971.9"/>
<line class="st0" x1="-823.5" y1="851" x2="-859.4" y2="976.1"/>
<line class="st0" x1="-805.9" y1="851.3" x2="-842.7" y2="979.5"/>
<line class="st0" x1="-783.7" y1="851.7" x2="-821.5" y2="983.7"/>
<line class="st0" x1="-765.2" y1="852" x2="-804.2" y2="986.7"/>
<line class="st0" x1="-761.5" y1="907" x2="-786.2" y2="992.5"/>
<line class="st0" x1="-757.8" y1="957.1" x2="-770.2" y2="996.1"/>
<line class="st0" x1="-1154.4" y1="2067.7" x2="-1164.5" y2="2103.7"/>
<line class="st0" x1="-1183" y1="2162" x2="-1186.6" y2="2173"/>
<line class="st0" x1="-1135.8" y1="2071.2" x2="-1165.5" y2="2170.3"/>
<line class="st0" x1="-1114" y1="2070" x2="-1143.2" y2="2171"/>
<line class="st0" x1="-1096.4" y1="2069.4" x2="-1125.1" y2="2168.7"/>
<line class="st0" x1="-1078.1" y1="2068.1" x2="-1106.5" y2="2173.2"/>
<line class="st0" x1="-1056.8" y1="2068.8" x2="-1087.1" y2="2173.9"/>
<line class="st0" x1="-1037.4" y1="2067.5" x2="-1068.3" y2="2175.3"/>
<line class="st0" x1="-1017.5" y1="2068.5" x2="-1048.4" y2="2176.4"/>
<line class="st0" x1="-998.3" y1="2070.6" x2="-1028.9" y2="2175.9"/>
<line class="st0" x1="-979.9" y1="2071" x2="-1010.5" y2="2176.3"/>
<line class="st0" x1="-959.6" y1="2070.6" x2="-990.2" y2="2175.1"/>
<line class="st0" x1="-837.4" y1="2050.7" x2="-848.9" y2="2090.5"/>
<line class="st0" x1="-813.3" y1="2044.3" x2="-821.7" y2="2069.1"/>
<line class="st0" x1="-795.7" y1="2036.1" x2="-801" y2="2054.5"/>
<line class="st0" x1="-772.3" y1="2026.2" x2="-777.3" y2="2044.2"/>
<line class="st0" x1="-941.9" y1="2069.5" x2="-971.2" y2="2171.5"/>
<line class="st0" x1="-919.4" y1="2065.6" x2="-947.7" y2="2166"/>
<line class="st0" x1="-899.7" y1="2063.7" x2="-926.4" y2="2157"/>
<line class="st0" x1="-878.4" y1="2059.7" x2="-902" y2="2142"/>
<line class="st0" x1="-859.6" y1="2056" x2="-877.6" y2="2121.5"/>
<line class="st0" x1="-1246.1" y1="2445.5" x2="-1251" y2="2461.8"/>
<line class="st0" x1="-1227.5" y1="2449" x2="-1238" y2="2481.7"/>
<line class="st0" x1="-1205.7" y1="2447.8" x2="-1221.1" y2="2498.6"/>
<line class="st0" x1="-1188.1" y1="2447.2" x2="-1208" y2="2513.2"/>
<line class="st0" x1="-1169.9" y1="2445.9" x2="-1196.1" y2="2542"/>
<line class="st0" x1="-1148.6" y1="2446.6" x2="-1178.8" y2="2551.7"/>
<line class="st0" x1="-1129.1" y1="2445.3" x2="-1170.7" y2="2584.9"/>
<line class="st0" x1="-1108" y1="2439.8" x2="-1163.3" y2="2641.4"/>
<line class="st0" x1="-1086.5" y1="2437" x2="-1147" y2="2644.2"/>
<line class="st0" x1="-1067.9" y1="2435.9" x2="-1125.5" y2="2634.6"/>
<line class="st0" x1="-1047.6" y1="2434.2" x2="-1100.7" y2="2616"/>
<line class="st0" x1="-870.4" y1="2205.5" x2="-957.3" y2="2525.3"/>
<line class="st0" x1="-888.3" y1="2354.2" x2="-931.3" y2="2507.8"/>
<line class="st0" x1="-873.9" y1="2371.3" x2="-913.4" y2="2505.6"/>
<line class="st0" x1="-861.6" y1="2391.9" x2="-885.7" y2="2479.7"/>
<line class="st0" x1="-1030.6" y1="2431.9" x2="-1075.8" y2="2598.5"/>
<line class="st0" x1="-1008" y1="2430.2" x2="-1047.6" y2="2576.5"/>
<line class="st0" x1="-951.6" y1="2298.6" x2="-1026.1" y2="2557.8"/>
<line class="st0" x1="-909.9" y1="2231.1" x2="-999.2" y2="2543.3"/>
<line class="st0" x1="-885.3" y1="2205" x2="-979.7" y2="2534.6"/>
<line class="st1" x1="20.1" y1="189.6" x2="10" y2="225.6"/>
<line class="st1" x1="46.5" y1="149" x2="21.8" y2="230.3"/>
<line class="st1" x1="102" y1="66.1" x2="66.1" y2="184"/>
<line class="st1" x1="73.9" y1="105.3" x2="40.1" y2="216.5"/>
<line class="st1" x1="132.4" y1="27.9" x2="102" y2="131.5"/>
<line class="st1" x1="157.7" y1="14.5" x2="126.9" y2="114.5"/>
<line class="st1" x1="176.1" y1="10.8" x2="146.2" y2="110.3"/>
<line class="st1" x1="196.4" y1="7.6" x2="166" y2="110.8"/>
<line class="st1" x1="215.8" y1="10.4" x2="185.8" y2="111.2"/>
<line class="st1" x1="233.4" y1="14.4" x2="202.9" y2="116.8"/>
<line class="st1" x1="247.5" y1="28.8" x2="217.1" y2="127.4"/>
<line class="st1" x1="261.8" y1="48.1" x2="236.5" y2="130.1"/>
<line class="st1" x1="272.4" y1="77.6" x2="260.9" y2="118.6"/>
<path class="st2" d="M-1926.5,767.1c0,0,56.4-123,85.2-156.2c28.9-33.2,82.4-59.9,133.7-19.3c51.3,40.6,48.4,243.9-109.5,203.2
	c0,0-53.7-26.7-70.2,21.4h-5.4l-40.8-40.1L-1926.5,767.1z"/>
<path class="st3" d="M-1743,442.7l-2.8-1.2c-7.8,18.1-20.6,32.5-36,42.4c-15.4,9.9-33.5,15.3-52,15.3c-12.7,0-25.7-2.5-38.1-7.9
	c-18.1-7.8-32.5-20.5-42.4-35.9c-9.9-15.4-15.3-33.5-15.3-52c0-12.7,2.6-25.7,7.9-38.1c7.8-18.1,20.6-32.5,36-42.4
	c15.4-9.9,33.5-15.3,52-15.3c12.7,0,25.6,2.5,38,7.9c18.1,7.8,32.5,20.6,42.4,36c9.9,15.4,15.3,33.5,15.3,52
	c0,12.7-2.5,25.6-7.9,38.1L-1743,442.7l2.8,1.2c5.7-13.2,8.4-26.9,8.4-40.5c0-19.7-5.7-38.9-16.3-55.2
	c-10.5-16.4-25.9-29.9-45.1-38.2c-13.2-5.7-26.9-8.4-40.4-8.4c-19.7,0-38.9,5.7-55.2,16.3c-16.4,10.5-29.9,25.9-38.2,45.1
	c-5.7,13.2-8.4,27-8.4,40.5c0,19.7,5.7,38.8,16.2,55.2c10.5,16.4,25.9,29.9,45,38.2c13.2,5.7,26.9,8.4,40.5,8.4
	c19.7,0,38.9-5.7,55.2-16.3c16.4-10.5,29.9-25.9,38.2-45.1L-1743,442.7z"/>
<path class="st4" d="M-1695.6,1482.9c0,0-74.3,0-97.8-3.8c-23.5-3.8-56-11.5-85.1-33.9c0,0,29.4,78.1,9.2,162.3
	c0,0,19.7-18,43.2-28.4c23.5-10.4,53.5-14.7,66.1-16.9c12.6-2.2,20.8-12,20.8-12l49.7-7.1l-3.8,9.3c0,0,10.2-1,15.3-9.3
	c4.1-6.7,9.3-21.9,4.4-39.3S-1695.6,1482.9-1695.6,1482.9z"/>
<path class="st5" d="M-1636.4,1747.6c-4.1-21.6-38.5-25-38.5-25s-46,0-68.2,0c-11.2,0-25.1-2.6-36.2-5.2
	c-10.8-2.5-22.1-0.8-31.8,4.7c-4,2.3-9,4.4-15.1,6c-18.9,4.7-56.1,6.1-60.8,8.1c-4.7,2-19.6,23-28.4,35.8c-2.1,3.1-4.2,6.9-6.3,11.1
	l0,0c0,0-24.8,22.9-26.8,30.2c-2,7.4,4.1,21.6,13.9,16.5c0,0,0,0,0,0c4.3,8.3,19.4,10.9,26,1c3.4-5.1,6.8-13,10.8-21.2
	c8-4,15.3-7.3,20-8.3c-6.2,15.8-12.6,35.6-12.6,35.6c27,25,41.2-16.9,44.6-25.7c3.4-8.8,23-25.7,23-25.7l0,0c5.7,1.6,13.3,1,20-0.1
	c3.2-0.4,6.4-1,9.3-1.9c2.8-0.7,4.5-1.2,4.5-1.2c23.7,3.5,27,10,14.8,13.4c-12.2,3.4-40.5,4.7-35.9,31.1
	c4.6,26.4,41.3,10.4,41.3,10.4c16.2-6.3,27-11.8,44.6-11.1c17.6,0.7,45.3-6.8,50.7-19.6c0.5-1.1,0.8-2,1-2.8c1.3,0.5,4,0.4,9.2-1.3
	C-1644.4,1796.3-1632.4,1769.2-1636.4,1747.6z"/>
<path class="st6" d="M-1808.6,1217.6h-38.4c-6.6,0-12-5.4-12-12v-274c0-6.6,5.4-12,12-12h38.4c6.6,0,12,5.4,12,12v274
	C-1796.6,1212.2-1802,1217.6-1808.6,1217.6z"/>
<rect x="-1.9" y="-317.8" class="st7" width="278.1" height="214.1"/>
</svg>
