<?xml version="1.0" encoding="utf-8"?>
<!-- Generator: Adobe Illustrator 20.1.0, SVG Export Plug-In . SVG Version: 6.00 Build 0)  -->
<svg version="1.1" id="Layer_1" xmlns="http://www.w3.org/2000/svg" xmlns:xlink="http://www.w3.org/1999/xlink" x="0px" y="0px"
	 viewBox="0 0 224.9 63.5" style="enable-background:new 0 0 224.9 63.5;" xml:space="preserve">
<style type="text/css">
	.st0{fill:#F15E4F;stroke:#513534;stroke-width:1.3;stroke-linecap:round;stroke-linejoin:round;stroke-miterlimit:10;}
</style>
<g>
	<g>
		<path class="st0" d="M146.5,33.4c0,0-9,3.4-8.8,13.4s0,7.2,0,7.2s3.5,8,11.3,6s61.5-24,61.5-24s7.9-3.2,9.5-10.3
			c1.5-7,4-15.2-2.7-19.2S146.5,33.4,146.5,33.4z"/>
		<path class="st0" d="M211.2,22.3l-54.5,21.3c0,0-9.2,4.2-14.2,0s4-10.1,4-10.1s38-21.8,51.5-27.6c4.4-1.9,12-4.8,19.2,0.8
			S215.3,20.7,211.2,22.3z"/>
		<path class="st0" d="M12.7,9.8c0,0-9.5,2.9-7.2,14.6s6,15.2,12,17.2s63.8,18.8,63.8,18.8s13.2,2.4,12.5-10.8c0,0,3.9-12-10.7-16.3
			C68.5,29,12.7,9.8,12.7,9.8z"/>
		<path class="st0" d="M86,34.5L29.2,9.8c0,0-9.5-3.2-16.5,0s-4.6,13.4-2,14.6c8.8,4.2,68,21,68,21s7.8,2.1,10.5-2.1
			C92.7,37.8,86,34.5,86,34.5z"/>
	</g>
</g>
</svg>
