<?xml version="1.0" encoding="utf-8"?>
<!-- Generator: Adobe Illustrator 20.1.0, SVG Export Plug-In . SVG Version: 6.00 Build 0)  -->
<svg version="1.1" id="Layer_1" xmlns="http://www.w3.org/2000/svg" xmlns:xlink="http://www.w3.org/1999/xlink" x="0px" y="0px"
	 viewBox="0 0 224.9 63.5" style="enable-background:new 0 0 224.9 63.5;" xml:space="preserve">
<style type="text/css">
	.st0{clip-path:url(#SVGID_2_);}
	.st1{fill:none;stroke:#231F20;stroke-width:1.5;}
	.st2{clip-path:url(#SVGID_4_);}
</style>
<g>
	<g>
		<defs>
			<path id="SVGID_1_" d="M140.4,34.2c-9.6,5-5.3,17.5,3.8,20.3c12.3,3.8,29.8-8,41.2-11.8c10.1-3.4,21.9-7.1,31.1-12.5
				c8.6-5,11-22.2-2.2-22c-15,0.2-34.4,15.5-48.2,20.9c-6.4,2.5-18.6,9.1-25.6,6.1"/>
		</defs>
		<clipPath id="SVGID_2_">
			<use xlink:href="#SVGID_1_"  style="overflow:visible;"/>
		</clipPath>
		<g class="st0">
			<path class="st1" d="M29,17.9l-8.7,30.6"/>
			<path class="st1" d="M35.1,19.6l-8.8,30.6"/>
			<path class="st1" d="M41.2,21.4L32.4,52"/>
			<path class="st1" d="M47.2,23.1l-8.8,30.6"/>
			<path class="st1" d="M53.4,24.9l-8.8,30.5"/>
			<path class="st1" d="M32.1,18.8l-8.8,30.6"/>
			<path class="st1" d="M38.1,20.5l-8.8,30.6"/>
			<path class="st1" d="M44.3,22.3l-8.8,30.5"/>
			<path class="st1" d="M50.3,24l-8.8,30.6"/>
			<path class="st1" d="M56.4,25.7l-8.8,30.6"/>
			<path class="st1" d="M37.8-12.5L29,18.1"/>
			<path class="st1" d="M43.8-10.7l-8.7,30.6"/>
			<path class="st1" d="M49.9-9l-8.8,30.6"/>
			<path class="st1" d="M56-7.3l-8.8,30.6"/>
			<path class="st1" d="M62.1-5.5l-8.8,30.6"/>
			<path class="st1" d="M40.8-11.6L32,19"/>
			<path class="st1" d="M46.9-9.9l-8.8,30.6"/>
			<path class="st1" d="M53-8.1l-8.8,30.6"/>
			<path class="st1" d="M59-6.4l-8.8,30.6"/>
			<path class="st1" d="M65.1-4.6l-8.8,30.5"/>
			<path class="st1" d="M46.5-42.9l-8.8,30.6"/>
			<path class="st1" d="M52.6-41.2l-8.8,30.6"/>
			<path class="st1" d="M58.6-39.4L49.8-8.8"/>
			<path class="st1" d="M64.7-37.6L56-7"/>
			<path class="st1" d="M70.8-35.9L62-5.3"/>
			<path class="st1" d="M49.5-42l-8.8,30.6"/>
			<path class="st1" d="M55.6-40.2L46.8-9.7"/>
			<path class="st1" d="M61.7-38.6L52.9-7.9"/>
			<path class="st1" d="M67.7-36.8L58.9-6.2"/>
			<path class="st1" d="M73.8-35L65.1-4.4"/>
			<path class="st1" d="M-1.4,9.2l-8.8,30.6"/>
			<path class="st1" d="M4.7,10.9l-8.8,30.6"/>
			<path class="st1" d="M10.8,12.7L2,43.3"/>
			<path class="st1" d="M16.9,14.4L8.1,45"/>
			<path class="st1" d="M22.9,16.2l-8.7,30.5"/>
			<path class="st1" d="M1.7,10.1l-8.8,30.6"/>
			<path class="st1" d="M7.8,11.8L-1,42.4"/>
			<path class="st1" d="M13.8,13.5L5.1,44.1"/>
			<path class="st1" d="M19.9,15.3l-8.7,30.6"/>
			<path class="st1" d="M26,17l-8.8,30.6"/>
			<path class="st1" d="M7.3-21.2L-1.4,9.4"/>
			<path class="st1" d="M13.4-19.4L4.7,11.1"/>
			<path class="st1" d="M19.6-17.8l-8.9,30.7"/>
			<path class="st1" d="M25.6-16l-8.8,30.6"/>
			<path class="st1" d="M31.6-14.2l-8.8,30.6"/>
			<path class="st1" d="M10.4-20.4L1.6,10.2"/>
			<path class="st1" d="M16.5-18.6L7.7,12"/>
			<path class="st1" d="M22.5-16.8l-8.7,30.6"/>
			<path class="st1" d="M28.7-15.1l-8.8,30.6"/>
			<path class="st1" d="M34.7-13.4l-8.8,30.6"/>
			<path class="st1" d="M16.1-51.6L7.3-21"/>
			<path class="st1" d="M22.2-49.9l-8.8,30.6"/>
			<path class="st1" d="M28.3-48.1l-8.8,30.6"/>
			<path class="st1" d="M34.3-46.4l-8.8,30.6"/>
			<path class="st1" d="M40.4-44.6L31.6-14"/>
			<path class="st1" d="M19.1-50.7l-8.8,30.5"/>
			<path class="st1" d="M25.2-49l-8.8,30.6"/>
			<path class="st1" d="M31.3-47.3l-8.8,30.6"/>
			<path class="st1" d="M37.4-45.5l-8.8,30.6"/>
			<path class="st1" d="M43.4-43.8l-8.8,30.6"/>
			<path class="st1" d="M89.1,36.1l-8.8,30.5"/>
			<path class="st1" d="M95.2,37.8l-8.8,30.6"/>
			<path class="st1" d="M101.2,39.5l-8.7,30.6"/>
			<path class="st1" d="M107.3,41.3l-8.8,30.6"/>
			<path class="st1" d="M113.4,43l-8.8,30.6"/>
			<path class="st1" d="M92.1,36.9l-8.8,30.6"/>
			<path class="st1" d="M98.2,38.7l-8.8,30.6"/>
			<path class="st1" d="M104.3,40.4L95.5,71"/>
			<path class="st1" d="M110.4,42.1l-8.8,30.6"/>
			<path class="st1" d="M116.4,43.9l-8.8,30.6"/>
			<path class="st1" d="M97.8,5.6L89,36.2"/>
			<path class="st1" d="M103.9,7.4L95.1,38"/>
			<path class="st1" d="M110,9.2l-8.8,30.6"/>
			<path class="st1" d="M116,10.8l-8.8,30.6"/>
			<path class="st1" d="M122.1,12.6l-8.8,30.6"/>
			<path class="st1" d="M100.8,6.5L92,37.1"/>
			<path class="st1" d="M106.9,8.2l-8.8,30.6"/>
			<path class="st1" d="M113,10l-8.8,30.6"/>
			<path class="st1" d="M119.1,11.8l-8.8,30.6"/>
			<path class="st1" d="M125.1,13.5l-8.8,30.6"/>
			<path class="st1" d="M106.5-24.8L97.8,5.8"/>
			<path class="st1" d="M112.6-23l-8.8,30.6"/>
			<path class="st1" d="M118.7-21.3l-8.8,30.6"/>
			<path class="st1" d="M124.7-19.5l-8.8,30.6"/>
			<path class="st1" d="M130.8-17.8L122,12.8"/>
			<path class="st1" d="M109.5-23.9l-8.8,30.6"/>
			<path class="st1" d="M115.6-22.1l-8.8,30.5"/>
			<path class="st1" d="M121.7-20.4l-8.8,30.6"/>
			<path class="st1" d="M127.8-18.7L119,11.9"/>
			<path class="st1" d="M133.8-16.9L125,13.7"/>
			<path class="st1" d="M58.7,27.3l-8.8,30.6"/>
			<path class="st1" d="M64.7,29l-8.8,30.6"/>
			<path class="st1" d="M70.8,30.8L62,61.4"/>
			<path class="st1" d="M76.9,32.6l-8.7,30.6"/>
			<path class="st1" d="M83,34.3l-8.8,30.5"/>
			<path class="st1" d="M61.7,28.2l-8.8,30.6"/>
			<path class="st1" d="M67.8,30L59,60.6"/>
			<path class="st1" d="M73.9,31.6l-8.8,30.6"/>
			<path class="st1" d="M79.9,33.4L71.2,64"/>
			<path class="st1" d="M86.1,35.2l-8.8,30.6"/>
			<path class="st1" d="M67.4-3.1l-8.8,30.6"/>
			<path class="st1" d="M73.5-1.3l-8.8,30.5"/>
			<path class="st1" d="M79.6,0.4L70.8,31"/>
			<path class="st1" d="M85.7,2.1l-8.8,30.6"/>
			<path class="st1" d="M91.7,3.9l-8.8,30.6"/>
			<path class="st1" d="M70.5-2.2l-8.8,30.6"/>
			<path class="st1" d="M76.5-0.5l-8.8,30.6"/>
			<path class="st1" d="M82.6,1.3l-8.8,30.6"/>
			<path class="st1" d="M88.7,3l-8.8,30.6"/>
			<path class="st1" d="M94.8,4.8L86,35.3"/>
			<path class="st1" d="M76.1-33.5L67.3-2.9"/>
			<path class="st1" d="M82.2-31.7L73.4-1.1"/>
			<path class="st1" d="M88.3-30L79.5,0.6"/>
			<path class="st1" d="M94.4-28.2L85.6,2.4"/>
			<path class="st1" d="M100.4-26.5L91.6,4.1"/>
			<path class="st1" d="M79.2-32.6L70.4-2"/>
			<path class="st1" d="M85.2-30.8L76.4-0.3"/>
			<path class="st1" d="M91.3-29.1L82.5,1.5"/>
			<path class="st1" d="M97.4-27.4L88.6,3.2"/>
			<path class="st1" d="M103.5-25.6L94.7,5"/>
			<path class="st1" d="M149.1,53.3l-8.8,30.6"/>
			<path class="st1" d="M155.2,55l-8.8,30.6"/>
			<path class="st1" d="M161.3,56.8l-8.8,30.6"/>
			<path class="st1" d="M167.4,58.6l-8.8,30.6"/>
			<path class="st1" d="M173.4,60.2l-8.8,30.6"/>
			<path class="st1" d="M152.2,54.2l-8.8,30.5"/>
			<path class="st1" d="M158.2,55.9l-8.8,30.6"/>
			<path class="st1" d="M164.3,57.6l-8.8,30.6"/>
			<path class="st1" d="M170.4,59.4L161.6,90"/>
			<path class="st1" d="M176.5,61.2l-8.8,30.6"/>
			<path class="st1" d="M157.8,22.9L149,53.4"/>
			<path class="st1" d="M163.9,24.6l-8.8,30.6"/>
			<path class="st1" d="M170,26.4L161.2,57"/>
			<path class="st1" d="M176.1,28.1l-8.8,30.6"/>
			<path class="st1" d="M182.1,29.9l-8.8,30.6"/>
			<path class="st1" d="M160.9,23.8l-8.8,30.6"/>
			<path class="st1" d="M166.9,25.5l-8.8,30.6"/>
			<path class="st1" d="M173,27.3l-8.8,30.6"/>
			<path class="st1" d="M179.1,29l-8.8,30.6"/>
			<path class="st1" d="M185.2,30.7l-8.8,30.6"/>
			<path class="st1" d="M166.5-7.5l-8.8,30.6"/>
			<path class="st1" d="M172.6-5.7l-8.8,30.6"/>
			<path class="st1" d="M178.7-4l-8.8,30.5"/>
			<path class="st1" d="M184.8-2.2L176,28.3"/>
			<path class="st1" d="M190.8-0.5L182,30.1"/>
			<path class="st1" d="M169.6-6.6L160.8,24"/>
			<path class="st1" d="M175.6-4.9l-8.8,30.6"/>
			<path class="st1" d="M181.7-3.1l-8.8,30.6"/>
			<path class="st1" d="M187.8-1.4L179,29.2"/>
			<path class="st1" d="M193.9,0.4L185.1,31"/>
			<path class="st1" d="M118.7,44.6l-8.8,30.6"/>
			<path class="st1" d="M124.8,46.3L116,76.9"/>
			<path class="st1" d="M130.9,48.1l-8.8,30.6"/>
			<path class="st1" d="M136.9,49.8l-8.8,30.5"/>
			<path class="st1" d="M143.1,51.5l-8.8,30.6"/>
			<path class="st1" d="M121.7,45.4L113,76"/>
			<path class="st1" d="M127.8,47.2L119,77.8"/>
			<path class="st1" d="M133.9,48.9l-8.8,30.6"/>
			<path class="st1" d="M140,50.7l-8.8,30.6"/>
			<path class="st1" d="M146,52.4l-8.7,30.7"/>
			<path class="st1" d="M127.5,14.2l-8.8,30.5"/>
			<path class="st1" d="M133.5,15.9l-8.8,30.6"/>
			<path class="st1" d="M139.6,17.7l-8.8,30.6"/>
			<path class="st1" d="M145.7,19.4L136.9,50"/>
			<path class="st1" d="M151.8,21.2L143,51.8"/>
			<path class="st1" d="M130.4,15.1l-8.8,30.6"/>
			<path class="st1" d="M136.6,16.8l-8.8,30.6"/>
			<path class="st1" d="M142.6,18.6l-8.8,30.6"/>
			<path class="st1" d="M148.7,20.3l-8.8,30.6"/>
			<path class="st1" d="M154.8,22L146,52.6"/>
			<path class="st1" d="M136.2-16.2l-8.8,30.6"/>
			<path class="st1" d="M142.2-14.4l-8.8,30.6"/>
			<path class="st1" d="M148.3-12.7l-8.8,30.5"/>
			<path class="st1" d="M154.4-11l-8.8,30.6"/>
			<path class="st1" d="M160.5-9.2l-8.8,30.6"/>
			<path class="st1" d="M139.2-15.4l-8.8,30.6"/>
			<path class="st1" d="M145.3-13.6L136.5,17"/>
			<path class="st1" d="M151.3-11.8l-8.8,30.6"/>
			<path class="st1" d="M157.4-10.1l-8.8,30.6"/>
			<path class="st1" d="M163.5-8.3l-8.8,30.6"/>
			<path class="st1" d="M209.9,70.3l-8.8,30.6"/>
			<path class="st1" d="M216,72.1l-8.8,30.6"/>
			<path class="st1" d="M222,73.8l-8.8,30.6"/>
			<path class="st1" d="M228.1,75.6l-8.8,30.6"/>
			<path class="st1" d="M234.2,77.3l-8.8,30.6"/>
			<path class="st1" d="M212.9,71.2l-8.8,30.6"/>
			<path class="st1" d="M219,73l-8.8,30.5"/>
			<path class="st1" d="M225.1,74.7l-8.8,30.6"/>
			<path class="st1" d="M231.1,76.4l-8.8,30.6"/>
			<path class="st1" d="M237.2,78.2l-8.8,30.6"/>
			<path class="st1" d="M218.6,40l-8.8,30.6"/>
			<path class="st1" d="M224.7,41.7l-8.8,30.5"/>
			<path class="st1" d="M230.7,43.4L222,74"/>
			<path class="st1" d="M236.9,45.2l-8.8,30.6"/>
			<path class="st1" d="M242.9,46.9l-8.8,30.6"/>
			<path class="st1" d="M221.6,40.8l-8.8,30.6"/>
			<path class="st1" d="M227.7,42.6l-8.8,30.6"/>
			<path class="st1" d="M233.8,44.3L225,74.9"/>
			<path class="st1" d="M239.8,46.1L231,76.6"/>
			<path class="st1" d="M246,47.8l-8.8,30.6"/>
			<path class="st1" d="M227.3,9.5l-8.8,30.6"/>
			<path class="st1" d="M233.4,11.3l-8.8,30.6"/>
			<path class="st1" d="M239.5,13.1l-8.8,30.6"/>
			<path class="st1" d="M245.6,14.8l-8.8,30.6"/>
			<path class="st1" d="M251.6,16.6l-8.8,30.5"/>
			<path class="st1" d="M230.4,10.5L221.6,41"/>
			<path class="st1" d="M236.5,12.1l-8.8,30.6"/>
			<path class="st1" d="M242.5,13.9l-8.8,30.6"/>
			<path class="st1" d="M248.6,15.7l-8.8,30.6"/>
			<path class="st1" d="M254.7,17.4L245.9,48"/>
			<path class="st1" d="M179.5,61.6l-8.8,30.6"/>
			<path class="st1" d="M185.6,63.4L176.8,94"/>
			<path class="st1" d="M191.7,65.1l-8.8,30.6"/>
			<path class="st1" d="M197.7,66.9l-8.8,30.6"/>
			<path class="st1" d="M203.8,68.6L195,99.2"/>
			<path class="st1" d="M182.5,62.5l-8.8,30.6"/>
			<path class="st1" d="M188.6,64.3l-8.8,30.6"/>
			<path class="st1" d="M194.7,66l-8.8,30.6"/>
			<path class="st1" d="M200.8,67.7L192,98.3"/>
			<path class="st1" d="M206.8,69.5l-8.8,30.6"/>
			<path class="st1" d="M188.2,31.3l-8.8,30.6"/>
			<path class="st1" d="M194.3,33l-8.8,30.5"/>
			<path class="st1" d="M200.4,34.7l-8.8,30.6"/>
			<path class="st1" d="M206.4,36.5l-8.8,30.6"/>
			<path class="st1" d="M212.5,38.2l-8.8,30.6"/>
			<path class="st1" d="M191.2,32.1l-8.8,30.6"/>
			<path class="st1" d="M197.3,33.9l-8.8,30.6"/>
			<path class="st1" d="M203.4,35.6l-8.8,30.6"/>
			<path class="st1" d="M209.5,37.4L200.7,68"/>
			<path class="st1" d="M215.5,39.1l-8.8,30.6"/>
			<path class="st1" d="M196.9,0.8l-8.8,30.6"/>
			<path class="st1" d="M203,2.6l-8.8,30.6"/>
			<path class="st1" d="M209.1,4.3L200.3,35"/>
			<path class="st1" d="M215.1,6.1l-8.8,30.5"/>
			<path class="st1" d="M221.3,7.9l-8.8,30.6"/>
			<path class="st1" d="M199.9,1.7l-8.7,30.6"/>
			<path class="st1" d="M206,3.4L197.3,34"/>
			<path class="st1" d="M212.1,5.2l-8.7,30.6"/>
			<path class="st1" d="M218.2,6.9l-8.8,30.6"/>
			<path class="st1" d="M224.3,8.7l-8.8,30.6"/>
			<path class="st1" d="M3.2,108.1l-8.8,30.6"/>
			<path class="st1" d="M9.2,109.9l-8.8,30.6"/>
			<path class="st1" d="M15.3,111.6l-8.8,30.6"/>
			<path class="st1" d="M21.4,113.3L12.6,144"/>
			<path class="st1" d="M27.5,115.1l-8.8,30.6"/>
			<path class="st1" d="M6.2,109l-8.8,30.6"/>
			<path class="st1" d="M12.3,110.7l-8.8,30.6"/>
			<path class="st1" d="M18.3,112.5l-8.8,30.6"/>
			<path class="st1" d="M24.4,114.3l-8.8,30.6"/>
			<path class="st1" d="M30.5,116l-8.8,30.6"/>
			<path class="st1" d="M11.9,77.7l-8.8,30.6"/>
			<path class="st1" d="M17.9,79.5l-8.8,30.6"/>
			<path class="st1" d="M24,81.2l-8.7,30.7"/>
			<path class="st1" d="M30.1,83l-8.8,30.6"/>
			<path class="st1" d="M36.2,84.7l-8.8,30.6"/>
			<path class="st1" d="M14.9,78.6l-8.8,30.6"/>
			<path class="st1" d="M21,80.4L12.2,111"/>
			<path class="st1" d="M27,82.1l-8.7,30.6"/>
			<path class="st1" d="M33.1,83.8l-8.8,30.6"/>
			<path class="st1" d="M39.2,85.6l-8.8,30.6"/>
			<path class="st1" d="M20.6,47.4L11.8,78"/>
			<path class="st1" d="M26.6,49.1l-8.8,30.5"/>
			<path class="st1" d="M32.8,50.8L24,81.4"/>
			<path class="st1" d="M38.8,52.6L30,83.2"/>
			<path class="st1" d="M44.9,54.3l-8.8,30.6"/>
			<path class="st1" d="M23.6,48.2l-8.8,30.6"/>
			<path class="st1" d="M29.7,50l-8.8,30.6"/>
			<path class="st1" d="M35.7,51.7l-8.8,30.6"/>
			<path class="st1" d="M41.9,53.5L33.1,84"/>
			<path class="st1" d="M48,55.2l-8.8,30.6"/>
			<path class="st1" d="M-27.2,99.4L-36,130"/>
			<path class="st1" d="M-21.1,101.2l-8.8,30.5"/>
			<path class="st1" d="M-15.1,102.9l-8.8,30.6"/>
			<path class="st1" d="M-9,104.6l-8.8,30.6"/>
			<path class="st1" d="M-2.9,106.4l-8.8,30.6"/>
			<path class="st1" d="M-24.2,100.3l-8.8,30.6"/>
			<path class="st1" d="M-18.1,102l-8.8,30.6"/>
			<path class="st1" d="M-12,103.8l-8.8,30.6"/>
			<path class="st1" d="M-6,105.5l-8.8,30.5"/>
			<path class="st1" d="M0.1,107.2l-8.8,30.6"/>
			<path class="st1" d="M-18.5,69l-8.8,30.6"/>
			<path class="st1" d="M-12.4,70.8l-8.8,30.6"/>
			<path class="st1" d="M-6.4,72.5l-8.8,30.6"/>
			<path class="st1" d="M-0.3,74.3l-8.8,30.6"/>
			<path class="st1" d="M5.8,76L-3,106.6"/>
			<path class="st1" d="M-15.5,69.9l-8.8,30.6"/>
			<path class="st1" d="M-9.4,71.6l-8.8,30.6"/>
			<path class="st1" d="M-3.3,73.4l-8.8,30.6"/>
			<path class="st1" d="M2.7,75.1l-8.8,30.6"/>
			<path class="st1" d="M8.8,76.9L0,107.5"/>
			<path class="st1" d="M117.2,107.4l-8.8,30.6"/>
			<path class="st1" d="M123.2,109.1l-8.8,30.6"/>
			<path class="st1" d="M129.3,110.9l-8.8,30.6"/>
			<path class="st1" d="M135.4,112.6l-8.8,30.6"/>
			<path class="st1" d="M141.5,114.3l-8.8,30.6"/>
			<path class="st1" d="M120.2,108.2l-8.8,30.6"/>
			<path class="st1" d="M126.3,110l-8.8,30.6"/>
			<path class="st1" d="M132.3,111.7l-8.8,30.6"/>
			<path class="st1" d="M138.4,113.5l-8.8,30.6"/>
			<path class="st1" d="M144.5,115.2l-8.8,30.6"/>
			<path class="st1" d="M125.9,77l-8.8,30.6"/>
			<path class="st1" d="M131.9,78.7l-8.8,30.6"/>
			<path class="st1" d="M138.1,80.5l-8.8,30.6"/>
			<path class="st1" d="M144.1,82.2l-8.8,30.6"/>
			<path class="st1" d="M150.2,84l-8.8,30.6"/>
			<path class="st1" d="M128.9,77.9l-8.7,30.6"/>
			<path class="st1" d="M135,79.6l-8.8,30.6"/>
			<path class="st1" d="M141.1,81.4l-8.8,30.6"/>
			<path class="st1" d="M147.2,83.1l-8.8,30.6"/>
			<path class="st1" d="M153.3,84.8l-8.8,30.6"/>
			<path class="st1" d="M86.8,98.7L78,129.3"/>
			<path class="st1" d="M92.9,100.4L84.1,131"/>
			<path class="st1" d="M98.9,102.2l-8.8,30.5"/>
			<path class="st1" d="M105,103.9l-8.7,30.6"/>
			<path class="st1" d="M111.1,105.6l-8.8,30.6"/>
			<path class="st1" d="M89.8,99.5L81,130.1"/>
			<path class="st1" d="M95.9,101.3l-8.8,30.6"/>
			<path class="st1" d="M102,103l-8.8,30.6"/>
			<path class="st1" d="M108,104.8l-8.8,30.6"/>
			<path class="st1" d="M114.1,106.5l-8.8,30.6"/>
			<path class="st1" d="M186.1,96.2l-8.8,30.6"/>
			<path class="st1" d="M192.2,97.9l-8.8,30.6"/>
			<path class="st1" d="M198.2,99.7l-8.8,30.6"/>
			<path class="st1" d="M204.4,101.5l-8.8,30.5"/>
			<path class="st1" d="M210.4,103.2l-8.8,30.6"/>
			<path class="st1" d="M189.1,97.1l-8.8,30.5"/>
			<path class="st1" d="M195.2,98.8l-8.8,30.6"/>
			<path class="st1" d="M201.3,100.5l-8.8,30.6"/>
			<path class="st1" d="M207.4,102.3l-8.8,30.6"/>
			<path class="st1" d="M213.5,104.1l-8.8,30.6"/>
			<path class="st1" d="M155.7,87.5l-8.8,30.6"/>
			<path class="st1" d="M161.8,89.2l-8.8,30.6"/>
			<path class="st1" d="M167.9,91l-8.8,30.6"/>
			<path class="st1" d="M173.9,92.7l-8.8,30.6"/>
			<path class="st1" d="M180,94.4l-8.7,30.6"/>
			<path class="st1" d="M158.7,88.4l-8.8,30.6"/>
			<path class="st1" d="M164.8,90.1l-8.8,30.6"/>
			<path class="st1" d="M170.9,91.8l-8.8,30.6"/>
			<path class="st1" d="M177,93.6l-8.8,30.6"/>
			<path class="st1" d="M183,95.3l-8.7,30.7"/>
			<path class="st1" d="M95.5,68.2l-8.8,30.6"/>
			<path class="st1" d="M101.6,70l-8.8,30.6"/>
			<path class="st1" d="M107.6,71.7l-8.8,30.6"/>
			<path class="st1" d="M113.7,73.5l-8.8,30.6"/>
			<path class="st1" d="M119.8,75.3l-8.8,30.6"/>
			<path class="st1" d="M98.5,69.1l-8.8,30.6"/>
			<path class="st1" d="M104.6,70.9l-8.7,30.6"/>
			<path class="st1" d="M110.7,72.7l-8.8,30.6"/>
			<path class="st1" d="M116.7,74.3l-8.7,30.6"/>
			<path class="st1" d="M122.8,76.1l-8.8,30.6"/>
			<path class="st1" d="M-9.8,38.7l-8.8,30.6"/>
			<path class="st1" d="M-3.7,40.4L-12.5,71"/>
			<path class="st1" d="M2.3,42.1l-8.8,30.6"/>
			<path class="st1" d="M8.4,43.9l-8.8,30.6"/>
			<path class="st1" d="M14.5,45.6L5.7,76.2"/>
			<path class="st1" d="M-6.8,39.5l-8.8,30.6"/>
			<path class="st1" d="M-0.7,41.3l-8.8,30.6"/>
			<path class="st1" d="M5.4,43l-8.8,30.6"/>
			<path class="st1" d="M11.4,44.8L2.6,75.4"/>
			<path class="st1" d="M17.5,46.5L8.8,77.1"/>
		</g>
	</g>
	<g>
		<defs>
			<path id="SVGID_3_" d="M6.1,17.2C4.3,29.4,8.8,35.1,20.2,38.9c13.4,4.4,27.2,8.2,40.6,12.4c9.8,3,23.2,8.3,30.4-1.7
				c8.7-11.9-7-14-16.2-16.2C52.9,28,29,25.8,7.6,17.7"/>
		</defs>
		<clipPath id="SVGID_4_">
			<use xlink:href="#SVGID_3_"  style="overflow:visible;"/>
		</clipPath>
		<g class="st2">
			<path class="st1" d="M24.7,17.9L16,48.5"/>
			<path class="st1" d="M30.8,19.6L22,50.2"/>
			<path class="st1" d="M36.9,21.4L28.1,52"/>
			<path class="st1" d="M42.9,23.1l-8.8,30.6"/>
			<path class="st1" d="M49.1,24.9l-8.8,30.5"/>
			<path class="st1" d="M27.8,18.8L19,49.4"/>
			<path class="st1" d="M33.8,20.5L25,51.1"/>
			<path class="st1" d="M40,22.3l-8.8,30.5"/>
			<path class="st1" d="M46,24l-8.8,30.6"/>
			<path class="st1" d="M52.1,25.7l-8.8,30.6"/>
			<path class="st1" d="M33.5-12.5l-8.8,30.6"/>
			<path class="st1" d="M39.5-10.7l-8.7,30.6"/>
			<path class="st1" d="M45.6-9l-8.8,30.6"/>
			<path class="st1" d="M51.7-7.3l-8.8,30.6"/>
			<path class="st1" d="M57.8-5.5L49,25.1"/>
			<path class="st1" d="M36.5-11.6L27.7,19"/>
			<path class="st1" d="M42.6-9.9l-8.8,30.6"/>
			<path class="st1" d="M48.7-8.1l-8.8,30.6"/>
			<path class="st1" d="M54.7-6.4l-8.8,30.6"/>
			<path class="st1" d="M60.8-4.6L52,25.9"/>
			<path class="st1" d="M42.2-42.9l-8.8,30.6"/>
			<path class="st1" d="M48.3-41.2l-8.8,30.6"/>
			<path class="st1" d="M54.3-39.4L45.5-8.8"/>
			<path class="st1" d="M60.4-37.6L51.7-7"/>
			<path class="st1" d="M66.5-35.9L57.7-5.3"/>
			<path class="st1" d="M45.2-42l-8.8,30.6"/>
			<path class="st1" d="M51.3-40.2L42.5-9.7"/>
			<path class="st1" d="M57.4-38.6L48.6-7.9"/>
			<path class="st1" d="M63.4-36.8L54.6-6.2"/>
			<path class="st1" d="M69.5-35L60.8-4.4"/>
			<path class="st1" d="M-5.7,9.2l-8.8,30.6"/>
			<path class="st1" d="M0.4,10.9l-8.8,30.6"/>
			<path class="st1" d="M6.5,12.7l-8.8,30.6"/>
			<path class="st1" d="M12.6,14.4L3.8,45"/>
			<path class="st1" d="M18.6,16.2L9.9,46.7"/>
			<path class="st1" d="M-2.6,10.1l-8.8,30.6"/>
			<path class="st1" d="M3.5,11.8l-8.8,30.6"/>
			<path class="st1" d="M9.5,13.5L0.8,44.1"/>
			<path class="st1" d="M15.6,15.3L6.9,45.9"/>
			<path class="st1" d="M21.7,17l-8.8,30.6"/>
			<path class="st1" d="M3-21.2L-5.7,9.4"/>
			<path class="st1" d="M9.1-19.4L0.4,11.1"/>
			<path class="st1" d="M15.3-17.8L6.4,12.9"/>
			<path class="st1" d="M21.3-16l-8.8,30.6"/>
			<path class="st1" d="M27.3-14.2l-8.8,30.6"/>
			<path class="st1" d="M6.1-20.4l-8.8,30.6"/>
			<path class="st1" d="M12.2-18.6L3.4,12"/>
			<path class="st1" d="M18.2-16.8L9.5,13.8"/>
			<path class="st1" d="M24.4-15.1l-8.8,30.6"/>
			<path class="st1" d="M30.4-13.4l-8.8,30.6"/>
			<path class="st1" d="M11.8-51.6L3-21"/>
			<path class="st1" d="M17.9-49.9L9.1-19.3"/>
			<path class="st1" d="M24-48.1l-8.8,30.6"/>
			<path class="st1" d="M30-46.4l-8.8,30.6"/>
			<path class="st1" d="M36.1-44.6L27.3-14"/>
			<path class="st1" d="M14.8-50.7L6-20.2"/>
			<path class="st1" d="M20.9-49l-8.8,30.6"/>
			<path class="st1" d="M27-47.3l-8.8,30.6"/>
			<path class="st1" d="M33.1-45.5l-8.8,30.6"/>
			<path class="st1" d="M39.1-43.8l-8.8,30.6"/>
			<path class="st1" d="M84.8,36.1L76,66.6"/>
			<path class="st1" d="M90.9,37.8l-8.8,30.6"/>
			<path class="st1" d="M96.9,39.5l-8.7,30.6"/>
			<path class="st1" d="M103,41.3l-8.8,30.6"/>
			<path class="st1" d="M109.1,43l-8.8,30.6"/>
			<path class="st1" d="M87.8,36.9L79,67.5"/>
			<path class="st1" d="M93.9,38.7l-8.8,30.6"/>
			<path class="st1" d="M100,40.4L91.2,71"/>
			<path class="st1" d="M106.1,42.1l-8.8,30.6"/>
			<path class="st1" d="M112.1,43.9l-8.8,30.6"/>
			<path class="st1" d="M93.5,5.6l-8.8,30.6"/>
			<path class="st1" d="M99.6,7.4L90.8,38"/>
			<path class="st1" d="M105.7,9.2l-8.8,30.6"/>
			<path class="st1" d="M111.7,10.8l-8.8,30.6"/>
			<path class="st1" d="M117.8,12.6L109,43.2"/>
			<path class="st1" d="M96.5,6.5l-8.8,30.6"/>
			<path class="st1" d="M102.6,8.2l-8.8,30.6"/>
			<path class="st1" d="M108.7,10l-8.8,30.6"/>
			<path class="st1" d="M114.8,11.8L106,42.4"/>
			<path class="st1" d="M120.8,13.5L112,44.1"/>
			<path class="st1" d="M102.2-24.8L93.5,5.8"/>
			<path class="st1" d="M108.3-23L99.5,7.6"/>
			<path class="st1" d="M114.4-21.3l-8.8,30.6"/>
			<path class="st1" d="M120.4-19.5l-8.8,30.6"/>
			<path class="st1" d="M126.5-17.8l-8.8,30.6"/>
			<path class="st1" d="M105.2-23.9L96.4,6.7"/>
			<path class="st1" d="M111.3-22.1l-8.8,30.5"/>
			<path class="st1" d="M117.4-20.4l-8.8,30.6"/>
			<path class="st1" d="M123.5-18.7l-8.8,30.6"/>
			<path class="st1" d="M129.5-16.9l-8.8,30.6"/>
			<path class="st1" d="M54.4,27.3l-8.8,30.6"/>
			<path class="st1" d="M60.4,29l-8.8,30.6"/>
			<path class="st1" d="M66.5,30.8l-8.8,30.6"/>
			<path class="st1" d="M72.6,32.6l-8.7,30.6"/>
			<path class="st1" d="M78.7,34.3l-8.8,30.5"/>
			<path class="st1" d="M57.4,28.2l-8.8,30.6"/>
			<path class="st1" d="M63.5,30l-8.8,30.6"/>
			<path class="st1" d="M69.6,31.6l-8.8,30.6"/>
			<path class="st1" d="M75.6,33.4L66.9,64"/>
			<path class="st1" d="M81.8,35.2L73,65.8"/>
			<path class="st1" d="M63.1-3.1l-8.8,30.6"/>
			<path class="st1" d="M69.2-1.3l-8.8,30.5"/>
			<path class="st1" d="M75.3,0.4L66.5,31"/>
			<path class="st1" d="M81.4,2.1l-8.8,30.6"/>
			<path class="st1" d="M87.4,3.9l-8.8,30.6"/>
			<path class="st1" d="M66.2-2.2l-8.8,30.6"/>
			<path class="st1" d="M72.2-0.5l-8.8,30.6"/>
			<path class="st1" d="M78.3,1.3l-8.8,30.6"/>
			<path class="st1" d="M84.4,3l-8.8,30.6"/>
			<path class="st1" d="M90.5,4.8l-8.8,30.5"/>
			<path class="st1" d="M71.8-33.5L63-2.9"/>
			<path class="st1" d="M77.9-31.7L69.1-1.1"/>
			<path class="st1" d="M84-30L75.2,0.6"/>
			<path class="st1" d="M90.1-28.2L81.3,2.4"/>
			<path class="st1" d="M96.1-26.5L87.3,4.1"/>
			<path class="st1" d="M74.9-32.6L66.1-2"/>
			<path class="st1" d="M80.9-30.8L72.1-0.3"/>
			<path class="st1" d="M87-29.1L78.2,1.5"/>
			<path class="st1" d="M93.1-27.4L84.3,3.2"/>
			<path class="st1" d="M99.2-25.6L90.4,5"/>
			<path class="st1" d="M144.8,53.3L136,83.9"/>
			<path class="st1" d="M150.9,55l-8.8,30.6"/>
			<path class="st1" d="M157,56.8l-8.8,30.6"/>
			<path class="st1" d="M163.1,58.6l-8.8,30.6"/>
			<path class="st1" d="M169.1,60.2l-8.8,30.6"/>
			<path class="st1" d="M147.9,54.2l-8.8,30.5"/>
			<path class="st1" d="M153.9,55.9l-8.8,30.6"/>
			<path class="st1" d="M160,57.6l-8.8,30.6"/>
			<path class="st1" d="M166.1,59.4L157.3,90"/>
			<path class="st1" d="M172.2,61.2l-8.8,30.6"/>
			<path class="st1" d="M153.5,22.9l-8.8,30.5"/>
			<path class="st1" d="M159.6,24.6l-8.8,30.6"/>
			<path class="st1" d="M165.7,26.4L156.9,57"/>
			<path class="st1" d="M171.8,28.1L163,58.7"/>
			<path class="st1" d="M177.8,29.9L169,60.5"/>
			<path class="st1" d="M156.6,23.8l-8.8,30.6"/>
			<path class="st1" d="M162.6,25.5l-8.8,30.6"/>
			<path class="st1" d="M168.7,27.3l-8.8,30.6"/>
			<path class="st1" d="M174.8,29L166,59.6"/>
			<path class="st1" d="M180.9,30.7l-8.8,30.6"/>
			<path class="st1" d="M162.2-7.5l-8.8,30.6"/>
			<path class="st1" d="M168.3-5.7l-8.8,30.6"/>
			<path class="st1" d="M174.4-4l-8.8,30.5"/>
			<path class="st1" d="M180.5-2.2l-8.8,30.5"/>
			<path class="st1" d="M186.5-0.5l-8.8,30.6"/>
			<path class="st1" d="M165.3-6.6L156.5,24"/>
			<path class="st1" d="M171.3-4.9l-8.8,30.6"/>
			<path class="st1" d="M177.4-3.1l-8.8,30.6"/>
			<path class="st1" d="M183.5-1.4l-8.8,30.6"/>
			<path class="st1" d="M189.6,0.4L180.8,31"/>
			<path class="st1" d="M114.4,44.6l-8.8,30.6"/>
			<path class="st1" d="M120.5,46.3l-8.8,30.6"/>
			<path class="st1" d="M126.6,48.1l-8.8,30.6"/>
			<path class="st1" d="M132.6,49.8l-8.8,30.5"/>
			<path class="st1" d="M138.8,51.5L130,82.1"/>
			<path class="st1" d="M117.4,45.4L108.7,76"/>
			<path class="st1" d="M123.5,47.2l-8.8,30.6"/>
			<path class="st1" d="M129.6,48.9l-8.8,30.6"/>
			<path class="st1" d="M135.7,50.7l-8.8,30.6"/>
			<path class="st1" d="M141.7,52.4L133,83.1"/>
			<path class="st1" d="M123.2,14.2l-8.8,30.5"/>
			<path class="st1" d="M129.2,15.9l-8.8,30.6"/>
			<path class="st1" d="M135.3,17.7l-8.8,30.6"/>
			<path class="st1" d="M141.4,19.4L132.6,50"/>
			<path class="st1" d="M147.5,21.2l-8.8,30.6"/>
			<path class="st1" d="M126.1,15.1l-8.8,30.6"/>
			<path class="st1" d="M132.3,16.8l-8.8,30.6"/>
			<path class="st1" d="M138.3,18.6l-8.8,30.6"/>
			<path class="st1" d="M144.4,20.3l-8.8,30.6"/>
			<path class="st1" d="M150.5,22l-8.8,30.6"/>
			<path class="st1" d="M131.9-16.2l-8.8,30.6"/>
			<path class="st1" d="M137.9-14.4l-8.8,30.6"/>
			<path class="st1" d="M144-12.7l-8.8,30.5"/>
			<path class="st1" d="M150.1-11l-8.8,30.6"/>
			<path class="st1" d="M156.2-9.2l-8.8,30.6"/>
			<path class="st1" d="M134.9-15.4l-8.8,30.6"/>
			<path class="st1" d="M141-13.6L132.2,17"/>
			<path class="st1" d="M147-11.8l-8.8,30.6"/>
			<path class="st1" d="M153.1-10.1l-8.8,30.6"/>
			<path class="st1" d="M159.2-8.3l-8.8,30.6"/>
			<path class="st1" d="M205.6,70.3l-8.8,30.6"/>
			<path class="st1" d="M211.7,72.1l-8.8,30.6"/>
			<path class="st1" d="M217.7,73.8l-8.8,30.6"/>
			<path class="st1" d="M223.8,75.6l-8.8,30.6"/>
			<path class="st1" d="M229.9,77.3l-8.8,30.6"/>
			<path class="st1" d="M208.6,71.2l-8.8,30.6"/>
			<path class="st1" d="M214.7,73l-8.8,30.5"/>
			<path class="st1" d="M220.8,74.7l-8.8,30.6"/>
			<path class="st1" d="M226.8,76.4L218,107"/>
			<path class="st1" d="M232.9,78.2l-8.8,30.6"/>
			<path class="st1" d="M214.3,40l-8.8,30.6"/>
			<path class="st1" d="M220.4,41.7l-8.8,30.5"/>
			<path class="st1" d="M226.4,43.4L217.7,74"/>
			<path class="st1" d="M232.6,45.2l-8.8,30.6"/>
			<path class="st1" d="M238.6,46.9l-8.8,30.6"/>
			<path class="st1" d="M217.3,40.8l-8.8,30.6"/>
			<path class="st1" d="M223.4,42.6l-8.8,30.6"/>
			<path class="st1" d="M229.5,44.3l-8.8,30.6"/>
			<path class="st1" d="M235.5,46.1l-8.8,30.5"/>
			<path class="st1" d="M241.7,47.8l-8.8,30.6"/>
			<path class="st1" d="M223,9.5l-8.8,30.6"/>
			<path class="st1" d="M229.1,11.3l-8.8,30.6"/>
			<path class="st1" d="M235.2,13.1l-8.8,30.6"/>
			<path class="st1" d="M241.3,14.8l-8.8,30.6"/>
			<path class="st1" d="M247.3,16.6l-8.8,30.5"/>
			<path class="st1" d="M226.1,10.5L217.3,41"/>
			<path class="st1" d="M232.2,12.1l-8.8,30.6"/>
			<path class="st1" d="M238.2,13.9l-8.8,30.6"/>
			<path class="st1" d="M244.3,15.7l-8.8,30.6"/>
			<path class="st1" d="M250.4,17.4L241.6,48"/>
			<path class="st1" d="M175.2,61.6l-8.8,30.6"/>
			<path class="st1" d="M181.3,63.4L172.5,94"/>
			<path class="st1" d="M187.4,65.1l-8.8,30.6"/>
			<path class="st1" d="M193.4,66.9l-8.8,30.6"/>
			<path class="st1" d="M199.5,68.6l-8.8,30.6"/>
			<path class="st1" d="M178.2,62.5l-8.8,30.6"/>
			<path class="st1" d="M184.3,64.3l-8.8,30.6"/>
			<path class="st1" d="M190.4,66l-8.8,30.6"/>
			<path class="st1" d="M196.5,67.7l-8.8,30.6"/>
			<path class="st1" d="M202.5,69.5l-8.8,30.6"/>
			<path class="st1" d="M183.9,31.3l-8.8,30.6"/>
			<path class="st1" d="M190,33l-8.8,30.5"/>
			<path class="st1" d="M196.1,34.7l-8.8,30.6"/>
			<path class="st1" d="M202.1,36.5l-8.8,30.6"/>
			<path class="st1" d="M208.2,38.2l-8.8,30.6"/>
			<path class="st1" d="M186.9,32.1l-8.8,30.6"/>
			<path class="st1" d="M193,33.9l-8.8,30.6"/>
			<path class="st1" d="M199.1,35.6l-8.8,30.6"/>
			<path class="st1" d="M205.2,37.4L196.4,68"/>
			<path class="st1" d="M211.2,39.1l-8.8,30.6"/>
			<path class="st1" d="M192.6,0.8l-8.8,30.6"/>
			<path class="st1" d="M198.7,2.6l-8.8,30.6"/>
			<path class="st1" d="M204.8,4.3L196,35"/>
			<path class="st1" d="M210.8,6.1L202,36.6"/>
			<path class="st1" d="M217,7.9l-8.8,30.6"/>
			<path class="st1" d="M195.6,1.7l-8.7,30.6"/>
			<path class="st1" d="M201.7,3.4L193,34"/>
			<path class="st1" d="M207.8,5.2l-8.7,30.6"/>
			<path class="st1" d="M213.9,6.9l-8.8,30.6"/>
			<path class="st1" d="M220,8.7l-8.8,30.6"/>
			<path class="st1" d="M-1.1,108.1l-8.8,30.6"/>
			<path class="st1" d="M4.9,109.9l-8.8,30.6"/>
			<path class="st1" d="M11,111.6l-8.8,30.6"/>
			<path class="st1" d="M17.1,113.3L8.3,144"/>
			<path class="st1" d="M23.2,115.1l-8.8,30.6"/>
			<path class="st1" d="M1.9,109l-8.8,30.6"/>
			<path class="st1" d="M8,110.7l-8.8,30.6"/>
			<path class="st1" d="M14,112.5l-8.8,30.6"/>
			<path class="st1" d="M20.1,114.3l-8.8,30.6"/>
			<path class="st1" d="M26.2,116l-8.8,30.6"/>
			<path class="st1" d="M7.6,77.7l-8.8,30.6"/>
			<path class="st1" d="M13.6,79.5l-8.8,30.6"/>
			<path class="st1" d="M19.7,81.2L11,111.9"/>
			<path class="st1" d="M25.8,83L17,113.6"/>
			<path class="st1" d="M31.9,84.7l-8.8,30.6"/>
			<path class="st1" d="M10.6,78.6l-8.8,30.6"/>
			<path class="st1" d="M16.7,80.4L7.9,111"/>
			<path class="st1" d="M22.7,82.1L14,112.7"/>
			<path class="st1" d="M28.8,83.8L20,114.4"/>
			<path class="st1" d="M34.9,85.6l-8.8,30.6"/>
			<path class="st1" d="M16.3,47.4L7.5,78"/>
			<path class="st1" d="M22.3,49.1l-8.8,30.5"/>
			<path class="st1" d="M28.5,50.8l-8.8,30.6"/>
			<path class="st1" d="M34.5,52.6l-8.8,30.6"/>
			<path class="st1" d="M40.6,54.3l-8.8,30.6"/>
			<path class="st1" d="M19.3,48.2l-8.8,30.6"/>
			<path class="st1" d="M25.4,50l-8.8,30.6"/>
			<path class="st1" d="M31.4,51.7l-8.8,30.6"/>
			<path class="st1" d="M37.6,53.5L28.8,84"/>
			<path class="st1" d="M43.7,55.2l-8.8,30.6"/>
			<path class="st1" d="M-31.5,99.4l-8.8,30.6"/>
			<path class="st1" d="M-25.4,101.2l-8.8,30.5"/>
			<path class="st1" d="M-19.4,102.9l-8.8,30.6"/>
			<path class="st1" d="M-13.3,104.6l-8.8,30.6"/>
			<path class="st1" d="M-7.2,106.4L-16,137"/>
			<path class="st1" d="M-28.5,100.3l-8.8,30.6"/>
			<path class="st1" d="M-22.4,102l-8.8,30.6"/>
			<path class="st1" d="M-16.3,103.8l-8.8,30.6"/>
			<path class="st1" d="M-10.3,105.5l-8.8,30.5"/>
			<path class="st1" d="M-4.2,107.2l-8.8,30.6"/>
			<path class="st1" d="M-22.8,69l-8.8,30.6"/>
			<path class="st1" d="M-16.7,70.8l-8.8,30.6"/>
			<path class="st1" d="M-10.7,72.5l-8.8,30.6"/>
			<path class="st1" d="M-4.6,74.3l-8.8,30.6"/>
			<path class="st1" d="M1.5,76l-8.8,30.6"/>
			<path class="st1" d="M-19.8,69.9l-8.8,30.6"/>
			<path class="st1" d="M-13.7,71.6l-8.8,30.6"/>
			<path class="st1" d="M-7.6,73.4l-8.8,30.6"/>
			<path class="st1" d="M-1.6,75.1l-8.8,30.6"/>
			<path class="st1" d="M4.5,76.9l-8.8,30.6"/>
			<path class="st1" d="M112.9,107.4l-8.8,30.6"/>
			<path class="st1" d="M118.9,109.1l-8.8,30.6"/>
			<path class="st1" d="M125,110.9l-8.8,30.6"/>
			<path class="st1" d="M131.1,112.6l-8.8,30.6"/>
			<path class="st1" d="M137.2,114.3l-8.8,30.6"/>
			<path class="st1" d="M115.9,108.2l-8.8,30.6"/>
			<path class="st1" d="M122,110l-8.8,30.6"/>
			<path class="st1" d="M128,111.7l-8.8,30.6"/>
			<path class="st1" d="M134.1,113.5l-8.8,30.6"/>
			<path class="st1" d="M140.2,115.2l-8.8,30.6"/>
			<path class="st1" d="M121.6,77l-8.8,30.6"/>
			<path class="st1" d="M127.6,78.7l-8.8,30.6"/>
			<path class="st1" d="M133.8,80.5l-8.8,30.6"/>
			<path class="st1" d="M139.8,82.2l-8.8,30.6"/>
			<path class="st1" d="M145.9,84l-8.8,30.6"/>
			<path class="st1" d="M124.6,77.9l-8.7,30.6"/>
			<path class="st1" d="M130.7,79.6l-8.8,30.6"/>
			<path class="st1" d="M136.8,81.4L128,112"/>
			<path class="st1" d="M142.9,83.1l-8.8,30.6"/>
			<path class="st1" d="M149,84.8l-8.8,30.6"/>
			<path class="st1" d="M82.5,98.7l-8.8,30.6"/>
			<path class="st1" d="M88.6,100.4L79.8,131"/>
			<path class="st1" d="M94.6,102.2l-8.8,30.5"/>
			<path class="st1" d="M100.7,103.9L92,134.5"/>
			<path class="st1" d="M106.8,105.6L98,136.2"/>
			<path class="st1" d="M85.5,99.5l-8.8,30.6"/>
			<path class="st1" d="M91.6,101.3l-8.8,30.6"/>
			<path class="st1" d="M97.7,103l-8.8,30.6"/>
			<path class="st1" d="M103.7,104.8l-8.8,30.6"/>
			<path class="st1" d="M109.8,106.5l-8.8,30.6"/>
			<path class="st1" d="M181.8,96.2l-8.8,30.6"/>
			<path class="st1" d="M187.9,97.9l-8.8,30.6"/>
			<path class="st1" d="M193.9,99.7l-8.8,30.6"/>
			<path class="st1" d="M200.1,101.5l-8.8,30.5"/>
			<path class="st1" d="M206.1,103.2l-8.8,30.6"/>
			<path class="st1" d="M184.8,97.1l-8.8,30.5"/>
			<path class="st1" d="M190.9,98.8l-8.8,30.6"/>
			<path class="st1" d="M197,100.5l-8.8,30.6"/>
			<path class="st1" d="M203.1,102.3l-8.8,30.6"/>
			<path class="st1" d="M209.2,104.1l-8.8,30.6"/>
			<path class="st1" d="M151.4,87.5l-8.8,30.6"/>
			<path class="st1" d="M157.5,89.2l-8.8,30.6"/>
			<path class="st1" d="M163.6,91l-8.8,30.6"/>
			<path class="st1" d="M169.6,92.7l-8.8,30.6"/>
			<path class="st1" d="M175.7,94.4L167,125"/>
			<path class="st1" d="M154.4,88.4l-8.8,30.6"/>
			<path class="st1" d="M160.5,90.1l-8.8,30.6"/>
			<path class="st1" d="M166.6,91.8l-8.8,30.6"/>
			<path class="st1" d="M172.7,93.6l-8.8,30.6"/>
			<path class="st1" d="M178.7,95.3L170,126"/>
			<path class="st1" d="M91.2,68.2l-8.8,30.6"/>
			<path class="st1" d="M97.3,70l-8.8,30.6"/>
			<path class="st1" d="M103.3,71.7l-8.8,30.6"/>
			<path class="st1" d="M109.4,73.5l-8.8,30.6"/>
			<path class="st1" d="M115.5,75.3l-8.8,30.6"/>
			<path class="st1" d="M94.2,69.1l-8.8,30.6"/>
			<path class="st1" d="M100.3,70.9l-8.7,30.6"/>
			<path class="st1" d="M106.4,72.7l-8.8,30.6"/>
			<path class="st1" d="M112.4,74.3l-8.7,30.6"/>
			<path class="st1" d="M118.5,76.1l-8.8,30.6"/>
			<path class="st1" d="M-14.1,38.7l-8.8,30.6"/>
			<path class="st1" d="M-8,40.4L-16.8,71"/>
			<path class="st1" d="M-2,42.1l-8.8,30.6"/>
			<path class="st1" d="M4.1,43.9l-8.8,30.6"/>
			<path class="st1" d="M10.2,45.6L1.4,76.2"/>
			<path class="st1" d="M-11.1,39.5l-8.8,30.6"/>
			<path class="st1" d="M-5,41.3l-8.8,30.6"/>
			<path class="st1" d="M1.1,43l-8.8,30.6"/>
			<path class="st1" d="M7.1,44.8l-8.8,30.6"/>
			<path class="st1" d="M13.2,46.5L4.5,77.1"/>
		</g>
	</g>
</g>
</svg>
