<?xml version="1.0" encoding="utf-8"?>
<!-- Generator: Adobe Illustrator 20.1.0, SVG Export Plug-In . SVG Version: 6.00 Build 0)  -->
<svg version="1.1" id="Layer_1" xmlns="http://www.w3.org/2000/svg" xmlns:xlink="http://www.w3.org/1999/xlink" x="0px" y="0px"
	 viewBox="0 0 59.1 77" style="enable-background:new 0 0 59.1 77;" xml:space="preserve">
<style type="text/css">
	.st0{fill:#F37F65;stroke:#503433;stroke-width:1.6313;stroke-linecap:round;stroke-linejoin:round;stroke-miterlimit:10;}
	.st1{fill:#FBF7EC;stroke:#503433;stroke-width:1.6313;stroke-linecap:round;stroke-linejoin:round;stroke-miterlimit:10;}
</style>
<g>
	<path class="st0" d="M13.9,65.1c0,0-1.2,2.9,0.9,3.9c2.2,1,6.6,3.1,16,3.1c9.4,0,14.8-3.5,14.8-3.5s1.2-1.3,0-3.2"/>
	<path class="st0" d="M53.5,13.7H31.3H6.5l6.7,49.8c0,0-0.4,1.5,2.1,2.3c2.4,0.8,17.2,4,29.4,0.2c0,0,2.1-0.7,2.5-3.2
		C47.5,60.4,53.5,13.7,53.5,13.7"/>
	<path class="st0" d="M4.9,9.5c0,0,0,3.7,3.1,4.2c3.1,0.5,20.1,3.8,44.3,0c0,0,2.3,0.7,2.9-4.2"/>
	<path class="st1" d="M56.4,7.9c0,2.8-11.7,3.7-26.2,3.7C15.8,11.6,4.1,11,4.1,8.1C4.1,5.3,15.6,5,30,5C44.5,5,56.4,5,56.4,7.9z"/>
	<path class="st1" d="M56.4,7c0,1.9-11.7,2.5-26.2,2.5C15.8,9.5,4.1,9.1,4.1,7.2C4.1,5.2,15.6,5,30,5C44.5,5,56.4,5,56.4,7z"/>
</g>
</svg>
