<?xml version="1.0" encoding="utf-8"?>
<!-- Generator: Adobe Illustrator 20.1.0, SVG Export Plug-In . SVG Version: 6.00 Build 0)  -->
<svg version="1.1" id="Layer_1" xmlns="http://www.w3.org/2000/svg" xmlns:xlink="http://www.w3.org/1999/xlink" x="0px" y="0px"
	 viewBox="0 0 567.6 144.2" style="enable-background:new 0 0 567.6 144.2;" xml:space="preserve">
<style type="text/css">
	.st0{fill:none;stroke:#A91E22;stroke-width:4;stroke-miterlimit:10;}
	.st1{fill:none;stroke:#EB5344;stroke-width:4;stroke-miterlimit:10;}
	.st2{fill:#8DB2DE;stroke:#8DB2DE;}
	.st3{fill:#231F20;}
	.st4{fill:#513534;stroke:#513534;stroke-width:1.5777;stroke-linecap:round;stroke-linejoin:round;stroke-miterlimit:10;}
	.st5{fill:#513534;stroke:#513534;stroke-width:1.6313;stroke-linecap:round;stroke-linejoin:round;stroke-miterlimit:10;}
	.st6{fill:#513534;stroke:#513534;}
	.st7{fill:#EC5244;}
	.st8{clip-path:url(#SVGID_2_);fill:#EC5244;}
</style>
<g>
	<defs>
		<path id="SVGID_1_" d="M229.5,118.6c28.8-2.3,42.5-8.2,40.8-15.5l0.6,0.3c0,0,7.3-6.8,45.1-13c18.6-3,42.2-5.2,67.9-6.5
			c22.4-1.1,61-3.5,96.4-8.5c0,0,0.4,0,0.9-0.1c-2.3,0.5-5.1,0.9-8.4,1.2l6.8-0.6l0.5,0c3.9-0.3,7.1-0.8,9.6-1.5l38.7-5
			c0.9-0.1,1.7-0.2,2.5-0.3l0.1,0l0,0c15-2.2,16.4-6.8,2.2-11c-15.8-4.7-44.8-7.1-65.2-5.4h0l-4.6,0.4l-3.8,0.3l-4.6,0.4l-2.2-0.5
			c-0.8-0.2-2-0.3-3.4-0.3l-14.6-0.1c-0.9,0-1.8-0.1-2.5-0.1l-0.4,0c-0.7-0.1-1.2-0.2-1.5-0.3c-0.4-0.2-0.8-0.4-1.1-0.7
			c0,0-3.8-6.1-37.9-14c-3.2-0.7-0.1-3.5-6.7-4.4c-4.4-0.6-20.7,0.4-26,0.7c-14.9,0.7-23.9,0.9-39.5,2.4c-7.8,0.8-3,2.3,8,3.8
			c3.9,0.5,7.6,1.1,10.3,2.6c0,0,10,4.7,16.3,7.5c1.6,0.7,3.4,1.3,5.4,2c1.5,0.5,3.2,1.4,0.2,2.2l-1.5,0.5c-0.4,0.1-0.6,0.3-0.5,0.4
			c0.1,0.1,0.4,0.2,0.9,0.3c0.9,0.2,1.9,0.3,2.7,0.5c0.1,0,0.2,0.1,0.3,0.1l0.1,0l-0.8,0.2c-1.3,0.3-1.2,0.6,0.2,0.8l5.9,0.9
			c0,0.2-0.6,0.5-1.9,0.6c-8,1.1-12.7,2.6-13.2,2.8c-11,1.1-20.1,2.2-26.8,3.1c-20.5,2.7-45,4.7-71.2,5.5c-39.6,1.2-71.7,0-85.6-0.7
			c-38-5.3-78.8-7.3-109.5-4.9C7,68.7,3.6,84.2,50.8,99.1C98,114,178.1,122.7,229.5,118.6"/>
	</defs>
	<clipPath id="SVGID_2_">
		<use xlink:href="#SVGID_1_"  style="overflow:visible;"/>
	</clipPath>
	<polyline class="st8" points="-91.3,1421 735,-1377.7 727.3,-1379.9 -99,1418.8 	"/>
	<polyline class="st8" points="-53.2,1421 773.1,-1377.7 765.4,-1379.9 -60.9,1418.8 	"/>
	<polyline class="st8" points="-11.7,1421 814.6,-1377.7 806.9,-1379.9 -19.4,1418.8 	"/>
	<polyline class="st8" points="26.4,1421 852.7,-1377.7 845,-1379.9 18.7,1418.8 	"/>
	<polyline class="st8" points="62.2,1421 888.5,-1377.7 880.8,-1379.9 54.5,1418.8 	"/>
	<polyline class="st8" points="100.3,1421 926.6,-1377.7 919,-1379.9 92.7,1418.8 	"/>
	<polyline class="st8" points="141.8,1421 968.1,-1377.7 960.5,-1379.9 134.2,1418.8 	"/>
	<polyline class="st8" points="179.9,1421 1006.2,-1377.7 998.6,-1379.9 172.3,1418.8 	"/>
	<polyline class="st8" points="222.8,1421 1049.1,-1377.7 1041.4,-1379.9 215.1,1418.8 	"/>
	<polyline class="st8" points="260.9,1421 1087.2,-1377.7 1079.6,-1379.9 253.3,1418.8 	"/>
	<polyline class="st8" points="302.4,1421 1128.7,-1377.7 1121.1,-1379.9 294.8,1418.8 	"/>
	<polyline class="st8" points="340.6,1421 1166.9,-1377.7 1159.2,-1379.9 332.9,1418.8 	"/>
	<polyline class="st8" points="376.4,1421 1202.7,-1377.7 1195,-1379.9 368.7,1418.8 	"/>
	<polyline class="st8" points="414.5,1421 1240.8,-1377.7 1233.1,-1379.9 406.8,1418.8 	"/>
	<polyline class="st8" points="456,1421 1282.3,-1377.7 1274.6,-1379.9 448.3,1418.8 	"/>
	<polyline class="st8" points="494.1,1421 1320.4,-1377.7 1312.7,-1379.9 486.4,1418.8 	"/>
	<polyline class="st8" points="537,1421 1363.3,-1377.7 1355.7,-1379.9 529.4,1418.8 	"/>
	<polyline class="st8" points="575.2,1421 1401.5,-1377.7 1393.8,-1379.9 567.5,1418.8 	"/>
	<polyline class="st8" points="-790.6,1421 35.7,-1377.7 28.1,-1379.9 -798.2,1418.8 	"/>
	<polyline class="st8" points="-752.4,1421 73.9,-1377.7 66.2,-1379.9 -760.1,1418.8 	"/>
	<polyline class="st8" points="-709.5,1421 116.8,-1377.7 109.1,-1379.9 -717.2,1418.8 	"/>
	<polyline class="st8" points="-671.4,1421 154.9,-1377.7 147.2,-1379.9 -679.1,1418.8 	"/>
	<polyline class="st8" points="-629.9,1421 196.4,-1377.7 188.7,-1379.9 -637.6,1418.8 	"/>
	<polyline class="st8" points="-591.8,1421 234.5,-1377.7 226.9,-1379.9 -599.4,1418.8 	"/>
	<polyline class="st8" points="-556,1421 270.3,-1377.7 262.7,-1379.9 -563.6,1418.8 	"/>
	<polyline class="st8" points="-517.8,1421 308.5,-1377.7 300.8,-1379.9 -525.5,1418.8 	"/>
	<polyline class="st8" points="-476.3,1421 350,-1377.7 342.3,-1379.9 -484,1418.8 	"/>
	<polyline class="st8" points="-438.2,1421 388.1,-1377.7 380.4,-1379.9 -445.9,1418.8 	"/>
	<polyline class="st8" points="-395.4,1421 430.9,-1377.7 423.3,-1379.9 -403,1418.8 	"/>
	<polyline class="st8" points="-357.2,1421 469.1,-1377.7 461.4,-1379.9 -364.9,1418.8 	"/>
	<polyline class="st8" points="-315.7,1421 510.6,-1377.7 502.9,-1379.9 -323.4,1418.8 	"/>
	<polyline class="st8" points="-277.6,1421 548.7,-1377.7 541,-1379.9 -285.3,1418.8 	"/>
	<polyline class="st8" points="-241.8,1421 584.5,-1377.7 576.8,-1379.9 -249.5,1418.8 	"/>
	<polyline class="st8" points="-203.7,1421 622.6,-1377.7 615,-1379.9 -211.3,1418.8 	"/>
	<polyline class="st8" points="-162.2,1421 664.1,-1377.7 656.4,-1379.9 -169.9,1418.8 	"/>
	<polyline class="st8" points="-124.1,1421 702.2,-1377.7 694.6,-1379.9 -131.7,1418.8 	"/>
</g>
</svg>
