<?xml version="1.0" encoding="utf-8"?>
<!-- Generator: Adobe Illustrator 20.1.0, SVG Export Plug-In . SVG Version: 6.00 Build 0)  -->
<svg version="1.1" id="Layer_1" xmlns="http://www.w3.org/2000/svg" xmlns:xlink="http://www.w3.org/1999/xlink" x="0px" y="0px"
	 viewBox="0 0 544.7 230.8" style="enable-background:new 0 0 544.7 230.8;" xml:space="preserve">
<style type="text/css">
	.st0{fill:none;stroke:#A91E22;stroke-width:4;stroke-miterlimit:10;}
	.st1{fill:none;stroke:#EC5445;stroke-width:4;stroke-miterlimit:10;}
	.st2{fill:#8DB2DE;stroke:#8DB2DE;}
	.st3{fill:#231F20;}
	.st4{fill:#513534;stroke:#513534;stroke-width:1.5777;stroke-linecap:round;stroke-linejoin:round;stroke-miterlimit:10;}
	.st5{fill:#513534;stroke:#513534;stroke-width:1.6313;stroke-linecap:round;stroke-linejoin:round;stroke-miterlimit:10;}
	.st6{fill:#513534;stroke:#513534;}
	.st7{fill:#E2C7CF;}
	.st8{fill:#8CB1DE;}
	.st9{fill:#B4DBB4;}
	.st10{fill:#F37E65;}
	.st11{fill:#FCF7EC;}
	.st12{fill:#E9C189;}
	.st13{fill:#CCDD61;}
	.st14{fill:#EC5244;}
	.st15{fill:#AFF9AF;}
</style>
<line class="st1" x1="4.4" y1="150" x2="5.3" y2="187.4"/>
<line class="st1" x1="23.3" y1="145.4" x2="23.8" y2="197.1"/>
<line class="st1" x1="41.3" y1="140.2" x2="42.2" y2="195.4"/>
<line class="st1" x1="61.4" y1="135" x2="61.9" y2="192.5"/>
<line class="st1" x1="79.9" y1="128.7" x2="80.6" y2="191.6"/>
<line class="st1" x1="96.5" y1="124.3" x2="97.6" y2="190"/>
<line class="st1" x1="117.8" y1="118.1" x2="119" y2="187.8"/>
<line class="st1" x1="135" y1="113.9" x2="136" y2="186.2"/>
<line class="st1" x1="153.9" y1="107" x2="154.6" y2="182.8"/>
<line class="st1" x1="173" y1="102.2" x2="174.4" y2="182.4"/>
<line class="st1" x1="191.4" y1="97.1" x2="192.4" y2="179.3"/>
<line class="st1" x1="208.9" y1="91.4" x2="210.4" y2="179.3"/>
<line class="st1" x1="229.4" y1="85.9" x2="231.2" y2="176.6"/>
<line class="st1" x1="249.6" y1="80.1" x2="251.2" y2="174.8"/>
<line class="st1" x1="268.5" y1="74.5" x2="269.9" y2="173.7"/>
<line class="st1" x1="287.8" y1="69.1" x2="287.3" y2="172.9"/>
<line class="st1" x1="305.9" y1="63.4" x2="307" y2="169.6"/>
<line class="st1" x1="326.1" y1="58" x2="327.8" y2="167.2"/>
<line class="st1" x1="343.4" y1="53.7" x2="344.3" y2="164.9"/>
<line class="st1" x1="360.2" y1="48.2" x2="362.2" y2="163.8"/>
<line class="st1" x1="380.3" y1="42.1" x2="381.4" y2="162.1"/>
<line class="st1" x1="398.5" y1="37.2" x2="400.6" y2="160"/>
<line class="st1" x1="415.4" y1="32.3" x2="417.6" y2="158.4"/>
<line class="st1" x1="436.8" y1="26.1" x2="439" y2="156.2"/>
<line class="st1" x1="453.7" y1="21.2" x2="456" y2="154.6"/>
<line class="st1" x1="475.1" y1="15.1" x2="477.4" y2="152.5"/>
<line class="st1" x1="492.9" y1="10" x2="494.9" y2="150.2"/>
<line class="st1" x1="512.4" y1="61.6" x2="513.8" y2="150.5"/>
<line class="st1" x1="530.6" y1="108.4" x2="530.1" y2="149.3"/>
</svg>
