<svg enable-background="new 0 0 149.8 124.8" viewBox="0 0 149.8 124.8" xmlns="http://www.w3.org/2000/svg" xmlns:xlink="http://www.w3.org/1999/xlink"><pattern id="a" height="72" overflow="visible" patternUnits="userSpaceOnUse" viewBox="72.2 -72 72 72" width="72" x="-2885.7" y="-338.8"><path d="m72.2-72h72v72h-72z" fill="none"/><path d="m144-3.6h72.5" fill="none" stroke="#211e1f" stroke-width="3.6"/><path d="m144-18h72.5" fill="none" stroke="#211e1f" stroke-width="3.6"/><path d="m144-32.4h72.5" fill="none" stroke="#211e1f" stroke-width="3.6"/><path d="m144-46.8h72.5" fill="none" stroke="#211e1f" stroke-width="3.6"/><path d="m144-61.2h72.5" fill="none" stroke="#211e1f" stroke-width="3.6"/><path d="m144-10.8h72.5" fill="none" stroke="#211e1f" stroke-width="3.6"/><path d="m144-25.2h72.5" fill="none" stroke="#211e1f" stroke-width="3.6"/><path d="m144-39.6h72.5" fill="none" stroke="#211e1f" stroke-width="3.6"/><path d="m144-54h72.5" fill="none" stroke="#211e1f" stroke-width="3.6"/><path d="m144-68.4h72.5" fill="none" stroke="#211e1f" stroke-width="3.6"/><path d="m72-3.6h72.5" fill="none" stroke="#211e1f" stroke-width="3.6"/><path d="m72-18h72.5" fill="none" stroke="#211e1f" stroke-width="3.6"/><path d="m72-32.4h72.5" fill="none" stroke="#211e1f" stroke-width="3.6"/><path d="m72-46.8h72.5" fill="none" stroke="#211e1f" stroke-width="3.6"/><path d="m72-61.2h72.5" fill="none" stroke="#211e1f" stroke-width="3.6"/><path d="m72-10.8h72.5" fill="none" stroke="#211e1f" stroke-width="3.6"/><path d="m72-25.2h72.5" fill="none" stroke="#211e1f" stroke-width="3.6"/><path d="m72-39.6h72.5" fill="none" stroke="#211e1f" stroke-width="3.6"/><path d="m72-54h72.5" fill="none" stroke="#211e1f" stroke-width="3.6"/><path d="m72-68.4h72.5" fill="none" stroke="#211e1f" stroke-width="3.6"/><path d="m0-3.6h72.5" fill="none" stroke="#211e1f" stroke-width="3.6"/><path d="m0-18h72.5" fill="none" stroke="#211e1f" stroke-width="3.6"/><path d="m0-32.4h72.5" fill="none" stroke="#211e1f" stroke-width="3.6"/><path d="m0-46.8h72.5" fill="none" stroke="#211e1f" stroke-width="3.6"/><path d="m0-61.2h72.5" fill="none" stroke="#211e1f" stroke-width="3.6"/><path d="m0-10.8h72.5" fill="none" stroke="#211e1f" stroke-width="3.6"/><path d="m0-25.2h72.5" fill="none" stroke="#211e1f" stroke-width="3.6"/><path d="m0-39.6h72.5" fill="none" stroke="#211e1f" stroke-width="3.6"/><path d="m0-54h72.5" fill="none" stroke="#211e1f" stroke-width="3.6"/><path d="m0-68.4h72.5" fill="none" stroke="#211e1f" stroke-width="3.6"/></pattern><pattern id="b" patternTransform="matrix(-.1486 .5182 -.5182 -.1486 -7448.8345 -3734.9482)" xlink:href="#a"/><pattern id="c" patternTransform="matrix(-.1486 .5182 -.5182 -.1486 -7448.8345 -3734.9482)" xlink:href="#a"/><pattern id="d" patternTransform="matrix(-.1486 .5182 -.5182 -.1486 -7448.8345 -3738.5923)" xlink:href="#a"/><pattern id="e" patternTransform="matrix(-.1486 .5182 -.5182 -.1486 -7440.2095 -3738.5923)" xlink:href="#a"/><g stroke="#503433" stroke-linecap="round" stroke-linejoin="round" stroke-miterlimit="10" stroke-width=".75"><path d="m123.5 66.7s8.7-1.1 13.4-5c4.8-3.9 5.8-15.4-2.6-19.3s-8.7-1.1-11.9-5.8c0 0-6.5-.7-7.6 3 0 0 7.5-.6 10.2 1.7 2.6 2.4 4.6 3.6 4.6 15-.1 5.8-6.1 10.4-6.1 10.4z" fill="#6cc077"/><path d="m38.9 97.7s9.3.2 11.3-21.3-.7-37.2-3.2-44.7-10.2-21.1-18.1-12c-8 9-6.6 38.9-5.9 46.5s5.6 30.5 15.9 31.5z" fill="#8bb0dd"/><path d="m121.1 39.6s-29.5 0-38.8-1.5-22.2-4.5-33.7-13.4c0 0 11.6 31 3.6 64.3 0 0 7.8-7.1 17.1-11.3 9.3-4.1 21.2-5.8 26.2-6.7s8.2-4.8 8.2-4.8l19.7-2.8-1.5 3.7s4.1-.4 6.1-3.7c1.6-2.6 3.7-8.7 1.7-15.6-1.9-6.9-8.6-8.2-8.6-8.2z" fill="#fbf6ec"/><path d="m95.5 71s4.1.4 3.9 3.2-4.5 7.8-1.9 11.3c0 0-1.1 11.9-5.6 19.9 0 0 5 5.2 7.6 6.9s6.7.2 8.4-6.9 5.8-25.8 5.8-25.8 2.2-2.6 4.3-3.2c2.2-.7 5.4-13 5.4-13l-19.7 2.8c0 .1-3.5 4-8.2 4.8z" fill="#fbf6ec"/><path d="m38.9 97.7s9.3.2 11.3-21.3-.7-37.2-3.2-44.7-10.2-21.1-18.1-12c-8 9-6.6 38.9-5.9 46.5s5.6 30.5 15.9 31.5z" fill="none"/><path d="m50 45.2s-12.2 1.5-15.8 3.3c-2.8 1.4-3.8 6.5-3.1 12 1 7.9 7 7.3 7 7.3l12.8-1.2c0 .1 2.6-10.3-.9-21.4z" fill="#fbf6ec"/><ellipse cx="34.2" cy="58.3" fill="#503433" rx="2.5" ry="6.7" transform="matrix(.9998 -.02216179 .02216179 .9998 -1.284 .7725)"/><path d="m51.3 28.8c-3.2-8.3-13-23.1-23.2-13.2s-8.4 42.7-7.6 51.1c.9 8.4 7.1 33.5 20.4 34.6 0 0 11.9.2 14.5-23.4s-.8-40.8-4.1-49.1zm-1 47.6c-2 21.5-11.3 21.3-11.3 21.3-10.3-1-15.2-23.9-15.9-31.5-.7-7.7-2-37.5 5.9-46.5 8-9 15.6 4.5 18.1 12s5.2 23.2 3.2 44.7z" fill="#503433"/></g><path d="m49 42.7c-1.1-5.4-3.9-18.1-11.3-17.4-2.7.3-5.5 2.6-5.4 5.5.1 4.4 2.7 2.2 5.1 4.4 3 2.6 1.8 7.5.7 10.9 4.9.7 11.4-2 10.7-7.6" fill="url(#b)"/><path d="m31.8 83.3c2.9 10.1 12.9 13.3 15.2 1.1.5-2.9 2.2-10.7 0-13.2-4.3-4.8-6.6 4.5-8.1 7-2 3.4-8.1 3.7-6.5 8.5" fill="url(#c)"/><path d="m102.5 111.2c-1.5-2.9-5.1-3.9-6.1-7-1.1-3.7 2.3-8.1 3.4-11.4.9-2.9 2.9-5.6 2.9-8.4 0-2.9-3-6.6 1.4-8.5 2.5-1.1 7.6 1.2 10.4 1.3.4-.7.6-1.4.5-2.2-2.6-.7-6.4-1.3-8.5-3.2-1.5-1.4-2.6-6.6-4.6-3.7-.9.5-4.2 1.3-4.6 2.3-.8 1.7 1.5 2.8 1.7 4.4.4 3.3-2.2 7-2.3 10.7-.2 7.8-8 17.6-1.8 24.1 2.2 2.3 10.9 5.3 7.3-.8" fill="url(#d)"/><path d="m65.2 81.3c1.9-2.1 3.2-5.3 5.5-6.9 2.8-2 6.5-2.1 9.7-2.6 7.1-1.1 16.2-8 23.4-7.2.9 8.5-9.4 6-15.4 7.2-7.7 1.5-15.3 8.1-22.6 8.9" fill="url(#e)"/></svg>