<svg enable-background="new 0 0 302 169" viewBox="0 0 302 169" xmlns="http://www.w3.org/2000/svg"><g fill="none" stroke="#000" stroke-width="10" transform="translate(8)"><path d="m0 79.2.1 37.4"/><path d="m19.7 50.4-1.8 95.8"/><path d="m39.5 33-2.6 128.1"/><path d="m57.9 19.9-2.3 148.5"/><path d="m77.6 12.4-2.9 155.3"/><path d="m95.4 5.6-2.3 162.8"/><path d="m114.5 1.1-2.3 166.4"/><path d="m133 .7-2.3 166.3"/><path d="m151.3.6-2 164.3"/><path d="m169.1 4-1.4 159.1"/><path d="m188.5 8.5-1.1 151.1"/><path d="m207 14.3-1.4 139.8"/><path d="m226.3 20-1.1 130.4"/><path d="m245 27.5-.8 117.8"/><path d="m263.9 42.8-.5 89"/><path d="m282.1 65.1-.3 47.5"/></g></svg>