<?xml version="1.0" encoding="utf-8"?>
<!-- Generator: Adobe Illustrator 20.1.0, SVG Export Plug-In . SVG Version: 6.00 Build 0)  -->
<svg version="1.1" id="Layer_1" xmlns="http://www.w3.org/2000/svg" xmlns:xlink="http://www.w3.org/1999/xlink" x="0px" y="0px"
	 viewBox="0 0 1920 3201.2" style="enable-background:new 0 0 1920 3201.2;" xml:space="preserve">
<style type="text/css">
	.st0{fill:none;stroke:#A91E22;stroke-width:4;stroke-miterlimit:10;}
	.st1{fill:none;stroke:#EB5344;stroke-width:4;stroke-miterlimit:10;}
	.st2{fill:#8DB2DE;stroke:#8DB2DE;}
	.st3{fill:#231F20;}
	.st4{fill:#513534;stroke:#513534;stroke-width:1.5777;stroke-linecap:round;stroke-linejoin:round;stroke-miterlimit:10;}
	.st5{fill:#513534;stroke:#513534;stroke-width:1.6313;stroke-linecap:round;stroke-linejoin:round;stroke-miterlimit:10;}
	.st6{fill:#513534;stroke:#513534;}
	.st7{fill:#EC5244;}
	.st8{clip-path:url(#SVGID_2_);fill:#EC5244;}
</style>
<line class="st0" x1="953.3" y1="1530.4" x2="943.3" y2="1566.4"/>
<line class="st0" x1="980.1" y1="1508" x2="952.4" y2="1599.8"/>
<line class="st0" x1="1003.9" y1="1496.6" x2="966.6" y2="1619.3"/>
<line class="st0" x1="1025.1" y1="1489" x2="982.6" y2="1631.3"/>
<line class="st0" x1="1046.1" y1="1487.2" x2="1001.2" y2="1635.9"/>
<line class="st0" x1="1065.1" y1="1485.5" x2="1018.7" y2="1641.5"/>
<line class="st0" x1="1084.7" y1="1486.3" x2="1037.4" y2="1645.8"/>
<line class="st0" x1="1102.6" y1="1490.9" x2="1055.3" y2="1650.4"/>
<line class="st0" x1="1120.3" y1="1495.8" x2="1073.8" y2="1653.4"/>
<line class="st0" x1="1136.5" y1="1503.9" x2="1092" y2="1656.6"/>
<line class="st0" x1="1153.9" y1="1513.5" x2="1111.9" y2="1658.6"/>
<line class="st0" x1="1170.1" y1="1524.1" x2="1130.9" y2="1658.3"/>
<line class="st0" x1="1187.2" y1="1534.8" x2="1150.8" y2="1660"/>
<line class="st0" x1="1203.2" y1="1547.1" x2="1170.4" y2="1660.3"/>
<line class="st0" x1="1217.2" y1="1567" x2="1192.5" y2="1652.4"/>
<line class="st0" x1="1228.7" y1="1593.3" x2="1215.5" y2="1639"/>
<line class="st0" x1="862.1" y1="880.4" x2="852" y2="916.4"/>
<line class="st0" x1="881.5" y1="881.6" x2="866.9" y2="931.1"/>
<line class="st0" x1="900.2" y1="881.8" x2="885" y2="934.9"/>
<line class="st0" x1="921" y1="882.7" x2="904.6" y2="937.9"/>
<line class="st0" x1="940.5" y1="882.1" x2="922.8" y2="942.5"/>
<line class="st0" x1="957.6" y1="882.7" x2="939.5" y2="945.8"/>
<line class="st0" x1="979.9" y1="883" x2="960.6" y2="950.1"/>
<line class="st0" x1="997.5" y1="884.1" x2="977.4" y2="953.4"/>
<line class="st0" x1="1017.7" y1="882.9" x2="996.2" y2="955.7"/>
<line class="st0" x1="1037.3" y1="883.9" x2="1015.2" y2="961"/>
<line class="st0" x1="1056.4" y1="884.5" x2="1033.4" y2="963.4"/>
<line class="st0" x1="1074.8" y1="884.1" x2="1050.5" y2="968.6"/>
<line class="st0" x1="1096" y1="884.8" x2="1071.2" y2="972.1"/>
<line class="st0" x1="1117" y1="885.2" x2="1090.9" y2="976.2"/>
<line class="st0" x1="1109.9" y1="907.6" x2="1099.8" y2="943.7"/>
<line class="st0" x1="1136.7" y1="885.3" x2="1109.1" y2="980.7"/>
<line class="st0" x1="1156.8" y1="885.8" x2="1126" y2="985"/>
<line class="st0" x1="1175.7" y1="885.7" x2="1145.8" y2="987.6"/>
<line class="st0" x1="1196.6" y1="886.4" x2="1166.4" y2="991.3"/>
<line class="st0" x1="1214.4" y1="887.4" x2="1182.8" y2="994"/>
<line class="st0" x1="1232.1" y1="887" x2="1200.3" y2="998.2"/>
<line class="st0" x1="1253.1" y1="887" x2="1219.1" y2="1002.1"/>
<line class="st0" x1="1272" y1="887.6" x2="1238.1" y2="1005.8"/>
<line class="st0" x1="1289.6" y1="887.9" x2="1254.8" y2="1009.1"/>
<line class="st0" x1="1311.8" y1="888.3" x2="1275.9" y2="1013.4"/>
<line class="st0" x1="1329.4" y1="888.5" x2="1292.7" y2="1016.7"/>
<line class="st0" x1="1351.6" y1="888.9" x2="1313.8" y2="1021"/>
<line class="st0" x1="1370.1" y1="889.2" x2="1331.1" y2="1023.9"/>
<line class="st0" x1="1373.8" y1="944.3" x2="1349.1" y2="1029.7"/>
<line class="st0" x1="1377.5" y1="994.3" x2="1365.1" y2="1033.4"/>
<line class="st0" x1="980.9" y1="2105" x2="970.9" y2="2141"/>
<line class="st0" x1="952.4" y1="2199.3" x2="948.7" y2="2210.3"/>
<line class="st0" x1="999.5" y1="2108.4" x2="969.8" y2="2207.6"/>
<line class="st0" x1="1021.3" y1="2107.2" x2="992.1" y2="2208.3"/>
<line class="st0" x1="1038.9" y1="2106.7" x2="1010.2" y2="2205.9"/>
<line class="st0" x1="1057.2" y1="2105.4" x2="1028.8" y2="2210.5"/>
<line class="st0" x1="1078.5" y1="2106" x2="1048.2" y2="2211.1"/>
<line class="st0" x1="1097.9" y1="2104.7" x2="1067" y2="2212.6"/>
<line class="st0" x1="1117.8" y1="2105.8" x2="1086.9" y2="2213.6"/>
<line class="st0" x1="1137.1" y1="2107.8" x2="1106.4" y2="2213.1"/>
<line class="st0" x1="1155.4" y1="2108.2" x2="1124.8" y2="2213.5"/>
<line class="st0" x1="1175.7" y1="2107.8" x2="1145.1" y2="2212.4"/>
<line class="st0" x1="1297.9" y1="2087.9" x2="1286.4" y2="2127.7"/>
<line class="st0" x1="1322.1" y1="2081.5" x2="1313.6" y2="2106.3"/>
<line class="st0" x1="1339.6" y1="2073.3" x2="1334.3" y2="2091.7"/>
<line class="st0" x1="1363" y1="2063.4" x2="1358" y2="2081.4"/>
<line class="st0" x1="1193.4" y1="2106.7" x2="1164.2" y2="2208.7"/>
<line class="st0" x1="1216" y1="2102.8" x2="1187.6" y2="2203.2"/>
<line class="st0" x1="1235.6" y1="2101" x2="1208.9" y2="2194.2"/>
<line class="st0" x1="1256.9" y1="2097" x2="1233.3" y2="2179.2"/>
<line class="st0" x1="1275.7" y1="2093.3" x2="1257.7" y2="2158.8"/>
<line class="st0" x1="889.2" y1="2482.8" x2="884.4" y2="2499"/>
<line class="st0" x1="907.8" y1="2486.2" x2="897.3" y2="2518.9"/>
<line class="st0" x1="929.6" y1="2485" x2="914.2" y2="2535.8"/>
<line class="st0" x1="947.2" y1="2484.5" x2="927.4" y2="2550.5"/>
<line class="st0" x1="965.5" y1="2483.2" x2="939.2" y2="2579.3"/>
<line class="st0" x1="986.8" y1="2483.9" x2="956.5" y2="2589"/>
<line class="st0" x1="1006.2" y1="2482.6" x2="964.6" y2="2622.2"/>
<line class="st0" x1="1027.3" y1="2477" x2="972" y2="2678.7"/>
<line class="st0" x1="1048.8" y1="2474.2" x2="988.3" y2="2681.5"/>
<line class="st0" x1="1067.4" y1="2473.1" x2="1009.8" y2="2671.9"/>
<line class="st0" x1="1087.7" y1="2471.4" x2="1034.7" y2="2653.2"/>
<line class="st0" x1="1264.9" y1="2242.8" x2="1178" y2="2562.6"/>
<line class="st0" x1="1247" y1="2391.5" x2="1204.1" y2="2545"/>
<line class="st0" x1="1261.4" y1="2408.6" x2="1221.9" y2="2542.8"/>
<line class="st0" x1="1273.7" y1="2429.1" x2="1249.6" y2="2516.9"/>
<line class="st0" x1="1104.7" y1="2469.1" x2="1059.5" y2="2635.7"/>
<line class="st0" x1="1127.3" y1="2467.4" x2="1087.7" y2="2613.7"/>
<line class="st0" x1="1183.8" y1="2335.8" x2="1109.2" y2="2595.1"/>
<line class="st0" x1="1225.5" y1="2268.3" x2="1136.1" y2="2580.6"/>
<line class="st0" x1="1250" y1="2242.3" x2="1155.6" y2="2571.9"/>
<path class="st2" d="M208.9,804.3c0,0,56.4-123,85.2-156.2c28.9-33.2,82.4-59.9,133.7-19.3c51.3,40.6,48.4,243.9-109.5,203.2
	c0,0-53.7-26.7-70.2,21.4h-5.4L202,813.4L208.9,804.3z"/>
<path class="st3" d="M392.3,480l-2.8-1.2c-7.8,18.1-20.6,32.5-36,42.4c-15.4,9.9-33.5,15.3-52,15.3c-12.7,0-25.7-2.5-38.1-7.9
	c-18.1-7.8-32.5-20.5-42.4-35.9c-9.9-15.4-15.3-33.5-15.3-52c0-12.7,2.6-25.7,7.9-38.1c7.8-18.1,20.6-32.5,36-42.4
	c15.4-9.9,33.5-15.3,52-15.3c12.7,0,25.6,2.5,38,7.9c18.1,7.8,32.5,20.6,42.4,36c9.9,15.4,15.3,33.5,15.3,52
	c0,12.7-2.5,25.6-7.9,38.1L392.3,480l2.8,1.2c5.7-13.2,8.4-26.9,8.4-40.5c0-19.7-5.7-38.9-16.3-55.2c-10.5-16.4-25.9-29.9-45.1-38.2
	c-13.2-5.7-26.9-8.4-40.4-8.4c-19.7,0-38.9,5.7-55.2,16.3c-16.4,10.5-29.9,25.9-38.2,45.1c-5.7,13.2-8.4,27-8.4,40.5
	c0,19.7,5.7,38.8,16.2,55.2c10.5,16.4,25.9,29.9,45,38.2c13.2,5.7,26.9,8.4,40.5,8.4c19.7,0,38.9-5.7,55.2-16.3
	c16.4-10.5,29.9-25.9,38.2-45.1L392.3,480z"/>
<path class="st4" d="M439.7,1520.2c0,0-74.3,0-97.8-3.8c-23.5-3.8-56-11.5-85.1-33.9c0,0,29.4,78.1,9.2,162.3c0,0,19.7-18,43.2-28.4
	c23.5-10.4,53.5-14.7,66.1-16.9c12.6-2.2,20.8-12,20.8-12l49.7-7.1l-3.8,9.3c0,0,10.2-1,15.3-9.3c4.1-6.7,9.3-21.9,4.4-39.3
	C456.6,1523.4,439.7,1520.2,439.7,1520.2z"/>
<path class="st5" d="M498.9,1784.8c-4.1-21.6-38.5-25-38.5-25s-46,0-68.2,0c-11.2,0-25.1-2.6-36.2-5.2c-10.8-2.5-22.1-0.8-31.8,4.7
	c-4,2.3-9,4.4-15.1,6c-18.9,4.7-56.1,6.1-60.8,8.1c-4.7,2-19.6,23-28.4,35.8c-2.1,3.1-4.2,6.9-6.3,11.1l0,0c0,0-24.8,22.9-26.8,30.2
	c-2,7.4,4.1,21.6,13.9,16.5c0,0,0,0,0,0c4.3,8.3,19.4,10.9,26,1c3.4-5.1,6.8-13,10.8-21.2c8-4,15.3-7.3,20-8.3
	c-6.2,15.8-12.6,35.6-12.6,35.6c27,25,41.2-16.9,44.6-25.7c3.4-8.8,23-25.7,23-25.7l0,0c5.7,1.6,13.3,1,20-0.1
	c3.2-0.4,6.4-1,9.3-1.9c2.8-0.7,4.5-1.2,4.5-1.2c23.7,3.5,27,10,14.8,13.4c-12.2,3.4-40.5,4.7-35.9,31.1
	c4.6,26.4,41.3,10.4,41.3,10.4c16.2-6.3,27-11.8,44.6-11.1c17.6,0.7,45.3-6.8,50.7-19.6c0.5-1.1,0.8-2,1-2.8c1.3,0.5,4,0.4,9.2-1.3
	C491,1833.5,502.9,1806.4,498.9,1784.8z"/>
<path class="st6" d="M326.7,1254.9h-38.4c-6.6,0-12-5.4-12-12v-274c0-6.6,5.4-12,12-12h38.4c6.6,0,12,5.4,12,12v274
	C338.7,1249.5,333.3,1254.9,326.7,1254.9z"/>
<g>
	<defs>
		<path id="SVGID_1_" d="M2333.7,641.8c28.8-2.3,42.5-8.2,40.8-15.5l0.6,0.3c0,0,7.3-6.8,45.1-13c18.6-3,42.2-5.2,67.9-6.5
			c22.4-1.1,61-3.5,96.4-8.5c0,0,0.4,0,0.9-0.1c-2.3,0.5-5.1,0.9-8.4,1.2l6.8-0.6l0.5,0c3.9-0.3,7.1-0.8,9.6-1.5l38.7-5
			c0.9-0.1,1.7-0.2,2.5-0.3l0.1,0l0,0c15-2.2,16.4-6.8,2.2-11c-15.8-4.7-44.8-7.1-65.2-5.4h0l-4.6,0.4l-3.8,0.3l-4.6,0.4l-2.2-0.5
			c-0.8-0.2-2-0.3-3.4-0.3L2539,576c-0.9,0-1.8-0.1-2.5-0.1l-0.4,0c-0.7-0.1-1.2-0.2-1.5-0.3c-0.4-0.2-0.8-0.4-1.1-0.7
			c0,0-3.8-6.1-37.9-14c-3.2-0.7-0.1-3.5-6.7-4.4c-4.4-0.6-20.7,0.4-26,0.7c-14.9,0.7-23.9,0.9-39.5,2.4c-7.8,0.8-3,2.3,8,3.8
			c3.9,0.5,7.6,1.1,10.3,2.6c0,0,10,4.7,16.3,7.5c1.6,0.7,3.4,1.3,5.4,2c1.5,0.5,3.2,1.4,0.2,2.2l-1.5,0.5c-0.4,0.1-0.6,0.3-0.5,0.4
			c0.1,0.1,0.4,0.2,0.9,0.3c0.9,0.2,1.9,0.3,2.7,0.5c0.1,0,0.2,0.1,0.3,0.1l0.1,0l-0.8,0.2c-1.3,0.3-1.2,0.6,0.2,0.8l5.9,0.9
			c0,0.2-0.6,0.5-1.9,0.6c-8,1.1-12.7,2.6-13.2,2.8c-11,1.1-20.1,2.2-26.8,3.1c-20.5,2.7-45,4.7-71.2,5.5c-39.6,1.2-71.7,0-85.6-0.7
			c-38-5.3-78.8-7.3-109.5-4.9c-51.5,4.2-54.9,19.7-7.7,34.6C2202.2,637.3,2282.2,646,2333.7,641.8"/>
	</defs>
	<clipPath id="SVGID_2_">
		<use xlink:href="#SVGID_1_"  style="overflow:visible;"/>
	</clipPath>
	<polyline class="st8" points="-484.3,1944.3 342,-854.4 334.3,-856.7 -492,1942 	"/>
	<polyline class="st8" points="-446.2,1944.3 380.1,-854.4 372.5,-856.7 -453.8,1942 	"/>
	<polyline class="st8" points="-404.7,1944.3 421.6,-854.4 414,-856.7 -412.3,1942 	"/>
	<polyline class="st8" points="-366.5,1944.3 459.7,-854.4 452.1,-856.7 -374.2,1942 	"/>
	<polyline class="st8" points="-330.7,1944.3 495.6,-854.4 487.9,-856.7 -338.4,1942 	"/>
	<polyline class="st8" points="-292.6,1944.3 533.7,-854.4 526,-856.7 -300.3,1942 	"/>
	<polyline class="st8" points="-251.1,1944.3 575.2,-854.4 567.5,-856.7 -258.8,1942 	"/>
	<polyline class="st8" points="-213,1944.3 613.3,-854.4 605.6,-856.7 -220.7,1942 	"/>
	<polyline class="st8" points="-170.1,1944.3 656.2,-854.4 648.5,-856.7 -177.8,1942 	"/>
	<polyline class="st8" points="-132,1944.3 694.3,-854.4 686.6,-856.7 -139.7,1942 	"/>
	<polyline class="st8" points="-90.5,1944.3 735.8,-854.4 728.1,-856.7 -98.2,1942 	"/>
	<polyline class="st8" points="-52.4,1944.3 773.9,-854.4 766.2,-856.7 -60.1,1942 	"/>
	<polyline class="st8" points="-16.6,1944.3 809.7,-854.4 802,-856.7 -24.2,1942 	"/>
	<polyline class="st8" points="21.5,1944.3 847.8,-854.4 840.2,-856.7 13.9,1942 	"/>
	<polyline class="st8" points="63,1944.3 889.3,-854.4 881.7,-856.7 55.4,1942 	"/>
	<polyline class="st8" points="101.2,1944.3 927.5,-854.4 919.8,-856.7 93.5,1942 	"/>
	<polyline class="st8" points="144.1,1944.3 970.4,-854.4 962.7,-856.7 136.4,1942 	"/>
	<polyline class="st8" points="182.2,1944.3 1008.5,-854.4 1000.8,-856.7 174.5,1942 	"/>
	<polyline class="st8" points="223.7,1944.3 1050,-854.4 1042.3,-856.7 216,1942 	"/>
	<polyline class="st8" points="261.8,1944.3 1088.1,-854.4 1080.5,-856.7 254.2,1942 	"/>
	<polyline class="st8" points="297.6,1944.3 1123.9,-854.4 1116.3,-856.7 290,1942 	"/>
	<polyline class="st8" points="335.8,1944.3 1162.1,-854.4 1154.4,-856.7 328.1,1942 	"/>
	<polyline class="st8" points="377.3,1944.3 1203.6,-854.4 1195.9,-856.7 369.6,1942 	"/>
	<polyline class="st8" points="415.4,1944.3 1241.7,-854.4 1234,-856.7 407.7,1942 	"/>
	<polyline class="st8" points="458.2,1944.3 1284.5,-854.4 1276.9,-856.7 450.6,1942 	"/>
	<polyline class="st8" points="496.4,1944.3 1322.7,-854.4 1315,-856.7 488.7,1942 	"/>
	<polyline class="st8" points="537.9,1944.3 1364.2,-854.4 1356.5,-856.7 530.2,1942 	"/>
	<polyline class="st8" points="576,1944.3 1402.3,-854.4 1394.6,-856.7 568.3,1942 	"/>
	<polyline class="st8" points="611.8,1944.3 1438.1,-854.4 1430.4,-856.7 604.1,1942 	"/>
	<polyline class="st8" points="649.9,1944.3 1476.2,-854.4 1468.5,-856.7 642.3,1942 	"/>
	<polyline class="st8" points="691.4,1944.3 1517.7,-854.4 1510,-856.7 683.7,1942 	"/>
	<polyline class="st8" points="729.5,1944.3 1555.8,-854.4 1548.2,-856.7 721.9,1942 	"/>
	<polyline class="st8" points="766.3,1944.3 1592.6,-854.4 1584.9,-856.7 758.6,1942 	"/>
	<polyline class="st8" points="804.4,1944.3 1630.7,-854.4 1623,-856.7 796.7,1942 	"/>
	<polyline class="st8" points="845.9,1944.3 1672.2,-854.4 1664.5,-856.7 838.2,1942 	"/>
	<polyline class="st8" points="884,1944.3 1710.3,-854.4 1702.6,-856.7 876.3,1942 	"/>
	<polyline class="st8" points="919.8,1944.3 1746.1,-854.4 1738.5,-856.7 912.2,1942 	"/>
	<polyline class="st8" points="958,1944.3 1784.2,-854.4 1776.6,-856.7 950.3,1942 	"/>
	<polyline class="st8" points="999.4,1944.3 1825.7,-854.4 1818.1,-856.7 991.8,1942 	"/>
	<polyline class="st8" points="1037.6,1944.3 1863.9,-854.4 1856.2,-856.7 1029.9,1942 	"/>
	<polyline class="st8" points="1080.4,1944.3 1906.7,-854.4 1899.1,-856.7 1072.8,1942 	"/>
	<polyline class="st8" points="1118.6,1944.3 1944.9,-854.4 1937.2,-856.7 1110.9,1942 	"/>
	<polyline class="st8" points="1160.1,1944.3 1986.4,-854.4 1978.7,-856.7 1152.4,1942 	"/>
	<polyline class="st8" points="1198.2,1944.3 2024.5,-854.4 2016.8,-856.7 1190.5,1942 	"/>
	<polyline class="st8" points="1234,1944.3 2060.3,-854.4 2052.6,-856.7 1226.3,1942 	"/>
	<polyline class="st8" points="1272.1,1944.3 2098.4,-854.4 2090.7,-856.7 1264.4,1942 	"/>
	<polyline class="st8" points="1313.6,1944.3 2139.9,-854.4 2132.2,-856.7 1305.9,1942 	"/>
	<polyline class="st8" points="1351.7,1944.3 2178,-854.4 2170.4,-856.7 1344.1,1942 	"/>
	<polyline class="st8" points="1394.7,1944.3 2221,-854.4 2213.3,-856.7 1387,1942 	"/>
	<polyline class="st8" points="1432.8,1944.3 2259.1,-854.4 2251.4,-856.7 1425.1,1942 	"/>
	<polyline class="st8" points="1474.3,1944.3 2300.6,-854.4 2292.9,-856.7 1466.6,1942 	"/>
	<polyline class="st8" points="1512.4,1944.3 2338.7,-854.4 2331,-856.7 1504.7,1942 	"/>
	<polyline class="st8" points="1548.2,1944.3 2374.5,-854.4 2366.8,-856.7 1540.5,1942 	"/>
	<polyline class="st8" points="1586.3,1944.3 2412.6,-854.4 2405,-856.7 1578.7,1942 	"/>
	<polyline class="st8" points="1627.8,1944.3 2454.1,-854.4 2446.4,-856.7 1620.2,1942 	"/>
	<polyline class="st8" points="1665.9,1944.3 2492.2,-854.4 2484.6,-856.7 1658.3,1942 	"/>
	<polyline class="st8" points="1708.8,1944.3 2535.1,-854.4 2527.4,-856.7 1701.1,1942 	"/>
	<polyline class="st8" points="1746.9,1944.3 2573.2,-854.4 2565.6,-856.7 1739.3,1942 	"/>
	<polyline class="st8" points="1788.4,1944.3 2614.7,-854.4 2607.1,-856.7 1780.8,1942 	"/>
	<polyline class="st8" points="1826.6,1944.3 2652.9,-854.4 2645.2,-856.7 1818.9,1942 	"/>
	<polyline class="st8" points="1862.4,1944.3 2688.7,-854.4 2681,-856.7 1854.7,1942 	"/>
	<polyline class="st8" points="1900.5,1944.3 2726.8,-854.4 2719.1,-856.7 1892.8,1942 	"/>
</g>
</svg>
