<?xml version="1.0" encoding="utf-8"?>
<!-- Generator: Adobe Illustrator 20.1.0, SVG Export Plug-In . SVG Version: 6.00 Build 0)  -->
<svg version="1.1" id="Layer_1" xmlns="http://www.w3.org/2000/svg" xmlns:xlink="http://www.w3.org/1999/xlink" x="0px" y="0px"
	 viewBox="0 0 284.6 240.2" style="enable-background:new 0 0 284.6 240.2;" xml:space="preserve">
<style type="text/css">
	.st0{fill:none;stroke:#A91E22;stroke-width:4;stroke-miterlimit:10;}
	.st1{fill:none;stroke:#EB5344;stroke-width:4;stroke-miterlimit:10;}
	.st2{fill:#8DB2DE;stroke:#8DB2DE;}
	.st3{fill:#231F20;}
	.st4{fill:#513534;stroke:#513534;stroke-width:1.5777;stroke-linecap:round;stroke-linejoin:round;stroke-miterlimit:10;}
	.st5{fill:#513534;stroke:#513534;stroke-width:1.6313;stroke-linecap:round;stroke-linejoin:round;stroke-miterlimit:10;}
	.st6{fill:#513534;stroke:#513534;}
	.st7{fill:#EC5244;}
	.st8{clip-path:url(#SVGID_2_);fill:#EC5244;}
</style>
<line class="st1" x1="20.1" y1="189.6" x2="10" y2="225.6"/>
<line class="st1" x1="46.5" y1="149" x2="21.8" y2="230.3"/>
<line class="st1" x1="102" y1="66.1" x2="66.1" y2="184"/>
<line class="st1" x1="73.9" y1="105.3" x2="40.1" y2="216.5"/>
<line class="st1" x1="132.4" y1="27.9" x2="102" y2="131.5"/>
<line class="st1" x1="157.7" y1="14.5" x2="126.9" y2="114.5"/>
<line class="st1" x1="176.1" y1="10.8" x2="146.2" y2="110.3"/>
<line class="st1" x1="196.4" y1="7.6" x2="166" y2="110.8"/>
<line class="st1" x1="215.8" y1="10.4" x2="185.8" y2="111.2"/>
<line class="st1" x1="233.4" y1="14.4" x2="202.9" y2="116.8"/>
<line class="st1" x1="247.5" y1="28.8" x2="217.1" y2="127.4"/>
<line class="st1" x1="261.8" y1="48.1" x2="236.5" y2="130.1"/>
<line class="st1" x1="272.4" y1="77.6" x2="260.9" y2="118.6"/>
<g>
	<defs>
		<path id="SVGID_1_" d="M198.4,604.6c28.8-2.3,42.5-8.2,40.8-15.5l0.6,0.3c0,0,7.3-6.8,45.1-13c18.6-3,42.2-5.2,67.9-6.5
			c22.4-1.1,61-3.5,96.4-8.5c0,0,0.4,0,0.9-0.1c-2.3,0.5-5.1,0.9-8.4,1.2l6.8-0.6l0.5,0c3.9-0.3,7.1-0.8,9.6-1.5l38.7-5
			c0.9-0.1,1.7-0.2,2.5-0.3l0.1,0l0,0c15-2.2,16.4-6.8,2.2-11c-15.8-4.7-44.8-7.1-65.2-5.4h0l-4.6,0.4l-3.8,0.3l-4.6,0.4l-2.2-0.5
			c-0.8-0.2-2-0.3-3.4-0.3l-14.6-0.1c-0.9,0-1.8-0.1-2.5-0.1l-0.4,0c-0.7-0.1-1.2-0.2-1.5-0.3c-0.4-0.2-0.8-0.4-1.1-0.7
			c0,0-3.8-6.1-37.9-14c-3.2-0.7-0.1-3.5-6.7-4.4c-4.5-0.6-20.7,0.4-26,0.7c-14.9,0.7-23.9,0.9-39.5,2.4c-7.8,0.8-3,2.3,8,3.8
			c3.9,0.5,7.6,1.1,10.3,2.6c0,0,10,4.7,16.3,7.5c1.6,0.7,3.4,1.3,5.4,2c1.5,0.5,3.2,1.4,0.2,2.2l-1.5,0.5c-0.4,0.1-0.6,0.3-0.5,0.4
			c0.1,0.1,0.4,0.2,0.9,0.3c0.9,0.2,1.9,0.3,2.7,0.5c0.1,0,0.2,0.1,0.3,0.1l0.1,0l-0.8,0.2c-1.3,0.3-1.2,0.6,0.2,0.8l5.9,0.9
			c0,0.2-0.6,0.5-1.9,0.6c-8,1.1-12.7,2.6-13.2,2.8c-11,1.1-20.1,2.2-26.8,3.1c-20.5,2.7-45,4.7-71.2,5.5c-39.6,1.2-71.7,0-85.6-0.7
			c-38-5.3-78.8-7.3-109.5-4.9c-51.5,4.2-54.9,19.7-7.7,34.6C66.9,600,146.9,608.8,198.4,604.6"/>
	</defs>
	<clipPath id="SVGID_2_">
		<use xlink:href="#SVGID_1_"  style="overflow:visible;"/>
	</clipPath>
	<polyline class="st8" points="-122.5,1907 703.8,-891.6 696.1,-893.9 -130.2,1904.8 	"/>
	<polyline class="st8" points="-84.4,1907 741.9,-891.6 734.3,-893.9 -92,1904.8 	"/>
	<polyline class="st8" points="-42.9,1907 783.4,-891.6 775.7,-893.9 -50.5,1904.8 	"/>
	<polyline class="st8" points="-4.8,1907 821.5,-891.6 813.9,-893.9 -12.4,1904.8 	"/>
	<polyline class="st8" points="31.1,1907 857.4,-891.6 849.7,-893.9 23.4,1904.8 	"/>
	<polyline class="st8" points="69.2,1907 895.5,-891.6 887.8,-893.9 61.5,1904.8 	"/>
	<polyline class="st8" points="110.7,1907 937,-891.6 929.3,-893.9 103,1904.8 	"/>
	<polyline class="st8" points="148.8,1907 975.1,-891.6 967.4,-893.9 141.1,1904.8 	"/>
	<polyline class="st8" points="191.7,1907 1018,-891.6 1010.3,-893.9 184,1904.8 	"/>
	<polyline class="st8" points="229.8,1907 1056.1,-891.6 1048.4,-893.9 222.1,1904.8 	"/>
	<polyline class="st8" points="271.3,1907 1097.6,-891.6 1089.9,-893.9 263.6,1904.8 	"/>
	<polyline class="st8" points="-821.7,1907 4.6,-891.6 -3.1,-893.9 -829.4,1904.8 	"/>
	<polyline class="st8" points="-783.6,1907 42.7,-891.6 35,-893.9 -791.3,1904.8 	"/>
	<polyline class="st8" points="-740.7,1907 85.6,-891.6 78,-893.9 -748.3,1904.8 	"/>
	<polyline class="st8" points="-702.5,1907 123.8,-891.6 116.1,-893.9 -710.2,1904.8 	"/>
	<polyline class="st8" points="-661,1907 165.3,-891.6 157.6,-893.9 -668.7,1904.8 	"/>
	<polyline class="st8" points="-622.9,1907 203.4,-891.6 195.7,-893.9 -630.6,1904.8 	"/>
	<polyline class="st8" points="-587.1,1907 239.2,-891.6 231.5,-893.9 -594.8,1904.8 	"/>
	<polyline class="st8" points="-549,1907 277.3,-891.6 269.6,-893.9 -556.7,1904.8 	"/>
	<polyline class="st8" points="-507.5,1907 318.8,-891.6 311.1,-893.9 -515.2,1904.8 	"/>
	<polyline class="st8" points="-469.4,1907 356.9,-891.6 349.3,-893.9 -477,1904.8 	"/>
	<polyline class="st8" points="-426.5,1907 399.8,-891.6 392.1,-893.9 -434.2,1904.8 	"/>
	<polyline class="st8" points="-388.4,1907 437.9,-891.6 430.2,-893.9 -396,1904.8 	"/>
	<polyline class="st8" points="-346.9,1907 479.4,-891.6 471.7,-893.9 -354.6,1904.8 	"/>
	<polyline class="st8" points="-308.8,1907 517.5,-891.6 509.9,-893.9 -316.4,1904.8 	"/>
	<polyline class="st8" points="-272.9,1907 553.3,-891.6 545.7,-893.9 -280.6,1904.8 	"/>
	<polyline class="st8" points="-234.8,1907 591.5,-891.6 583.8,-893.9 -242.5,1904.8 	"/>
	<polyline class="st8" points="-193.3,1907 633,-891.6 625.3,-893.9 -201,1904.8 	"/>
	<polyline class="st8" points="-155.2,1907 671.1,-891.6 663.4,-893.9 -162.9,1904.8 	"/>
</g>
</svg>
