<?xml version="1.0" encoding="utf-8"?>
<!-- Generator: Adobe Illustrator 20.1.0, SVG Export Plug-In . SVG Version: 6.00 Build 0)  -->
<svg version="1.1" id="Layer_1" xmlns="http://www.w3.org/2000/svg" xmlns:xlink="http://www.w3.org/1999/xlink" x="0px" y="0px"
	 viewBox="0 0 302 169" style="enable-background:new 0 0 302 169;" xml:space="preserve">
<style type="text/css">
	.st0{clip-path:url(#SVGID_2_);}
	.st1{fill:none;stroke:#000000;stroke-width:6;}
</style>
<g>
	<defs>
		<ellipse id="SVGID_1_" cx="151.6" cy="84.5" rx="150.4" ry="51.3"/>
	</defs>
	<clipPath id="SVGID_2_">
		<use xlink:href="#SVGID_1_"  style="overflow:visible;"/>
	</clipPath>
	<g transform="translate(8)" class="st0">
		<path class="st1" d="M0,69.2l0.1,37.4"/>
		<path class="st1" d="M19.7,40.4l-1.8,95.8"/>
		<path class="st1" d="M39.5,23l-2.6,128.1"/>
		<path class="st1" d="M57.9,9.9l-2.3,148.5"/>
		<path class="st1" d="M77.6,2.4l-2.9,155.3"/>
		<path class="st1" d="M95.4-4.4l-2.3,162.8"/>
		<path class="st1" d="M114.5-8.9l-2.3,166.4"/>
		<path class="st1" d="M133-9.3L130.7,157"/>
		<path class="st1" d="M151.3-9.4l-2,164.3"/>
		<path class="st1" d="M169.1-6l-1.4,159.1"/>
		<path class="st1" d="M188.5-1.5l-1.1,151.1"/>
		<path class="st1" d="M207,4.3l-1.4,139.8"/>
		<path class="st1" d="M226.3,10l-1.1,130.4"/>
		<path class="st1" d="M245,17.5l-0.8,117.8"/>
		<path class="st1" d="M263.9,32.8l-0.5,89"/>
		<path class="st1" d="M282.1,55.1l-0.3,47.5"/>
	</g>
</g>
</svg>
