<?xml version="1.0" encoding="utf-8"?>
<!-- Generator: Adobe Illustrator 20.1.0, SVG Export Plug-In . SVG Version: 6.00 Build 0)  -->
<svg version="1.1" id="Layer_1" xmlns="http://www.w3.org/2000/svg" xmlns:xlink="http://www.w3.org/1999/xlink" x="0px" y="0px"
	 viewBox="0 0 106 62.8" style="enable-background:new 0 0 106 62.8;" xml:space="preserve">
<style type="text/css">
	.st0{fill:#E2C7CF;stroke:#000000;stroke-miterlimit:10;}
	.st1{fill:#231F20;}
</style>
<path class="st0" d="M102.7,54.2L5.6,60L2.9,8.3L100,2.5L86.2,31.3L102.7,54.2z"/>
<g>
	<path class="st1" d="M11.4,27.2l-0.6-8.4l3.8-0.3l0.5,8.1c0.1,1.2,0.9,1.9,2.1,1.8s1.9-0.9,1.9-2.1l-0.5-8l3.7-0.2l0.6,8.4
		c0.2,3.1-1.9,5.2-5.4,5.4C13.9,32.1,11.6,30.3,11.4,27.2z"/>
	<path class="st1" d="M33.8,23.9l0.4,6.5l-3.5,0.2l-0.4-5.2c-0.1-0.8-0.4-1.2-1.1-1.1c-0.3,0-0.6,0.1-1,0.3l0.4,6.2L25,31l-0.6-9.3
		l3.1-0.2l0.3,1.8h0.1c0.5-1.5,1.7-2.2,2.7-2.2C32.3,20.9,33.6,21.8,33.8,23.9z"/>
	<path class="st1" d="M45.8,25.7c0.2,2.4-1.8,4.1-4.3,4.2l-5.2,0.3l-0.9-13.1l4.9-0.3c2.4-0.2,4,1.2,4.1,3.2
		c0.1,0.9-0.5,1.9-1.3,2.5C44.7,23.1,45.7,24.2,45.8,25.7z M39.4,19.7l0.2,2.2h0.7c0.7,0,1.1-0.5,1.1-1.2c0-0.6-0.5-1.1-1.2-1H39.4z
		 M40.9,27.2c1-0.1,1.5-0.5,1.4-1.4s-0.6-1.3-1.6-1.2l-1,0.1l0.2,2.6L40.9,27.2z"/>
	<path class="st1" d="M47.1,24.9c-0.2-3,1.7-5.1,4.7-5.3s5.1,1.7,5.3,4.6c0.2,3-1.7,5.1-4.7,5.3S47.3,27.8,47.1,24.9z M53.7,24.4
		c-0.1-1.3-0.8-2-1.8-2c-1,0.1-1.6,0.9-1.5,2.2s0.8,2,1.8,2C53.2,26.5,53.8,25.7,53.7,24.4z"/>
	<path class="st1" d="M64.8,28.4l-1.5-2.3l-1.2,2.4l-3.9,0.3l2.6-4.9l-3.2-4.4l4.1-0.3l1.5,2.2l1.1-2.3l3.9-0.3l-2.6,4.8l3.2,4.5
		L64.8,28.4z"/>
	<path class="st1" d="M16.2,40.3l0.1,2.2l3.6-0.2l0.2,3l-3.5,0.2l0.3,4.8l-3.7,0.3l-0.9-13.1l7.8-0.5l0.2,3L16.2,40.3z"/>
	<path class="st1" d="M31.6,45.5l-5.9,0.4c0.3,0.9,1.1,1.2,2.7,1.1c1.2-0.1,1.9-0.3,2.7-0.7l0.2,2.6c-0.9,0.5-2,0.8-3.4,0.9
		c-3.3,0.2-5.4-2-5.6-4.4c-0.2-3,1.5-5.3,4.7-5.5c2.4-0.2,4.3,1.5,4.5,4.6L31.6,45.5z M28.4,43.7c-0.1-0.8-0.4-1.4-1.3-1.3
		c-0.8,0.1-1.3,0.7-1.5,1.5L28.4,43.7z"/>
	<path class="st1" d="M33.7,48.9l-0.2-2.7c0.8,0.4,2.1,0.6,3.1,0.5c0.5,0,0.8-0.2,0.7-0.5c-0.1-1.3-3.7,0.1-3.9-3.5
		c-0.1-1.8,1.2-3.3,3.6-3.5c0.8-0.1,2,0,2.6,0.2l0.2,2.6c-0.6-0.1-1.5-0.3-2.3-0.2c-0.7,0-0.9,0.2-0.8,0.6c0.1,1,3.6-0.2,3.9,3.3
		c0.2,2.3-1.7,3.4-3.6,3.5C35.9,49.4,34.7,49.2,33.7,48.9z"/>
	<path class="st1" d="M48.3,45.4l0.2,2.8c-0.5,0.2-1,0.3-1.8,0.4c-2.2,0.1-3.6-1.1-3.7-2.9l-0.3-3.6l-1.1,0.1l-0.2-2.9l1.1-0.1
		l-0.2-2.5l3.5-0.6L46,39l1.7-0.1l0.2,2.9l-1.7,0.1l0.2,2.5c0.1,1,0.4,1.2,1,1.2C47.8,45.5,48,45.5,48.3,45.4z"/>
	<path class="st1" d="M49.1,35.5c-0.1-0.8,1-2.1,1.8-2.1c0.8-0.1,2,1,2.1,1.9s-1,2.1-1.8,2.1S49.2,36.4,49.1,35.5z M49.6,38.8
		l3.5-0.2l0.6,9.3l-3.5,0.2L49.6,38.8z"/>
	<path class="st1" d="M64.1,37.8l-2.8,9.6l-2.9,0.2l-4.1-9.1l3.3-0.2l1.2,2.5c0.4,0.8,0.6,1.4,0.8,2.5c0.1-1.2,0.3-1.7,0.6-2.6
		l0.7-2.6L64.1,37.8z"/>
	<path class="st1" d="M74.6,44.1l0.2,2.3c-0.3,0.2-0.6,0.2-1.1,0.3c-1.3,0.1-2.3-0.6-2.4-1.6h-0.1c-0.3,1.4-1.5,2-2.6,2.1
		c-1.8,0.1-3-1.2-3.1-2.7c-0.1-1.7,0.6-2.8,2-3.2l2.8-0.8c-0.1-0.5-0.6-0.8-1.4-0.7c-1.2,0.1-2.4,0.5-3.1,0.9L65.6,38
		c0.9-0.5,2.4-0.8,3.9-0.9c2.7-0.2,4.2,0.9,4.4,3.6l0.2,3C74.1,44,74.3,44.2,74.6,44.1C74.4,44.2,74.5,44.2,74.6,44.1z M70.5,44.2
		l-0.1-1.7L69,42.8c-0.1,0-0.4,0.3-0.3,0.9c0,0.5,0.3,0.8,0.9,0.8C70,44.5,70.3,44.3,70.5,44.2z"/>
	<path class="st1" d="M80.8,43.2L81,46c-0.4,0.2-0.9,0.3-1.6,0.4c-2,0.1-3.1-0.9-3.2-2.7l-0.7-10.6l3.5-0.7l0.7,10.2
		c0,0.6,0.3,0.8,0.8,0.8C80.5,43.3,80.6,43.3,80.8,43.2z"/>
</g>
</svg>
