<?xml version="1.0" encoding="utf-8"?>
<!-- Generator: Adobe Illustrator 20.1.0, SVG Export Plug-In . SVG Version: 6.00 Build 0)  -->
<svg version="1.1" id="Layer_1" xmlns="http://www.w3.org/2000/svg" xmlns:xlink="http://www.w3.org/1999/xlink" x="0px" y="0px"
	 viewBox="0 0 50.1 9.9" style="enable-background:new 0 0 50.1 9.9;" xml:space="preserve">
<style type="text/css">
	.st0{clip-path:url(#SVGID_2_);}
	.st1{clip-path:url(#SVGID_4_);}
	.st2{fill:none;stroke:#231F20;stroke-width:1.588;}
	.st3{clip-path:url(#SVGID_6_);}
</style>
<g>
	<g>
		<defs>
			<path id="SVGID_1_" d="M0,3.7c1,3.1,0.3,3.8,3.9,5.1c2.4,0.8,5,1,7.5,1.1c6.2,0,11.5,0.1,17.3-0.4c3.3-0.3,6.7,0.2,10-0.2
				c2.8-0.4,6.5,0.1,9.1-0.8c6.5-2.3-2.5-5.6-5.6-5.9c-5.9-0.6-11.6-1.3-17.7-1.3c-4.7,0-21.8-2.4-23.7,3.1"/>
		</defs>
		<clipPath id="SVGID_2_">
			<use xlink:href="#SVGID_1_"  style="overflow:visible;"/>
		</clipPath>
		<g class="st0">
			<g>
				<defs>
					
						<rect id="SVGID_3_" x="39.2" y="-11.6" transform="matrix(0.2757 -0.9613 0.9613 0.2757 33.8471 70.2651)" width="48.6" height="48.6"/>
				</defs>
				<clipPath id="SVGID_4_">
					<use xlink:href="#SVGID_3_"  style="overflow:visible;"/>
				</clipPath>
				<g class="st1">
					<line class="st2" x1="35.9" y1="29.9" x2="22.4" y2="76.9"/>
					<line class="st2" x1="45.2" y1="32.5" x2="31.7" y2="79.6"/>
					<line class="st2" x1="54.6" y1="35.2" x2="41.1" y2="82.3"/>
					<line class="st2" x1="63.9" y1="37.9" x2="50.4" y2="85"/>
					<line class="st2" x1="73.3" y1="40.6" x2="59.8" y2="87.7"/>
					<line class="st2" x1="40.5" y1="31.2" x2="27" y2="78.3"/>
					<line class="st2" x1="49.9" y1="33.9" x2="36.4" y2="81"/>
					<line class="st2" x1="59.2" y1="36.6" x2="45.7" y2="83.6"/>
					<line class="st2" x1="68.6" y1="39.2" x2="55.1" y2="86.3"/>
					<line class="st2" x1="77.9" y1="41.9" x2="64.4" y2="89"/>
				</g>
				<g class="st1">
					<line class="st2" x1="49.3" y1="-16.9" x2="35.8" y2="30.2"/>
					<line class="st2" x1="58.6" y1="-14.2" x2="45.1" y2="32.9"/>
					<line class="st2" x1="68" y1="-11.5" x2="54.5" y2="35.5"/>
					<line class="st2" x1="77.3" y1="-8.9" x2="63.8" y2="38.2"/>
					<line class="st2" x1="86.7" y1="-6.2" x2="73.2" y2="40.9"/>
					<line class="st2" x1="53.9" y1="-15.6" x2="40.4" y2="31.5"/>
					<line class="st2" x1="63.3" y1="-12.9" x2="49.8" y2="34.2"/>
					<line class="st2" x1="72.6" y1="-10.2" x2="59.1" y2="36.9"/>
					<line class="st2" x1="82" y1="-7.5" x2="68.5" y2="39.6"/>
					<line class="st2" x1="91.3" y1="-4.8" x2="77.8" y2="42.2"/>
				</g>
				<g class="st1">
					<line class="st2" x1="62.7" y1="-63.7" x2="49.2" y2="-16.6"/>
					<line class="st2" x1="72" y1="-61" x2="58.5" y2="-13.9"/>
					<line class="st2" x1="81.4" y1="-58.3" x2="67.9" y2="-11.2"/>
					<line class="st2" x1="90.7" y1="-55.6" x2="77.2" y2="-8.5"/>
					<line class="st2" x1="100.1" y1="-52.9" x2="86.6" y2="-5.8"/>
					<line class="st2" x1="67.3" y1="-62.3" x2="53.8" y2="-15.2"/>
					<line class="st2" x1="76.7" y1="-59.6" x2="63.2" y2="-12.6"/>
					<line class="st2" x1="86" y1="-56.9" x2="72.5" y2="-9.9"/>
					<line class="st2" x1="95.4" y1="-54.3" x2="81.9" y2="-7.2"/>
					<line class="st2" x1="104.7" y1="-51.6" x2="91.2" y2="-4.5"/>
				</g>
			</g>
		</g>
		<g class="st0">
			<g>
				<defs>
					
						<rect id="SVGID_5_" x="-7.5" y="-25.1" transform="matrix(0.2757 -0.9613 0.9613 0.2757 12.8702 15.6124)" width="48.6" height="48.6"/>
				</defs>
				<clipPath id="SVGID_6_">
					<use xlink:href="#SVGID_5_"  style="overflow:visible;"/>
				</clipPath>
				<g class="st3">
					<line class="st2" x1="-10.9" y1="16.4" x2="-24.4" y2="63.5"/>
					<line class="st2" x1="-1.6" y1="19.1" x2="-15.1" y2="66.2"/>
					<line class="st2" x1="7.8" y1="21.8" x2="-5.7" y2="68.9"/>
					<line class="st2" x1="17.2" y1="24.5" x2="3.7" y2="71.6"/>
					<line class="st2" x1="26.5" y1="27.2" x2="13" y2="74.2"/>
					<line class="st2" x1="-6.2" y1="17.8" x2="-19.7" y2="64.9"/>
					<line class="st2" x1="3.1" y1="20.5" x2="-10.4" y2="67.6"/>
					<line class="st2" x1="12.5" y1="23.1" x2="-1" y2="70.2"/>
					<line class="st2" x1="21.8" y1="25.8" x2="8.3" y2="72.9"/>
					<line class="st2" x1="31.2" y1="28.5" x2="17.7" y2="75.6"/>
				</g>
				<g class="st3">
					<line class="st2" x1="2.5" y1="-30.3" x2="-11" y2="16.8"/>
					<line class="st2" x1="11.9" y1="-27.6" x2="-1.6" y2="19.5"/>
					<line class="st2" x1="21.2" y1="-24.9" x2="7.7" y2="22.1"/>
					<line class="st2" x1="30.6" y1="-22.3" x2="17.1" y2="24.8"/>
					<line class="st2" x1="39.9" y1="-19.6" x2="26.4" y2="27.5"/>
					<line class="st2" x1="7.2" y1="-29" x2="-6.3" y2="18.1"/>
					<line class="st2" x1="16.5" y1="-26.3" x2="3" y2="20.8"/>
					<line class="st2" x1="25.9" y1="-23.6" x2="12.4" y2="23.5"/>
					<line class="st2" x1="35.2" y1="-20.9" x2="21.7" y2="26.2"/>
					<line class="st2" x1="44.6" y1="-18.2" x2="31.1" y2="28.8"/>
				</g>
				<g class="st3">
					<line class="st2" x1="15.9" y1="-77.1" x2="2.4" y2="-30"/>
					<line class="st2" x1="25.3" y1="-74.4" x2="11.8" y2="-27.3"/>
					<line class="st2" x1="34.6" y1="-71.7" x2="21.1" y2="-24.6"/>
					<line class="st2" x1="44" y1="-69" x2="30.5" y2="-21.9"/>
					<line class="st2" x1="53.3" y1="-66.3" x2="39.8" y2="-19.3"/>
					<line class="st2" x1="20.6" y1="-75.7" x2="7.1" y2="-28.6"/>
					<line class="st2" x1="29.9" y1="-73" x2="16.4" y2="-26"/>
					<line class="st2" x1="39.3" y1="-70.4" x2="25.8" y2="-23.3"/>
					<line class="st2" x1="48.6" y1="-67.7" x2="35.1" y2="-20.6"/>
					<line class="st2" x1="58" y1="-65" x2="44.5" y2="-17.9"/>
				</g>
			</g>
		</g>
	</g>
</g>
</svg>
